<svg width="107" height="38" viewBox="0 0 107 38" fill="none" xmlns="http://www.w3.org/2000/svg">
<path d="M5.635 25.9645C5.19857 26.1695 4.71619 26.2834 4.18788 26.2834C3.49877 26.2834 2.90155 26.1011 2.35027 25.7367C1.79898 25.3722 1.36255 24.8711 1.04097 24.256C0.719385 23.6182 0.558594 22.9121 0.558594 22.1148C0.558593 21.3175 0.719385 20.657 1.04097 20.0191C1.36255 19.4041 1.82195 18.903 2.37324 18.5385C2.94749 18.174 3.56768 18.0146 4.27976 18.0146C5.35936 18.0146 6.14034 18.4018 6.66866 19.1991L6.66866 18.2424L8.34548 18.2424L8.34548 26.0328L6.66866 26.0328L6.66866 25.0761C6.41599 25.4405 6.07143 25.7367 5.61203 25.9417L5.635 25.9645ZM3.29204 19.8597C2.94749 20.1103 2.67185 20.4519 2.51106 20.862C2.3273 21.272 2.25839 21.7048 2.25839 22.1831C2.25839 22.6615 2.35027 23.0715 2.51106 23.4815C2.69482 23.8916 2.94749 24.2332 3.29204 24.4838C3.6366 24.7344 4.05006 24.8711 4.53243 24.8711C5.01481 24.8711 5.4053 24.7344 5.74985 24.4838C6.0944 24.2332 6.34707 23.8916 6.53084 23.4815C6.7146 23.0715 6.78351 22.6159 6.78351 22.1604C6.78351 21.7048 6.69163 21.272 6.53084 20.862C6.34707 20.4519 6.0944 20.133 5.74985 19.8825C5.4053 19.6319 4.99183 19.4952 4.50946 19.4952C4.02709 19.4952 3.61362 19.6319 3.26907 19.8825L3.29204 19.8597Z" fill="#242235"/>
<path d="M11.2615 26.0554L11.2615 12.912L12.9384 12.912L12.9384 21.0896L15.6718 18.2422L17.8769 18.2422L14.2936 21.7046L18.1756 26.0326L15.9245 26.0326L12.9613 22.4791L12.9613 26.0326L11.2845 26.0326L11.2615 26.0554Z" fill="#242235"/>
<path d="M27.3871 22.7752C27.3871 23.5269 27.2492 24.142 26.9966 24.6659C26.7209 25.1898 26.3304 25.577 25.8251 25.8504C25.3198 26.1237 24.6996 26.2604 23.9875 26.2604C23.2754 26.2604 22.6782 26.1237 22.1499 25.8504C21.6216 25.577 21.254 25.1898 21.0014 24.6659C20.7487 24.142 20.6109 23.5042 20.6109 22.7524L20.6109 18.2422L22.2877 18.2422L22.2877 22.0919C22.2877 22.8436 22.4025 23.4814 22.6322 23.9825C22.8619 24.4836 23.3213 24.7342 23.9875 24.7342C24.5847 24.7342 25.0441 24.5292 25.3198 24.0964C25.5954 23.6636 25.7332 23.003 25.7332 22.0919L25.7332 18.2422L27.41 18.2422L27.41 22.7524L27.3871 22.7752Z" fill="#242235"/>
<path d="M30.1895 18.265L31.8434 18.265L31.8434 19.2673C32.1879 18.8345 32.5325 18.5384 32.8541 18.3561C33.1756 18.1739 33.5891 18.0828 34.0715 18.0828C34.9214 18.0828 35.5875 18.3561 36.0699 18.88C36.5522 19.4267 36.8049 20.1557 36.8049 21.1124L36.8049 26.0554L35.1281 26.0554L35.1281 21.568C35.1281 20.9529 34.9903 20.4974 34.7376 20.1557C34.4849 19.814 34.0944 19.6545 33.6121 19.6545C33.0838 19.6545 32.6473 19.8823 32.3487 20.3151C32.0271 20.7479 31.8663 21.3402 31.8663 22.0691L31.8663 26.0326L30.2125 26.0326L30.2125 18.2422L30.1895 18.265Z" fill="#242235"/>
<path d="M44.4996 25.9645C44.0632 26.1695 43.5808 26.2834 43.0525 26.2834C42.3634 26.2834 41.7661 26.1011 41.2149 25.7367C40.6636 25.3722 40.2271 24.8711 39.9056 24.256C39.584 23.6182 39.4232 22.9121 39.4232 22.1148C39.4232 21.3175 39.584 20.657 39.9056 20.0191C40.2271 19.4041 40.6865 18.903 41.2378 18.5385C41.8121 18.174 42.4323 18.0146 43.1444 18.0146C44.224 18.0146 45.0049 18.4018 45.5332 19.1991L45.5332 18.2424L47.2101 18.2424L47.2101 26.0328L45.5332 26.0328L45.5332 25.0761C45.2806 25.4405 44.936 25.7367 44.4766 25.9417L44.4996 25.9645ZM42.1566 19.8597C41.8121 20.1103 41.5364 20.4519 41.3757 20.862C41.1919 21.272 41.123 21.7048 41.123 22.1831C41.123 22.6615 41.2149 23.0715 41.3757 23.4815C41.5594 23.8916 41.8121 24.2332 42.1566 24.4838C42.5012 24.7344 42.9146 24.8711 43.397 24.8711C43.8794 24.8711 44.2699 24.7344 44.6144 24.4838C44.959 24.2332 45.2117 23.8916 45.3954 23.4815C45.5792 23.0715 45.6481 22.6159 45.6481 22.1604C45.6481 21.7048 45.5562 21.272 45.3954 20.862C45.2117 20.4519 44.959 20.133 44.6144 19.8825C44.2699 19.6319 43.8564 19.4952 43.3741 19.4952C42.8917 19.4952 42.4782 19.6319 42.1337 19.8825L42.1566 19.8597Z" fill="#242235"/>
<path opacity="0.7" d="M52.6555 37.24L52.6555 0.292481C52.6555 0.292481 40.734 9.79131 52.0123 21.9097C63.1758 33.8915 52.6555 37.24 52.6555 37.24V37.24Z" fill="#242235"/>
<g opacity="0.9">
<path d="M60.7841 26.3287C60.049 26.3287 59.3829 26.1464 58.7857 25.8047C58.1884 25.4631 57.729 24.9619 57.4074 24.3469C57.0629 23.7319 56.9021 23.0257 56.9021 22.2512C56.9021 21.6362 57.0169 21.0667 57.2467 20.5428C57.4764 20.0189 57.7979 19.5861 58.2114 19.1988C58.6249 18.8116 59.0843 18.5383 59.5896 18.3332C60.1179 18.1282 60.6462 18.0371 61.1975 18.0371C62.0015 18.0371 62.7595 18.2421 63.4256 18.6522L63.4256 20.6111C62.7825 19.9506 62.0244 19.6316 61.1516 19.6316C60.4625 19.6316 59.8882 19.8594 59.4058 20.2922C58.9235 20.725 58.6708 21.3401 58.6708 22.1373C58.6708 22.6612 58.7627 23.1396 58.9464 23.5268C59.1302 23.9141 59.4058 24.2102 59.7734 24.438C60.1409 24.643 60.5544 24.7341 61.0367 24.7341C61.8637 24.7341 62.6446 24.3924 63.4027 23.7091L63.4027 25.6909C62.4838 26.1237 61.611 26.3514 60.7841 26.3514L60.7841 26.3287Z" fill="#242235"/>
<path d="M70.4309 25.9642C69.9944 26.1692 69.5121 26.2831 68.9838 26.2831C68.2946 26.2831 67.6974 26.1008 67.1461 25.7364C66.5949 25.3719 66.1584 24.8708 65.8368 24.2558C65.5153 23.6179 65.3545 22.9118 65.3545 22.1145C65.3545 21.3173 65.5153 20.6567 65.8368 20.0189C66.1584 19.4038 66.6178 18.9027 67.1691 18.5382C67.7434 18.1738 68.3636 18.0143 69.0756 18.0143C70.1552 18.0143 70.9362 18.4016 71.4645 19.1988L71.4645 18.2421L73.1413 18.2421L73.1414 26.0325L71.4645 26.0325L71.4645 25.0758C71.2119 25.4403 70.8673 25.7364 70.4079 25.9414L70.4309 25.9642ZM68.0879 19.8594C67.7434 20.11 67.4677 20.4517 67.3069 20.8617C67.1232 21.2717 67.0543 21.7045 67.0543 22.1829C67.0543 22.6612 67.1461 23.0712 67.3069 23.4813C67.4907 23.8913 67.7434 24.233 68.0879 24.4835C68.4325 24.7341 68.8459 24.8708 69.3283 24.8708C69.8107 24.8708 70.2012 24.7341 70.5457 24.4835C70.8903 24.233 71.1429 23.8913 71.3267 23.4813C71.5105 23.0712 71.5794 22.6157 71.5794 22.1601C71.5794 21.7045 71.4875 21.2717 71.3267 20.8617C71.1429 20.4517 70.8903 20.1328 70.5457 19.8822C70.2012 19.6316 69.7877 19.495 69.3053 19.495C68.823 19.495 68.4095 19.6316 68.0649 19.8822L68.0879 19.8594Z" fill="#242235"/>
<path d="M75.6211 29.7683L75.6211 18.2649L77.2979 18.2649L77.2979 19.2216C77.8721 18.4244 78.6761 18.0371 79.7327 18.0371C80.5137 18.0371 81.1798 18.2421 81.7311 18.6294C82.2824 19.0166 82.7188 19.5405 82.9945 20.1783C83.2701 20.8161 83.4079 21.4995 83.4079 22.2057C83.4079 22.9118 83.2701 23.5724 82.9945 24.1874C82.7188 24.8025 82.3054 25.3036 81.7771 25.6908C81.2258 26.0781 80.5826 26.2603 79.8016 26.2603C78.768 26.2603 77.9181 25.8731 77.2979 25.0986L77.2979 29.7683L75.6211 29.7683V29.7683ZM79.503 19.5177C78.7909 19.5177 78.2167 19.7911 77.8032 20.315C77.3898 20.8389 77.183 21.4767 77.183 22.2057C77.183 22.6612 77.2749 23.094 77.4357 23.5041C77.6195 23.9141 77.8721 24.2558 78.1937 24.5063C78.5383 24.7569 78.9517 24.8936 79.4111 24.8936C79.8705 24.8936 80.3299 24.7569 80.6745 24.5063C81.0191 24.2558 81.2947 23.9141 81.4555 23.4813C81.6392 23.0713 81.7082 22.6157 81.7082 22.1601C81.7082 21.7045 81.6163 21.2945 81.4555 20.8845C81.2947 20.4745 81.042 20.1556 80.6975 19.905C80.3529 19.6544 79.9394 19.5405 79.4571 19.5405L79.503 19.5177Z" fill="#242235"/>
<path d="M87.2011 13.8002C87.3848 14.0052 87.4767 14.2558 87.4767 14.5519C87.4767 14.848 87.3848 15.0986 87.2011 15.3036C87.0173 15.5086 86.7647 15.6225 86.4431 15.6225C86.1215 15.6225 85.8458 15.5086 85.6621 15.3036C85.4783 15.0986 85.3864 14.848 85.3864 14.5519C85.3864 14.2558 85.4783 14.0052 85.6621 13.8002C85.8458 13.5952 86.1215 13.4813 86.4431 13.4813C86.7647 13.4813 87.0173 13.5952 87.2011 13.8002ZM85.5932 18.2649L87.247 18.2649L87.247 26.0553L85.5932 26.0553L85.5932 18.2649Z" fill="#242235"/>
<path d="M89.2889 18.2649L90.4604 18.2649L90.4604 15.258L92.1372 15.258L92.1372 18.2649L93.6533 18.2649L93.6533 19.6316L92.1372 19.6316L92.1372 26.0553L90.4604 26.0553L90.4604 19.6316L89.2889 19.6316L89.2889 18.2649Z" fill="#242235"/>
<path d="M100.202 25.9642C99.7654 26.1692 99.283 26.2831 98.7547 26.2831C98.0656 26.2831 97.4684 26.1008 96.9171 25.7364C96.3658 25.3719 95.9294 24.8708 95.6078 24.2558C95.2862 23.6179 95.1254 22.9118 95.1254 22.1145C95.1254 21.3173 95.2862 20.6567 95.6078 20.0189C95.9294 19.4038 96.3888 18.9027 96.9401 18.5382C97.5143 18.1738 98.1345 18.0143 98.8466 18.0143C99.9262 18.0143 100.707 18.4016 101.235 19.1988L101.235 18.2421L102.912 18.2421L102.912 26.0325L101.235 26.0325L101.235 25.0758C100.983 25.4403 100.638 25.7364 100.179 25.9414L100.202 25.9642ZM97.8589 19.8594C97.5143 20.11 97.2387 20.4517 97.0779 20.8617C96.8941 21.2717 96.8252 21.7045 96.8252 22.1829C96.8252 22.6612 96.9171 23.0712 97.0779 23.4813C97.2617 23.8913 97.5143 24.233 97.8589 24.4835C98.2034 24.7341 98.6169 24.8708 99.0993 24.8708C99.5816 24.8708 99.9721 24.7341 100.317 24.4835C100.661 24.233 100.914 23.8913 101.098 23.4813C101.281 23.0712 101.35 22.6157 101.35 22.1601C101.35 21.7045 101.258 21.2717 101.098 20.8617C100.914 20.4517 100.661 20.1328 100.317 19.8822C99.9721 19.6316 99.5587 19.495 99.0763 19.495C98.5939 19.495 98.1805 19.6316 97.8359 19.8822L97.8589 19.8594Z" fill="#242235"/>
<path d="M105.345 26.0553L105.345 12.9118L106.999 12.9118L106.999 26.0553L105.345 26.0553Z" fill="#242235"/>
</g>
</svg>
