<svg width="136" height="32" viewBox="0 0 136 32" fill="none" xmlns="http://www.w3.org/2000/svg">
<g clip-path="url(#clip0_12785_6208)">
<mask id="mask0_12785_6208" style="mask-type:luminance" maskUnits="userSpaceOnUse" x="0" y="0" width="33" height="32">
<path d="M32.2153 0.317749H0.85083V31.6823H32.2153V0.317749Z" fill="white"/>
</mask>
<g mask="url(#mask0_12785_6208)">
<path d="M31.2953 16.3328C31.2953 24.3032 24.834 30.7643 16.8637 30.7643C8.89337 30.7643 2.43213 24.3032 2.43213 16.3328C2.43213 8.36248 8.89337 1.90125 16.8637 1.90125C24.834 1.90125 31.2953 8.36248 31.2953 16.3328Z" stroke="#E6DAFE" stroke-width="1.11459"/>
<mask id="mask1_12785_6208" style="mask-type:alpha" maskUnits="userSpaceOnUse" x="1" y="1" width="31" height="31">
<path d="M30.0676 16.3329C30.0676 23.6249 24.1561 29.5363 16.8641 29.5363C9.57199 29.5363 3.66064 23.6249 3.66064 16.3329C3.66064 9.04079 9.57199 3.12939 16.8641 3.12939C24.1561 3.12939 30.0676 9.04079 30.0676 16.3329Z" fill="#31C77F" stroke="#31C77F" stroke-width="3.71531"/>
</mask>
<g mask="url(#mask1_12785_6208)">
<path d="M10.4478 30.1371C10.5595 29.0473 11.9266 27.0253 11.8674 25.9355C11.8608 25.7517 11.8674 25.5678 11.8937 25.3841C12.0054 24.6159 11.9726 23.8478 11.9134 23.0863C11.8871 22.7712 11.9134 22.4627 11.966 22.1475C12.0777 21.4714 12.1434 20.8017 12.0646 20.1124C11.9923 19.4625 12.0711 18.8125 12.2026 18.1757C12.3143 17.6374 12.3012 17.0991 12.2158 16.5607C12.1961 16.4426 12.1763 16.3178 12.1961 16.2062C12.2683 15.8058 12.3078 15.3988 12.3209 14.9457C12.7087 15.2871 13.1227 15.3068 13.5631 15.2083C13.9246 15.1295 14.1414 14.8933 14.2861 14.5715C14.3321 14.4665 14.3518 14.3352 14.5292 14.3746C14.6147 14.3943 14.7132 14.3811 14.7264 14.263C14.7396 14.1514 14.6541 14.1186 14.5621 14.0989C14.0166 13.9741 13.4645 13.8428 12.919 13.7247C12.7415 13.6853 12.5575 13.6393 12.3801 13.6196C12.2223 13.5999 12.1894 13.5277 12.2026 13.3832C12.2814 12.7137 12.4064 12.0571 12.6759 11.4335C12.9387 10.8295 13.2739 10.2584 13.7537 9.79226C13.8128 9.73319 13.8851 9.6675 13.8457 9.56905C13.8063 9.47051 13.7274 9.44429 13.6353 9.47713C13.5368 9.50998 13.4973 9.45744 13.4513 9.39175C13.3593 9.24739 13.2607 9.10294 13.1753 8.95192C12.8862 8.47925 12.5378 8.05252 12.1894 7.61923C12.1171 7.52733 12.0251 7.44855 11.9266 7.37633C11.6308 7.16625 11.3679 7.28442 11.335 7.65206C11.3088 7.8884 11.3285 8.1313 11.414 8.35451C11.7228 9.13578 11.9594 9.94978 12.4064 10.6719C12.5181 10.8558 12.3604 10.9411 12.3012 11.0724C12.1894 10.9936 12.1303 10.882 12.0778 10.7836C11.4665 9.70688 10.9539 8.59085 10.7369 7.35663C10.6778 7.03496 10.6778 6.7067 10.6909 6.38502C10.7107 6.03051 10.8684 5.9386 11.2102 6.02395C11.46 6.08959 11.6505 6.24716 11.8346 6.41784C12.4589 6.99556 12.9913 7.64549 13.5565 8.27573C13.7077 8.44642 13.8588 8.61711 14.0034 8.78779C14.0954 8.89284 14.1809 8.99132 14.1941 9.14885C14.2071 9.32615 14.3321 9.37868 14.4964 9.31299C14.5358 9.29984 14.5752 9.28015 14.6147 9.25392C14.8907 9.06356 15.1997 8.99788 15.5282 8.94536C16.4286 8.78123 17.3159 8.84688 18.2032 9.03071C18.3412 9.06356 18.4596 9.13578 18.5844 9.20792C18.8539 9.37206 18.9524 9.33268 19.0313 9.03071C19.051 8.94536 19.1036 8.87314 19.1627 8.80749C19.8923 7.99344 20.5693 7.13342 21.3711 6.38502C21.5485 6.2209 21.726 6.06333 21.9626 5.99112C22.3503 5.86638 22.5146 5.98456 22.541 6.38502C22.587 7.14655 22.4029 7.8687 22.1598 8.57772C21.9166 9.28677 21.5814 9.9564 21.2265 10.6129C21.1476 10.7573 21.049 10.882 20.9504 11.0461C20.6284 10.5669 20.6284 10.5735 20.8716 10.1139C21.1739 9.54936 21.4828 8.99788 21.6932 8.38733C21.7785 8.1313 21.8508 7.8687 21.8443 7.59297C21.8377 7.42228 21.8048 7.27129 21.634 7.18595C21.4697 7.10716 21.3382 7.17938 21.2199 7.27786C21.0754 7.40259 20.9242 7.53389 20.7927 7.67832C20.3392 8.17069 19.8397 8.63024 19.5505 9.24739C19.498 9.36553 19.2942 9.41807 19.373 9.59527C19.4257 9.7135 19.5505 9.78564 19.6294 9.88418C20.096 10.4487 20.4706 11.0658 20.7007 11.7617C20.8453 12.2016 20.9439 12.6612 21.003 13.1206C21.0294 13.357 21.0294 13.357 20.7861 13.4227C20.1881 13.5802 19.5965 13.7378 18.9984 13.8953C18.9459 13.9085 18.8933 13.915 18.8407 13.9413C18.7159 14.0004 18.7027 14.112 18.821 14.1842C18.8999 14.2302 18.9459 14.2564 18.9722 14.3615C19.0707 14.7817 19.3402 15.0508 19.7675 15.1099C20.1946 15.1755 20.5956 15.1033 20.8453 14.6963C20.8584 14.6701 20.865 14.6569 20.911 14.6831C20.8979 15.1689 20.9373 15.6613 21.0294 16.1471C21.049 16.2391 21.0359 16.344 21.0227 16.436C20.8979 17.0531 20.9242 17.6636 21.049 18.2742C21.1805 18.9503 21.2199 19.6266 21.141 20.3093C21.0819 20.8083 21.1279 21.3072 21.2199 21.793C21.3251 22.3444 21.3514 22.8894 21.2922 23.4408C21.2331 24.0054 21.2527 24.5635 21.3119 25.128C21.3514 25.4825 22.8959 26.9596 22.8762 27.3207C23.1719 27.8328 23.5532 28.811 23.9212 29.2836L23.1543 30.4451L17.446 31.4494L12.3209 30.9737L10.4478 30.1371Z" fill="#E6DAFE" fill-opacity="0.7"/>
<path d="M45.9979 17.7032C45.689 17.4669 45.3341 17.2962 44.9858 17.1189C43.8815 16.5609 42.7511 16.0751 41.6207 15.5893C40.5823 15.1429 39.6621 14.5323 38.8931 13.6986C38.7748 13.5739 38.6434 13.4557 38.5119 13.344C38.3476 13.1997 38.1636 13.1865 37.9664 13.285C37.6904 13.4228 37.4144 13.5673 37.1514 13.7314C36.7768 13.9611 36.1458 14.3026 35.745 14.4864C33.6615 15.458 31.5057 16.2458 29.35 17.0336C27.4375 17.736 25.584 18.5698 23.7898 19.5283C23.126 19.8828 22.5213 20.3227 21.9561 20.8085C21.8641 20.8872 21.7721 20.9791 21.68 21.0514C21.6735 21.0448 21.6669 21.0448 21.6603 21.0382C21.634 21.117 21.5749 21.1892 21.496 21.222C21.4632 21.3533 21.3645 21.4649 21.1872 21.4649C21.174 21.4649 21.1608 21.4649 21.1477 21.4649C21.1345 22.2396 21.1608 23.0142 21.2463 23.789C21.2792 24.0712 21.2068 24.2616 21.0097 24.4717C20.0369 25.5089 18.9394 26.3821 17.8155 27.2356C17.7826 27.2618 17.7366 27.2815 17.7103 27.3143C17.6052 27.4719 17.4868 27.4588 17.3291 27.38C17.04 27.2356 16.7507 27.3143 16.4944 27.4653C16.3499 27.5507 16.2447 27.5441 16.1132 27.4785C15.456 27.1436 14.8053 26.8088 14.2007 26.3756C13.3857 25.7979 12.5707 25.2267 11.8543 24.5308C11.7689 24.452 11.7098 24.3667 11.6769 24.2813C11.6638 24.2748 11.644 24.2682 11.6309 24.2616C11.6243 24.2616 11.6243 24.2616 11.6178 24.2551C11.4731 24.196 11.7098 23.9925 11.552 23.9662C11.5191 23.9793 11.4928 23.9859 11.46 23.999C11.4206 24.0384 11.1248 24.0844 10.921 24.2616C10.9079 24.2748 10.8882 24.2879 10.8685 24.301C10.2639 24.7802 10.1126 25.4696 10.4675 26.1524C10.5332 26.277 10.5135 26.3624 10.461 26.474C10.1849 27.0386 10.2112 27.5835 10.6122 28.0824C10.7173 28.2203 10.8159 28.3647 10.9605 28.4698L11.2891 28.6995C11.4797 28.8046 11.7558 28.9096 11.9003 28.949C12.5116 29.1132 13.1293 29.2181 13.7603 29.2445C14.0495 29.2575 14.3452 29.2116 14.6344 29.1854C15.1931 29.1329 15.7583 29.0869 16.3104 29.0081C16.5207 28.9753 16.7179 29.0343 16.915 29.0409C17.0925 29.0475 17.2765 29.0672 17.4211 28.9753C17.7038 28.8046 18.0192 28.798 18.3216 28.7717C18.9919 28.7127 19.6492 28.5617 20.2867 28.3582C20.9374 28.1546 21.588 27.9577 22.2124 27.6688C22.8367 27.38 23.3823 27.0124 23.6978 26.3756C23.7306 26.3165 23.7635 26.277 23.8161 26.2443C24.2959 25.9554 25.078 25.8109 25.5052 25.6337C26.169 25.266 26.8262 24.8984 27.4966 24.5439C28.4431 24.045 29.396 23.5526 30.4213 23.2178C32.1565 22.6401 33.9507 22.3512 35.7581 22.128C36.4219 22.0426 37.0923 21.9901 37.7495 21.8261C38.8866 21.5372 39.9842 21.1433 41.0949 20.7888C41.4629 20.6706 41.8375 20.5524 42.1925 20.3949C43.3032 19.9091 44.368 19.3247 45.4326 18.7536C45.6299 18.6486 45.8204 18.5173 46.0044 18.3794C46.32 18.1299 46.3133 17.9461 45.9979 17.7032Z" fill="#110F23"/>
<path d="M22.91 6.29303C22.8837 5.79409 22.5419 5.52492 22.049 5.6234C21.8255 5.66936 21.6152 5.74813 21.4247 5.886C20.958 6.22737 20.5636 6.64754 20.189 7.08082C19.7487 7.58633 19.3017 8.09183 18.8746 8.61046C18.7431 8.76802 18.6248 8.77459 18.4605 8.70237C18.2041 8.5842 17.9347 8.49229 17.6521 8.47259C16.6662 8.40039 15.6803 8.36756 14.7339 8.73519C14.5368 8.81398 14.4251 8.77458 14.2936 8.61703C13.873 8.11153 13.4392 7.61259 12.9988 7.11365C12.6111 6.6738 12.2167 6.24707 11.7369 5.9057C11.5069 5.74157 11.2572 5.66279 10.9812 5.64966C10.6327 5.63653 10.4027 5.80722 10.3173 6.1486C10.291 6.25363 10.2844 6.36524 10.2844 6.47028C10.2844 7.06769 10.3962 7.65198 10.5145 8.23626C10.6854 9.08312 11.0732 9.8512 11.4083 10.6324C11.5398 10.941 11.7173 11.2298 11.9473 11.4728C12.0327 11.5647 12.0524 11.6435 12.0196 11.7617C11.967 11.9455 11.921 12.1358 11.875 12.3262C11.6909 13.0155 11.6252 13.718 11.7303 14.4205C11.7895 14.7947 11.7764 15.1492 11.7369 15.5168C11.6909 15.9173 11.6778 16.3112 11.7698 16.7117C11.8816 17.1843 11.8553 17.657 11.7369 18.1297C11.6121 18.6286 11.5463 19.1275 11.5726 19.6396C11.6055 20.1845 11.5398 20.7228 11.52 21.2612C11.5135 21.5763 11.52 21.8914 11.4478 22.1999C11.3558 22.5938 11.3623 22.9943 11.4215 23.3947C11.5332 24.176 11.4609 23.7953 11.4938 24.2679C11.6383 24.2679 11.8093 24.7209 11.9604 24.7143C11.9538 24.3467 11.9144 23.4604 11.8816 23.0928C11.8553 22.7777 11.8816 22.4691 11.9341 22.154C12.0458 21.4778 12.1116 20.8081 12.0327 20.1188C11.9604 19.469 12.0393 18.819 12.1707 18.1822C12.2824 17.6439 12.2693 17.1056 12.1839 16.5672C12.1641 16.4491 12.1444 16.3243 12.1641 16.2127C12.2364 15.8122 12.2759 15.4053 12.2891 14.9522C12.6768 15.2936 13.0909 15.3133 13.5312 15.2148C13.8926 15.136 14.1096 14.8997 14.2541 14.578C14.3002 14.4729 14.3199 14.3416 14.4974 14.3811C14.5828 14.4008 14.6814 14.3876 14.6945 14.2695C14.7077 14.1579 14.6222 14.1251 14.5302 14.1054C13.9847 13.9806 13.4326 13.8493 12.8871 13.7312C12.7097 13.6918 12.5256 13.6458 12.3482 13.6261C12.1904 13.6064 12.1576 13.5342 12.1707 13.3897C12.2496 12.7201 12.3744 12.0636 12.6439 11.44C12.9068 10.836 13.242 10.2649 13.7218 9.79876C13.781 9.7396 13.8533 9.674 13.8138 9.57555C13.7744 9.47701 13.6955 9.45078 13.6035 9.48363C13.5049 9.51639 13.4655 9.46394 13.4195 9.39825C13.3275 9.2538 13.2289 9.10943 13.1435 8.95841C12.8542 8.48572 12.5059 8.059 12.1576 7.62572C12.0853 7.5338 11.9933 7.45503 11.8946 7.38282C11.5989 7.17274 11.336 7.2909 11.3032 7.65854C11.2768 7.89488 11.2966 8.13779 11.382 8.36099C11.6909 9.14219 11.9276 9.95628 12.3744 10.6784C12.4862 10.8623 12.3284 10.9476 12.2693 11.0789C12.1576 11.0001 12.0984 10.8885 12.0458 10.79C11.4346 9.71338 10.922 8.59733 10.7051 7.36312C10.6459 7.04143 10.6459 6.71319 10.6591 6.3915C10.6787 6.03699 10.8365 5.94509 11.1783 6.03043C11.428 6.09608 11.6186 6.25363 11.8026 6.42433C12.4271 7.00204 12.9594 7.65198 13.5246 8.28221C13.6758 8.4529 13.827 8.62359 13.9716 8.79428C14.0636 8.89932 14.149 8.99779 14.1621 9.15535C14.1753 9.33264 14.3002 9.38509 14.4644 9.31949C14.5039 9.30633 14.5434 9.28664 14.5828 9.26042C14.8589 9.07005 15.1677 9.00436 15.4963 8.95184C16.3968 8.78771 17.284 8.85337 18.1713 9.03721C18.3093 9.06997 18.4276 9.14219 18.5525 9.21442C18.822 9.37856 18.9206 9.33918 18.9994 9.03721C19.0192 8.95184 19.0717 8.87963 19.1309 8.81398C19.8604 7.99992 20.5374 7.13991 21.3392 6.3915C21.5167 6.22738 21.6941 6.06982 21.9307 5.9976C22.3185 5.87287 22.4828 5.99104 22.5091 6.3915C22.5551 7.15304 22.3711 7.87519 22.1279 8.5842C21.8847 9.29318 21.5495 9.96281 21.1946 10.6194C21.1157 10.7637 21.0172 10.8885 20.9186 11.0526C20.5966 10.5734 20.5966 10.58 20.8397 10.1204C21.142 9.55586 21.4509 9.00436 21.6612 8.39382C21.7467 8.13779 21.819 7.87519 21.8124 7.59946C21.8058 7.42877 21.773 7.27777 21.6021 7.19243C21.4378 7.11365 21.3063 7.18587 21.188 7.28434C21.0434 7.40908 20.8922 7.54037 20.7609 7.68481C20.3073 8.17718 19.8078 8.63672 19.5187 9.2538C19.466 9.37202 19.2623 9.42456 19.3412 9.60177C19.3938 9.71991 19.5187 9.79214 19.5975 9.89067C20.0641 10.4552 20.4388 11.0723 20.6688 11.7682C20.8134 12.2081 20.912 12.6677 20.9712 13.1271C20.9974 13.3635 20.9974 13.3635 20.7542 13.4291C20.1561 13.5867 19.5647 13.7442 18.9666 13.9018C18.914 13.915 18.8614 13.9215 18.8089 13.9478C18.6839 14.0068 18.6708 14.1184 18.7891 14.1907C18.868 14.2367 18.914 14.2629 18.9402 14.368C19.0389 14.7881 19.3083 15.0573 19.7355 15.1163C20.1628 15.182 20.5636 15.1098 20.8134 14.7028C20.8266 14.6765 20.8331 14.6634 20.8791 14.6896C20.866 15.1754 20.9054 15.6678 20.9974 16.1536C21.0172 16.2456 21.004 16.3505 20.9909 16.4425C20.866 17.0596 20.8923 17.6701 21.0172 18.2807C21.1486 18.9568 21.188 19.633 21.1092 20.3158C21.05 20.8148 21.096 21.3137 21.188 21.7995C21.2932 22.3509 21.3195 22.8959 21.2603 23.4473C21.2407 23.6311 21.2275 23.8149 21.2275 23.9988C21.3787 24.0053 21.5298 24.0118 21.681 24.0185C21.6875 23.9266 21.6941 23.8281 21.7073 23.7362C21.7664 23.2109 21.8387 22.6924 21.7401 22.154C21.5955 21.3662 21.6152 20.5587 21.6021 19.7578C21.5955 19.1801 21.5824 18.6155 21.4378 18.0509C21.326 17.6176 21.2932 17.1712 21.3918 16.7314C21.5035 16.2456 21.4904 15.7663 21.4247 15.2805C21.3918 15.0573 21.3457 14.8275 21.4049 14.6043C21.5167 14.1644 21.5035 13.7245 21.4838 13.2781C21.4575 12.7529 21.3129 12.254 21.1815 11.7551C21.142 11.6041 21.1486 11.4991 21.2669 11.3809C21.418 11.2298 21.543 11.0461 21.635 10.8491C22.187 9.72653 22.6799 8.59077 22.8246 7.33686C22.8771 7.00861 22.9297 6.6541 22.91 6.29303Z" fill="#110F23"/>
<path d="M45.6031 18.1102C45.1364 18.3596 44.7223 18.5894 44.3017 18.806C43.5919 19.1737 42.8689 19.5216 42.1394 19.8498C41.7648 20.0205 41.377 20.1518 40.9826 20.27C40.0494 20.5589 39.1227 20.8543 38.196 21.1366C37.335 21.3992 36.4346 21.4911 35.5473 21.6027C34.4168 21.7406 33.293 21.8981 32.1888 22.1673C31.2227 22.4036 30.2565 22.6465 29.3299 23.0207C28.6134 23.3096 27.9365 23.6706 27.2595 24.0252C26.4906 24.4257 25.7413 24.8589 24.9986 25.3053C24.7094 25.4826 24.3808 25.5614 24.0653 25.673C23.9602 25.7059 23.8813 25.6927 23.8419 25.5679C23.7302 25.2331 23.487 25.0034 23.1715 24.8524C23.0532 24.7933 23.0335 24.7145 23.04 24.5898C23.0532 24.406 23.0467 24.2221 22.9809 24.0448C22.902 23.8216 22.7574 23.6773 22.5339 23.6116C22.3236 23.546 22.1133 23.4934 21.8965 23.5197C21.7518 23.5394 21.6993 23.4868 21.6927 23.3555C21.6861 23.2505 21.673 23.1389 21.6665 23.0339C21.6533 22.7516 21.6861 22.4628 21.6335 22.1936C21.5745 21.8653 21.6796 21.6552 21.9228 21.4386C22.7443 20.6968 23.6776 20.1453 24.6634 19.6595C26.7732 18.6156 28.9684 17.7819 31.1767 16.9876C33.1155 16.2916 35.0084 15.4907 36.8552 14.5848C37.2824 14.3746 37.6899 14.1252 38.0974 13.8823C38.2223 13.8101 38.3011 13.8101 38.3931 13.9348C39.1489 14.9196 40.1743 15.5367 41.285 16.0225C42.5075 16.5542 43.7102 17.1254 44.8998 17.7096C45.1233 17.8147 45.3402 17.9592 45.6031 18.1102Z" fill="#E6DAFE"/>
<path d="M10.8685 26.6445C10.9737 26.6904 11.046 26.7168 11.1117 26.743C11.23 26.7889 11.355 26.7955 11.4338 26.6773C11.5193 26.5526 11.4403 26.4542 11.3483 26.3688C11.2432 26.2769 11.138 26.185 11.0329 26.0865C10.6057 25.6926 10.7897 24.977 11.1906 24.7276C11.2892 24.6685 11.3615 24.6422 11.4403 24.7407C11.4601 24.7669 11.4863 24.7866 11.5061 24.8128C12.3342 25.7451 13.3727 26.4213 14.4111 27.0843C14.8843 27.3864 15.3707 27.6752 15.8965 27.8853C16.0279 27.9378 16.0871 28.0035 16.0608 28.1479C16.0345 28.2661 16.0411 28.3842 16.0871 28.5024C16.1331 28.6271 16.0673 28.66 15.9621 28.6665C15.7913 28.6862 15.6204 28.7125 15.443 28.7125C14.7857 28.7256 14.1285 28.8635 13.4713 28.8044C12.8009 28.7387 12.1502 28.5943 11.539 28.2923C11.322 28.1872 11.1315 28.0494 10.9869 27.8525C10.7042 27.4848 10.6977 27.091 10.8685 26.6445Z" fill="#E6DAFE"/>
<path d="M18.4244 28.299C18.3259 28.2859 18.1944 28.3909 18.1024 28.3056C18.0367 28.2399 18.0301 28.1086 17.9906 28.0101C17.9776 27.9708 17.9578 27.9248 17.9316 27.892C17.8395 27.7804 17.9053 27.7213 17.9973 27.6622C18.569 27.3077 19.0751 26.8679 19.6206 26.474C20.2844 25.9816 20.8694 25.4038 21.4215 24.7933C21.5989 24.6029 21.7303 24.3732 21.7173 24.0974C21.7106 23.9858 21.7633 23.9399 21.875 23.953C21.9801 23.9661 22.0918 23.9793 22.197 24.0055C22.5256 24.0843 22.6636 24.36 22.5191 24.6686C22.4599 24.7933 22.3811 24.9115 22.3153 25.0362C22.2693 25.1281 22.2496 25.22 22.3416 25.2989C22.4271 25.371 22.5191 25.3579 22.6111 25.3119C22.6176 25.3054 22.6308 25.3054 22.6374 25.2989C22.7162 25.2594 22.7622 25.1347 22.8411 25.1609C22.9594 25.2003 23.0712 25.2792 23.1697 25.3579C23.4063 25.5483 23.4918 25.7715 23.4063 26.0079C23.3077 26.2705 23.15 26.5067 22.9397 26.7037C22.5256 27.0911 22.0327 27.334 21.5135 27.5178C20.6459 27.8198 19.7783 28.1152 18.8648 28.2662C18.7267 28.2859 18.5822 28.299 18.4244 28.299Z" fill="#E6DAFE"/>
<path d="M12.6409 10.4946C12.3189 10.1795 12.1349 9.81186 11.9968 9.43113C11.826 8.96499 11.6617 8.49888 11.55 8.01307C11.5237 7.90803 11.5171 7.80299 11.5105 7.69138C11.5105 7.61918 11.4973 7.53383 11.5828 7.49444C11.6683 7.46161 11.734 7.51413 11.7865 7.56665C12.0626 7.80956 12.2992 8.09185 12.4898 8.40697C12.7199 8.78117 12.9499 9.15538 13.193 9.52958C13.285 9.67403 13.285 9.77901 13.147 9.87755C12.9367 10.0285 12.825 10.2648 12.6409 10.4946Z" fill="#E6DAFE" fill-opacity="0.8"/>
<path d="M20.4558 10.324C20.3046 10.0549 20.0746 9.86442 19.8512 9.66099C19.7395 9.55592 19.746 9.48369 19.8183 9.35893C20.1338 8.84033 20.5281 8.38077 20.9291 7.92122C21.0474 7.78336 21.1525 7.62581 21.3037 7.52077C21.468 7.40916 21.5665 7.45511 21.5928 7.65206C21.5995 7.70458 21.5995 7.76367 21.5863 7.81619C21.4877 8.22322 21.4022 8.64337 21.1919 9.01101C20.9816 9.36555 20.7976 9.72659 20.6136 10.0943C20.5741 10.173 20.5544 10.2649 20.4558 10.324Z" fill="#E6DAFE" fill-opacity="0.8"/>
<path d="M17.0135 28.64C16.9806 28.6335 16.9215 28.6335 16.8689 28.6269C16.6388 28.5941 16.5008 28.4825 16.4745 28.3052C16.4483 28.1279 16.5928 27.8917 16.7835 27.8194C17.1384 27.675 17.4669 27.78 17.6181 28.082C17.7167 28.2724 17.6904 28.3709 17.5261 28.5022C17.4012 28.594 17.2238 28.6466 17.0135 28.64Z" fill="#E6DAFE"/>
<path d="M12.9779 14.4468C12.8267 14.4535 12.7216 14.3681 12.7216 14.2303C12.715 14.0858 12.7939 13.9939 12.9188 13.9939C13.07 13.9873 13.1685 14.0726 13.1751 14.2171C13.1751 14.3616 13.116 14.4403 12.9779 14.4468Z" fill="#E6DAFE" fill-opacity="0.5"/>
<path d="M19.9243 14.2302C19.8915 14.3353 19.8717 14.4469 19.7469 14.4731C19.6285 14.4994 19.5168 14.3878 19.5168 14.263C19.5234 14.1318 19.6022 14.0661 19.7205 14.0595C19.8257 14.053 19.9046 14.1186 19.9243 14.2302Z" fill="#E6DAFE" fill-opacity="0.4"/>
<path d="M16.8218 14.6961C16.9861 14.4992 17.1964 14.4138 17.4462 14.4204C17.8405 14.4269 18.1297 14.683 18.1625 15.0769C18.1757 15.2672 18.1888 15.4708 18.1165 15.6546C18.0508 15.8187 18.0705 15.9107 18.2283 16.0288C18.5503 16.2848 18.7146 16.6262 18.6883 17.0529C18.6752 17.2236 18.6358 17.3877 18.5175 17.4993C18.3598 17.6438 18.2743 17.8342 18.1955 18.0115C18.0114 18.4119 17.6762 18.5892 17.2819 18.6548C16.8415 18.7205 16.4208 18.6089 16.0462 18.366C15.849 18.2412 15.711 18.0574 15.6454 17.8342C15.6125 17.7226 15.5665 17.6503 15.4679 17.5847C15.0933 17.3287 14.9947 16.9019 15.2181 16.5081C15.2904 16.3768 15.3759 16.2388 15.4876 16.1469C15.6585 16.0156 15.6717 15.8843 15.6125 15.7006C15.5336 15.4511 15.5862 15.2082 15.6717 14.9718C15.8425 14.4926 16.2368 14.3547 16.6772 14.6108C16.7166 14.6305 16.7626 14.6633 16.8218 14.6961Z" fill="#231F20"/>
<path d="M17.8201 17.493C17.5704 17.4733 17.3338 17.3223 17.1563 17.0663C16.9065 16.6986 16.9065 16.6986 16.6765 17.0794C16.4991 17.3682 16.2296 17.5127 15.8879 17.493C15.4343 17.4602 15.2175 17.0269 15.4673 16.6395C15.5593 16.4951 15.6906 16.3769 15.8287 16.2719C16.0456 16.1078 16.0587 16.075 15.9667 15.8058C15.9076 15.6286 15.855 15.4579 15.8681 15.2674C15.901 14.8538 16.2231 14.6832 16.578 14.8802C16.6371 14.9129 16.6831 14.9589 16.7357 14.9918C16.8672 15.0705 16.9788 15.0771 17.0577 14.9195C17.1563 14.7292 17.3272 14.7226 17.5046 14.7422C17.7018 14.7619 17.8136 14.8802 17.8859 15.0574C17.9253 15.1558 17.9187 15.2477 17.8793 15.3396C17.8267 15.4709 17.7676 15.5957 17.715 15.727C17.5901 15.9962 17.6033 16.0553 17.8793 16.1734C18.1093 16.2719 18.2867 16.4163 18.3854 16.6527C18.5628 17.0597 18.3131 17.4798 17.8201 17.493Z" fill="#E6DAFE" fill-opacity="0.7"/>
<path d="M15.9614 17.7819C16.4346 17.7294 16.4609 17.7163 16.9539 17.2435C17.2167 17.585 17.5453 17.795 17.9923 17.7622C17.8608 18.1561 17.5716 18.353 17.1312 18.3662C16.6449 18.3727 16.0797 18.248 15.9614 17.7819Z" fill="#E6DAFE" fill-opacity="0.75"/>
<path d="M16.3566 15.2742C16.3763 15.2873 16.4289 15.2939 16.4486 15.3202C16.534 15.4318 16.6063 15.5565 16.6195 15.7009C16.626 15.7666 16.5932 15.8257 16.5209 15.852C16.4618 15.8717 16.4157 15.8454 16.3763 15.806C16.2712 15.6944 16.1923 15.5631 16.212 15.3989C16.2185 15.3333 16.258 15.2873 16.3566 15.2742Z" fill="#231F20"/>
<path d="M17.1382 15.5561C17.1579 15.5035 17.1842 15.4051 17.2302 15.3197C17.2631 15.2476 17.3222 15.195 17.4142 15.2344C17.4799 15.2673 17.5062 15.3263 17.4931 15.3919C17.4734 15.4839 17.4405 15.5758 17.4076 15.6677C17.3748 15.7531 17.3156 15.8187 17.2105 15.7793C17.1185 15.7531 17.1185 15.6677 17.1382 15.5561Z" fill="#231F20"/>
<path d="M10.7565 27.9902L10.1519 29.6446L10.5593 29.8481C10.5593 29.8481 11.1246 28.476 11.1903 28.3447C11.2494 28.2069 10.7565 27.9902 10.7565 27.9902Z" fill="#110F23"/>
<path d="M22.8374 26.9135L22.5876 27.1826C22.5876 27.1826 23.6261 29.6116 23.935 29.6182C24.2439 29.6182 24.0467 29.1258 24.0467 29.1258C24.0467 29.1258 23.1397 27.2286 22.982 26.8938C22.8637 26.6246 22.8374 26.9135 22.8374 26.9135Z" fill="#110F23"/>
</g>
</g>
</g>
<path d="M47.5769 20.5L46.9238 18.2971H44.2117L43.5586 20.5H42.5955L44.9644 12.7733H46.1932L48.5621 20.5H47.5769ZM45.6176 13.7585H45.5179L44.4331 17.489H46.7024L45.6176 13.7585ZM49.7755 19.7473H51.7681V13.0611H49.7755V12.3083H52.6536V19.7473H54.6462V20.5H49.7755V19.7473ZM56.5791 14.788H57.4647V15.7178H57.509C57.878 15.0094 58.4647 14.6551 59.2691 14.6551C59.9702 14.6551 60.5163 14.9171 60.9074 15.4411C61.3059 15.9651 61.5052 16.6994 61.5052 17.644C61.5052 18.5886 61.3059 19.3229 60.9074 19.8469C60.5163 20.3709 59.9702 20.6328 59.2691 20.6328C58.4647 20.6328 57.878 20.2786 57.509 19.5701H57.4647V22.714H56.5791V14.788ZM58.9259 19.8469C59.4425 19.8469 59.841 19.6919 60.1215 19.3819C60.4093 19.0646 60.5532 18.6476 60.5532 18.1311V17.1569C60.5532 16.6403 60.4093 16.227 60.1215 15.9171C59.841 15.5998 59.4425 15.4411 58.9259 15.4411C58.7267 15.4411 58.5385 15.4669 58.3614 15.5186C58.1842 15.5702 58.0293 15.6477 57.8964 15.751C57.7636 15.847 57.6566 15.9688 57.5754 16.1163C57.5016 16.2566 57.4647 16.4226 57.4647 16.6145V18.6735C57.4647 18.8654 57.5016 19.0351 57.5754 19.1827C57.6566 19.3229 57.7636 19.4447 57.8964 19.548C58.0293 19.6439 58.1842 19.7177 58.3614 19.7694C58.5385 19.8211 58.7267 19.8469 58.9259 19.8469ZM67.6446 20.5C67.2978 20.5 67.0505 20.4114 66.9029 20.2343C66.7553 20.0572 66.6631 19.8358 66.6262 19.5701H66.5708C66.4454 19.9022 66.2424 20.1642 65.962 20.3561C65.6889 20.5406 65.3199 20.6328 64.855 20.6328C64.2572 20.6328 63.7812 20.4779 63.427 20.1679C63.0728 19.858 62.8957 19.4336 62.8957 18.8949C62.8957 18.3635 63.0875 17.9539 63.4713 17.6661C63.8624 17.3783 64.4897 17.2344 65.3532 17.2344H66.5708V16.6698C66.5708 16.2492 66.4528 15.9355 66.2166 15.7289C65.9804 15.5149 65.6447 15.4079 65.2093 15.4079C64.8255 15.4079 64.5119 15.4854 64.2683 15.6403C64.0248 15.7879 63.8292 15.9909 63.6816 16.2492L63.0838 15.8064C63.1576 15.6588 63.2573 15.5149 63.3827 15.3747C63.5082 15.2345 63.6632 15.1127 63.8477 15.0094C64.0322 14.8987 64.2425 14.8138 64.4786 14.7548C64.7148 14.6883 64.9768 14.6551 65.2646 14.6551C65.9362 14.6551 66.4675 14.8249 66.8587 15.1643C67.2572 15.5038 67.4564 15.9761 67.4564 16.5813V19.7251H68.2535V20.5H67.6446ZM65.01 19.8912C65.2388 19.8912 65.4454 19.8653 65.6299 19.8137C65.8218 19.7546 65.9878 19.6808 66.128 19.5923C66.2683 19.4963 66.3753 19.3856 66.4491 19.2602C66.5303 19.1273 66.5708 18.9871 66.5708 18.8395V17.8986H65.3532C64.8218 17.8986 64.4344 17.9724 64.1908 18.12C63.9473 18.2676 63.8255 18.4816 63.8255 18.762V18.9945C63.8255 19.2897 63.9288 19.5148 64.1355 19.6698C64.3495 19.8174 64.641 19.8912 65.01 19.8912ZM72.3228 20.6328C71.9096 20.6328 71.5406 20.5627 71.2158 20.4225C70.8985 20.2749 70.6291 20.072 70.4077 19.8137C70.1863 19.5554 70.0166 19.2417 69.8985 18.8727C69.7878 18.5037 69.7325 18.0942 69.7325 17.644C69.7325 17.1938 69.7915 16.7842 69.9096 16.4152C70.0277 16.0462 70.1974 15.7326 70.4188 15.4743C70.6402 15.2086 70.9096 15.0057 71.2269 14.8655C71.5442 14.7252 71.9059 14.6551 72.3118 14.6551C72.8652 14.6551 73.3154 14.7769 73.6623 15.0204C74.0091 15.264 74.2637 15.5813 74.4261 15.9724L73.7176 16.3488C73.6143 16.0536 73.4409 15.8248 73.1973 15.6625C72.9612 15.5001 72.666 15.4189 72.3118 15.4189C72.0535 15.4189 71.821 15.4632 71.6144 15.5518C71.4151 15.633 71.2454 15.751 71.1051 15.906C70.9649 16.061 70.8579 16.2455 70.7841 16.4595C70.7177 16.6735 70.6845 16.906 70.6845 17.1569V18.1311C70.6845 18.382 70.7177 18.6144 70.7841 18.8285C70.8579 19.0425 70.9649 19.227 71.1051 19.3819C71.2454 19.5369 71.4188 19.6587 71.6254 19.7473C71.8321 19.8284 72.0682 19.869 72.3339 19.869C72.7176 19.869 73.035 19.7805 73.2859 19.6033C73.5368 19.4262 73.7361 19.1827 73.8837 18.8727L74.5147 19.3045C74.3449 19.6882 74.0792 20.0055 73.7176 20.2565C73.3634 20.5074 72.8985 20.6328 72.3228 20.6328ZM80.9198 20.5C80.5729 20.5 80.3257 20.4114 80.1781 20.2343C80.0305 20.0572 79.9382 19.8358 79.9013 19.5701H79.846C79.7205 19.9022 79.5176 20.1642 79.2371 20.3561C78.9641 20.5406 78.5951 20.6328 78.1302 20.6328C77.5324 20.6328 77.0564 20.4779 76.7022 20.1679C76.3479 19.858 76.1708 19.4336 76.1708 18.8949C76.1708 18.3635 76.3627 17.9539 76.7464 17.6661C77.1376 17.3783 77.7649 17.2344 78.6283 17.2344H79.846V16.6698C79.846 16.2492 79.7279 15.9355 79.4917 15.7289C79.2556 15.5149 78.9198 15.4079 78.4844 15.4079C78.1006 15.4079 77.787 15.4854 77.5435 15.6403C77.2999 15.7879 77.1044 15.9909 76.9568 16.2492L76.359 15.8064C76.4328 15.6588 76.5324 15.5149 76.6579 15.3747C76.7833 15.2345 76.9383 15.1127 77.1228 15.0094C77.3073 14.8987 77.5176 14.8138 77.7538 14.7548C77.9899 14.6883 78.2519 14.6551 78.5397 14.6551C79.2113 14.6551 79.7427 14.8249 80.1338 15.1643C80.5323 15.5038 80.7316 15.9761 80.7316 16.5813V19.7251H81.5286V20.5H80.9198ZM78.2851 19.8912C78.5139 19.8912 78.7206 19.8653 78.905 19.8137C79.0969 19.7546 79.263 19.6808 79.4032 19.5923C79.5434 19.4963 79.6504 19.3856 79.7242 19.2602C79.8054 19.1273 79.846 18.9871 79.846 18.8395V17.8986H78.6283C78.097 17.8986 77.7095 17.9724 77.466 18.12C77.2224 18.2676 77.1007 18.4816 77.1007 18.762V18.9945C77.1007 19.2897 77.204 19.5148 77.4106 19.6698C77.6246 19.8174 77.9161 19.8912 78.2851 19.8912ZM89.7116 20.5V12.7733H94.5823V13.5814H90.6415V16.1828H94.2502V16.9909H90.6415V20.5H89.7116ZM99.0281 13.526C98.7698 13.526 98.589 13.4743 98.4857 13.371C98.3823 13.2603 98.3307 13.1238 98.3307 12.9614V12.7843C98.3307 12.622 98.3823 12.4891 98.4857 12.3858C98.589 12.2751 98.7698 12.2198 99.0281 12.2198C99.2864 12.2198 99.4672 12.2751 99.5705 12.3858C99.6738 12.4891 99.7255 12.622 99.7255 12.7843V12.9614C99.7255 13.1238 99.6738 13.2603 99.5705 13.371C99.4672 13.4743 99.2864 13.526 99.0281 13.526ZM96.5263 19.7473H98.5853V15.5407H96.5263V14.788H99.4709V19.7473H101.397V20.5H96.5263V19.7473ZM103.075 20.5V14.788H103.961V15.7178H104.005C104.064 15.5776 104.138 15.4448 104.227 15.3193C104.315 15.1865 104.422 15.0721 104.548 14.9762C104.68 14.8802 104.835 14.8027 105.013 14.7437C105.19 14.6847 105.396 14.6551 105.632 14.6551C106.23 14.6551 106.71 14.847 107.072 15.2308C107.433 15.6071 107.614 16.1422 107.614 16.8359V20.5H106.728V16.9909C106.728 16.4669 106.614 16.0794 106.385 15.8285C106.156 15.5702 105.821 15.4411 105.378 15.4411C105.201 15.4411 105.027 15.4632 104.858 15.5075C104.688 15.5518 104.537 15.6182 104.404 15.7068C104.271 15.7953 104.164 15.9097 104.083 16.0499C104.001 16.1901 103.961 16.3525 103.961 16.537V20.5H103.075ZM114.108 20.5C113.761 20.5 113.514 20.4114 113.366 20.2343C113.218 20.0572 113.126 19.8358 113.089 19.5701H113.034C112.908 19.9022 112.705 20.1642 112.425 20.3561C112.152 20.5406 111.783 20.6328 111.318 20.6328C110.72 20.6328 110.244 20.4779 109.89 20.1679C109.536 19.858 109.359 19.4336 109.359 18.8949C109.359 18.3635 109.551 17.9539 109.934 17.6661C110.325 17.3783 110.953 17.2344 111.816 17.2344H113.034V16.6698C113.034 16.2492 112.916 15.9355 112.68 15.7289C112.443 15.5149 112.108 15.4079 111.672 15.4079C111.289 15.4079 110.975 15.4854 110.731 15.6403C110.488 15.7879 110.292 15.9909 110.145 16.2492L109.547 15.8064C109.621 15.6588 109.72 15.5149 109.846 15.3747C109.971 15.2345 110.126 15.1127 110.311 15.0094C110.495 14.8987 110.705 14.8138 110.942 14.7548C111.178 14.6883 111.44 14.6551 111.728 14.6551C112.399 14.6551 112.931 14.8249 113.322 15.1643C113.72 15.5038 113.919 15.9761 113.919 16.5813V19.7251H114.716V20.5H114.108ZM111.473 19.8912C111.702 19.8912 111.908 19.8653 112.093 19.8137C112.285 19.7546 112.451 19.6808 112.591 19.5923C112.731 19.4963 112.838 19.3856 112.912 19.2602C112.993 19.1273 113.034 18.9871 113.034 18.8395V17.8986H111.816C111.285 17.8986 110.897 17.9724 110.654 18.12C110.41 18.2676 110.289 18.4816 110.289 18.762V18.9945C110.289 19.2897 110.392 19.5148 110.598 19.6698C110.812 19.8174 111.104 19.8912 111.473 19.8912ZM116.35 20.5V14.788H117.236V15.7178H117.28C117.339 15.5776 117.413 15.4448 117.502 15.3193C117.59 15.1865 117.697 15.0721 117.823 14.9762C117.956 14.8802 118.111 14.8027 118.288 14.7437C118.465 14.6847 118.671 14.6551 118.908 14.6551C119.505 14.6551 119.985 14.847 120.347 15.2308C120.708 15.6071 120.889 16.1422 120.889 16.8359V20.5H120.004V16.9909C120.004 16.4669 119.889 16.0794 119.66 15.8285C119.432 15.5702 119.096 15.4411 118.653 15.4411C118.476 15.4411 118.302 15.4632 118.133 15.5075C117.963 15.5518 117.812 15.6182 117.679 15.7068C117.546 15.7953 117.439 15.9097 117.358 16.0499C117.277 16.1901 117.236 16.3525 117.236 16.537V20.5H116.35ZM125.423 20.6328C125.01 20.6328 124.641 20.5627 124.316 20.4225C123.999 20.2749 123.73 20.072 123.508 19.8137C123.287 19.5554 123.117 19.2417 122.999 18.8727C122.888 18.5037 122.833 18.0942 122.833 17.644C122.833 17.1938 122.892 16.7842 123.01 16.4152C123.128 16.0462 123.298 15.7326 123.519 15.4743C123.741 15.2086 124.01 15.0057 124.327 14.8655C124.645 14.7252 125.006 14.6551 125.412 14.6551C125.966 14.6551 126.416 14.7769 126.763 15.0204C127.11 15.264 127.364 15.5813 127.527 15.9724L126.818 16.3488C126.715 16.0536 126.541 15.8248 126.298 15.6625C126.062 15.5001 125.767 15.4189 125.412 15.4189C125.154 15.4189 124.922 15.4632 124.715 15.5518C124.516 15.633 124.346 15.751 124.206 15.906C124.065 16.061 123.958 16.2455 123.885 16.4595C123.818 16.6735 123.785 16.906 123.785 17.1569V18.1311C123.785 18.382 123.818 18.6144 123.885 18.8285C123.958 19.0425 124.065 19.227 124.206 19.3819C124.346 19.5369 124.519 19.6587 124.726 19.7473C124.933 19.8284 125.169 19.869 125.434 19.869C125.818 19.869 126.136 19.7805 126.386 19.6033C126.637 19.4262 126.837 19.1827 126.984 18.8727L127.615 19.3045C127.445 19.6882 127.18 20.0055 126.818 20.2565C126.464 20.5074 125.999 20.6328 125.423 20.6328ZM131.961 20.6328C131.548 20.6328 131.175 20.5627 130.843 20.4225C130.519 20.2823 130.238 20.083 130.002 19.8247C129.773 19.5591 129.596 19.2454 129.471 18.8838C129.345 18.5148 129.282 18.1052 129.282 17.6551C129.282 17.1975 129.345 16.7842 129.471 16.4152C129.603 16.0462 129.784 15.7326 130.013 15.4743C130.242 15.2086 130.515 15.0057 130.832 14.8655C131.157 14.7252 131.515 14.6551 131.906 14.6551C132.29 14.6551 132.637 14.7252 132.947 14.8655C133.264 15.0057 133.533 15.2012 133.755 15.4522C133.976 15.6957 134.146 15.9872 134.264 16.3267C134.382 16.6661 134.441 17.0388 134.441 17.4447V17.8654H130.212V18.1311C130.212 18.382 130.253 18.6144 130.334 18.8285C130.415 19.0425 130.53 19.227 130.677 19.3819C130.832 19.5369 131.017 19.6587 131.231 19.7473C131.452 19.8284 131.696 19.869 131.961 19.869C132.345 19.869 132.677 19.7805 132.958 19.6033C133.238 19.4262 133.452 19.1827 133.6 18.8727L134.253 19.3155C134.083 19.6993 133.799 20.0166 133.4 20.2675C133.009 20.5111 132.53 20.6328 131.961 20.6328ZM131.906 15.3857C131.662 15.3857 131.437 15.43 131.231 15.5186C131.024 15.6071 130.843 15.7289 130.688 15.8839C130.541 16.0389 130.423 16.2234 130.334 16.4374C130.253 16.644 130.212 16.8728 130.212 17.1237V17.2012H133.489V17.0794C133.489 16.8285 133.448 16.5997 133.367 16.3931C133.293 16.1865 133.186 16.0093 133.046 15.8617C132.913 15.7068 132.747 15.5887 132.548 15.5075C132.356 15.4263 132.142 15.3857 131.906 15.3857Z" fill="#E6DAFE"/>
<defs>
<clipPath id="clip0_12785_6208">
<rect width="31.3645" height="31.3645" fill="white" transform="translate(0.85083 0.317749)"/>
</clipPath>
</defs>
</svg>
