<svg width="16" height="16" viewBox="0 0 16 16" fill="none" xmlns="http://www.w3.org/2000/svg">
<path d="M7.69773 1.41061C8.00274 1.4096 8.30193 1.49847 8.56144 1.66718C8.82095 1.83588 9.03042 2.07768 9.16614 2.3652L13.7842 12.0874C13.9095 12.3509 13.9687 12.6438 13.9562 12.9382C13.9437 13.2326 13.8599 13.5187 13.7128 13.7694C13.5656 14.0201 13.3601 14.227 13.1155 14.3705C12.871 14.514 12.5957 14.5893 12.3158 14.5893H3.07969C2.79979 14.5892 2.52453 14.5139 2.28009 14.3703C2.03564 14.2268 1.83011 14.0199 1.68303 13.7692C1.53595 13.5185 1.45219 13.2324 1.43972 12.9381C1.42725 12.6437 1.48647 12.3509 1.61177 12.0874L6.22932 2.3652C6.36504 2.07768 6.57451 1.83588 6.83402 1.66718C7.09353 1.49847 7.39272 1.4096 7.69773 1.41061ZM7.69773 0.222168C7.18324 0.222114 6.6789 0.372845 6.2412 0.657477C5.80349 0.942108 5.44972 1.3494 5.21951 1.83372L0.601468 11.5559C0.390087 12.0006 0.290226 12.4948 0.311371 12.9916C0.332516 13.4884 0.473965 13.9712 0.722281 14.3942C0.970596 14.8172 1.31753 15.1664 1.73013 15.4085C2.14273 15.6507 2.6073 15.7778 3.07969 15.7777H12.3158C12.7881 15.7777 13.2526 15.6505 13.6652 15.4084C14.0777 15.1662 14.4246 14.817 14.6728 14.394C14.9211 13.971 15.0625 13.4882 15.0836 12.9915C15.1047 12.4948 15.0049 12.0006 14.7935 11.5559L10.176 1.83372C9.94574 1.3494 9.59196 0.942108 9.15426 0.657477C8.71656 0.372845 8.21222 0.222114 7.69773 0.222168Z" fill="#E6DAFE"/>
</svg>
