<svg width="241" height="217" viewBox="0 0 241 217" fill="none" xmlns="http://www.w3.org/2000/svg">
<path fill-rule="evenodd" clip-rule="evenodd" d="M232.994 199.361C232.838 202.422 231.23 205.249 228.636 206.935C226.25 208.517 222.229 208.517 214.24 208.517H160.055C152.065 208.517 148.045 208.517 145.711 206.987C143.117 205.301 141.534 202.499 141.353 199.413C141.223 196.611 143.194 193.187 147.137 186.366L147.241 186.21L174.269 139.78C178.238 132.932 180.261 129.534 182.751 128.237C185.474 126.863 188.691 126.863 191.414 128.237C193.878 129.508 195.798 132.751 199.611 139.209L199.922 139.728L227.054 186.158C227.184 186.392 227.313 186.625 227.443 186.833C231.204 193.317 233.124 196.637 232.994 199.361Z" stroke="#E6DAFE" stroke-width="16" stroke-miterlimit="10"/>
<path fill-rule="evenodd" clip-rule="evenodd" d="M159.691 84.012C158.732 88.0325 156.579 91.8714 152.221 99.4714L103.197 186.158L103.068 186.392C98.7617 193.94 96.5569 197.779 93.5221 200.658C90.2279 203.822 86.2593 206.105 81.9016 207.402C77.933 208.491 73.4716 208.491 64.5747 208.491H26.7822C18.845 208.491 14.9282 208.491 12.516 206.961C9.9221 205.275 8.33984 202.499 8.15827 199.439C8.02858 196.611 9.97397 193.162 13.8907 186.288L107.244 21.7594C111.212 14.7819 113.235 11.2802 115.777 9.98331C118.501 8.58263 121.769 8.58263 124.493 9.98331C127.035 11.2802 129.032 14.756 133.001 21.7594L152.195 55.2721L152.299 55.4536C156.579 62.9499 158.758 66.7369 159.717 70.7315C160.755 75.0632 160.755 79.6543 159.691 84.012Z" stroke="#E6DAFE" stroke-width="16" stroke-miterlimit="10"/>
</svg>
