<svg width="110" height="23" viewBox="0 0 110 23" fill="none" xmlns="http://www.w3.org/2000/svg">
<path d="M7.29204 9.95698L11.5411 5.71046L15.7925 9.95922L18.2649 7.4882L11.5411 0.768066L4.81961 7.48596L7.29204 9.95698Z" fill="#242235"/>
<path d="M5.54785 11.7023L3.07477 9.23062L0.60156 11.7024L3.07465 14.1741L5.54785 11.7023Z" fill="#242235"/>
<path d="M7.29075 13.4467L11.5399 17.6932L15.791 13.4446L18.2649 15.9142L18.2636 15.9156L11.5399 22.6356L4.81815 15.9178L4.8147 15.9144L7.29075 13.4467Z" fill="#242235"/>
<path d="M20.0059 14.1743L22.4791 11.7025L20.006 9.2308L17.5328 11.7026L20.0059 14.1743Z" fill="#242235"/>
<path d="M14.0487 11.7008H14.0498L11.5409 9.19336L9.68679 11.0464H9.68661L9.47371 11.2594L9.03425 11.6986L9.03079 11.702L9.03425 11.7057L11.5409 14.2109L14.0498 11.7034L14.051 11.702L14.0487 11.7008Z" fill="#242235"/>
<path d="M26.3394 6.06671H31.7168C33.0514 6.06671 34.0606 6.40903 34.7446 7.09367C35.2739 7.6239 35.5385 8.28108 35.5385 9.06503V9.09819C35.5385 9.42946 35.4975 9.72221 35.4151 9.9761C35.3329 10.2303 35.2229 10.4592 35.0856 10.6635C34.9485 10.868 34.7892 11.0474 34.6081 11.2018C34.4268 11.3566 34.232 11.4892 34.0235 11.5994C34.6943 11.8537 35.2224 12.1986 35.6075 12.6349C35.9923 13.0713 36.185 13.676 36.185 14.4489V14.4819C36.185 15.0121 36.083 15.4758 35.8789 15.8736C35.6749 16.271 35.3825 16.6024 35.0017 16.8676C34.621 17.1327 34.1633 17.3313 33.6282 17.4639C33.0932 17.5964 32.5003 17.6626 31.8497 17.6626H26.3394V6.06671ZM31.1791 10.7547C31.7429 10.7547 32.1904 10.6583 32.5217 10.4649C32.8532 10.2716 33.0189 9.95952 33.0189 9.52894V9.49578C33.0189 9.10942 32.8751 8.81408 32.5879 8.60958C32.3005 8.40526 31.8861 8.30301 31.3449 8.30301H28.8254V10.7547H31.1791V10.7547ZM31.8588 15.4264C32.4224 15.4264 32.8641 15.3245 33.1848 15.12C33.5052 14.9157 33.6656 14.5981 33.6656 14.1674V14.1344C33.6656 13.7478 33.5163 13.4414 33.218 13.2148C32.9195 12.9888 32.4389 12.8754 31.7759 12.8754H28.8254V15.4266H31.8588V15.4264Z" fill="#242235"/>
<path d="M39.3828 6.06671H41.9355V17.6629H39.3828V6.06671Z" fill="#242235"/>
<path d="M45.8026 6.06671H48.156L53.5928 13.2067V6.06671H56.1123V17.6629H53.941L48.3219 10.2911V17.6629H45.8026V6.06671Z" fill="#242235"/>
<path d="M63.8436 5.98373H66.1971L71.1699 17.6627H68.5012L67.4403 15.0619H62.534L61.4733 17.6627H58.8705L63.8436 5.98373ZM66.5287 12.8087L64.9871 9.04837L63.4459 12.8087H66.5287Z" fill="#242235"/>
<path d="M73.9214 6.06671H76.2753L81.7118 13.2067V6.06671H84.2312V17.6629H82.06L76.4408 10.2911V17.6629H73.9214V6.06671V6.06671Z" fill="#242235"/>
<path d="M93.416 17.8618C92.5647 17.8618 91.775 17.7071 91.0456 17.3981C90.3161 17.0891 89.6864 16.6665 89.156 16.1307C88.6255 15.5951 88.2109 14.9628 87.913 14.234C87.6145 13.505 87.4654 12.7264 87.4654 11.898V11.865C87.4654 11.0367 87.6145 10.261 87.913 9.53754C88.2111 8.81421 88.6255 8.17914 89.156 7.6325C89.6862 7.08586 90.3218 6.65494 91.062 6.34025C91.8021 6.02557 92.6204 5.86823 93.5154 5.86823C94.0565 5.86823 94.5509 5.91261 94.9985 6.0007C95.446 6.0893 95.852 6.21054 96.217 6.36512C96.5818 6.51988 96.9184 6.70762 97.2283 6.92834C97.5371 7.14942 97.8246 7.39226 98.0899 7.65737L96.4658 9.52925C96.0122 9.12078 95.5511 8.80022 95.0816 8.56844C94.6117 8.33666 94.0843 8.22059 93.4986 8.22059C93.0123 8.22059 92.562 8.31455 92.1479 8.50229C91.7335 8.69003 91.377 8.94945 91.0786 9.28071C90.7805 9.61198 90.5484 9.99592 90.3823 10.432C90.2169 10.8685 90.1341 11.335 90.1341 11.8319V11.8649C90.1341 12.3618 90.2169 12.8314 90.3823 13.2728C90.5484 13.7148 90.7772 14.1012 91.0704 14.4324C91.363 14.7637 91.7167 15.0262 92.131 15.2195C92.5457 15.4129 93.0014 15.5093 93.4986 15.5093C94.1619 15.5093 94.7221 15.3879 95.1808 15.1449C95.6394 14.9022 96.0955 14.5708 96.5484 14.1509L98.1729 15.791C97.8744 16.1114 97.5645 16.3986 97.2447 16.6523C96.9241 16.9066 96.5733 17.1245 96.1919 17.3069C95.8109 17.489 95.3933 17.6273 94.9407 17.7209C94.4873 17.8147 93.9792 17.8618 93.416 17.8618Z" fill="#242235"/>
<path d="M101.181 6.06671H109.916V8.33635H103.701V10.6887H109.171V12.9582H103.701V15.3935H110V17.6629H101.181V6.06671Z" fill="#242235"/>
</svg>
