<svg width="115" height="23" viewBox="0 0 115 23" fill="none" xmlns="http://www.w3.org/2000/svg">
<path d="M2.99169 2.96786H5.48077C7.75445 2.96786 8.73572 3.68587 8.73572 5.14581C8.73572 6.41429 7.73052 7.27589 5.74404 7.27589H3.01562V2.96786H2.99169ZM0 17.2562H6.0791C9.26226 17.2562 12.4693 16.1073 12.4693 12.4455C12.4693 10.2676 10.9376 8.61617 8.83146 8.37683V8.32896C10.5786 7.80243 11.7513 6.53395 11.7513 4.64321C11.7513 1.57972 9.14259 0.406982 6.58171 0.406982H0V17.2562ZM2.99169 9.83677H5.86371C8.30492 9.83677 9.42979 10.459 9.42979 12.2301C9.42979 14.4559 7.27578 14.7192 5.74404 14.7192H2.99169V9.83677Z" fill="#E6DAFE"/>
<path d="M14.4062 0H17.2543V17.256H14.4062V0Z" fill="#E6DAFE"/>
<path d="M22.0434 11.5359C22.0434 9.74086 23.3119 8.11339 25.3941 8.11339C27.5002 8.11339 28.7448 9.76479 28.7448 11.5359C28.7448 13.3309 27.4763 14.9584 25.3941 14.9584C23.3119 14.9823 22.0434 13.3309 22.0434 11.5359ZM19.1953 11.5359C19.1953 15.1259 21.9477 17.5432 25.418 17.5432C28.8644 17.5432 31.6407 15.1259 31.6407 11.5359C31.6407 7.94585 28.8884 5.52856 25.418 5.52856C21.9477 5.5525 19.1953 7.94585 19.1953 11.5359Z" fill="#E6DAFE"/>
<path d="M35.7783 11.5359C35.7783 9.74086 37.0467 8.11339 39.129 8.11339C41.2351 8.11339 42.4796 9.76479 42.4796 11.5359C42.4796 13.3309 41.2112 14.9584 39.129 14.9584C37.0228 14.9823 35.7783 13.3309 35.7783 11.5359ZM32.9062 11.5359C32.9062 15.1259 35.6586 17.5432 39.129 17.5432C42.5754 17.5432 45.3517 15.1259 45.3517 11.5359C45.3517 7.94585 42.5993 5.52856 39.129 5.52856C35.6825 5.5525 32.9062 7.94585 32.9062 11.5359Z" fill="#E6DAFE"/>
<path d="M47.1021 5.83944H49.8065V7.63446H49.8544C50.357 6.55745 51.458 5.55225 53.3487 5.55225C55.1198 5.55225 56.3165 6.24632 56.9148 7.68233C57.7525 6.22238 58.9731 5.55225 60.6723 5.55225C63.7119 5.55225 64.7889 7.73019 64.7889 10.4586V17.2797H61.9408V10.7937C61.9408 9.35766 61.51 8.13706 59.8107 8.13706C58.0157 8.13706 57.3456 9.62093 57.3456 11.0809V17.2797H54.4975V10.4586C54.4975 9.04654 53.9231 8.11313 52.535 8.11313C50.6442 8.11313 49.9262 9.50127 49.9262 11.0091V17.2557H47.0781V5.83944H47.1021Z" fill="#E6DAFE"/>
<path d="M76.6105 11.5359C76.6105 13.331 75.342 14.9584 73.2598 14.9584C71.1536 14.9584 69.9091 13.307 69.9091 11.5359C69.9091 9.74093 71.1776 8.11346 73.2598 8.11346C75.342 8.11346 76.6105 9.76487 76.6105 11.5359ZM67.1328 17.256H69.8373V15.5328H69.8852C70.7228 16.921 72.2307 17.5432 73.8103 17.5432C77.3285 17.5432 79.4586 14.9345 79.4586 11.5359C79.4586 8.16132 77.1849 5.52864 73.9299 5.52864C71.7759 5.52864 70.651 6.53384 70.0527 7.27578H69.9809V0H67.1328V17.256Z" fill="#E6DAFE"/>
<path d="M83.622 10.4112C83.8374 8.75983 84.8905 7.70676 86.5658 7.70676C88.3608 7.70676 89.4379 8.75983 89.4618 10.4112H83.622ZM92.3338 12.5413V11.7515C92.3338 7.77855 90.1559 5.52881 86.9727 5.52881C83.5263 5.52881 80.75 7.94609 80.75 11.5361C80.75 15.1261 83.5024 17.5434 86.9727 17.5434C88.7917 17.5434 90.467 16.8972 91.8073 15.2458L89.749 13.6901C89.031 14.5757 88.0976 15.2458 86.6855 15.2458C85.082 15.2458 83.8135 14.2167 83.622 12.5413H92.3338Z" fill="#E6DAFE"/>
<path d="M94.2031 5.83944H97.0512V7.65839H97.0991C97.7213 6.34205 98.9898 5.55225 100.474 5.55225C100.833 5.55225 101.168 5.62404 101.503 5.71978V8.47213C101.024 8.35247 100.569 8.25673 100.115 8.25673C97.4341 8.25673 97.0512 10.5304 97.0512 11.1287V17.2557H94.2031V5.83944Z" fill="#E6DAFE"/>
<path d="M107.919 8.11313C110.001 8.11313 111.293 9.50128 111.293 11.4638C111.293 13.3785 110.001 14.8145 107.895 14.8145C105.956 14.8145 104.544 13.3067 104.544 11.5117C104.544 9.50126 105.908 8.11313 107.919 8.11313ZM111.293 5.83944V7.56266H111.245C110.408 6.17452 108.9 5.55225 107.32 5.55225C103.802 5.55225 101.672 8.18492 101.672 11.5595C101.672 14.7906 103.946 17.4233 107.368 17.4233C108.804 17.4233 110.264 16.8728 111.102 15.7479H111.15V16.5856C111.15 18.8593 110.288 20.4149 107.536 20.4149C105.932 20.4149 104.759 19.8166 103.61 18.7635L101.887 21.109C103.515 22.545 105.429 22.9998 107.56 22.9998C112.011 22.9998 114.022 20.391 114.022 16.2505V5.83944H111.293Z" fill="#E6DAFE"/>
</svg>
