<svg width="14" height="16" viewBox="0 0 14 16" fill="none" xmlns="http://www.w3.org/2000/svg">
<path d="M1.57461 8.00057L1.58313 11.0094L4.13952 12.5134L4.13952 14.2748L0.0867881 11.8974L0.0867889 7.12032L1.57461 7.99972L1.57461 8.00057ZM1.57461 4.9917L1.57461 6.74453L0.085937 5.86428L0.0859373 4.11145L1.57461 3.23034L3.07095 4.11145L1.57461 4.99255L1.57461 4.9917ZM5.20724 4.1106L6.69591 3.22949L8.19225 4.1106L6.69591 4.9917L5.20724 4.1106Z" fill="#E6DAFE"/>
<path d="M2.65039 10.3848L2.65039 8.62347L4.13906 9.50458L4.13906 11.2574L2.65039 10.3848ZM5.20678 13.144L6.69545 14.0251L8.19179 13.144L8.19179 14.8969L6.69545 15.778L5.20678 14.8969L5.20678 13.144ZM10.3264 4.1106L11.815 3.22949L13.3114 4.1106L13.3114 5.86343L11.815 6.74453L11.815 4.9917L10.3264 4.1106ZM11.815 11.0086L11.8236 7.99972L13.3122 7.11861L13.3122 11.8957L9.25951 14.2722L9.25951 12.5109L11.815 11.0077L11.815 11.0086Z" fill="#E6DAFE"/>
<path d="M10.7484 10.3844L9.25977 11.257L9.25977 9.50415L10.7484 8.62305L10.7484 10.3844Z" fill="#E6DAFE"/>
<path d="M10.7482 5.6153L10.7567 7.37665L8.19264 8.88066L8.19264 11.8963L6.70397 12.7689L5.2153 11.8963L5.2153 8.88066L2.65124 7.37665L2.65124 5.6153L4.14673 4.7342L6.6946 6.24587L9.25866 4.7342L10.755 5.6153L10.749 5.6153L10.7482 5.6153ZM2.65039 2.60728L6.69545 0.222169L10.7482 2.60728L9.25951 3.48838L6.69545 1.9767L4.13906 3.48838L2.65039 2.60728Z" fill="#E6DAFE"/>
</svg>
