<svg width="69" height="23" viewBox="0 0 69 23" fill="none" xmlns="http://www.w3.org/2000/svg">
<path d="M34.8105 18.8163C38.1349 18.8163 40.5597 16.7239 40.8334 13.7907V13.6929H38.0371L38.0175 13.7907C37.646 15.4137 36.4727 16.3719 34.8105 16.3719C32.6009 16.3719 31.1929 14.5729 31.1929 11.6788V11.6592C31.1929 8.78464 32.6009 7.00515 34.8105 7.00515C36.5314 7.00515 37.6656 8.00244 37.9784 9.52772L38.0175 9.68416H40.8334L40.8139 9.60594C40.5597 6.67271 38.1544 4.56079 34.8105 4.56079C30.8018 4.56079 28.2597 7.23981 28.2597 11.6788C28.2597 16.1373 30.7822 18.8163 34.8105 18.8163Z" fill="#E6DAFE"/>
<path d="M42.2375 18.5818H45.249L46.305 15.2379H51.1741L52.2105 18.5818H55.2415L50.431 4.79565H47.048L42.2375 18.5818ZM48.7102 7.47467H48.7689L50.5092 13.0869H46.9698L48.7102 7.47467Z" fill="#E6DAFE"/>
<path d="M57.6377 18.5818H60.5123V14.2406H63.1717C66.0658 14.2406 68.0018 12.3634 68.0018 9.52793C68.0018 6.69247 66.0658 4.79565 63.1717 4.79565H57.6377V18.5818ZM62.4678 7.08357C64.1104 7.08357 65.0881 7.96354 65.0881 9.52793C65.0881 11.0923 64.1104 11.9918 62.4678 11.9918H60.5123V7.08357H62.4678Z" fill="#E6DAFE"/>
<path fill-rule="evenodd" clip-rule="evenodd" d="M16.6247 17.2158H22.1494C22.1494 20.2529 19.6931 22.7214 16.6604 22.7405H16.6247V17.2158Z" fill="#E6DAFE" fill-opacity="0.5"/>
<path d="M16.6238 17.2158H11.0991V22.7405H16.6238V17.2158Z" fill="#E6DAFE" fill-opacity="0.4"/>
<path d="M11.1011 17.2158H5.57639V22.7405H11.1011V17.2158Z" fill="#E6DAFE" fill-opacity="0.3"/>
<path fill-rule="evenodd" clip-rule="evenodd" d="M5.57548 17.2158V22.7405H5.53975C2.50706 22.7214 0.0507812 20.2529 0.0507812 17.2158H5.57548Z" fill="#E6DAFE" fill-opacity="0.2"/>
<path d="M5.57548 6.16675H0.0507812V11.6914H5.57548V6.16675Z" fill="#E6DAFE" fill-opacity="0.4"/>
<path d="M11.1011 11.6912H5.57639V17.2159H11.1011V11.6912Z" fill="#E6DAFE" fill-opacity="0.4"/>
<path d="M16.6238 11.6912H11.0991V17.2159H16.6238V11.6912Z" fill="#E6DAFE" fill-opacity="0.5"/>
<g opacity="0.8">
<path d="M22.1494 6.16675H16.6247V11.6914H22.1494V6.16675Z" fill="#E6DAFE"/>
</g>
<path d="M5.57548 11.6912H0.0507812V17.2159H5.57548V11.6912Z" fill="#E6DAFE" fill-opacity="0.3"/>
<path d="M22.1494 11.6912H16.6247V17.2159H22.1494V11.6912Z" fill="#E6DAFE" fill-opacity="0.6"/>
<path d="M16.6238 6.16675H11.0991V11.6914H16.6238V6.16675Z" fill="#E6DAFE" fill-opacity="0.6"/>
<path d="M11.1011 6.16675H5.57639V11.6914H11.1011V6.16675Z" fill="#E6DAFE" fill-opacity="0.5"/>
<g opacity="0.8">
<path d="M16.6238 0.641846H11.0991V6.16654H16.6238V0.641846Z" fill="#E6DAFE"/>
</g>
<path d="M11.1011 0.641846H5.57639V6.16654H11.1011V0.641846Z" fill="#E6DAFE" fill-opacity="0.6"/>
<path fill-rule="evenodd" clip-rule="evenodd" d="M5.57548 0.641846V6.16654H0.0507812C0.0507812 3.11765 2.52629 0.641846 5.57548 0.641846Z" fill="#E6DAFE" fill-opacity="0.5"/>
<path fill-rule="evenodd" clip-rule="evenodd" d="M22.1494 6.16654H16.6247V0.641846C19.6619 0.641846 22.1301 3.09849 22.1492 6.13045C22.1493 6.14297 22.1494 6.15476 22.1494 6.16654Z" fill="#E6DAFE"/>
</svg>
