<svg width="73" height="24" viewBox="0 0 73 24" fill="none" xmlns="http://www.w3.org/2000/svg">
<path d="M36.866 19.5497C40.3884 19.5497 42.9577 17.3326 43.2477 14.2246V14.121H40.2848L40.2641 14.2246C39.8704 15.9444 38.6272 16.9597 36.866 16.9597C34.5246 16.9597 33.0328 15.0534 33.0328 11.9869V11.9662C33.0328 8.92034 34.5246 7.03482 36.866 7.03482C38.6894 7.03482 39.8911 8.09154 40.2226 9.7077L40.2641 9.87346H43.2477L43.227 9.79058C42.9577 6.68258 40.4091 4.44482 36.866 4.44482C32.6184 4.44482 29.9248 7.28346 29.9248 11.9869C29.9248 16.711 32.5977 19.5497 36.866 19.5497Z" fill="#E6DAFE"/>
<path d="M44.7341 19.3013H47.925L49.0439 15.7582H54.2032L55.3013 19.3013H58.5129L53.4158 4.69373H49.8312L44.7341 19.3013ZM51.5924 7.53236H51.6546L53.4987 13.479H49.7484L51.5924 7.53236Z" fill="#E6DAFE"/>
<path d="M61.0515 19.3013H64.0973V14.7015H66.9153C69.9818 14.7015 72.0331 12.7124 72.0331 9.70796C72.0331 6.70356 69.9818 4.69373 66.9153 4.69373H61.0515V19.3013ZM66.1693 7.11796C67.9098 7.11796 68.9458 8.05036 68.9458 9.70796C68.9458 11.3656 67.9098 12.3187 66.1693 12.3187H64.0973V7.11796H66.1693Z" fill="#E6DAFE"/>
<path fill-rule="evenodd" clip-rule="evenodd" d="M17.5955 17.8539H23.4493C23.4493 21.0719 20.8467 23.6875 17.6333 23.7078H17.5955V17.8539Z" fill="#E6DAFE" fill-opacity="0.5"/>
<path d="M17.5921 17.8539H11.7383V23.7078H17.5921V17.8539Z" fill="#E6DAFE" fill-opacity="0.4"/>
<path d="M11.7421 17.8539H5.88818V23.7078H11.7421V17.8539Z" fill="#E6DAFE" fill-opacity="0.3"/>
<path fill-rule="evenodd" clip-rule="evenodd" d="M5.88756 17.8539V23.7078H5.84971C2.63632 23.6875 0.0336914 21.0719 0.0336914 17.8539H5.88756Z" fill="#E6DAFE" fill-opacity="0.2"/>
<path d="M5.88756 6.14648H0.0336914V12.0004H5.88756V6.14648Z" fill="#E6DAFE" fill-opacity="0.4"/>
<path d="M11.7421 12H5.88818V17.8539H11.7421V12Z" fill="#E6DAFE" fill-opacity="0.4"/>
<path d="M17.5921 12H11.7383V17.8539H17.5921V12Z" fill="#E6DAFE" fill-opacity="0.5"/>
<g opacity="0.8">
<path d="M23.4493 6.14636H17.5955V12.0002H23.4493V6.14636Z" fill="#E6DAFE"/>
</g>
<path d="M5.88756 12H0.0336914V17.8539H5.88756V12Z" fill="#E6DAFE" fill-opacity="0.3"/>
<path d="M23.4493 12H17.5955V17.8539H23.4493V12Z" fill="#E6DAFE" fill-opacity="0.6"/>
<path d="M17.5921 6.14648H11.7383V12.0004H17.5921V6.14648Z" fill="#E6DAFE" fill-opacity="0.6"/>
<path d="M11.7421 6.14648H5.88818V12.0004H11.7421V6.14648Z" fill="#E6DAFE" fill-opacity="0.5"/>
<g opacity="0.8">
<path d="M17.5921 0.292358H11.7383V6.14623H17.5921V0.292358Z" fill="#E6DAFE"/>
</g>
<path d="M11.7421 0.292358H5.88818V6.14623H11.7421V0.292358Z" fill="#E6DAFE" fill-opacity="0.6"/>
<path fill-rule="evenodd" clip-rule="evenodd" d="M5.88756 0.292358V6.14623H0.0336914C0.0336914 2.91567 2.65669 0.292358 5.88756 0.292358Z" fill="#E6DAFE" fill-opacity="0.5"/>
<path fill-rule="evenodd" clip-rule="evenodd" d="M23.4493 6.14623H17.5955V0.292358C20.8137 0.292358 23.4289 2.89538 23.4492 6.10798C23.4492 6.12125 23.4493 6.13374 23.4493 6.14623Z" fill="#E6DAFE"/>
</svg>
