<svg width="88" height="29" viewBox="0 0 88 29" fill="none" xmlns="http://www.w3.org/2000/svg">
<g clip-path="url(#clip0_1_2169)">
<path d="M38.8882 9.71334H38.4562C36.3246 9.71334 34.481 10.3186 32.9831 11.4427V2.70937H29.44V28.5635H32.5222L32.7527 27.0936C34.2506 28.3041 36.2093 28.9094 38.485 28.9094H38.5426C41.1351 28.8806 43.3531 27.9871 44.9374 26.3154C46.5505 24.586 47.4147 22.1649 47.4147 19.3114C47.4435 13.6333 44.102 9.9151 38.8882 9.71334ZM38.629 25.883H38.485C35.374 25.883 33.4728 23.3754 33.4728 19.3114C33.4728 15.2473 35.4028 12.7398 38.5426 12.7398H38.8594C41.7688 12.9127 43.5547 15.3915 43.5547 19.2826C43.5259 23.2889 41.6536 25.7965 38.629 25.883ZM57.3526 9.71334C54.7313 9.71334 52.4844 10.6069 50.8713 12.3362C49.2582 14.0656 48.3941 16.4867 48.3941 19.3402C48.3941 25.1913 51.2458 28.9671 57.3814 28.9671C60.0027 28.9671 62.2495 28.0736 63.8626 26.373C65.4757 24.6436 66.3399 22.2225 66.3399 19.369C66.3399 13.4891 62.7968 9.71334 57.3526 9.71334ZM57.3526 25.883C54.2416 25.883 52.3404 23.3754 52.3404 19.3114C52.3404 15.2473 54.2704 12.7398 57.4102 12.7398C60.5212 12.7398 62.4223 15.2473 62.4223 19.3114C62.4223 23.3754 60.4635 25.883 57.3526 25.883ZM71.0928 20.2049C71.1216 23.9231 73.0227 25.883 76.4794 25.883C79.8784 25.883 81.866 24.0095 82.0388 23.8078L83.5655 26.3154C83.5655 26.3154 81.1171 28.9094 76.0185 28.9094C70.9199 28.9094 67.2904 25.393 67.2904 19.369C67.2904 13.2874 71.0928 9.74216 76.0185 9.74216C80.973 9.74216 83.8824 13.4603 83.8824 18.7349L83.8536 20.2049H71.0928V20.2049ZM75.9033 12.5668C72.6771 12.5668 71.2656 15.2185 71.0928 17.4667H80.3393C80.3393 14.9591 79.1007 12.5668 75.9033 12.5668Z" fill="#242235"/>
<path d="M22.6979 11.4139L20.3935 9.1081L21.4017 8.07047L22.6979 6.77344L25.0312 9.1081L22.6979 11.4139ZM22.6979 4.69819L20.3935 2.39235L21.7185 1.0665L22.6979 0.0576935L25.0312 2.39235L22.6979 4.69819ZM26.0681 8.07047L23.7349 5.73581L25.0312 4.4676L26.0681 3.42998L28.3726 5.73581L26.0681 8.07047Z" fill="#242235"/>
<path d="M12.4728 25.3642C7.28779 25.3642 3.91755 21.1849 3.91755 15.0744C3.91755 8.96393 7.46062 4.78461 12.588 4.78461C16.3615 4.78461 18.0322 6.68692 19.3285 8.07042L21.6329 5.73576C20.4231 4.46755 17.9746 1.3835 12.4728 1.3835C5.70349 1.3835 -0.115223 6.48516 -0.115223 15.1032C-0.115223 23.7501 5.09857 28.8806 12.2999 28.8806C17.6578 28.8806 20.5671 26.0559 21.6905 24.586L19.2997 22.1937C18.2627 23.4042 16.0158 25.3642 12.4728 25.3642Z" fill="#242235"/>
</g>
<defs>
<clipPath id="clip0_1_2169">
<rect width="87.3958" height="28.8806" fill="white"/>
</clipPath>
</defs>
</svg>
