<svg width="86" height="32" viewBox="0 0 86 32" fill="none" xmlns="http://www.w3.org/2000/svg">
<g clip-path="url(#clip0_1_2436)">
<path d="M15.9249 17.559C15.9249 17.559 15.9983 22.1205 15.7486 26.6382C15.543 30.3079 14.0887 31.4922 13.5451 31.8138C6.39121 30.6734 0.809084 24.8399 0.103974 17.5882C6.67031 19.3573 10.6366 17.4859 11.9293 17.0912C13.266 16.6964 13.8096 15.9654 14.1915 15.8777C14.5587 15.7899 15.9396 17.5444 15.9396 17.5444L15.9249 17.559Z" fill="#242235"/>
<path d="M32.0837 14.284C32.1424 14.8542 32.1718 15.4244 32.1718 16.0092C32.1718 19.5181 31.0407 22.7638 29.1163 25.3955L23.8133 13.4361C27.2801 14.7811 31.4079 14.3571 32.0837 14.284V14.284Z" fill="#242235"/>
<path d="M16.6452 7.90955L25.9291 28.6704C23.7991 30.3079 21.2431 31.4336 18.452 31.843C16.0135 30.6295 16.5717 24.796 16.5717 24.796L16.6599 7.90955L16.6452 7.90955Z" fill="#242235"/>
<path d="M31.9817 13.5677C23.065 15.0882 20.318 5.35104 20.318 5.35104L19.892 5.35104L19.892 5.45338L12.0476 5.45338L12.0476 5.84813C16.8953 5.80427 17.4094 11.974 11.2691 16.0092C5.90729 19.5327 1.23593 16.9449 -0.0273876 16.1116C-0.0273876 16.0823 -0.0273876 16.0385 -0.0273875 16.0092C-0.0273872 7.16395 7.17061 -1.08391e-06 16.0579 -6.95653e-07C24.1079 -3.43976e-07 30.7771 5.89199 31.9523 13.5677L31.9817 13.5677Z" fill="#242235"/>
<path d="M49.0786 10.5851C48.021 9.69326 46.8751 9.25465 45.6706 9.25465C44.0988 9.25465 42.8648 9.82484 42.0128 10.9506C41.1461 12.091 40.7201 13.67 40.7201 15.6876C40.7201 17.4859 41.0727 19.1087 41.7631 20.5562C42.4682 22.0036 43.5699 22.72 45.0683 22.72C45.4209 22.72 45.8175 22.6761 46.2288 22.603C46.6548 22.5299 47.0661 22.4129 47.4921 22.2375C48.2413 21.9305 48.9611 21.4626 49.6368 20.8193C50.3126 20.176 50.8414 19.3134 51.2233 18.2315L51.8403 18.2315L51.8403 23.1439L51.3849 23.1439C51.3408 23.0416 51.3115 22.9539 51.2674 22.8808C51.2233 22.8077 51.1939 22.7492 51.1793 22.6761C51.0911 22.5153 51.003 22.3983 50.9002 22.3252C50.812 22.2521 50.6798 22.2229 50.5476 22.2229C50.4154 22.2229 50.2391 22.2521 50.0335 22.3106C49.8278 22.3691 49.5781 22.4422 49.2843 22.5445C49.0786 22.603 48.8877 22.6761 48.6967 22.7346C48.5057 22.7931 48.3294 22.8515 48.1385 22.8808C47.7125 23.0124 47.2718 23.1001 46.8017 23.1732C46.3316 23.2463 45.7587 23.2755 45.0683 23.2755C43.1293 23.2755 41.4105 22.5591 39.9269 21.1117C38.4432 19.6643 37.7087 17.8953 37.7087 15.8192C37.7822 13.7138 38.5754 11.9886 40.0885 10.6582C41.6015 9.31313 43.5112 8.64059 45.8469 8.64059C46.0819 8.64059 46.3169 8.66984 46.5814 8.7137C46.8458 8.75756 47.1102 8.81604 47.3746 8.88914C47.5215 8.933 47.6831 8.97686 47.8447 9.02072C48.0063 9.06458 48.1532 9.12306 48.3148 9.16693C48.7114 9.29851 49.0786 9.41547 49.4165 9.51781C49.7544 9.62016 50.0188 9.67864 50.2097 9.67864C50.5035 9.67864 50.7239 9.6494 50.8561 9.59092C51.003 9.53243 51.1205 9.41547 51.238 9.24003C51.2674 9.19617 51.2968 9.15231 51.3262 9.10844C51.3555 9.06458 51.3849 9.0061 51.4143 8.933L51.8697 8.933L51.8697 13.553L51.2527 13.553C50.8855 12.4419 50.1657 11.4331 49.108 10.5559L49.0786 10.5851Z" fill="#242235"/>
<path d="M67.5437 8.94778L72.4795 8.94778L72.4795 9.5326C71.9506 9.5326 71.4952 9.62032 71.0986 9.73728C70.702 9.86886 70.4523 10.3075 70.3788 11.0531L70.3788 20.6002C70.3788 21.4335 70.5698 21.916 70.937 22.0622C71.3043 22.2084 71.8184 22.2669 72.4795 22.2669L72.4795 22.8371L65.7222 22.8371L65.7222 22.2523C65.7956 22.2815 65.8691 22.2961 65.9425 22.2961L66.1482 22.2961C66.7945 22.2961 67.2205 22.1646 67.3968 21.8868C67.5878 21.609 67.6759 21.2435 67.6759 20.7756L67.6759 10.4244L62.5785 22.8371L62.1232 22.8371L57.158 10.8777L57.158 20.22C57.158 20.7318 57.2902 21.1996 57.5693 21.6236C57.8484 22.0476 58.4507 22.2669 59.4055 22.2669L59.4055 22.8371L54.4404 22.8371L54.4404 22.2523C55.1896 22.1938 55.7037 22.0183 55.9828 21.7259C56.2619 21.4335 56.4088 20.9218 56.4088 20.1616L56.4088 11.0385C56.4088 10.3806 56.2325 9.97121 55.88 9.81038C55.5274 9.64956 55.0427 9.56184 54.4551 9.56184L54.4551 8.94778L59.4202 8.94778L63.4893 18.6703L67.5584 8.94778L67.5437 8.94778Z" fill="#242235"/>
<path d="M83.6437 12.3396C83.4087 11.9156 83.1736 11.5355 82.9239 11.1992C82.7623 10.9946 82.6007 10.8191 82.4391 10.6729C82.2776 10.5267 82.1453 10.3951 82.0278 10.3074C81.6018 9.97114 81.1758 9.72259 80.7498 9.56177C80.3238 9.41556 79.9419 9.32784 79.5599 9.32784C78.943 9.32784 78.4288 9.48867 78.0028 9.79569C77.5768 10.1027 77.3124 10.4682 77.2096 10.8922C77.2096 10.9507 77.1802 11.0238 77.1802 11.0969C77.1802 11.17 77.1802 11.2285 77.1802 11.3016C77.1802 11.8864 77.4299 12.3981 77.9881 12.866C78.5317 13.3192 79.2808 13.7139 80.2357 14.0502C80.838 14.2841 81.3668 14.5181 81.8516 14.7374C82.3363 14.9567 82.7623 15.176 83.1443 15.3807C84.0403 15.8924 84.6867 16.4333 85.0686 17.0035C85.4506 17.5737 85.6268 18.3486 85.6268 19.2989C85.6268 20.4393 85.2449 21.3165 84.4957 21.9452C83.7465 22.5592 82.9239 22.9832 82.0131 23.1733C81.7781 23.2171 81.5578 23.261 81.3227 23.2902C81.0877 23.3195 80.8673 23.3341 80.6617 23.3341C80.2651 23.3341 79.8831 23.2902 79.5159 23.2171C79.1486 23.144 78.7961 23.0563 78.4729 22.9686C78.135 22.8955 77.8412 22.8224 77.5621 22.7347C77.283 22.6616 77.0333 22.6177 76.7983 22.6177C76.5926 22.6177 76.4163 22.6616 76.2547 22.7347C76.0932 22.8224 75.9609 22.954 75.8581 23.1587L75.1089 23.1587L75.1089 18.217L75.6965 18.217C76.0344 19.489 76.5338 20.4393 77.1508 21.0972C77.7825 21.7551 78.4435 22.1791 79.1193 22.3984C79.3543 22.4715 79.604 22.53 79.839 22.5738C80.0741 22.6177 80.2944 22.6323 80.5148 22.6323L80.7645 22.6323C80.8526 22.6323 80.9408 22.6031 81.0289 22.6031C81.1171 22.6031 81.1905 22.5885 81.264 22.5738C81.8662 22.4423 82.3657 22.1937 82.777 21.8282C83.1883 21.4481 83.4087 20.951 83.4234 20.3223C83.4234 20.22 83.4234 20.1176 83.4234 20.0299C83.4234 19.9276 83.394 19.8399 83.3793 19.7521C83.3352 19.4159 83.1296 19.0942 82.7917 18.8164C82.4538 18.5386 82.0866 18.2901 81.6753 18.0708C81.4696 17.9538 81.264 17.8515 81.0583 17.7638C80.8526 17.676 80.6764 17.5883 80.5001 17.5006C80.1916 17.3544 79.8537 17.1936 79.4718 17.0327C79.0899 16.8719 78.6932 16.6819 78.2819 16.4772C77.4887 16.0824 76.7689 15.6 76.0932 15.0005C75.4174 14.4011 75.0942 13.6555 75.0942 12.7051C75.0942 12.6467 75.0942 12.5882 75.0942 12.5297C75.0942 12.4712 75.0942 12.4127 75.0942 12.3689C75.1971 11.477 75.6378 10.6729 76.4163 9.92727C77.1949 9.18164 78.2526 8.81613 79.5746 8.81613L79.8831 8.81613C80.03 8.81613 80.1622 8.81613 80.3091 8.84537C80.456 8.85999 80.6029 8.88923 80.7645 8.93309C80.9114 8.96233 81.073 8.99157 81.2199 9.03544C81.3668 9.0793 81.5137 9.12316 81.6753 9.18164C81.9544 9.26936 82.2188 9.35708 82.4832 9.43018C82.7476 9.50329 82.9827 9.54715 83.203 9.54715C83.4087 9.54715 83.5849 9.50329 83.7318 9.41556C83.8787 9.32784 84.011 9.18164 84.0991 8.97695L84.7161 8.97695L84.7161 13.7432L84.0991 13.7432C84.011 13.2461 83.8494 12.7929 83.629 12.3542L83.6437 12.3396Z" fill="#242235"/>
</g>
<defs>
<clipPath id="clip0_1_2436">
<rect width="31.8431" height="85.6268" fill="white" transform="translate(85.6268) rotate(90)"/>
</clipPath>
</defs>
</svg>
