<svg width="76" height="34" viewBox="0 0 76 34" fill="none" xmlns="http://www.w3.org/2000/svg">
<path fill-rule="evenodd" clip-rule="evenodd" d="M6.01299 0.152002C6.32223 -0.0412734 6.71216 -0.0508873 7.03055 0.126914L29.8454 12.8676C30.1618 13.0443 30.3578 13.3783 30.3578 13.7407V19.3704C30.3578 19.7223 30.1728 20.0484 29.8707 20.2289L7.05584 33.8585C6.70739 34.0666 6.26769 34.0435 5.94298 33.8L1.20224 30.2444C0.950438 30.0555 0.802246 29.7592 0.802246 29.4444V3.96296C0.802246 3.61817 0.979866 3.2977 1.27225 3.11496L6.01299 0.152002ZM5.54299 2.80425L2.80225 4.51721V27.7422L17.8616 19.3485L15.3861 17.8973L11.7982 20.0501L11.7982 20.0501L7.05747 22.8945C6.74854 23.0799 6.36379 23.0847 6.05028 22.9072C5.73678 22.7297 5.54299 22.3973 5.54299 22.037V2.80425ZM13.4199 16.7447L12.2837 16.0787V17.4264L13.4199 16.7447ZM10.2837 18.6264V9.2963C10.2837 8.94173 10.4715 8.61368 10.7772 8.43408C11.0829 8.25448 11.4609 8.25019 11.7706 8.42282L28.3578 17.6682V14.3276L7.54299 2.7038V20.2708L10.2837 18.6264ZM27.3577 19.4004L12.2837 10.9985V13.7604L20.3821 18.5077C20.6916 18.6891 20.8802 19.0225 20.8763 19.3813C20.8724 19.74 20.6766 20.0692 20.3632 20.2439L3.63404 29.5683L6.60618 31.7974L27.3577 19.4004Z" fill="#E6DAFE"/>
<path d="M40.5739 23.3C40.5139 23.3 40.4599 23.282 40.4119 23.246C40.3759 23.198 40.3579 23.144 40.3579 23.084V10.916C40.3579 10.856 40.3759 10.808 40.4119 10.772C40.4599 10.724 40.5139 10.7 40.5739 10.7H44.9659C45.8179 10.7 46.5679 10.85 47.2159 11.15C47.8639 11.45 48.3619 11.882 48.7099 12.446C49.0699 12.998 49.2499 13.646 49.2499 14.39V19.61C49.2499 20.354 49.0699 21.008 48.7099 21.572C48.3619 22.124 47.8639 22.55 47.2159 22.85C46.5679 23.15 45.8179 23.3 44.9659 23.3H40.5739ZM42.4459 21.41C42.4459 21.47 42.4759 21.5 42.5359 21.5H45.0559C45.6919 21.5 46.1959 21.302 46.5679 20.906C46.9519 20.498 47.1499 19.958 47.1619 19.286V14.732C47.1619 14.048 46.9699 13.508 46.5859 13.112C46.2019 12.704 45.6859 12.5 45.0379 12.5H42.5359C42.4759 12.5 42.4459 12.53 42.4459 12.59V21.41Z" fill="#E6DAFE"/>
<path d="M60.0169 12.284C60.0169 12.344 59.9929 12.398 59.9449 12.446C59.9089 12.482 59.8609 12.5 59.8009 12.5H53.6629C53.6029 12.5 53.5729 12.53 53.5729 12.59V15.956C53.5729 16.016 53.6029 16.046 53.6629 16.046H57.7849C57.8449 16.046 57.8929 16.07 57.9289 16.118C57.9769 16.154 58.0009 16.202 58.0009 16.262V17.63C58.0009 17.69 57.9769 17.744 57.9289 17.792C57.8929 17.828 57.8449 17.846 57.7849 17.846H53.6629C53.6029 17.846 53.5729 17.876 53.5729 17.936V21.41C53.5729 21.47 53.6029 21.5 53.6629 21.5H59.8009C59.8609 21.5 59.9089 21.524 59.9449 21.572C59.9929 21.608 60.0169 21.656 60.0169 21.716V23.084C60.0169 23.144 59.9929 23.198 59.9449 23.246C59.9089 23.282 59.8609 23.3 59.8009 23.3H51.7009C51.6409 23.3 51.5869 23.282 51.5389 23.246C51.5029 23.198 51.4849 23.144 51.4849 23.084V10.916C51.4849 10.856 51.5029 10.808 51.5389 10.772C51.5869 10.724 51.6409 10.7 51.7009 10.7H59.8009C59.8609 10.7 59.9089 10.724 59.9449 10.772C59.9929 10.808 60.0169 10.856 60.0169 10.916V12.284Z" fill="#E6DAFE"/>
<path d="M69.2112 23.3C69.0912 23.3 69.0072 23.246 68.9592 23.138L66.5832 17.954C66.5592 17.906 66.5232 17.882 66.4752 17.882H64.3152C64.2552 17.882 64.2252 17.912 64.2252 17.972V23.084C64.2252 23.144 64.2012 23.198 64.1532 23.246C64.1172 23.282 64.0692 23.3 64.0092 23.3H62.3532C62.2932 23.3 62.2392 23.282 62.1912 23.246C62.1552 23.198 62.1372 23.144 62.1372 23.084V10.916C62.1372 10.856 62.1552 10.808 62.1912 10.772C62.2392 10.724 62.2932 10.7 62.3532 10.7H67.3032C68.0352 10.7 68.6832 10.856 69.2472 11.168C69.8112 11.468 70.2492 11.9 70.5612 12.464C70.8732 13.016 71.0292 13.652 71.0292 14.372C71.0292 15.2 70.8132 15.908 70.3812 16.496C69.9612 17.072 69.3732 17.474 68.6172 17.702C68.5932 17.702 68.5752 17.714 68.5632 17.738C68.5512 17.762 68.5512 17.786 68.5632 17.81L71.1012 23.048C71.1252 23.096 71.1372 23.132 71.1372 23.156C71.1372 23.252 71.0712 23.3 70.9392 23.3H69.2112ZM64.3152 12.5C64.2552 12.5 64.2252 12.53 64.2252 12.59V16.172C64.2252 16.232 64.2552 16.262 64.3152 16.262H67.0152C67.5912 16.262 68.0532 16.094 68.4012 15.758C68.7612 15.41 68.9412 14.954 68.9412 14.39C68.9412 13.826 68.7612 13.37 68.4012 13.022C68.0532 12.674 67.5912 12.5 67.0152 12.5H64.3152Z" fill="#E6DAFE"/>
<path d="M73.3923 23.3C73.3323 23.3 73.2783 23.282 73.2303 23.246C73.1943 23.198 73.1763 23.144 73.1763 23.084V10.916C73.1763 10.856 73.1943 10.808 73.2303 10.772C73.2783 10.724 73.3323 10.7 73.3923 10.7H75.0483C75.1083 10.7 75.1563 10.724 75.1923 10.772C75.2403 10.808 75.2643 10.856 75.2643 10.916V23.084C75.2643 23.144 75.2403 23.198 75.1923 23.246C75.1563 23.282 75.1083 23.3 75.0483 23.3H73.3923Z" fill="#E6DAFE"/>
</svg>
