<svg width="52" height="14" viewBox="0 0 52 14" fill="none" xmlns="http://www.w3.org/2000/svg">
<path d="M36.4855 14H33.1686C29.1907 14 25.958 10.8617 25.958 7C25.958 3.13833 29.1907 0 33.1686 0C37.1466 0 40.3792 3.13833 40.3792 7V13.86H37.495V7C37.495 4.67832 35.5603 2.8 33.1686 2.8C30.7771 2.8 28.8422 4.67832 28.8422 7C28.8422 9.32168 30.7771 11.2 33.1686 11.2H36.4855V14Z" fill="#E6DAFE"/>
<path d="M20.1899 13.86H17.3057V7C17.3057 3.13833 20.5384 0 24.5162 0V2.8C22.1247 2.8 20.1899 4.67832 20.1899 7V13.86Z" fill="#E6DAFE"/>
<path d="M7.21058 14C3.23273 14 0 10.8617 0 7C0 3.13833 3.23273 0 7.21058 0C11.1884 0 14.4212 3.13833 14.4212 7V8.4H6.129V5.6H11.2846C10.6837 3.96668 9.08534 2.8 7.21058 2.8C4.81906 2.8 2.88423 4.67832 2.88423 7C2.88423 9.32168 4.81906 11.2 7.21058 11.2C8.6527 11.2 9.99865 10.5 10.8038 9.33332L13.1954 10.8967C11.8614 12.8333 9.62613 14 7.21058 14Z" fill="#E6DAFE"/>
<path d="M51.748 2.79993H44.7056V13.8599H51.748V2.79993Z" fill="#E6DAFE"/>
</svg>
