<svg width="23" height="14" viewBox="0 0 23 14" fill="none" xmlns="http://www.w3.org/2000/svg">
<path d="M8.73864 0.466748C4.85608 1.9642 4.50042 5.79919 3.38714 7.59023C2.26067 9.40253 -0.320033 10.4025 0.0328645 11.3261C0.385776 12.2496 2.96955 11.2577 5.01368 11.8469C7.0336 12.4292 9.85191 15.0403 13.7345 13.5429C15.7124 12.78 17.1445 11.2099 17.8031 9.35017C17.874 9.15055 17.7415 8.93705 17.5315 8.91734C17.4009 8.90502 17.2754 8.97371 17.2166 9.0914C16.6209 10.2836 15.5989 11.2653 14.2615 11.781C12.0537 12.6325 9.63791 11.964 8.15425 10.2872C7.81729 9.90651 7.52907 9.47308 7.30157 8.99404C7.23902 8.8622 7.17954 8.72819 7.1268 8.58958C7.07376 8.45094 7.02869 8.31139 6.9873 8.17123C8.15425 7.62474 9.50085 7.0459 11.0274 6.45721C12.5242 5.87991 13.8866 5.41166 15.0994 5.03707C15.92 4.78385 16.6721 4.57313 17.3512 4.40093C17.4003 4.3886 17.4486 4.37629 17.4968 4.36427C17.5995 4.3387 17.705 4.39384 17.743 4.49303L17.7437 4.49489C17.766 4.55372 17.7854 4.61287 17.8063 4.67202C17.9405 5.0537 18.041 5.43938 18.1076 5.826C18.1367 5.99512 18.3207 6.08723 18.4715 6.00591C19.0289 5.70523 19.5389 5.41197 19.9945 5.12979C21.6921 4.07933 22.6334 3.18841 22.4402 2.68351C22.2474 2.1783 20.9547 2.14935 18.9934 2.50977C18.37 2.62436 17.6789 2.77839 16.9342 2.96908C16.8054 3.00204 16.6751 3.03624 16.5433 3.07135C15.9165 3.23833 15.2555 3.42962 14.5672 3.64373C13.2871 4.04205 11.9139 4.51922 10.4961 5.06602C9.16972 5.57771 7.91264 6.10818 6.75981 6.63681C6.74569 4.39322 8.09568 2.27225 10.3035 1.42079C11.6407 0.905103 13.0541 0.947304 14.291 1.43311C14.4129 1.48117 14.5519 1.4479 14.6411 1.35087C14.784 1.1953 14.7401 0.94762 14.5546 0.846571C12.8266 -0.09208 10.7165 -0.296006 8.73864 0.466748Z" fill="#E6DAFE"/>
</svg>
