<svg width="139" height="218" viewBox="0 0 139 218" fill="none" xmlns="http://www.w3.org/2000/svg">
<path d="M4.3847 184.802C9.48241 187.441 14.5892 190.059 19.6717 192.721C35.2482 200.875 50.8125 209.043 66.3859 217.202C68.4671 218.292 70.5512 218.253 72.6324 217.16C83.6931 211.353 94.7569 205.548 105.824 199.752C115.507 194.679 125.182 189.588 134.89 184.562C137.626 183.14 139 181.115 139 178.049C138.97 132.71 138.96 87.3704 138.988 42.0309C138.988 38.939 137.711 36.8363 134.978 35.2903C115.001 23.9858 95.0495 12.6368 75.1066 1.27014C73.4612 0.331304 71.7792 -0.130709 69.8961 0.0321801C69.0338 0.423114 68.1624 0.793317 67.3153 1.21091C65.1275 2.28597 62.9489 3.38177 60.7672 4.46869C51.6626 9.21321 42.5641 13.9607 33.4565 18.6963C27.8713 21.6017 22.2769 24.4833 16.6887 27.3798C12.6544 29.4707 8.63533 31.5942 4.57971 33.6495C3.26035 34.3189 2.09027 35.1452 1.03905 36.1551C0.319946 37.6477 1.52588e-05 39.1996 1.52588e-05 40.867C0.0182953 85.1521 0.0121765 129.434 0.0121765 173.719C0.0121765 175.446 0.00610352 177.173 0.0274353 178.896C0.0548553 181.1 1.13045 182.738 2.9861 183.931C3.44925 184.227 3.9185 184.515 4.3847 184.805V184.802ZM117.61 179.791L117.585 179.874L117.5 179.853C117.305 179.933 117.113 180.013 116.918 180.09C114.145 181.766 111.235 183.205 108.332 184.648C107.896 184.894 107.466 185.154 107.021 185.385C95.0281 191.679 83.0197 197.951 71.0509 204.292C69.8687 204.917 69.0064 204.873 67.8637 204.266C55.444 197.7 42.9968 191.184 30.5558 184.657L30.4217 184.639L30.376 184.512L30.2998 184.449C25.7688 182.21 21.2653 179.915 16.8837 177.404C16.4662 177.413 16.3413 177.14 16.2773 176.808C13.407 176.412 12.4045 175.325 12.4045 172.609C12.4015 155.224 12.3954 137.839 12.3954 120.455C12.3954 119.948 12.4441 119.439 12.4776 118.811C13.9676 119.525 15.3388 120.022 16.5424 120.849C16.8684 120.976 17.2036 121.083 17.5175 121.234C25.6378 125.155 33.7369 129.117 41.8847 132.988C47.2017 135.515 52.467 138.144 57.8207 140.6C60.5844 141.867 63.345 143.247 66.0355 144.704C68.3574 145.96 70.6366 145.945 72.9645 144.645C76.6088 142.611 80.2896 140.638 83.9582 138.648C90.5429 135.076 97.1306 131.51 103.718 127.942C106.388 126.336 109.109 124.823 111.924 123.476C113.883 122.297 115.833 121.097 117.966 120.218C120.62 118.432 123.533 117.093 126.544 115.396C126.544 116.237 126.544 116.812 126.544 117.386C126.544 133.966 126.544 150.548 126.544 167.127C126.544 169.496 126.55 171.865 126.532 174.232C126.528 174.638 126.693 175.088 126.117 175.369C123.405 176.699 120.855 178.325 118.045 179.474L118.055 179.465L117.759 179.708C117.735 179.776 117.686 179.803 117.613 179.782L117.61 179.791ZM19.5742 39.7149C20.1988 39.3447 20.5279 39.1226 20.8783 38.942C25.7475 36.4127 30.6197 33.8865 35.492 31.3632C46.5375 25.6443 57.644 20.029 68.5828 14.1236C70.8529 12.8975 72.2759 13.5461 73.9913 14.6063C74.2473 14.7633 74.4911 14.941 74.7531 15.0891C88.3185 22.7952 101.887 30.4984 115.449 38.2075C116.955 39.0634 118.439 39.9519 120.044 40.8937C119.618 41.1691 119.42 41.3201 119.2 41.4356C103.767 49.7252 88.3277 58.003 72.9035 66.3103C72.1235 66.7309 71.5202 66.6331 70.798 66.257C57.4733 59.3505 44.1395 52.4588 30.8087 45.5612C27.1522 43.6687 23.5049 41.7585 19.5773 39.7149H19.5742ZM12.5142 98.7223V49.7756C28.0267 57.7927 43.3625 65.7209 58.9511 73.7765C43.3076 82.1816 28.0054 90.4001 12.5142 98.7223ZM119.798 105.232C105.016 113.293 90.4728 121.225 75.78 129.239V82.4778C90.4972 90.0862 105.019 97.5939 119.798 105.232ZM63.2262 85.2765C63.2262 86.0762 63.2262 86.5678 63.2262 87.0565C63.2262 94.6974 63.153 102.341 63.2444 109.982C63.3206 116.326 62.8788 122.676 63.4851 129.014C63.5613 129.804 63.1439 129.819 62.5588 129.535C61.6082 129.073 60.6544 128.614 59.7007 128.155C49.4809 123.221 39.2581 118.293 29.0444 113.347C25.9913 111.869 22.9595 110.344 19.6169 108.691C34.2579 100.831 48.6186 93.1219 63.2262 85.2795V85.2765ZM85.0917 73.5929C85.692 73.2435 86.0698 73.0095 86.4629 72.7992C91.1797 70.2611 95.8965 67.726 100.619 65.1938C108.782 60.8195 116.958 56.4688 125.096 52.059C126.269 51.4222 126.568 51.4903 126.565 52.8586C126.532 66.4169 126.535 79.9752 126.565 93.5335C126.565 94.7863 126.346 94.9492 125.173 94.3332C119.337 91.262 113.457 88.2796 107.6 85.2499C100.178 81.4116 92.7611 77.5645 85.0917 73.59V73.5929Z" fill="#E6DAFE"/>
</svg>
