<svg width="296" height="24" viewBox="0 0 296 24" fill="none" xmlns="http://www.w3.org/2000/svg">
<path fill-rule="evenodd" clip-rule="evenodd" d="M7.10541 20.4624C7.10541 22.1358 7.58243 22.5182 10.6344 22.5182V23.5699H0V22.5182C2.09814 22.5182 2.81383 22.3269 2.81383 20.5103V3.44238C2.81383 1.62551 2.09814 1.43416 0 1.43416V0.382424H17.8353L17.9309 6.74103H17.0724C16.5954 1.96031 15.4032 1.53026 10.9683 1.53026H7.0579V10.9965H10.2051C13.2095 10.9965 13.4004 10.5182 13.6388 8.12785H14.4973V15.0602H13.6388C13.4004 12.6699 13.2095 12.2393 10.2051 12.2393H7.0579V20.4626H7.10569L7.10541 20.4624ZM20.1243 23.5699V22.5182C22.2228 22.5182 22.9382 22.3269 22.9382 20.5103V3.44238C22.9382 1.62551 22.2228 1.43416 20.1243 1.43416V0.382424H30.0436V1.43444C27.9452 1.43444 27.2297 1.6258 27.2297 3.44266V20.5106C27.2297 22.3271 27.9452 22.5185 30.0436 22.5185V23.5702H20.1241L20.1243 23.5699ZM52.5522 23.9524L36.7197 4.30276V20.4147C36.7197 22.2795 38.0072 22.5661 40.2012 22.5661V23.6181H31.8081V22.5661C34.0015 22.5661 35.1939 22.2795 35.1939 20.4147V2.53381C34.1924 1.48207 33.477 1.43416 31.8081 1.43416V0.382424H39.2474L51.3601 16.0162V3.53792C51.3601 1.67342 50.0726 1.38653 47.8789 1.38653V0.382424H56.3196V1.43444C54.1261 1.43444 52.9337 1.72133 52.9337 3.58611V23.9529H52.5522V23.9524ZM63.8545 23.5699H55.5089V22.5182C57.7026 22.5182 58.7041 22.2313 59.4193 20.3189L66.9542 0.143444H69.0523L77.1593 20.4624C77.8747 22.2792 78.2084 22.4703 79.8776 22.4703V23.522H70.197V22.4703C73.1536 22.4703 73.4398 22.2313 72.7241 20.4624L70.3401 14.2951H63.0913L60.9456 20.271C60.278 22.0879 61.3271 22.4703 63.9023 22.4703V23.5699H63.8545ZM63.5205 13.0996H69.8152L66.5249 4.78101L63.5205 13.0996ZM101.623 23.9524L85.8386 4.30276V20.4147C85.8386 22.2795 87.126 22.5661 89.3198 22.5661V23.6181H81.1172V22.5661C83.1203 22.5661 84.3125 22.2795 84.3125 20.4147V2.58171C83.1681 1.52998 82.3096 1.43416 80.4024 1.43416V0.382424H88.3182L100.431 16.0162V3.53792C100.431 1.67342 99.1434 1.38653 96.95 1.38653V0.382424H105.343V1.43444C103.149 1.43444 101.957 1.72133 101.957 3.58611V23.9529H101.623V23.9524ZM125.038 0.334797H125.611L125.944 7.2669L125.086 7.31481C124.514 3.34684 122.416 1.24309 118.553 1.24309C114.261 1.24309 111.018 4.92445 111.018 10.5658C111.018 17.7851 115.548 21.8965 120.317 21.8965C122.368 21.8965 124.228 21.323 126.04 19.363L126.707 20.032C125.229 22.1358 122.32 23.9047 118.409 23.9047C112.592 23.9047 106.678 19.5062 106.678 12.1434C106.678 5.01999 112.067 0 118.6 0C121.7 0 123.322 1.33863 124.18 1.33863C124.561 1.33863 124.847 1.00411 125.038 0.334797ZM128.615 23.5699V22.5182C130.713 22.5182 131.428 22.3269 131.428 20.5103V3.44238C131.428 1.62551 130.713 1.43416 128.615 1.43416V0.382424H138.534V1.43444C136.436 1.43444 135.72 1.6258 135.72 3.44266V20.5106C135.72 22.3271 136.436 22.5185 138.534 22.5185V23.5702L128.615 23.5699ZM147.881 23.5699H140.108V22.5182C141.824 22.5182 142.73 22.2313 143.446 20.3189L150.981 0.143444H153.079L161.186 20.4624C161.901 22.2792 162.235 22.4703 163.904 22.4703V23.522H154.224V22.4703C157.18 22.4703 157.466 22.2313 156.751 20.4624L154.367 14.2951H147.118L144.972 20.271C144.304 22.0879 145.354 22.4703 147.929 22.4703V23.5699H147.881ZM147.547 13.0996H153.842L150.599 4.78101L147.547 13.0996ZM165.525 23.5699V22.5182C167.624 22.5182 168.339 22.3269 168.339 20.5103V3.44238C168.339 1.62551 167.624 1.43416 165.525 1.43416V0.382424H175.397V1.43444C173.299 1.43444 172.631 1.6258 172.631 3.44266V20.654C172.631 22.1837 173.394 22.375 174.634 22.375H175.826C180.309 22.375 181.739 21.7057 182.979 16.5902L183.838 16.6858L183.122 23.5226H165.525V23.5705V23.5699ZM213.595 0.382424L213.69 7.12346H212.832C212.355 2.15138 211.163 1.53026 206.728 1.53026H205.297V20.4626C205.297 22.2795 205.965 22.5185 208.826 22.5185V23.5702H197.476V22.5185C200.338 22.5185 201.053 22.2316 201.053 20.4626V1.52998H199.622C195.187 1.52998 193.995 2.15138 193.518 7.12346H192.66L192.755 0.382424H213.595ZM215.836 23.5702V22.5182C217.935 22.5182 218.65 22.3269 218.65 20.5103V3.44238C218.65 1.62551 217.935 1.43416 215.836 1.43416V0.382424H225.756V1.43444C223.657 1.43444 222.942 1.6258 222.942 3.44266V20.5106C222.942 22.3271 223.657 22.5185 225.756 22.5185V23.5702H215.836ZM255.609 0.382142V1.43444C253.51 1.43444 252.604 1.53026 252.795 3.39475L254.607 20.6061C254.798 22.375 255.465 22.5661 257.564 22.5661V23.6181H247.692V22.5661C249.743 22.5661 250.458 22.375 250.315 20.6061L248.455 2.53352L241.159 24H240.873L233.719 2.48618L232.002 20.5579C231.812 22.3748 233.052 22.5658 235.15 22.5658V23.6179H227.424V22.5658C229.523 22.5658 230.238 22.2313 230.381 20.5579L232.193 3.34656C232.384 1.52998 231.478 1.38653 229.379 1.38653V0.382424H237.486L242.351 16.2072L247.596 0.382424H255.608L255.609 0.382142ZM274.064 15.0597H273.205C272.967 12.6693 272.776 12.2387 269.772 12.2387H266.243V20.6534C266.243 22.1831 267.006 22.3745 268.245 22.3745H270.153C274.636 22.3745 276.066 21.7052 277.306 16.5897L278.165 16.6852L277.354 23.522H259.137V22.47C261.235 22.47 261.951 22.2789 261.951 20.4621V3.44238C261.951 1.62551 261.235 1.43416 259.137 1.43416V0.382424H276.639L276.734 6.16726H275.876C275.351 2.05556 274.302 1.57761 269.724 1.57761H266.29V10.9959H269.819C272.823 10.9959 273.014 10.5179 273.253 8.12757H274.111V15.06H274.063L274.064 15.0597ZM292.471 18.7887C292.471 16.6852 291.136 15.6335 288.847 14.3425L285.175 12.43C282.409 10.948 280.788 9.32247 280.788 6.40624C280.788 2.77307 283.887 0 287.941 0C290.707 0 292.137 1.33863 292.948 1.33863C293.473 1.33863 293.711 1.00411 293.949 0.334797H294.617L294.951 6.83685L294.092 6.88476C293.616 3.72899 291.374 1.29072 288.227 1.29072C285.842 1.29072 284.269 2.72516 284.269 4.7331C284.269 6.93239 285.938 7.84068 287.798 8.84479L290.945 10.5179C293.902 12.1434 296 13.769 296 16.8765C296 20.9882 292.471 23.9047 288.084 23.9047C284.984 23.9047 283.458 22.4224 282.647 22.4224C282.123 22.4224 281.837 22.9006 281.598 23.6179H280.93L280.454 16.7331L281.312 16.6376C281.98 20.9403 284.936 22.7093 287.893 22.7093C290.373 22.6614 292.471 21.562 292.471 18.7892L292.471 18.7887Z" fill="#E6DAFE"/>
</svg>
