<svg width="197" height="10" viewBox="0 0 197 10" fill="none" xmlns="http://www.w3.org/2000/svg">
<g clip-path="url(#clip0_7916_257)">
<path d="M2.45422 2.07867V4.22664H6.21455V6.02816H2.45422V9.70051H0.15625V0.207867H7.18945V2.07867H2.45422ZM22.0915 7.82964V9.70051H15.8243V0.207867H18.1223V7.82964H22.0915ZM31.4227 8.31473C30.7263 7.34465 30.3781 6.09745 30.3781 4.91953C30.3781 2.42512 31.7012 0.0692891 34.6259 0.0692891C35.9489 0.0692891 36.9935 0.485024 37.7594 1.52436C38.4558 2.42512 38.804 3.8109 38.804 4.91953C38.804 6.02816 38.5255 7.34465 37.8987 8.17613C37.1328 9.28476 35.9489 9.76978 34.6259 9.76978C33.3028 9.83904 32.1886 9.35403 31.4227 8.31473ZM33.0939 2.97943C32.885 3.53375 32.8154 4.36522 32.8154 4.91953C32.8154 6.09745 33.0243 7.96825 34.6259 7.96825C35.3919 7.96825 35.8097 7.62177 36.0882 6.85962C36.2971 6.3746 36.3667 5.54314 36.3667 4.91953C36.3667 4.22664 36.2971 3.39517 36.0186 2.77157C35.7401 2.14796 35.3222 1.87081 34.6259 1.87081C33.7902 1.87081 33.3724 2.28654 33.0939 2.97943ZM58.8591 9.70051H56.5611L54.9595 3.46446L53.4275 9.70051H51.1991L48.6226 0.207867H50.9902L52.5222 6.58247L54.1238 0.207867H56.2129L57.8841 6.58247L57.9538 6.16674L59.4161 0.207867H61.2963L58.8591 9.70051ZM98.8996 9.70051H97.6464V1.24721H94.8604V0.207867H101.685V1.24721H98.8996V9.70051ZM115.891 9.70051L114.08 5.61243H111.364V9.70051H110.111V0.207867H113.802C114.637 0.207867 115.403 0.277157 116.03 0.762177C116.656 1.24721 117.074 2.00938 117.074 2.84086C117.074 3.94949 116.378 4.98882 115.264 5.26597L117.213 9.63117H115.891V9.70051ZM113.663 4.64237C114.289 4.64237 114.846 4.57308 115.334 4.08806C115.681 3.74161 115.821 3.32588 115.821 2.84086C115.821 2.28654 115.612 1.80152 115.124 1.52436C114.707 1.24721 114.289 1.24721 113.732 1.24721H111.295V4.64237H113.663ZM133.23 9.70051H131.977L131.001 6.92892H127.38L126.476 9.70051H125.431L128.634 0.207867H130.026L133.23 9.70051ZM129.191 1.45507L127.659 6.02816H130.653L129.191 1.45507ZM142.422 0.207867H145.555C146.948 0.207867 147.993 0.485024 148.968 1.52436C149.803 2.49441 150.151 3.67232 150.151 4.91953C150.151 6.09745 149.803 7.20608 149.107 8.17613C148.341 9.21542 147.297 9.70051 145.973 9.70051H142.492V0.207867H142.422ZM145.486 8.66114C146.6 8.66114 147.505 8.384 148.201 7.48323C148.689 6.79034 148.898 5.82029 148.898 4.91953C148.898 3.94949 148.619 2.91015 147.993 2.14796C147.297 1.3165 146.53 1.17792 145.486 1.17792H143.675V8.66114H145.486ZM165.889 9.70051H159.552V0.207867H165.75V1.24721H160.736V4.22664H164.705V5.19668H160.736V8.66114H165.889V9.70051ZM180.582 9.70051L178.772 5.61243H176.056V9.70051H174.802V0.207867H178.493C179.329 0.207867 180.095 0.277157 180.721 0.762177C181.348 1.24721 181.766 2.00938 181.766 2.84086C181.766 3.94949 181.07 4.98882 179.956 5.26597L181.905 9.63117H180.582V9.70051ZM178.354 4.64237C178.98 4.64237 179.538 4.57308 180.025 4.08806C180.374 3.74161 180.513 3.32588 180.513 2.84086C180.513 2.28654 180.303 1.80152 179.816 1.52436C179.398 1.24721 178.981 1.24721 178.423 1.24721H175.986V4.64237H178.354ZM189.983 6.85962C190.4 8.17613 191.515 8.79975 192.908 8.79975C193.465 8.79975 194.231 8.66114 194.648 8.31473C194.997 8.03752 195.276 7.5525 195.276 7.0675C195.276 6.09745 194.44 5.751 193.604 5.54314L192.002 5.1274C191.375 4.98882 190.749 4.85024 190.192 4.36522C189.704 3.94949 189.426 3.25659 189.426 2.63299C189.426 0.831473 191.028 0 192.768 0C194.44 0 195.762 0.762185 196.25 2.28654L195.136 2.5637C194.927 1.52436 193.744 0.900762 192.699 0.900762C191.793 0.900762 190.61 1.38578 190.61 2.42512C190.61 3.46446 191.445 3.74161 192.42 3.94949L193.883 4.29593C194.509 4.43451 195.205 4.64237 195.693 5.05811C196.319 5.54314 196.598 6.16674 196.598 6.92892C196.598 7.76038 196.18 8.59187 195.484 9.07689C194.788 9.63117 193.813 9.76978 192.908 9.76978C190.888 9.76978 189.565 8.93828 188.939 7.0675L189.983 6.85962Z" fill="#242235"/>
<path fill-rule="evenodd" clip-rule="evenodd" d="M83.0225 9.77103H73.2732V0.0705566H83.0225V9.77103Z" fill="#242235"/>
</g>
<defs>
<clipPath id="clip0_7916_257">
<rect width="196.518" height="9.777" fill="white" transform="translate(0.15625)"/>
</clipPath>
</defs>
</svg>
