<svg width="98" height="23" viewBox="0 0 98 23" fill="none" xmlns="http://www.w3.org/2000/svg">
<path d="M12.5922 5.26506V17.6795C12.5922 19.0759 13.1402 20.4151 14.1156 21.4025C15.0909 22.3899 16.4139 22.9446 17.7933 22.9446C19.1727 22.9446 20.4956 22.3899 21.471 21.4025C22.4464 20.4151 22.9944 19.0759 22.9944 17.6795V5.26506C22.9944 3.86868 22.4464 2.52949 21.471 1.5421C20.4956 0.55471 19.1727 0 17.7933 0C16.4139 0 15.0909 0.55471 14.1156 1.5421C13.1402 2.52949 12.5922 3.86868 12.5922 5.26506ZM16.3151 17.6795V5.26506C16.3128 5.06564 16.3518 4.86795 16.4295 4.68469C16.5073 4.50143 16.622 4.33666 16.7664 4.20095C16.9107 4.06525 17.0815 3.96162 17.2678 3.89672C17.4541 3.83181 17.6518 3.80708 17.848 3.8241C18.0366 3.81793 18.2244 3.85099 18.3999 3.92123C18.5754 3.99146 18.7347 4.09738 18.8681 4.23243C19.0015 4.36749 19.1062 4.52881 19.1756 4.70642C19.2449 4.88403 19.2776 5.07416 19.2715 5.26506V17.6795C19.2659 18.0599 19.1141 18.4231 18.8483 18.6921C18.5826 18.9611 18.2238 19.1148 17.848 19.1205C17.6539 19.1279 17.4602 19.0965 17.278 19.0281C17.0959 18.9596 16.9288 18.8555 16.7865 18.7217C16.6441 18.5879 16.5292 18.4269 16.4483 18.2481C16.3674 18.0693 16.3221 17.8761 16.3151 17.6795ZM52.9966 0.277108H42.4849V4.04578H45.8793V22.5566H49.6022V4.04578H52.9966V0.277108ZM63.9464 0.277108V17.6795C63.9464 18.0617 63.7964 18.4282 63.5294 18.6984C63.2625 18.9687 62.9004 19.1205 62.5229 19.1205C62.1454 19.1205 61.7833 18.9687 61.5164 18.6984C61.2494 18.4282 61.0994 18.0617 61.0994 17.6795V0.277108H57.267V17.6795C57.267 19.0906 57.8208 20.4439 58.8064 21.4417C59.7921 22.4395 61.129 23 62.5229 23C63.9168 23 65.2537 22.4395 66.2394 21.4417C67.225 20.4439 67.7788 19.0906 67.7788 17.6795V0.277108H63.9464ZM98 4.04578V0.277108H88.8022V22.5566H98V18.788H92.5251V13.0241H96.029V9.25542H92.5251V4.04578H98ZM38.981 22.5566H35.0391L32.3017 12.0265C32.9847 11.8897 33.599 11.5159 34.0388 10.9695C34.4786 10.4231 34.7162 9.73849 34.7106 9.03374V5.59759C34.7151 5.39256 34.6785 5.18874 34.6031 4.99841C34.5276 4.80808 34.4149 4.6352 34.2716 4.49018C34.1284 4.34517 33.9576 4.23103 33.7696 4.15466C33.5815 4.07828 33.3802 4.04124 33.1777 4.04578H31.7542V22.5566H28.0313V0.277108H33.1777C34.5377 0.264762 35.8487 0.791087 36.8306 1.74373C37.8126 2.69637 38.3879 3.99984 38.4335 5.3759V8.92289C38.4835 9.84339 38.3216 10.7631 37.9606 11.6094C37.5996 12.4558 37.0493 13.2057 36.3531 13.8L38.981 22.5566ZM80.4804 0.277108V12.4699L76.648 0.277108H72.8156V22.5566H76.648V11.694L80.1519 22.5566H84.3128V0.277108H80.4804ZM0 0.609638V22.8892H3.9419V13.3566H7.55531V9.58795H3.9419V4.37831H9.63575V0.609638H0Z" fill="#E6DAFE"/>
</svg>
