<svg width="102" height="19" viewBox="0 0 102 19" fill="none" xmlns="http://www.w3.org/2000/svg">
<g clip-path="url(#clip0_1_2264)">
<path d="M101.009 12.6511C100.525 13.407 99.8496 14.0252 99.0501 14.4448C98.2507 14.8644 97.3544 15.071 96.4497 15.0442C94.3493 14.9752 92.5093 13.2708 91.6861 10.4337C90.6668 6.9263 91.5411 4.53034 93.8315 3.4854C95.6019 2.68759 97.6486 3.52797 98.2466 4.3734C97.4419 4.76185 97.2997 5.75364 97.4822 6.35445C97.5706 6.62522 97.724 6.87084 97.9291 7.07041C98.1342 7.26998 98.3851 7.41759 98.6604 7.50066C98.9354 7.58339 99.2267 7.59901 99.5092 7.54619C99.7917 7.49337 100.057 7.37368 100.282 7.19736C100.891 6.73207 101.058 5.98489 100.891 5.23771C100.706 4.4399 100.036 3.79928 99.2526 3.30981C98.127 2.61558 96.8241 2.2539 95.4975 2.26739C91.7933 2.23288 88.3575 5.32286 88.3575 9.55603C88.3575 13.9169 92.1661 16.5575 95.4386 16.5575C96.6962 16.5786 97.9365 16.2667 99.0311 15.6542C100.126 15.0417 101.035 14.1508 101.664 13.074C101.621 13.0423 101.068 12.7072 101.009 12.6513" fill="#242235"/>
<path d="M85.6966 14.6402V7.44222C85.6966 5.93703 85.5305 4.87345 84.8117 3.94816C83.9104 2.78608 82.8188 2.35254 81.3919 2.35254C79.3802 2.35254 77.7388 3.55719 76.6711 4.96917C76.5401 4.606 76.3529 4.26514 76.1161 3.95874C75.2149 2.79666 74.1205 2.36287 72.6936 2.36287C70.8885 2.33138 69.3915 3.31536 68.3188 4.53311V2.6236H63.9335V3.05185H64.2019C64.7945 3.05185 65.1727 3.40554 65.1727 4.11569V14.6482C65.1727 15.3581 64.7945 15.7118 64.2044 15.7118H63.9364V16.1426H69.5689V15.7042H69.3006C68.7051 15.7042 68.3297 15.3506 68.3297 14.6404V6.14712C69.0378 5.21655 70.2204 4.18723 71.4786 4.18723C71.847 4.1658 72.2149 4.23498 72.5496 4.38858C72.8843 4.54219 73.1752 4.77542 73.3963 5.06742C73.7359 5.5806 73.8952 6.19001 73.8496 6.8016V14.6404C73.8496 15.3478 73.474 15.7042 72.8814 15.7042H72.613V16.1325H78.2456V15.7017H77.9775C77.3846 15.7017 77.0092 15.3478 77.0092 14.6379V7.43944C77.0131 7.03908 76.9952 6.63881 76.9557 6.24033C77.6557 5.2881 78.876 4.18723 80.1739 4.18723C80.5419 4.16593 80.9095 4.23519 81.2438 4.3888C81.5781 4.5424 81.8686 4.77557 82.0893 5.06742C82.4297 5.58027 82.5899 6.18955 82.5454 6.80135V14.6402C82.5454 15.3475 82.167 15.704 81.5744 15.704H81.3061V16.1323H86.9386V15.7015H86.6705C86.0776 15.7015 85.6997 15.3475 85.6997 14.6376" fill="#242235"/>
<path d="M56.0336 3.05483H56.3019C56.8945 3.05483 57.2727 3.40852 57.2727 4.11841V14.5368C57.2727 15.2442 56.8971 15.712 56.3044 15.712H56.0364V16.1403H61.6689V15.7145H61.4006C60.8079 15.7145 60.4323 15.3611 60.4323 14.6512V4.11866C60.4323 3.41103 60.8079 3.05483 61.4006 3.05483H61.6689V2.62405H56.0361L56.0336 3.05483Z" fill="#242235"/>
<path d="M4.05378 6.04594C5.58262 6.04594 6.34705 4.78637 7.11147 4.78637C7.87589 4.78637 8.51291 6.04594 10.1692 6.04594C11.8254 6.04594 13.2268 4.78637 13.2268 3.02297C13.2268 1.25957 11.8254 0 10.1692 0C8.51291 0 7.87589 1.25957 7.11147 1.25957C6.34705 1.25957 5.71003 0 4.05378 0C2.39753 0 0.996094 1.25957 0.996094 3.02297C0.996094 4.78637 2.52494 6.04594 4.05378 6.04594Z" fill="#242235"/>
<path d="M4.05378 12.0919C5.58262 12.0919 6.34705 10.8323 7.11147 10.8323C7.87589 10.8323 8.51291 12.0919 10.1692 12.0919C11.8254 12.0919 13.2268 10.8323 13.2268 9.06893C13.2268 7.30553 11.8254 6.04596 10.1692 6.04596C8.51291 6.04596 7.87589 7.30553 7.11147 7.30553C6.34705 7.30553 5.71003 6.04596 4.05378 6.04596C2.39753 6.04596 0.996094 7.30553 0.996094 9.06893C0.996094 10.8323 2.52494 12.0919 4.05378 12.0919Z" fill="#242235"/>
<path d="M4.05378 18.1378C5.58262 18.1378 6.34705 16.8783 7.11147 16.8783C7.87589 16.8783 8.51291 18.1378 10.1692 18.1378C11.8254 18.1378 13.2268 16.8783 13.2268 15.1149C13.2268 13.3515 11.8254 12.0919 10.1692 12.0919C8.51291 12.0919 7.87589 13.3515 7.11147 13.3515C6.34705 13.3515 5.71003 12.0919 4.05378 12.0919C2.39753 12.0919 0.996094 13.3515 0.996094 15.1149C0.996094 16.8783 2.52494 18.1378 4.05378 18.1378Z" fill="#242235"/>
<path d="M10.1692 6.04594C11.698 6.04594 12.4624 4.78637 13.2268 4.78637C13.9913 4.78637 14.6283 6.04594 16.2845 6.04594C17.9408 6.04594 19.3422 4.78637 19.3422 3.02297C19.3422 1.25957 17.9408 0 16.2845 0C14.6283 0 13.9913 1.25957 13.2268 1.25957C12.4624 1.25957 11.8254 0 10.1692 0C8.51291 0 7.11147 1.25957 7.11147 3.02297C7.11147 4.78637 8.64031 6.04594 10.1692 6.04594Z" fill="#242235"/>
<path d="M10.1692 12.0919C11.698 12.0919 12.4624 10.8323 13.2268 10.8323C13.9913 10.8323 14.6283 12.0919 16.2845 12.0919C17.9408 12.0919 19.3422 10.8323 19.3422 9.06893C19.3422 7.30553 17.9408 6.04596 16.2845 6.04596C14.6283 6.04596 13.9913 7.30553 13.2268 7.30553C12.4624 7.30553 11.8254 6.04596 10.1692 6.04596C8.51291 6.04596 7.11147 7.30553 7.11147 9.06893C7.11147 10.8323 8.64031 12.0919 10.1692 12.0919Z" fill="#242235"/>
<path d="M10.1692 18.1378C11.698 18.1378 12.4624 16.8783 13.2268 16.8783C13.9913 16.8783 14.6283 18.1378 16.2845 18.1378C17.9408 18.1378 19.3422 16.8783 19.3422 15.1149C19.3422 13.3515 17.9408 12.0919 16.2845 12.0919C14.6283 12.0919 13.9913 13.3515 13.2268 13.3515C12.4624 13.3515 11.8254 12.0919 10.1692 12.0919C8.51291 12.0919 7.11147 13.3515 7.11147 15.1149C7.11147 16.8783 8.64031 18.1378 10.1692 18.1378Z" fill="#242235"/>
<path d="M16.2845 6.04594C17.8134 6.04594 18.5778 4.78637 19.3422 4.78637C20.1066 4.78637 20.7437 6.04594 22.3999 6.04594C24.0561 6.04594 25.4576 4.78637 25.4576 3.02297C25.4576 1.25957 24.0561 0 22.3999 0C20.7437 0 20.1066 1.25957 19.3422 1.25957C18.5778 1.25957 17.9408 0 16.2845 0C14.6283 0 13.2268 1.25957 13.2268 3.02297C13.2268 4.78637 14.7557 6.04594 16.2845 6.04594Z" fill="#242235"/>
<path d="M16.2845 12.0919C17.8134 12.0919 18.5778 10.8323 19.3422 10.8323C20.1066 10.8323 20.7437 12.0919 22.3999 12.0919C24.0561 12.0919 25.4576 10.8323 25.4576 9.06893C25.4576 7.30553 24.0561 6.04596 22.3999 6.04596C20.7437 6.04596 20.1066 7.30553 19.3422 7.30553C18.5778 7.30553 17.9408 6.04596 16.2845 6.04596C14.6283 6.04596 13.2268 7.30553 13.2268 9.06893C13.2268 10.8323 14.7557 12.0919 16.2845 12.0919Z" fill="#242235"/>
<path d="M16.2845 18.1378C17.8134 18.1378 18.5778 16.8783 19.3422 16.8783C20.1066 16.8783 20.7437 18.1378 22.3999 18.1378C24.0561 18.1378 25.4576 16.8783 25.4576 15.1149C25.4576 13.3515 24.0561 12.0919 22.3999 12.0919C20.7437 12.0919 20.1066 13.3515 19.3422 13.3515C18.5778 13.3515 17.9408 12.0919 16.2845 12.0919C14.6283 12.0919 13.2268 13.3515 13.2268 15.1149C13.2268 16.8783 14.7557 18.1378 16.2845 18.1378Z" fill="#242235"/>
<path d="M22.3999 6.04594C23.9288 6.04594 24.6932 4.78637 25.4576 4.78637C26.222 4.78637 26.859 6.04594 28.5153 6.04594C30.1715 6.04594 31.573 4.78637 31.573 3.02297C31.573 1.25957 30.1715 0 28.5153 0C26.859 0 26.222 1.25957 25.4576 1.25957C24.6932 1.25957 24.0562 0 22.3999 0C20.7437 0 19.3422 1.25957 19.3422 3.02297C19.3422 4.78637 20.8711 6.04594 22.3999 6.04594Z" fill="#242235"/>
<path d="M22.3999 12.0919C23.9288 12.0919 24.6932 10.8323 25.4576 10.8323C26.222 10.8323 26.859 12.0919 28.5153 12.0919C30.1715 12.0919 31.573 10.8323 31.573 9.06893C31.573 7.30553 30.1715 6.04596 28.5153 6.04596C26.859 6.04596 26.222 7.30553 25.4576 7.30553C24.6932 7.30553 24.0562 6.04596 22.3999 6.04596C20.7437 6.04596 19.3422 7.30553 19.3422 9.06893C19.3422 10.8323 20.8711 12.0919 22.3999 12.0919Z" fill="#242235"/>
<path d="M22.3999 18.1378C23.9288 18.1378 24.6932 16.8783 25.4576 16.8783C26.222 16.8783 26.859 18.1378 28.5153 18.1378C30.1715 18.1378 31.573 16.8783 31.573 15.1149C31.573 13.3515 30.1715 12.0919 28.5153 12.0919C26.859 12.0919 26.222 13.3515 25.4576 13.3515C24.6932 13.3515 24.0562 12.0919 22.3999 12.0919C20.7437 12.0919 19.3422 13.3515 19.3422 15.1149C19.3422 16.8783 20.8711 18.1378 22.3999 18.1378Z" fill="#242235"/>
<path d="M28.5149 6.04594C30.0437 6.04594 30.8081 4.78637 31.5726 4.78637C32.337 4.78637 32.974 6.04594 34.6302 6.04594C36.2865 6.04594 37.6879 4.78637 37.6879 3.02297C37.6879 1.25957 36.2865 0 34.6302 0C32.974 0 32.337 1.25957 31.5726 1.25957C30.8081 1.25957 30.1711 0 28.5149 0C26.8586 0 25.4572 1.25957 25.4572 3.02297C25.4572 4.78637 26.986 6.04594 28.5149 6.04594Z" fill="#242235"/>
<path d="M28.5149 12.0919C30.0437 12.0919 30.8081 10.8324 31.5726 10.8324C32.337 10.8324 32.974 12.0919 34.6302 12.0919C36.2865 12.0919 37.6879 10.8324 37.6879 9.06896C37.6879 7.30556 36.2865 6.04599 34.6302 6.04599C32.974 6.04599 32.337 7.30556 31.5726 7.30556C30.8081 7.30556 30.1711 6.04599 28.5149 6.04599C26.8586 6.04599 25.4572 7.30556 25.4572 9.06896C25.4572 10.8324 26.986 12.0919 28.5149 12.0919Z" fill="#242235"/>
<path d="M28.5149 18.1378C30.0437 18.1378 30.8081 16.8782 31.5726 16.8782C32.337 16.8782 32.974 18.1378 34.6302 18.1378C36.2865 18.1378 37.6879 16.8782 37.6879 15.1148C37.6879 13.3514 36.2865 12.0918 34.6302 12.0918C32.974 12.0918 32.337 13.3514 31.5726 13.3514C30.8081 13.3514 30.1711 12.0918 28.5149 12.0918C26.8586 12.0918 25.4572 13.3514 25.4572 15.1148C25.4572 16.8782 26.986 18.1378 28.5149 18.1378Z" fill="#242235"/>
<path d="M34.6302 6.04594C36.159 6.04594 36.9234 4.78637 37.6878 4.78637C38.4523 4.78637 39.0893 6.04594 40.7455 6.04594C42.4018 6.04594 43.8032 4.78637 43.8032 3.02297C43.8032 1.25957 42.4018 0 40.7455 0C39.0893 0 38.4523 1.25957 37.6878 1.25957C36.9234 1.25957 36.2864 0 34.6302 0C32.9739 0 31.5725 1.25957 31.5725 3.02297C31.5725 4.78637 33.1013 6.04594 34.6302 6.04594ZM34.6302 12.0919C36.159 12.0919 36.9234 10.8323 37.6878 10.8323C38.4523 10.8323 39.0893 12.0919 40.7455 12.0919C42.4018 12.0919 43.8032 10.8323 43.8032 9.06892C43.8032 7.30552 42.4018 6.04594 40.7455 6.04594C39.0893 6.04594 38.4523 7.30552 37.6878 7.30552C36.9234 7.30552 36.2864 6.04594 34.6302 6.04594C32.9739 6.04594 31.5725 7.30552 31.5725 9.06892C31.5725 10.8323 33.1013 12.0919 34.6302 12.0919Z" fill="#242235"/>
<path d="M34.6302 18.1378C36.159 18.1378 36.9234 16.8782 37.6878 16.8782C38.4523 16.8782 39.0893 18.1378 40.7455 18.1378C42.4018 18.1378 43.8032 16.8782 43.8032 15.1148C43.8032 13.3514 42.4018 12.0918 40.7455 12.0918C39.0893 12.0918 38.4523 13.3514 37.6878 13.3514C36.9234 13.3514 36.2864 12.0918 34.6302 12.0918C32.9739 12.0918 31.5725 13.3514 31.5725 15.1148C31.5725 16.8782 33.1013 18.1378 34.6302 18.1378Z" fill="#242235"/>
<path d="M40.7454 6.04594C42.2743 6.04594 43.0387 4.78637 43.8031 4.78637C44.5675 4.78637 45.2045 6.04594 46.8608 6.04594C48.517 6.04594 49.9185 4.78637 49.9185 3.02297C49.9185 1.25957 48.517 0 46.8608 0C45.2045 0 44.5675 1.25957 43.8031 1.25957C43.0387 1.25957 42.4017 0 40.7454 0C39.0892 0 37.6877 1.25957 37.6877 3.02297C37.6877 4.78637 39.2166 6.04594 40.7454 6.04594ZM40.7454 12.0919C42.2743 12.0919 43.0387 10.8323 43.8031 10.8323C44.5675 10.8323 45.2045 12.0919 46.8608 12.0919C48.517 12.0919 49.9185 10.8323 49.9185 9.06892C49.9185 7.30552 48.517 6.04594 46.8608 6.04594C45.2045 6.04594 44.5675 7.30552 43.8031 7.30552C43.0387 7.30552 42.4017 6.04594 40.7454 6.04594C39.0892 6.04594 37.6877 7.30552 37.6877 9.06892C37.6877 10.8323 39.2166 12.0919 40.7454 12.0919Z" fill="#242235"/>
<path d="M40.7454 18.1378C42.2743 18.1378 43.0387 16.8782 43.8031 16.8782C44.5675 16.8782 45.2045 18.1378 46.8608 18.1378C48.517 18.1378 49.9185 16.8782 49.9185 15.1148C49.9185 13.3514 48.517 12.0918 46.8608 12.0918C45.2045 12.0918 44.5675 13.3514 43.8031 13.3514C43.0387 13.3514 42.4017 12.0918 40.7454 12.0918C39.0892 12.0918 37.6877 13.3514 37.6877 15.1148C37.6877 16.8782 39.2166 18.1378 40.7454 18.1378Z" fill="#242235"/>
<path d="M0.996092 3.02297C0.996092 4.53446 2.27013 5.2902 2.27013 6.04594C2.27013 6.80169 0.996092 7.43147 0.996092 9.06892C0.996092 10.7064 2.27013 12.0919 4.05378 12.0919C5.83743 12.0919 7.11147 10.7064 7.11147 9.06892C7.11147 7.43147 5.83743 6.80169 5.83743 6.04594C5.83743 5.2902 7.11147 4.66042 7.11147 3.02297C7.11147 1.38553 5.83743 0 4.05378 0C2.27013 0 0.996092 1.51149 0.996092 3.02297Z" fill="#242235"/>
<path d="M0.996092 9.06893C0.996092 10.5804 2.27013 11.3362 2.27013 12.0919C2.27013 12.8476 0.996092 13.4774 0.996092 15.1149C0.996092 16.7523 2.27013 18.1378 4.05378 18.1378C5.83743 18.1378 7.11147 16.7523 7.11147 15.1149C7.11147 13.4774 5.83743 12.8476 5.83743 12.0919C5.83743 11.3362 7.11147 10.7064 7.11147 9.06893C7.11147 7.43149 5.83743 6.04596 4.05378 6.04596C2.27013 6.04596 0.996092 7.55745 0.996092 9.06893Z" fill="#242235"/>
<path d="M7.11146 3.02297C7.11146 4.53446 8.3855 5.2902 8.3855 6.04594C8.3855 6.80169 7.11146 7.43147 7.11146 9.06892C7.11146 10.7064 8.3855 12.0919 10.1692 12.0919C11.9528 12.0919 13.2268 10.7064 13.2268 9.06892C13.2268 7.43147 11.9528 6.80169 11.9528 6.04594C11.9528 5.2902 13.2268 4.66042 13.2268 3.02297C13.2268 1.38553 11.9528 0 10.1692 0C8.3855 0 7.11146 1.51149 7.11146 3.02297Z" fill="#242235"/>
<path d="M7.11146 9.06893C7.11146 10.5804 8.3855 11.3362 8.3855 12.0919C8.3855 12.8476 7.11146 13.4774 7.11146 15.1149C7.11146 16.7523 8.3855 18.1378 10.1692 18.1378C11.9528 18.1378 13.2268 16.7523 13.2268 15.1149C13.2268 13.4774 11.9528 12.8476 11.9528 12.0919C11.9528 11.3362 13.2268 10.7064 13.2268 9.06893C13.2268 7.43149 11.9528 6.04596 10.1692 6.04596C8.3855 6.04596 7.11146 7.55745 7.11146 9.06893Z" fill="#242235"/>
<path d="M13.2269 3.02297C13.2269 4.53446 14.5009 5.2902 14.5009 6.04594C14.5009 6.80169 13.2269 7.43147 13.2269 9.06892C13.2269 10.7064 14.5009 12.0919 16.2845 12.0919C18.0682 12.0919 19.3422 10.7064 19.3422 9.06892C19.3422 7.43147 18.0682 6.80169 18.0682 6.04594C18.0682 5.2902 19.3422 4.66042 19.3422 3.02297C19.3422 1.38553 18.0682 0 16.2845 0C14.5009 0 13.2269 1.51149 13.2269 3.02297Z" fill="#242235"/>
<path d="M13.2269 9.06893C13.2269 10.5804 14.5009 11.3362 14.5009 12.0919C14.5009 12.8476 13.2269 13.4774 13.2269 15.1149C13.2269 16.7523 14.5009 18.1378 16.2845 18.1378C18.0682 18.1378 19.3422 16.7523 19.3422 15.1149C19.3422 13.4774 18.0682 12.8476 18.0682 12.0919C18.0682 11.3362 19.3422 10.7064 19.3422 9.06893C19.3422 7.43149 18.0682 6.04596 16.2845 6.04596C14.5009 6.04596 13.2269 7.55745 13.2269 9.06893Z" fill="#242235"/>
<path d="M19.3418 3.02297C19.3418 4.53446 20.6158 5.2902 20.6158 6.04594C20.6158 6.80169 19.3418 7.43147 19.3418 9.06892C19.3418 10.7064 20.6158 12.0919 22.3995 12.0919C24.1831 12.0919 25.4572 10.7064 25.4572 9.06892C25.4572 7.43147 24.1831 6.80169 24.1831 6.04594C24.1831 5.2902 25.4572 4.66042 25.4572 3.02297C25.4572 1.38553 24.1831 0 22.3995 0C20.6158 0 19.3418 1.51149 19.3418 3.02297Z" fill="#242235"/>
<path d="M19.3418 9.06896C19.3418 10.5804 20.6158 11.3362 20.6158 12.0919C20.6158 12.8477 19.3418 13.4775 19.3418 15.1149C19.3418 16.7523 20.6158 18.1379 22.3995 18.1379C24.1831 18.1379 25.4572 16.7523 25.4572 15.1149C25.4572 13.4775 24.1831 12.8477 24.1831 12.0919C24.1831 11.3362 25.4572 10.7064 25.4572 9.06896C25.4572 7.43152 24.1831 6.04599 22.3995 6.04599C20.6158 6.04599 19.3418 7.55748 19.3418 9.06896Z" fill="#242235"/>
<path d="M25.4571 3.02297C25.4571 4.53446 26.7311 5.2902 26.7311 6.04594C26.7311 6.80169 25.4571 7.43147 25.4571 9.06892C25.4571 10.7064 26.7311 12.0919 28.5148 12.0919C30.2984 12.0919 31.5725 10.7064 31.5725 9.06892C31.5725 7.43147 30.2984 6.80169 30.2984 6.04594C30.2984 5.2902 31.5725 4.66042 31.5725 3.02297C31.5725 1.38553 30.2984 0 28.5148 0C26.7311 0 25.4571 1.51149 25.4571 3.02297Z" fill="#242235"/>
<path d="M25.4571 9.06896C25.4571 10.5804 26.7311 11.3362 26.7311 12.0919C26.7311 12.8477 25.4571 13.4775 25.4571 15.1149C25.4571 16.7523 26.7311 18.1379 28.5148 18.1379C30.2984 18.1379 31.5725 16.7523 31.5725 15.1149C31.5725 13.4775 30.2984 12.8477 30.2984 12.0919C30.2984 11.3362 31.5725 10.7064 31.5725 9.06896C31.5725 7.43152 30.2984 6.04599 28.5148 6.04599C26.7311 6.04599 25.4571 7.55748 25.4571 9.06896Z" fill="#242235"/>
<path d="M31.5724 3.02297C31.5724 4.53446 32.8464 5.2902 32.8464 6.04594C32.8464 6.80169 31.5724 7.43147 31.5724 9.06892C31.5724 10.7064 32.8464 12.0919 34.63 12.0919C36.4137 12.0919 37.6877 10.7064 37.6877 9.06892C37.6877 7.43147 36.4137 6.80169 36.4137 6.04594C36.4137 5.2902 37.6877 4.66042 37.6877 3.02297C37.6877 1.38553 36.4137 0 34.63 0C32.8464 0 31.5724 1.51149 31.5724 3.02297Z" fill="#242235"/>
<path d="M31.5724 9.06896C31.5724 10.5804 32.8464 11.3362 32.8464 12.0919C32.8464 12.8477 31.5724 13.4775 31.5724 15.1149C31.5724 16.7523 32.8464 18.1379 34.63 18.1379C36.4137 18.1379 37.6877 16.7523 37.6877 15.1149C37.6877 13.4775 36.4137 12.8477 36.4137 12.0919C36.4137 11.3362 37.6877 10.7064 37.6877 9.06896C37.6877 7.43152 36.4137 6.04599 34.63 6.04599C32.8464 6.04599 31.5724 7.55748 31.5724 9.06896Z" fill="#242235"/>
<path d="M37.6876 3.02297C37.6876 4.53446 38.9617 5.2902 38.9617 6.04594C38.9617 6.80169 37.6876 7.43147 37.6876 9.06892C37.6876 10.7064 38.9617 12.0919 40.7453 12.0919C42.529 12.0919 43.803 10.7064 43.803 9.06892C43.803 7.43147 42.529 6.80169 42.529 6.04594C42.529 5.2902 43.803 4.66042 43.803 3.02297C43.803 1.38553 42.529 0 40.7453 0C38.9617 0 37.6876 1.51149 37.6876 3.02297Z" fill="#242235"/>
<path d="M37.6876 9.06896C37.6876 10.5804 38.9617 11.3362 38.9617 12.0919C38.9617 12.8477 37.6876 13.4775 37.6876 15.1149C37.6876 16.7523 38.9617 18.1379 40.7453 18.1379C42.529 18.1379 43.803 16.7523 43.803 15.1149C43.803 13.4775 42.529 12.8477 42.529 12.0919C42.529 11.3362 43.803 10.7064 43.803 9.06896C43.803 7.43152 42.529 6.04599 40.7453 6.04599C38.9617 6.04599 37.6876 7.55748 37.6876 9.06896Z" fill="#242235"/>
<path d="M43.8029 3.02297C43.8029 4.53446 45.0769 5.2902 45.0769 6.04594C45.0769 6.80169 43.8029 7.43147 43.8029 9.06892C43.8029 10.7064 45.0769 12.0919 46.8606 12.0919C48.6442 12.0919 49.9183 10.7064 49.9183 9.06892C49.9183 7.43147 48.6442 6.80169 48.6442 6.04594C48.6442 5.2902 49.9183 4.66042 49.9183 3.02297C49.9183 1.38553 48.6442 0 46.8606 0C45.0769 0 43.8029 1.51149 43.8029 3.02297Z" fill="#242235"/>
<path d="M43.8029 9.06896C43.8029 10.5804 45.0769 11.3362 45.0769 12.0919C45.0769 12.8477 43.8029 13.4775 43.8029 15.1149C43.8029 16.7523 45.0769 18.1379 46.8606 18.1379C48.6442 18.1379 49.9183 16.7523 49.9183 15.1149C49.9183 13.4775 48.6442 12.8477 48.6442 12.0919C48.6442 11.3362 49.9183 10.7064 49.9183 9.06896C49.9183 7.43152 48.6442 6.04599 46.8606 6.04599C45.0769 6.04599 43.8029 7.55748 43.8029 9.06896Z" fill="#242235"/>
<path d="M4.05378 6.04594C2.36517 6.04594 0.996094 4.69241 0.996094 3.02297C0.996094 1.35354 2.36517 0 4.05378 0C5.74239 0 7.11147 1.35354 7.11147 3.02297C7.11147 4.69241 5.74239 6.04594 4.05378 6.04594ZM4.05378 4.21957C4.37478 4.21957 4.68263 4.0935 4.90962 3.86909C5.1366 3.64469 5.26411 3.34033 5.26411 3.02297C5.26411 2.70562 5.1366 2.40126 4.90962 2.17685C4.68263 1.95245 4.37478 1.82638 4.05378 1.82638C3.73278 1.82638 3.42493 1.95245 3.19794 2.17685C2.97096 2.40126 2.84345 2.70562 2.84345 3.02297C2.84345 3.34033 2.97096 3.64469 3.19794 3.86909C3.42493 4.0935 3.73278 4.21957 4.05378 4.21957V4.21957Z" fill="#242235"/>
<path d="M10.1692 6.04594C8.48054 6.04594 7.11147 4.69241 7.11147 3.02297C7.11147 1.35354 8.48054 0 10.1692 0C11.8578 0 13.2268 1.35354 13.2268 3.02297C13.2268 4.69241 11.8578 6.04594 10.1692 6.04594ZM10.1692 4.21957C10.4902 4.21957 10.798 4.0935 11.025 3.86909C11.252 3.64469 11.3795 3.34033 11.3795 3.02297C11.3795 2.70562 11.252 2.40126 11.025 2.17685C10.798 1.95245 10.4902 1.82638 10.1692 1.82638C9.84815 1.82638 9.5403 1.95245 9.31332 2.17685C9.08633 2.40126 8.95882 2.70562 8.95882 3.02297C8.95882 3.34033 9.08633 3.64469 9.31332 3.86909C9.5403 4.0935 9.84815 4.21957 10.1692 4.21957V4.21957Z" fill="#242235"/>
<path d="M16.2845 6.04594C14.5959 6.04594 13.2268 4.69241 13.2268 3.02297C13.2268 1.35354 14.5959 0 16.2845 0C17.9731 0 19.3422 1.35354 19.3422 3.02297C19.3422 4.69241 17.9731 6.04594 16.2845 6.04594ZM16.2845 4.21957C16.6055 4.21957 16.9134 4.0935 17.1404 3.86909C17.3673 3.64469 17.4949 3.34033 17.4949 3.02297C17.4949 2.70562 17.3673 2.40126 17.1404 2.17685C16.9134 1.95245 16.6055 1.82638 16.2845 1.82638C15.9635 1.82638 15.6557 1.95245 15.4287 2.17685C15.2017 2.40126 15.0742 2.70562 15.0742 3.02297C15.0742 3.34033 15.2017 3.64469 15.4287 3.86909C15.6557 4.0935 15.9635 4.21957 16.2845 4.21957V4.21957Z" fill="#242235"/>
<path d="M22.3999 6.04594C20.7113 6.04594 19.3422 4.69241 19.3422 3.02297C19.3422 1.35354 20.7113 0 22.3999 0C24.0885 0 25.4576 1.35354 25.4576 3.02297C25.4576 4.69241 24.0885 6.04594 22.3999 6.04594ZM22.3999 4.21957C22.7209 4.21957 23.0288 4.0935 23.2557 3.86909C23.4827 3.64469 23.6102 3.34033 23.6102 3.02297C23.6102 2.70562 23.4827 2.40126 23.2557 2.17685C23.0288 1.95245 22.7209 1.82638 22.3999 1.82638C22.0789 1.82638 21.7711 1.95245 21.5441 2.17685C21.3171 2.40126 21.1896 2.70562 21.1896 3.02297C21.1896 3.34033 21.3171 3.64469 21.5441 3.86909C21.7711 4.0935 22.0789 4.21957 22.3999 4.21957Z" fill="#242235"/>
<path d="M28.5149 6.04594C26.8263 6.04594 25.4572 4.69241 25.4572 3.02297C25.4572 1.35354 26.8263 0 28.5149 0C30.2035 0 31.5726 1.35354 31.5726 3.02297C31.5726 4.69241 30.2035 6.04594 28.5149 6.04594ZM28.5149 4.21957C28.8359 4.21957 29.1437 4.0935 29.3707 3.86909C29.5977 3.64469 29.7252 3.34033 29.7252 3.02297C29.7252 2.70562 29.5977 2.40126 29.3707 2.17685C29.1437 1.95245 28.8359 1.82638 28.5149 1.82638C28.1939 1.82638 27.886 1.95245 27.659 2.17685C27.4321 2.40126 27.3045 2.70562 27.3045 3.02297C27.3045 3.34033 27.4321 3.64469 27.659 3.86909C27.886 4.0935 28.1939 4.21957 28.5149 4.21957V4.21957Z" fill="#242235"/>
<path d="M34.6302 6.04594C32.9415 6.04594 31.5725 4.69241 31.5725 3.02297C31.5725 1.35354 32.9415 0 34.6302 0C36.3188 0 37.6878 1.35354 37.6878 3.02297C37.6878 4.69241 36.3188 6.04594 34.6302 6.04594ZM34.6302 4.21957C34.9512 4.21957 35.259 4.0935 35.486 3.86909C35.713 3.64469 35.8405 3.34033 35.8405 3.02297C35.8405 2.70562 35.713 2.40126 35.486 2.17685C35.259 1.95245 34.9512 1.82638 34.6302 1.82638C34.3092 1.82638 34.0013 1.95245 33.7743 2.17685C33.5473 2.40126 33.4198 2.70562 33.4198 3.02297C33.4198 3.34033 33.5473 3.64469 33.7743 3.86909C34.0013 4.0935 34.3092 4.21957 34.6302 4.21957Z" fill="#242235"/>
<path d="M40.7454 6.04594C39.0568 6.04594 37.6877 4.69241 37.6877 3.02297C37.6877 1.35354 39.0568 0 40.7454 0C42.434 0 43.8031 1.35354 43.8031 3.02297C43.8031 4.69241 42.434 6.04594 40.7454 6.04594ZM40.7454 4.21957C41.0664 4.21957 41.3743 4.0935 41.6013 3.86909C41.8282 3.64469 41.9558 3.34033 41.9558 3.02297C41.9558 2.70562 41.8282 2.40126 41.6013 2.17685C41.3743 1.95245 41.0664 1.82638 40.7454 1.82638C40.4244 1.82638 40.1166 1.95245 39.8896 2.17685C39.6626 2.40126 39.5351 2.70562 39.5351 3.02297C39.5351 3.34033 39.6626 3.64469 39.8896 3.86909C40.1166 4.0935 40.4244 4.21957 40.7454 4.21957Z" fill="#242235"/>
<path d="M46.8607 6.04594C45.1721 6.04594 43.803 4.69241 43.803 3.02297C43.803 1.35354 45.1721 0 46.8607 0C48.5493 0 49.9184 1.35354 49.9184 3.02297C49.9184 4.69241 48.5493 6.04594 46.8607 6.04594ZM46.8607 4.21957C47.1817 4.21957 47.4896 4.0935 47.7165 3.86909C47.9435 3.64469 48.071 3.34033 48.071 3.02297C48.071 2.70562 47.9435 2.40126 47.7165 2.17685C47.4896 1.95245 47.1817 1.82638 46.8607 1.82638C46.5397 1.82638 46.2318 1.95245 46.0049 2.17685C45.7779 2.40126 45.6504 2.70562 45.6504 3.02297C45.6504 3.34033 45.7779 3.64469 46.0049 3.86909C46.2318 4.0935 46.5397 4.21957 46.8607 4.21957V4.21957Z" fill="#242235"/>
<path d="M4.05378 12.0919C2.36517 12.0919 0.996094 10.7384 0.996094 9.06893C0.996094 7.3995 2.36517 6.04596 4.05378 6.04596C5.74239 6.04596 7.11147 7.3995 7.11147 9.06893C7.11147 10.7384 5.74239 12.0919 4.05378 12.0919ZM4.05378 10.2655C4.21272 10.2655 4.37011 10.2346 4.51696 10.1744C4.6638 10.1143 4.79723 10.0262 4.90962 9.91505C5.02201 9.80394 5.11116 9.67203 5.17198 9.52685C5.23281 9.38167 5.26411 9.22607 5.26411 9.06893C5.26411 8.91179 5.23281 8.75619 5.17198 8.61102C5.11116 8.46584 5.02201 8.33393 4.90962 8.22281C4.79723 8.1117 4.6638 8.02356 4.51696 7.96342C4.37011 7.90329 4.21272 7.87234 4.05378 7.87234C3.73278 7.87234 3.42493 7.99841 3.19794 8.22281C2.97096 8.44722 2.84345 8.75158 2.84345 9.06893C2.84345 9.38629 2.97096 9.69065 3.19794 9.91505C3.42493 10.1395 3.73278 10.2655 4.05378 10.2655V10.2655Z" fill="#242235"/>
<path d="M10.1692 12.0919C8.48054 12.0919 7.11147 10.7384 7.11147 9.06893C7.11147 7.3995 8.48054 6.04596 10.1692 6.04596C11.8578 6.04596 13.2268 7.3995 13.2268 9.06893C13.2268 10.7384 11.8578 12.0919 10.1692 12.0919ZM10.1692 10.2655C10.3281 10.2655 10.4855 10.2346 10.6323 10.1744C10.7792 10.1143 10.9126 10.0262 11.025 9.91505C11.1374 9.80394 11.2265 9.67203 11.2874 9.52685C11.3482 9.38167 11.3795 9.22607 11.3795 9.06893C11.3795 8.91179 11.3482 8.75619 11.2874 8.61102C11.2265 8.46584 11.1374 8.33393 11.025 8.22281C10.9126 8.1117 10.7792 8.02356 10.6323 7.96342C10.4855 7.90329 10.3281 7.87234 10.1692 7.87234C9.84815 7.87234 9.5403 7.99841 9.31332 8.22281C9.08633 8.44722 8.95882 8.75158 8.95882 9.06893C8.95882 9.38629 9.08633 9.69065 9.31332 9.91505C9.5403 10.1395 9.84815 10.2655 10.1692 10.2655Z" fill="#242235"/>
<path d="M16.2845 12.0919C14.5959 12.0919 13.2268 10.7384 13.2268 9.06893C13.2268 7.3995 14.5959 6.04596 16.2845 6.04596C17.9731 6.04596 19.3422 7.3995 19.3422 9.06893C19.3422 10.7384 17.9731 12.0919 16.2845 12.0919ZM16.2845 10.2655C16.4435 10.2655 16.6009 10.2346 16.7477 10.1744C16.8945 10.1143 17.028 10.0262 17.1404 9.91505C17.2527 9.80394 17.3419 9.67203 17.4027 9.52685C17.4636 9.38167 17.4949 9.22607 17.4949 9.06893C17.4949 8.91179 17.4636 8.75619 17.4027 8.61102C17.3419 8.46584 17.2527 8.33393 17.1404 8.22281C17.028 8.1117 16.8945 8.02356 16.7477 7.96342C16.6009 7.90329 16.4435 7.87234 16.2845 7.87234C15.9635 7.87234 15.6557 7.99841 15.4287 8.22281C15.2017 8.44722 15.0742 8.75158 15.0742 9.06893C15.0742 9.38629 15.2017 9.69065 15.4287 9.91505C15.6557 10.1395 15.9635 10.2655 16.2845 10.2655V10.2655Z" fill="#242235"/>
<path d="M22.3999 12.0919C20.7113 12.0919 19.3422 10.7384 19.3422 9.06893C19.3422 7.3995 20.7113 6.04596 22.3999 6.04596C24.0885 6.04596 25.4576 7.3995 25.4576 9.06893C25.4576 10.7384 24.0885 12.0919 22.3999 12.0919ZM22.3999 10.2655C22.5589 10.2655 22.7162 10.2346 22.8631 10.1744C23.0099 10.1143 23.1434 10.0262 23.2557 9.91505C23.3681 9.80394 23.4573 9.67203 23.5181 9.52685C23.5789 9.38167 23.6102 9.22607 23.6102 9.06893C23.6102 8.91179 23.5789 8.75619 23.5181 8.61102C23.4573 8.46584 23.3681 8.33393 23.2557 8.22281C23.1434 8.1117 23.0099 8.02356 22.8631 7.96342C22.7162 7.90329 22.5589 7.87234 22.3999 7.87234C22.0789 7.87234 21.7711 7.99841 21.5441 8.22281C21.3171 8.44722 21.1896 8.75158 21.1896 9.06893C21.1896 9.38629 21.3171 9.69065 21.5441 9.91505C21.7711 10.1395 22.0789 10.2655 22.3999 10.2655Z" fill="#242235"/>
<path d="M28.5149 12.0919C26.8263 12.0919 25.4572 10.7384 25.4572 9.06896C25.4572 7.39953 26.8263 6.04599 28.5149 6.04599C30.2035 6.04599 31.5726 7.39953 31.5726 9.06896C31.5726 10.7384 30.2035 12.0919 28.5149 12.0919ZM28.5149 10.2656C28.6738 10.2656 28.8312 10.2346 28.978 10.1745C29.1249 10.1143 29.2583 10.0262 29.3707 9.91508C29.4831 9.80397 29.5722 9.67206 29.6331 9.52688C29.6939 9.3817 29.7252 9.2261 29.7252 9.06896C29.7252 8.91182 29.6939 8.75622 29.6331 8.61105C29.5722 8.46587 29.4831 8.33396 29.3707 8.22284C29.2583 8.11173 29.1249 8.02359 28.978 7.96345C28.8312 7.90332 28.6738 7.87237 28.5149 7.87237C28.1939 7.87237 27.886 7.99844 27.659 8.22284C27.4321 8.44725 27.3045 8.75161 27.3045 9.06896C27.3045 9.38632 27.4321 9.69068 27.659 9.91508C27.886 10.1395 28.1939 10.2656 28.5149 10.2656V10.2656Z" fill="#242235"/>
<path d="M34.6302 12.0919C32.9415 12.0919 31.5725 10.7384 31.5725 9.06896C31.5725 7.39953 32.9415 6.04599 34.6302 6.04599C36.3188 6.04599 37.6878 7.39953 37.6878 9.06896C37.6878 10.7384 36.3188 12.0919 34.6302 12.0919ZM34.6302 10.2656C34.7891 10.2656 34.9465 10.2346 35.0933 10.1745C35.2402 10.1143 35.3736 10.0262 35.486 9.91508C35.5984 9.80397 35.6875 9.67206 35.7484 9.52688C35.8092 9.3817 35.8405 9.2261 35.8405 9.06896C35.8405 8.91182 35.8092 8.75622 35.7484 8.61105C35.6875 8.46587 35.5984 8.33396 35.486 8.22284C35.3736 8.11173 35.2402 8.02359 35.0933 7.96345C34.9465 7.90332 34.7891 7.87237 34.6302 7.87237C34.3092 7.87237 34.0013 7.99844 33.7743 8.22284C33.5473 8.44725 33.4198 8.75161 33.4198 9.06896C33.4198 9.38632 33.5473 9.69068 33.7743 9.91508C34.0013 10.1395 34.3092 10.2656 34.6302 10.2656ZM40.7455 12.0919C39.0569 12.0919 37.6878 10.7384 37.6878 9.06896C37.6878 7.39953 39.0569 6.04599 40.7455 6.04599C42.4341 6.04599 43.8032 7.39953 43.8032 9.06896C43.8032 10.7384 42.4341 12.0919 40.7455 12.0919ZM40.7455 10.2656C40.9045 10.2656 41.0619 10.2346 41.2087 10.1745C41.3555 10.1143 41.489 10.0262 41.6014 9.91508C41.7138 9.80397 41.8029 9.67206 41.8637 9.52688C41.9246 9.3817 41.9559 9.2261 41.9559 9.06896C41.9559 8.91182 41.9246 8.75622 41.8637 8.61105C41.8029 8.46587 41.7138 8.33396 41.6014 8.22284C41.489 8.11173 41.3555 8.02359 41.2087 7.96345C41.0619 7.90332 40.9045 7.87237 40.7455 7.87237C40.4245 7.87237 40.1167 7.99844 39.8897 8.22284C39.6627 8.44725 39.5352 8.75161 39.5352 9.06896C39.5352 9.38632 39.6627 9.69068 39.8897 9.91508C40.1167 10.1395 40.4245 10.2656 40.7455 10.2656ZM46.8609 12.0919C45.1723 12.0919 43.8032 10.7384 43.8032 9.06896C43.8032 7.39953 45.1723 6.04599 46.8609 6.04599C48.5495 6.04599 49.9186 7.39953 49.9186 9.06896C49.9186 10.7384 48.5495 12.0919 46.8609 12.0919ZM46.8609 10.2656C47.0198 10.2656 47.1772 10.2346 47.3241 10.1745C47.4709 10.1143 47.6043 10.0262 47.7167 9.91508C47.8291 9.80397 47.9183 9.67206 47.9791 9.52688C48.0399 9.3817 48.0712 9.2261 48.0712 9.06896C48.0712 8.91182 48.0399 8.75622 47.9791 8.61105C47.9183 8.46587 47.8291 8.33396 47.7167 8.22284C47.6043 8.11173 47.4709 8.02359 47.3241 7.96345C47.1772 7.90332 47.0198 7.87237 46.8609 7.87237C46.5399 7.87237 46.232 7.99844 46.0051 8.22284C45.7781 8.44725 45.6506 8.75161 45.6506 9.06896C45.6506 9.38632 45.7781 9.69068 46.0051 9.91508C46.232 10.1395 46.5399 10.2656 46.8609 10.2656V10.2656Z" fill="#242235"/>
<path d="M4.05378 18.1378C2.36517 18.1378 0.996094 16.7843 0.996094 15.1149C0.996094 13.4454 2.36517 12.0919 4.05378 12.0919C5.74239 12.0919 7.11147 13.4454 7.11147 15.1149C7.11147 16.7843 5.74239 18.1378 4.05378 18.1378ZM4.05378 16.3115C4.21272 16.3115 4.37011 16.2805 4.51696 16.2204C4.6638 16.1602 4.79723 16.0721 4.90962 15.961C5.02201 15.8499 5.11116 15.718 5.17198 15.5728C5.23281 15.4276 5.26411 15.272 5.26411 15.1149C5.26411 14.9577 5.23281 14.8021 5.17198 14.6569C5.11116 14.5118 5.02201 14.3799 4.90962 14.2687C4.79723 14.1576 4.6638 14.0695 4.51696 14.0094C4.37011 13.9492 4.21272 13.9183 4.05378 13.9183C3.73278 13.9183 3.42493 14.0443 3.19794 14.2687C2.97096 14.4931 2.84345 14.7975 2.84345 15.1149C2.84345 15.4322 2.97096 15.7366 3.19794 15.961C3.42493 16.1854 3.73278 16.3115 4.05378 16.3115V16.3115Z" fill="#242235"/>
<path d="M10.1692 18.1378C8.48054 18.1378 7.11147 16.7843 7.11147 15.1149C7.11147 13.4454 8.48054 12.0919 10.1692 12.0919C11.8578 12.0919 13.2268 13.4454 13.2268 15.1149C13.2268 16.7843 11.8578 18.1378 10.1692 18.1378ZM10.1692 16.3115C10.3281 16.3115 10.4855 16.2805 10.6323 16.2204C10.7792 16.1602 10.9126 16.0721 11.025 15.961C11.1374 15.8499 11.2265 15.718 11.2874 15.5728C11.3482 15.4276 11.3795 15.272 11.3795 15.1149C11.3795 14.9577 11.3482 14.8021 11.2874 14.6569C11.2265 14.5118 11.1374 14.3799 11.025 14.2687C10.9126 14.1576 10.7792 14.0695 10.6323 14.0094C10.4855 13.9492 10.3281 13.9183 10.1692 13.9183C9.84815 13.9183 9.5403 14.0443 9.31332 14.2687C9.08633 14.4931 8.95882 14.7975 8.95882 15.1149C8.95882 15.4322 9.08633 15.7366 9.31332 15.961C9.5403 16.1854 9.84815 16.3115 10.1692 16.3115V16.3115Z" fill="#242235"/>
<path d="M16.2845 18.1378C14.5959 18.1378 13.2268 16.7843 13.2268 15.1149C13.2268 13.4454 14.5959 12.0919 16.2845 12.0919C17.9731 12.0919 19.3422 13.4454 19.3422 15.1149C19.3422 16.7843 17.9731 18.1378 16.2845 18.1378ZM16.2845 16.3115C16.4435 16.3115 16.6009 16.2805 16.7477 16.2204C16.8945 16.1602 17.028 16.0721 17.1404 15.961C17.2527 15.8499 17.3419 15.718 17.4027 15.5728C17.4636 15.4276 17.4949 15.272 17.4949 15.1149C17.4949 14.9577 17.4636 14.8021 17.4027 14.6569C17.3419 14.5118 17.2527 14.3799 17.1404 14.2687C17.028 14.1576 16.8945 14.0695 16.7477 14.0094C16.6009 13.9492 16.4435 13.9183 16.2845 13.9183C15.9635 13.9183 15.6557 14.0443 15.4287 14.2687C15.2017 14.4931 15.0742 14.7975 15.0742 15.1149C15.0742 15.4322 15.2017 15.7366 15.4287 15.961C15.6557 16.1854 15.9635 16.3115 16.2845 16.3115V16.3115Z" fill="#242235"/>
<path d="M22.3999 18.1378C20.7113 18.1378 19.3422 16.7843 19.3422 15.1149C19.3422 13.4454 20.7113 12.0919 22.3999 12.0919C24.0885 12.0919 25.4576 13.4454 25.4576 15.1149C25.4576 16.7843 24.0885 18.1378 22.3999 18.1378ZM22.3999 16.3115C22.5589 16.3115 22.7162 16.2805 22.8631 16.2204C23.0099 16.1602 23.1434 16.0721 23.2557 15.961C23.3681 15.8499 23.4573 15.718 23.5181 15.5728C23.5789 15.4276 23.6102 15.272 23.6102 15.1149C23.6102 14.9577 23.5789 14.8021 23.5181 14.6569C23.4573 14.5118 23.3681 14.3799 23.2557 14.2687C23.1434 14.1576 23.0099 14.0695 22.8631 14.0094C22.7162 13.9492 22.5589 13.9183 22.3999 13.9183C22.0789 13.9183 21.7711 14.0443 21.5441 14.2687C21.3171 14.4931 21.1896 14.7975 21.1896 15.1149C21.1896 15.4322 21.3171 15.7366 21.5441 15.961C21.7711 16.1854 22.0789 16.3115 22.3999 16.3115V16.3115Z" fill="#242235"/>
<path d="M28.5149 18.1378C26.8263 18.1378 25.4572 16.7842 25.4572 15.1148C25.4572 13.4454 26.8263 12.0918 28.5149 12.0918C30.2035 12.0918 31.5726 13.4454 31.5726 15.1148C31.5726 16.7842 30.2035 18.1378 28.5149 18.1378ZM28.5149 16.3114C28.6738 16.3114 28.8312 16.2804 28.978 16.2203C29.1249 16.1602 29.2583 16.072 29.3707 15.9609C29.4831 15.8498 29.5722 15.7179 29.6331 15.5727C29.6939 15.4275 29.7252 15.2719 29.7252 15.1148C29.7252 14.9577 29.6939 14.8021 29.6331 14.6569C29.5722 14.5117 29.4831 14.3798 29.3707 14.2687C29.2583 14.1576 29.1249 14.0694 28.978 14.0093C28.8312 13.9492 28.6738 13.9182 28.5149 13.9182C28.1939 13.9182 27.886 14.0443 27.659 14.2687C27.4321 14.4931 27.3045 14.7974 27.3045 15.1148C27.3045 15.4322 27.4321 15.7365 27.659 15.9609C27.886 16.1853 28.1939 16.3114 28.5149 16.3114V16.3114Z" fill="#242235"/>
<path d="M34.6302 18.1378C32.9415 18.1378 31.5725 16.7842 31.5725 15.1148C31.5725 13.4454 32.9415 12.0918 34.6302 12.0918C36.3188 12.0918 37.6878 13.4454 37.6878 15.1148C37.6878 16.7842 36.3188 18.1378 34.6302 18.1378ZM34.6302 16.3114C34.7891 16.3114 34.9465 16.2804 35.0933 16.2203C35.2402 16.1602 35.3736 16.072 35.486 15.9609C35.5984 15.8498 35.6875 15.7179 35.7484 15.5727C35.8092 15.4275 35.8405 15.2719 35.8405 15.1148C35.8405 14.9577 35.8092 14.8021 35.7484 14.6569C35.6875 14.5117 35.5984 14.3798 35.486 14.2687C35.3736 14.1576 35.2402 14.0694 35.0933 14.0093C34.9465 13.9492 34.7891 13.9182 34.6302 13.9182C34.3092 13.9182 34.0013 14.0443 33.7743 14.2687C33.5473 14.4931 33.4198 14.7974 33.4198 15.1148C33.4198 15.4322 33.5473 15.7365 33.7743 15.9609C34.0013 16.1853 34.3092 16.3114 34.6302 16.3114V16.3114Z" fill="#242235"/>
<path d="M40.7454 18.1378C39.0568 18.1378 37.6877 16.7842 37.6877 15.1148C37.6877 13.4454 39.0568 12.0918 40.7454 12.0918C42.434 12.0918 43.8031 13.4454 43.8031 15.1148C43.8031 16.7842 42.434 18.1378 40.7454 18.1378ZM40.7454 16.3114C40.9044 16.3114 41.0617 16.2804 41.2086 16.2203C41.3554 16.1602 41.4889 16.072 41.6013 15.9609C41.7136 15.8498 41.8028 15.7179 41.8636 15.5727C41.9244 15.4275 41.9558 15.2719 41.9558 15.1148C41.9558 14.9577 41.9244 14.8021 41.8636 14.6569C41.8028 14.5117 41.7136 14.3798 41.6013 14.2687C41.4889 14.1576 41.3554 14.0694 41.2086 14.0093C41.0617 13.9492 40.9044 13.9182 40.7454 13.9182C40.4244 13.9182 40.1166 14.0443 39.8896 14.2687C39.6626 14.4931 39.5351 14.7974 39.5351 15.1148C39.5351 15.4322 39.6626 15.7365 39.8896 15.9609C40.1166 16.1853 40.4244 16.3114 40.7454 16.3114V16.3114ZM46.8608 18.1378C45.1722 18.1378 43.8031 16.7842 43.8031 15.1148C43.8031 13.4454 45.1722 12.0918 46.8608 12.0918C48.5494 12.0918 49.9185 13.4454 49.9185 15.1148C49.9185 16.7842 48.5494 18.1378 46.8608 18.1378ZM46.8608 16.3114C47.0197 16.3114 47.1771 16.2804 47.324 16.2203C47.4708 16.1602 47.6042 16.072 47.7166 15.9609C47.829 15.8498 47.9182 15.7179 47.979 15.5727C48.0398 15.4275 48.0711 15.2719 48.0711 15.1148C48.0711 14.9577 48.0398 14.8021 47.979 14.6569C47.9182 14.5117 47.829 14.3798 47.7166 14.2687C47.6042 14.1576 47.4708 14.0694 47.324 14.0093C47.1771 13.9492 47.0197 13.9182 46.8608 13.9182C46.5398 13.9182 46.2319 14.0443 46.005 14.2687C45.778 14.4931 45.6505 14.7974 45.6505 15.1148C45.6505 15.4322 45.778 15.7365 46.005 15.9609C46.2319 16.1853 46.5398 16.3114 46.8608 16.3114V16.3114Z" fill="#242235"/>
<path d="M4.05472 10.2655C4.75825 10.2655 5.26098 9.68983 5.26506 9.06911C5.26913 8.4484 4.31386 6.66434 4.32303 5.91993C4.33221 5.17553 5.26506 3.67386 5.26506 3.02292C5.26506 2.37197 4.7585 1.82632 4.05472 1.82632C3.35145 1.82632 2.84439 2.37197 2.84439 3.02292C2.84439 3.67386 3.79405 5.17553 3.78667 5.91993C3.77902 6.66434 2.84897 8.44815 2.84439 9.06886C2.84006 9.68958 3.3512 10.2655 4.05472 10.2655Z" fill="#242235"/>
<path d="M4.05472 16.3114C4.75824 16.3114 5.26098 15.7358 5.26506 15.1151C5.26913 14.4943 4.31386 12.7103 4.32303 11.9659C4.33221 11.2215 5.26506 9.71981 5.26506 9.06886C5.26506 8.41791 4.7585 7.87227 4.05472 7.87227C3.35145 7.87227 2.84439 8.41791 2.84439 9.06886C2.84439 9.71981 3.79405 11.2215 3.78666 11.9659C3.77902 12.7103 2.84897 14.4941 2.84439 15.1148C2.84006 15.7355 3.3512 16.3114 4.05472 16.3114ZM10.1701 10.2655C10.8736 10.2655 11.3764 9.68983 11.3804 9.06911C11.3845 8.4484 10.4292 6.66434 10.4384 5.91993C10.4476 5.17553 11.3804 3.67386 11.3804 3.02292C11.3804 2.37197 10.8739 1.82632 10.1701 1.82632C9.46683 1.82632 8.95976 2.37197 8.95976 3.02292C8.95976 3.67386 9.90943 5.17553 9.90204 5.91993C9.89439 6.66434 8.96435 8.44814 8.95976 9.06886C8.95543 9.68958 9.46657 10.2655 10.1701 10.2655Z" fill="#242235"/>
<path d="M10.1702 16.3114C10.8737 16.3114 11.3764 15.7358 11.3805 15.1151C11.3846 14.4943 10.4293 12.7103 10.4385 11.9659C10.4477 11.2215 11.3805 9.71981 11.3805 9.06886C11.3805 8.41791 10.874 7.87227 10.1702 7.87227C9.46691 7.87227 8.95984 8.41791 8.95984 9.06886C8.95984 9.71981 9.90951 11.2215 9.90212 11.9659C9.89448 12.7103 8.96443 14.4941 8.95984 15.1148C8.95551 15.7355 9.46665 16.3114 10.1702 16.3114ZM16.2856 10.2655C16.9891 10.2655 17.4918 9.68983 17.4959 9.06911C17.5 8.4484 16.5447 6.66434 16.5539 5.91993C16.563 5.17553 17.4959 3.67386 17.4959 3.02292C17.4959 2.37197 16.9893 1.82632 16.2856 1.82632C15.5823 1.82632 15.0752 2.37197 15.0752 3.02292C15.0752 3.67386 16.0249 5.17553 16.0175 5.91993C16.0099 6.66434 15.0798 8.44814 15.0752 9.06886C15.0709 9.68958 15.582 10.2655 16.2856 10.2655Z" fill="#242235"/>
<path d="M16.2855 16.3114C16.9891 16.3114 17.4918 15.7358 17.4959 15.1151C17.5 14.4943 16.5447 12.7103 16.5539 11.9659C16.563 11.2215 17.4959 9.71981 17.4959 9.06886C17.4959 8.41791 16.9893 7.87227 16.2855 7.87227C15.5823 7.87227 15.0752 8.41791 15.0752 9.06886C15.0752 9.71981 16.0249 11.2215 16.0175 11.9659C16.0098 12.7103 15.0798 14.4941 15.0752 15.1148C15.0709 15.7355 15.582 16.3114 16.2855 16.3114ZM22.4009 10.2655C23.1044 10.2655 23.6072 9.68983 23.6113 9.06911C23.6153 8.4484 22.6601 6.66434 22.6692 5.91993C22.6784 5.17553 23.6113 3.67386 23.6113 3.02292C23.6113 2.37197 23.1047 1.82632 22.4009 1.82632C21.6977 1.82632 21.1906 2.37197 21.1906 3.02292C21.1906 3.67386 22.1403 5.17553 22.1329 5.91993C22.1252 6.66434 21.1952 8.44814 21.1906 9.06886C21.1863 9.68958 21.6974 10.2655 22.4009 10.2655Z" fill="#242235"/>
<path d="M22.4009 16.3114C23.1045 16.3114 23.6072 15.7358 23.6113 15.1151C23.6153 14.4943 22.6601 12.7103 22.6692 11.9659C22.6784 11.2215 23.6113 9.71981 23.6113 9.06886C23.6113 8.41791 23.1047 7.87227 22.4009 7.87227C21.6977 7.87227 21.1906 8.41791 21.1906 9.06886C21.1906 9.71981 22.1403 11.2215 22.1329 11.9659C22.1252 12.7103 21.1952 14.4941 21.1906 15.1148C21.1863 15.7355 21.6974 16.3114 22.4009 16.3114ZM28.5163 10.2655C29.2198 10.2655 29.7226 9.68983 29.7266 9.06911C29.7307 8.4484 28.7754 6.66434 28.7846 5.91993C28.7938 5.17553 29.7266 3.67386 29.7266 3.02292C29.7266 2.37197 29.2201 1.82632 28.5163 1.82632C27.813 1.82632 27.306 2.37197 27.306 3.02292C27.306 3.67386 28.2556 5.17553 28.2482 5.91993C28.2406 6.66434 27.3106 8.44814 27.306 9.06886C27.3016 9.68958 27.8128 10.2655 28.5163 10.2655Z" fill="#242235"/>
<path d="M28.5159 16.3114C29.2194 16.3114 29.7222 15.7358 29.7263 15.1151C29.7303 14.4943 28.7751 12.7103 28.7842 11.9659C28.7934 11.2215 29.7263 9.71981 29.7263 9.06886C29.7263 8.41791 29.2197 7.87227 28.5159 7.87227C27.8127 7.87227 27.3056 8.41791 27.3056 9.06886C27.3056 9.71981 28.2553 11.2215 28.2479 11.9659C28.2402 12.7103 27.3102 14.4941 27.3056 15.1148C27.3013 15.7355 27.8124 16.3114 28.5159 16.3114ZM34.6313 10.2655C35.3348 10.2655 35.8375 9.68983 35.8416 9.06911C35.8457 8.4484 34.8904 6.66434 34.8996 5.91993C34.9088 5.17553 35.8416 3.67386 35.8416 3.02292C35.8416 2.37197 35.3351 1.82632 34.6313 1.82632C33.928 1.82632 33.421 2.37197 33.421 3.02292C33.421 3.67386 34.3706 5.17553 34.3632 5.91993C34.3556 6.66434 33.4255 8.44814 33.421 9.06886C33.4166 9.68958 33.9278 10.2655 34.6313 10.2655Z" fill="#242235"/>
<path d="M34.6312 16.3114C35.3347 16.3114 35.8375 15.7358 35.8415 15.1151C35.8456 14.4943 34.8903 12.7103 34.8995 11.9659C34.9087 11.2215 35.8415 9.71981 35.8415 9.06886C35.8415 8.41791 35.335 7.87227 34.6312 7.87227C33.9277 7.87227 33.4209 8.41791 33.4209 9.06886C33.4209 9.71981 34.3705 11.2215 34.3631 11.9659C34.3555 12.7103 33.4255 14.4941 33.4209 15.1148C33.4165 15.7355 33.9277 16.3114 34.6312 16.3114ZM40.7466 10.2655C41.4501 10.2655 41.9528 9.68983 41.9569 9.06911C41.961 8.4484 41.0057 6.66434 41.0149 5.91993C41.0241 5.17553 41.9569 3.67386 41.9569 3.02292C41.9569 2.37197 41.4504 1.82632 40.7466 1.82632C40.0433 1.82632 39.5362 2.37197 39.5362 3.02292C39.5362 3.67386 40.4859 5.17553 40.4785 5.91993C40.4709 6.66434 39.5408 8.44814 39.5362 9.06886C39.5319 9.68958 40.043 10.2655 40.7466 10.2655Z" fill="#242235"/>
<path d="M40.7465 16.3114C41.45 16.3114 41.9527 15.7358 41.9568 15.1151C41.9609 14.4943 41.0056 12.7103 41.0148 11.9659C41.0239 11.2215 41.9568 9.71981 41.9568 9.06886C41.9568 8.41791 41.4502 7.87227 40.7465 7.87227C40.0429 7.87227 39.5361 8.41791 39.5361 9.06886C39.5361 9.71981 40.4858 11.2215 40.4784 11.9659C40.4708 12.7103 39.5407 14.4941 39.5361 15.1148C39.5318 15.7355 40.0429 16.3114 40.7465 16.3114ZM46.8618 10.2655C47.5654 10.2655 48.0681 9.68983 48.0722 9.06911C48.0762 8.4484 47.121 6.66434 47.1301 5.91993C47.1393 5.17553 48.0722 3.67386 48.0722 3.02292C48.0722 2.37197 47.5656 1.82632 46.8618 1.82632C46.1586 1.82632 45.6515 2.37197 45.6515 3.02292C45.6515 3.67386 46.6012 5.17553 46.5938 5.91993C46.5861 6.66434 45.6561 8.44814 45.6515 9.06886C45.6472 9.68958 46.1583 10.2655 46.8618 10.2655Z" fill="#242235"/>
<path d="M46.8617 16.3114C47.5653 16.3114 48.068 15.7358 48.0721 15.1151C48.0762 14.4944 47.1209 12.7103 47.1301 11.9659C47.1392 11.2215 48.0721 9.71985 48.0721 9.06891C48.0721 8.41796 47.5655 7.87231 46.8617 7.87231C46.1582 7.87231 45.6514 8.41796 45.6514 9.06891C45.6514 9.71985 46.6011 11.2215 46.5937 11.9659C46.586 12.7103 45.656 14.4941 45.6514 15.1149C45.6471 15.7356 46.1582 16.3114 46.8617 16.3114Z" fill="#242235"/>
<path d="M2.84488 3.02294C2.84488 3.71848 3.42711 4.21551 4.05496 4.21954C4.6828 4.22357 6.48735 3.27914 7.2403 3.28821C7.99326 3.29728 9.51216 4.21954 10.1706 4.21954C10.829 4.21954 11.3809 3.71873 11.3809 3.02294C11.3809 2.32766 10.829 1.82635 10.1706 1.82635C9.51216 1.82635 7.99326 2.76524 7.2403 2.75793C6.48735 2.75037 4.68306 1.83089 4.05521 1.82635C3.42737 1.82207 2.84488 2.32741 2.84488 3.02294Z" fill="#242235"/>
<path d="M8.96016 3.02294C8.96016 3.71848 9.54239 4.21551 10.1702 4.21954C10.7981 4.22357 12.6026 3.27914 13.3556 3.28821C14.1085 3.29728 15.6274 4.21954 16.2859 4.21954C16.9443 4.21954 17.4962 3.71873 17.4962 3.02294C17.4962 2.32766 16.9443 1.82635 16.2859 1.82635C15.6274 1.82635 14.1085 2.76524 13.3556 2.75793C12.6026 2.75037 10.7983 1.83089 10.1705 1.82635C9.54265 1.82207 8.96016 2.32741 8.96016 3.02294Z" fill="#242235"/>
<path d="M15.0754 3.02294C15.0754 3.71848 15.6577 4.21551 16.2855 4.21954C16.9133 4.22357 18.7179 3.27914 19.4708 3.28821C20.2238 3.29728 21.7427 4.21954 22.4011 4.21954C23.0596 4.21954 23.6115 3.71873 23.6115 3.02294C23.6115 2.32766 23.0596 1.82635 22.4011 1.82635C21.7427 1.82635 20.2238 2.76524 19.4708 2.75793C18.7179 2.75037 16.9136 1.83089 16.2858 1.82635C15.6579 1.82207 15.0754 2.32741 15.0754 3.02294Z" fill="#242235"/>
<path d="M21.1907 3.02294C21.1907 3.71848 21.7729 4.21551 22.4008 4.21954C23.0286 4.22357 24.8332 3.27914 25.5861 3.28821C26.3391 3.29728 27.858 4.21954 28.5164 4.21954C29.1748 4.21954 29.7267 3.71873 29.7267 3.02294C29.7267 2.32766 29.1748 1.82635 28.5164 1.82635C27.858 1.82635 26.3391 2.76524 25.5861 2.75793C24.8332 2.75037 23.0289 1.83089 22.401 1.82635C21.7732 1.82207 21.1907 2.32741 21.1907 3.02294Z" fill="#242235"/>
<path d="M27.306 3.02294C27.306 3.71848 27.8882 4.21551 28.516 4.21954C29.1439 4.22357 30.9484 3.27914 31.7014 3.28821C32.4543 3.29728 33.9733 4.21954 34.6317 4.21954C35.2901 4.21954 35.842 3.71873 35.842 3.02294C35.842 2.32741 35.2901 1.82635 34.6317 1.82635C33.9733 1.82635 32.4543 2.76524 31.7014 2.75793C30.9484 2.75037 29.1441 1.83089 28.5163 1.82635C27.8885 1.82207 27.306 2.32741 27.306 3.02294Z" fill="#242235"/>
<path d="M33.4212 3.02294C33.4212 3.71848 34.0035 4.21551 34.6313 4.21954C35.2592 4.22357 37.0637 3.27914 37.8167 3.28821C38.5696 3.29728 40.0885 4.21954 40.747 4.21954C41.4054 4.21954 41.9573 3.71873 41.9573 3.02294C41.9573 2.32741 41.4054 1.82635 40.747 1.82635C40.0885 1.82635 38.5696 2.76524 37.8167 2.75793C37.0637 2.75037 35.2594 1.83089 34.6316 1.82635C34.0037 1.82207 33.4212 2.32741 33.4212 3.02294Z" fill="#242235"/>
<path d="M39.5365 3.02294C39.5365 3.71848 40.1188 4.21551 40.7466 4.21954C41.3745 4.22357 43.179 3.27914 43.932 3.28821C44.6849 3.29728 46.2038 4.21954 46.8622 4.21954C47.5207 4.21954 48.0726 3.71873 48.0726 3.02294C48.0726 2.32741 47.5207 1.82635 46.8622 1.82635C46.2038 1.82635 44.6849 2.76524 43.932 2.75793C43.179 2.75037 41.3747 1.83089 40.7469 1.82635C40.119 1.82207 39.5365 2.32741 39.5365 3.02294Z" fill="#242235"/>
<path d="M2.84488 9.06893C2.84488 9.76447 3.42711 10.2615 4.05496 10.2655C4.6828 10.2696 6.48735 9.32513 7.2403 9.3342C7.99326 9.34327 9.51216 10.2655 10.1706 10.2655C10.829 10.2655 11.3809 9.76472 11.3809 9.06893C11.3809 8.37365 10.829 7.87234 10.1706 7.87234C9.51216 7.87234 7.99326 8.81123 7.2403 8.80392C6.48735 8.79636 4.68306 7.87688 4.05521 7.87234C3.42737 7.86806 2.84488 8.3734 2.84488 9.06893Z" fill="#242235"/>
<path d="M8.96016 9.06893C8.96016 9.76447 9.54239 10.2615 10.1702 10.2655C10.7981 10.2696 12.6026 9.32513 13.3556 9.3342C14.1085 9.34327 15.6274 10.2655 16.2859 10.2655C16.9443 10.2655 17.4962 9.76472 17.4962 9.06893C17.4962 8.37365 16.9443 7.87234 16.2859 7.87234C15.6274 7.87234 14.1085 8.81123 13.3556 8.80392C12.6026 8.79636 10.7983 7.87688 10.1705 7.87234C9.54265 7.86806 8.96016 8.3734 8.96016 9.06893Z" fill="#242235"/>
<path d="M15.0754 9.06893C15.0754 9.76447 15.6577 10.2615 16.2855 10.2655C16.9133 10.2696 18.7179 9.32513 19.4708 9.3342C20.2238 9.34327 21.7427 10.2655 22.4011 10.2655C23.0596 10.2655 23.6115 9.76472 23.6115 9.06893C23.6115 8.37365 23.0596 7.87234 22.4011 7.87234C21.7427 7.87234 20.2238 8.81123 19.4708 8.80392C18.7179 8.79636 16.9136 7.87688 16.2858 7.87234C15.6579 7.86806 15.0754 8.3734 15.0754 9.06893Z" fill="#242235"/>
<path d="M21.1907 9.06893C21.1907 9.76447 21.7729 10.2615 22.4008 10.2655C23.0286 10.2696 24.8332 9.32513 25.5861 9.3342C26.3391 9.34327 27.858 10.2655 28.5164 10.2655C29.1748 10.2655 29.7267 9.76472 29.7267 9.06893C29.7267 8.37365 29.1748 7.87234 28.5164 7.87234C27.858 7.87234 26.3391 8.81123 25.5861 8.80392C24.8332 8.79636 23.0289 7.87688 22.401 7.87234C21.7732 7.86806 21.1907 8.3734 21.1907 9.06893Z" fill="#242235"/>
<path d="M27.306 9.06893C27.306 9.76447 27.8882 10.2615 28.516 10.2655C29.1439 10.2696 30.9484 9.32513 31.7014 9.3342C32.4543 9.34327 33.9733 10.2655 34.6317 10.2655C35.2901 10.2655 35.842 9.76472 35.842 9.06893C35.842 8.3734 35.2901 7.87234 34.6317 7.87234C33.9733 7.87234 32.4543 8.81123 31.7014 8.80392C30.9484 8.79636 29.1441 7.87688 28.5163 7.87234C27.8885 7.86806 27.306 8.3734 27.306 9.06893Z" fill="#242235"/>
<path d="M33.4212 9.06893C33.4212 9.76447 34.0035 10.2615 34.6313 10.2655C35.2592 10.2696 37.0637 9.32513 37.8167 9.3342C38.5696 9.34327 40.0885 10.2655 40.747 10.2655C41.4054 10.2655 41.9573 9.76472 41.9573 9.06893C41.9573 8.3734 41.4054 7.87234 40.747 7.87234C40.0885 7.87234 38.5696 8.81123 37.8167 8.80392C37.0637 8.79636 35.2594 7.87688 34.6316 7.87234C34.0037 7.86806 33.4212 8.3734 33.4212 9.06893Z" fill="#242235"/>
<path d="M39.5365 9.06893C39.5365 9.76447 40.1188 10.2615 40.7466 10.2655C41.3745 10.2696 43.179 9.32513 43.932 9.3342C44.6849 9.34327 46.2038 10.2655 46.8622 10.2655C47.5207 10.2655 48.0726 9.76472 48.0726 9.06893C48.0726 8.3734 47.5207 7.87234 46.8622 7.87234C46.2038 7.87234 44.6849 8.81123 43.932 8.80392C43.179 8.79636 41.3747 7.87688 40.7469 7.87234C40.119 7.86806 39.5365 8.3734 39.5365 9.06893Z" fill="#242235"/>
<path d="M2.84488 15.1148C2.84488 15.8103 3.42711 16.3073 4.05496 16.3114C4.6828 16.3154 6.48735 15.371 7.2403 15.38C7.99326 15.3891 9.51216 16.3114 10.1706 16.3114C10.829 16.3114 11.3809 15.8106 11.3809 15.1148C11.3809 14.4195 10.829 13.9182 10.1706 13.9182C9.51216 13.9182 7.99326 14.8571 7.2403 14.8498C6.48735 14.8422 4.68306 13.9227 4.05521 13.9182C3.42737 13.9139 2.84488 14.4192 2.84488 15.1148Z" fill="#242235"/>
<path d="M8.96016 15.1148C8.96016 15.8103 9.54239 16.3073 10.1702 16.3114C10.7981 16.3154 12.6026 15.371 13.3556 15.38C14.1085 15.3891 15.6274 16.3114 16.2859 16.3114C16.9443 16.3114 17.4962 15.8106 17.4962 15.1148C17.4962 14.4195 16.9443 13.9182 16.2859 13.9182C15.6274 13.9182 14.1085 14.8571 13.3556 14.8498C12.6026 14.8422 10.7983 13.9227 10.1705 13.9182C9.54265 13.9139 8.96016 14.4192 8.96016 15.1148Z" fill="#242235"/>
<path d="M15.0754 15.1148C15.0754 15.8103 15.6577 16.3073 16.2855 16.3114C16.9133 16.3154 18.7179 15.371 19.4708 15.38C20.2238 15.3891 21.7427 16.3114 22.4011 16.3114C23.0596 16.3114 23.6115 15.8106 23.6115 15.1148C23.6115 14.4195 23.0596 13.9182 22.4011 13.9182C21.7427 13.9182 20.2238 14.8571 19.4708 14.8498C18.7179 14.8422 16.9136 13.9227 16.2858 13.9182C15.6579 13.9139 15.0754 14.4192 15.0754 15.1148Z" fill="#242235"/>
<path d="M21.1907 15.1148C21.1907 15.8103 21.7729 16.3073 22.4008 16.3114C23.0286 16.3154 24.8332 15.371 25.5861 15.38C26.3391 15.3891 27.858 16.3114 28.5164 16.3114C29.1748 16.3114 29.7267 15.8106 29.7267 15.1148C29.7267 14.4195 29.1748 13.9182 28.5164 13.9182C27.858 13.9182 26.3391 14.8571 25.5861 14.8498C24.8332 14.8422 23.0289 13.9227 22.401 13.9182C21.7732 13.9139 21.1907 14.4192 21.1907 15.1148Z" fill="#242235"/>
<path d="M27.306 15.1148C27.306 15.8103 27.8882 16.3073 28.516 16.3114C29.1439 16.3154 30.9484 15.371 31.7014 15.38C32.4543 15.3891 33.9733 16.3114 34.6317 16.3114C35.2901 16.3114 35.842 15.8106 35.842 15.1148C35.842 14.4192 35.2901 13.9182 34.6317 13.9182C33.9733 13.9182 32.4543 14.8571 31.7014 14.8498C30.9484 14.8422 29.1441 13.9227 28.5163 13.9182C27.8885 13.9139 27.306 14.4192 27.306 15.1148Z" fill="#242235"/>
<path d="M33.4212 15.1148C33.4212 15.8103 34.0035 16.3073 34.6313 16.3114C35.2592 16.3154 37.0637 15.371 37.8167 15.38C38.5696 15.3891 40.0885 16.3114 40.747 16.3114C41.4054 16.3114 41.9573 15.8106 41.9573 15.1148C41.9573 14.4192 41.4054 13.9182 40.747 13.9182C40.0885 13.9182 38.5696 14.8571 37.8167 14.8498C37.0637 14.8422 35.2594 13.9227 34.6316 13.9182C34.0037 13.9139 33.4212 14.4192 33.4212 15.1148Z" fill="#242235"/>
<path d="M39.5365 15.1148C39.5365 15.8103 40.1188 16.3073 40.7466 16.3114C41.3745 16.3154 43.179 15.371 43.932 15.38C44.6849 15.3891 46.2038 16.3114 46.8622 16.3114C47.5207 16.3114 48.0726 15.8106 48.0726 15.1148C48.0726 14.4192 47.5207 13.9182 46.8622 13.9182C46.2038 13.9182 44.6849 14.8571 43.932 14.8498C43.179 14.8422 41.3747 13.9227 40.7469 13.9182C40.119 13.9139 39.5365 14.4192 39.5365 15.1148Z" fill="#242235"/>
<path d="M4.0548 4.21951C4.72325 4.21951 5.26514 3.68378 5.26514 3.02292C5.26514 2.36206 4.72325 1.82632 4.0548 1.82632C3.38635 1.82632 2.84447 2.36206 2.84447 3.02292C2.84447 3.68378 3.38635 4.21951 4.0548 4.21951Z" fill="#242235"/>
<path d="M10.1702 4.21951C10.8386 4.21951 11.3805 3.68378 11.3805 3.02292C11.3805 2.36206 10.8386 1.82632 10.1702 1.82632C9.50172 1.82632 8.95984 2.36206 8.95984 3.02292C8.95984 3.68378 9.50172 4.21951 10.1702 4.21951Z" fill="#242235"/>
<path d="M16.2856 4.21951C16.954 4.21951 17.4959 3.68378 17.4959 3.02292C17.4959 2.36206 16.954 1.82632 16.2856 1.82632C15.6171 1.82632 15.0752 2.36206 15.0752 3.02292C15.0752 3.68378 15.6171 4.21951 16.2856 4.21951Z" fill="#242235"/>
<path d="M22.4009 4.21951C23.0694 4.21951 23.6113 3.68378 23.6113 3.02292C23.6113 2.36206 23.0694 1.82632 22.4009 1.82632C21.7325 1.82632 21.1906 2.36206 21.1906 3.02292C21.1906 3.68378 21.7325 4.21951 22.4009 4.21951Z" fill="#242235"/>
<path d="M28.5159 4.21951C29.1843 4.21951 29.7262 3.68378 29.7262 3.02292C29.7262 2.36206 29.1843 1.82632 28.5159 1.82632C27.8474 1.82632 27.3056 2.36206 27.3056 3.02292C27.3056 3.68378 27.8474 4.21951 28.5159 4.21951Z" fill="#242235"/>
<path d="M34.6312 4.21951C35.2996 4.21951 35.8415 3.68378 35.8415 3.02292C35.8415 2.36206 35.2996 1.82632 34.6312 1.82632C33.9627 1.82632 33.4208 2.36206 33.4208 3.02292C33.4208 3.68378 33.9627 4.21951 34.6312 4.21951Z" fill="#242235"/>
<path d="M40.7464 4.21951C41.4149 4.21951 41.9568 3.68378 41.9568 3.02292C41.9568 2.36206 41.4149 1.82632 40.7464 1.82632C40.078 1.82632 39.5361 2.36206 39.5361 3.02292C39.5361 3.68378 40.078 4.21951 40.7464 4.21951Z" fill="#242235"/>
<path d="M46.8617 4.21951C47.5302 4.21951 48.0721 3.68378 48.0721 3.02292C48.0721 2.36206 47.5302 1.82632 46.8617 1.82632C46.1933 1.82632 45.6514 2.36206 45.6514 3.02292C45.6514 3.68378 46.1933 4.21951 46.8617 4.21951Z" fill="#242235"/>
<path d="M4.0548 10.2655C4.72325 10.2655 5.26514 9.72974 5.26514 9.06888C5.26514 8.40802 4.72325 7.87228 4.0548 7.87228C3.38635 7.87228 2.84447 8.40802 2.84447 9.06888C2.84447 9.72974 3.38635 10.2655 4.0548 10.2655Z" fill="#242235"/>
<path d="M10.1702 10.2655C10.8386 10.2655 11.3805 9.72974 11.3805 9.06888C11.3805 8.40802 10.8386 7.87228 10.1702 7.87228C9.50172 7.87228 8.95984 8.40802 8.95984 9.06888C8.95984 9.72974 9.50172 10.2655 10.1702 10.2655Z" fill="#242235"/>
<path d="M16.2856 10.2655C16.954 10.2655 17.4959 9.72974 17.4959 9.06888C17.4959 8.40802 16.954 7.87228 16.2856 7.87228C15.6171 7.87228 15.0752 8.40802 15.0752 9.06888C15.0752 9.72974 15.6171 10.2655 16.2856 10.2655Z" fill="#242235"/>
<path d="M22.4009 10.2655C23.0694 10.2655 23.6113 9.72974 23.6113 9.06888C23.6113 8.40802 23.0694 7.87228 22.4009 7.87228C21.7325 7.87228 21.1906 8.40802 21.1906 9.06888C21.1906 9.72974 21.7325 10.2655 22.4009 10.2655Z" fill="#242235"/>
<path d="M28.5159 10.2655C29.1843 10.2655 29.7262 9.72977 29.7262 9.06891C29.7262 8.40805 29.1843 7.87231 28.5159 7.87231C27.8474 7.87231 27.3056 8.40805 27.3056 9.06891C27.3056 9.72977 27.8474 10.2655 28.5159 10.2655Z" fill="#242235"/>
<path d="M34.6312 10.2655C35.2996 10.2655 35.8415 9.72977 35.8415 9.06891C35.8415 8.40805 35.2996 7.87231 34.6312 7.87231C33.9627 7.87231 33.4208 8.40805 33.4208 9.06891C33.4208 9.72977 33.9627 10.2655 34.6312 10.2655Z" fill="#242235"/>
<path d="M40.7464 10.2655C41.4149 10.2655 41.9568 9.72977 41.9568 9.06891C41.9568 8.40805 41.4149 7.87231 40.7464 7.87231C40.078 7.87231 39.5361 8.40805 39.5361 9.06891C39.5361 9.72977 40.078 10.2655 40.7464 10.2655Z" fill="#242235"/>
<path d="M46.8617 10.2655C47.5302 10.2655 48.0721 9.72977 48.0721 9.06891C48.0721 8.40805 47.5302 7.87231 46.8617 7.87231C46.1933 7.87231 45.6514 8.40805 45.6514 9.06891C45.6514 9.72977 46.1933 10.2655 46.8617 10.2655Z" fill="#242235"/>
<path d="M4.0548 16.3114C4.72325 16.3114 5.26514 15.7757 5.26514 15.1148C5.26514 14.4539 4.72325 13.9182 4.0548 13.9182C3.38635 13.9182 2.84447 14.4539 2.84447 15.1148C2.84447 15.7757 3.38635 16.3114 4.0548 16.3114Z" fill="#242235"/>
<path d="M10.1702 16.3114C10.8386 16.3114 11.3805 15.7757 11.3805 15.1148C11.3805 14.4539 10.8386 13.9182 10.1702 13.9182C9.50172 13.9182 8.95984 14.4539 8.95984 15.1148C8.95984 15.7757 9.50172 16.3114 10.1702 16.3114Z" fill="#242235"/>
<path d="M16.2856 16.3114C16.954 16.3114 17.4959 15.7757 17.4959 15.1148C17.4959 14.4539 16.954 13.9182 16.2856 13.9182C15.6171 13.9182 15.0752 14.4539 15.0752 15.1148C15.0752 15.7757 15.6171 16.3114 16.2856 16.3114Z" fill="#242235"/>
<path d="M22.4009 16.3114C23.0694 16.3114 23.6113 15.7757 23.6113 15.1148C23.6113 14.4539 23.0694 13.9182 22.4009 13.9182C21.7325 13.9182 21.1906 14.4539 21.1906 15.1148C21.1906 15.7757 21.7325 16.3114 22.4009 16.3114Z" fill="#242235"/>
<path d="M28.5159 16.3113C29.1843 16.3113 29.7262 15.7756 29.7262 15.1147C29.7262 14.4539 29.1843 13.9182 28.5159 13.9182C27.8474 13.9182 27.3056 14.4539 27.3056 15.1147C27.3056 15.7756 27.8474 16.3113 28.5159 16.3113Z" fill="#242235"/>
<path d="M34.6312 16.3113C35.2996 16.3113 35.8415 15.7756 35.8415 15.1147C35.8415 14.4539 35.2996 13.9182 34.6312 13.9182C33.9627 13.9182 33.4208 14.4539 33.4208 15.1147C33.4208 15.7756 33.9627 16.3113 34.6312 16.3113Z" fill="#242235"/>
<path d="M40.7464 16.3113C41.4149 16.3113 41.9568 15.7756 41.9568 15.1147C41.9568 14.4539 41.4149 13.9182 40.7464 13.9182C40.078 13.9182 39.5361 14.4539 39.5361 15.1147C39.5361 15.7756 40.078 16.3113 40.7464 16.3113Z" fill="#242235"/>
<path d="M46.8617 16.3113C47.5302 16.3113 48.0721 15.7756 48.0721 15.1147C48.0721 14.4539 47.5302 13.9182 46.8617 13.9182C46.1933 13.9182 45.6514 14.4539 45.6514 15.1147C45.6514 15.7756 46.1933 16.3113 46.8617 16.3113Z" fill="#242235"/>
</g>
<defs>
<clipPath id="clip0_1_2264">
<rect width="100.904" height="18.1378" fill="white" transform="translate(0.996094)"/>
</clipPath>
</defs>
</svg>
