<svg width="98" height="20" viewBox="0 0 98 20" fill="none" xmlns="http://www.w3.org/2000/svg">
<path d="M27.6538 15.0526V6.06478C27.6538 5.62406 28.0111 5.26672 28.4519 5.26672H29.3027V15.0526H27.6538Z" fill="#E6DAFE"/>
<path d="M31.6899 15.0526V5.26672H33.4248L37.3964 12.3685V5.26672H38.1755C38.6163 5.26672 38.9736 5.62406 38.9736 6.06478V15.0526H37.2387L33.2671 7.95088V15.0526H31.6899Z" fill="#E6DAFE"/>
<path d="M44.1702 15.2902C43.1474 15.2902 42.3493 14.9781 41.7758 14.3536C41.2023 13.7292 40.9155 12.8997 40.9155 11.8652H42.5644C42.5644 12.471 42.6982 12.9556 42.9659 13.3191C43.243 13.6733 43.6446 13.8504 44.1702 13.8504C44.696 13.8504 45.0974 13.6733 45.3746 13.3191C45.6614 12.9556 45.8048 12.4756 45.8048 11.8792V6.06478C45.8048 5.62406 46.1621 5.26672 46.6028 5.26672H47.4536V11.8792C47.4536 12.9137 47.1621 13.7432 46.579 14.3675C46.0055 14.9827 45.2026 15.2902 44.1702 15.2902Z" fill="#E6DAFE"/>
<path d="M49.6936 5.26672H55.4861V5.90867C55.4861 6.3494 55.1288 6.70665 54.6881 6.70665H51.3425V9.47466H55.4861V10.9146H51.3425V13.6127H55.4861V15.0526H49.6936V9.47466V6.70665V5.26672Z" fill="#E6DAFE"/>
<path d="M91.5471 5.26672H97.3397V5.90867C97.3397 6.3494 96.9826 6.70665 96.5416 6.70665H93.1961V9.47466H97.3397V10.9146H93.1961V13.6127H97.3397V15.0526H91.5471V9.47466V6.70665V5.26672Z" fill="#E6DAFE"/>
<path d="M62.2285 15.2899C60.7981 15.2899 59.6658 14.8146 58.8314 13.864C57.997 12.9134 57.5798 11.6785 57.5798 10.1594C57.5798 8.64022 57.997 7.40533 58.8314 6.45473C59.6658 5.50414 60.7981 5.02881 62.2285 5.02881C63.429 5.02881 64.4166 5.36429 65.1914 6.03533C65.9661 6.69703 66.4216 7.55911 66.5579 8.62163H65.593C65.2171 8.62163 64.9043 8.35312 64.7544 8.00838C64.5857 7.62094 64.344 7.29876 64.0293 7.04192C63.5695 6.65977 62.9735 6.46873 62.2412 6.46873C61.2622 6.46873 60.4959 6.80421 59.9425 7.47525C59.3976 8.13696 59.1252 9.0317 59.1252 10.1594C59.1252 11.287 59.3976 12.1864 59.9425 12.8575C60.4959 13.5192 61.2622 13.85 62.2412 13.85C62.9735 13.85 63.5695 13.659 64.0293 13.2769C64.344 13.02 64.5857 12.6978 64.7544 12.3104C64.9043 11.9656 65.2171 11.6971 65.593 11.6971H66.5579C66.4216 12.7596 65.9661 13.6264 65.1914 14.2974C64.4166 14.9591 63.429 15.2899 62.2285 15.2899Z" fill="#E6DAFE"/>
<path d="M70.8148 15.0526V6.77658H67.9045V6.06478C67.9045 5.62406 68.2619 5.26672 68.7022 5.26672H75.3893V6.77658H72.4638V15.0526H70.8148Z" fill="#E6DAFE"/>
<path d="M77.4817 15.0526V6.06478C77.4817 5.62406 77.8387 5.26672 78.2797 5.26672H79.1307V15.0526H77.4817Z" fill="#E6DAFE"/>
<path d="M84.549 15.0526L81.2222 5.26672H82.4317C82.7794 5.26672 83.0866 5.49097 83.1924 5.82148L85.3369 12.5223L87.4822 5.82148C87.588 5.49097 87.8952 5.26672 88.2421 5.26672H89.4524L86.1256 15.0526H84.549Z" fill="#E6DAFE"/>
<path d="M3.15432 3.45679C3.27862 3.30068 3.41031 3.1504 3.54207 3.0002C3.54798 2.99281 3.56136 2.99126 3.56727 2.98387C3.5791 2.96901 3.59839 2.95999 3.61021 2.94513L3.62203 2.93027C3.71389 2.84549 3.81159 2.75324 3.92422 2.67281C4.32286 2.37046 4.73651 2.14085 5.17272 1.98972C6.57174 1.49906 8.12904 1.8014 9.35032 2.9533C11.0556 4.55011 10.9029 7.12257 9.54159 8.83233C7.82149 11.3813 4.86532 14.9374 8.95837 18.1231C9.69428 18.6958 10.2402 19.1681 12.5583 19.8374C11.0423 20.1164 9.63649 20.0296 8.07171 19.6303C6.96493 19.0062 5.22476 17.6699 4.63275 15.865C3.73793 13.1282 6.2081 9.03659 7.40192 7.46077C9.0409 5.27995 6.38887 2.91907 4.43635 5.55469C3.41567 6.92834 1.63015 10.8152 2.25063 13.6983C2.61341 15.3332 3.09699 16.525 5.01443 18.1621C4.65889 17.9525 4.31361 17.7147 3.97867 17.4487C-0.476301 13.3031 0.0405695 6.89295 3.15432 3.45679Z" fill="#E6DAFE"/>
<path d="M18.32 16.5433C18.1957 16.6995 18.0641 16.8497 17.9323 16.9999C17.9264 17.0073 17.913 17.0088 17.9071 17.0162C17.8953 17.0311 17.876 17.0401 17.8642 17.0549L17.8523 17.0698C17.7605 17.1546 17.6627 17.2468 17.5501 17.3273C17.1515 17.6296 16.7378 17.8592 16.3016 18.0103C14.9026 18.501 13.3453 18.1987 12.124 17.0468C10.4188 15.4499 10.5715 12.8775 11.9327 11.1677C13.6529 8.61877 16.609 5.06266 12.516 1.87696C11.7801 1.30424 11.2341 0.831941 8.91602 0.162692C10.4321 -0.116318 11.8379 -0.0295122 13.4026 0.36975C14.5094 0.993885 16.2495 2.33013 16.8415 4.13502C17.7364 6.87199 15.2663 10.9635 14.0724 12.5393C12.4334 14.7201 15.0855 17.081 17.038 14.4454C18.0587 13.0718 19.8442 9.18488 19.2237 6.30175C18.8609 4.66682 18.3773 3.47503 16.4599 1.83799C16.8155 2.04754 17.1608 2.28532 17.4957 2.55134C21.9507 6.69697 21.4338 13.1071 18.32 16.5433Z" fill="#E6DAFE"/>
</svg>
