<svg width="116" height="35" viewBox="0 0 116 35" fill="none" xmlns="http://www.w3.org/2000/svg">
<path d="M66.8433 16.0928C67.8411 16.0928 68.2112 16.8348 68.2112 17.8017H65.1176C65.3167 16.6909 65.9872 16.0928 66.8421 16.0928H66.8433ZM66.787 14.5829C64.6632 14.5829 62.9533 16.0928 62.9533 18.5426C62.9533 21.106 64.5507 22.5901 66.8005 22.5901C67.9286 22.5925 69.0294 22.244 69.9503 21.5928L69.0808 20.2684C68.4395 20.6664 67.7263 20.9239 66.9569 20.9239C65.8995 20.9239 65.2965 20.3842 65.1165 19.2959H70.0504C70.1067 18.9586 70.1922 18.6281 70.1922 18.0614C70.1922 16.0107 68.9806 14.5717 66.7859 14.5717M98.2389 16.0928C99.2367 16.0928 99.6068 16.8348 99.6068 17.8017H96.5132C96.7123 16.6909 97.3828 16.0928 98.2378 16.0928H98.2389ZM98.1826 14.5829C96.0588 14.5829 94.3489 16.0928 94.3489 18.5426C94.3489 21.106 95.9463 22.5901 98.1961 22.5901C99.3357 22.5901 100.405 22.2483 101.346 21.5928L100.476 20.2684C99.8351 20.6664 99.1219 20.9239 98.3525 20.9239C97.2951 20.9239 96.6932 20.3842 96.5121 19.2959H101.446C101.502 18.9586 101.588 18.6281 101.588 18.0614C101.588 16.0107 100.376 14.5717 98.1815 14.5717" fill="#242235"/>
<path d="M106.24 16.0898C107.238 16.0898 107.608 16.8319 107.608 17.7988H104.515C104.714 16.688 105.384 16.0898 106.239 16.0898H106.24ZM106.184 14.5799C104.06 14.5799 102.35 16.0898 102.35 18.5397C102.35 21.103 103.948 22.5871 106.198 22.5871C107.326 22.5895 108.427 22.241 109.347 21.5899L108.478 20.2655C107.837 20.6635 107.123 20.9209 106.354 20.9209C105.297 20.9209 104.695 20.3813 104.514 19.2929H109.448C109.504 18.9557 109.589 18.6251 109.589 18.0585C109.589 16.0078 108.378 14.5687 106.184 14.5687M78.3793 16.507C77.2847 16.2304 76.3398 15.9898 76.3398 15.1803C76.3398 14.5023 76.9866 14.056 77.9507 14.056C78.8551 14.056 79.7866 14.2775 80.6482 14.6969L81.3997 13.1026C80.2219 12.5405 79.0599 12.2864 77.8506 12.2864C75.7064 12.2864 74.208 13.4927 74.208 15.2095C74.208 17.4019 76.0057 17.8707 77.5828 18.2833C78.6943 18.5723 79.6549 18.823 79.6549 19.655C79.6549 20.3835 79.0137 20.8186 77.9428 20.8186C77.0147 20.8186 75.9685 20.5038 74.9921 19.9338L74.0213 21.5235C75.0866 22.1723 76.6233 22.5894 77.9585 22.5894C80.3209 22.5894 81.7889 21.4651 81.7889 19.6269C81.7889 17.3749 79.8945 16.8948 78.3725 16.5126M49.4169 21.0884C50.0581 21.0884 50.5418 20.8186 50.8703 20.4476V18.9804C49.6891 19.0523 48.5338 19.3514 48.5338 20.3295C48.5338 20.786 48.8904 21.0997 49.4169 21.0997V21.0884ZM50.8703 17.828V17.159C50.8703 16.589 50.5328 16.2596 49.8162 16.2596C49.0997 16.2596 48.3201 16.5587 47.3785 17.0129L46.6383 15.4749C47.6642 14.9622 48.8612 14.6069 49.9006 14.6069C52.0942 14.6069 52.9379 15.675 52.9379 17.2422V20.433C52.9379 20.8456 53.1809 21.0311 53.5656 21.0311V22.4702C52.1257 22.4702 51.5407 22.2453 51.0998 21.5292C50.4586 22.2127 49.7465 22.5972 48.7206 22.5972C47.3706 22.5972 46.4403 21.7855 46.4403 20.5735C46.4403 18.9073 48.022 18.0382 50.8579 17.8392M54.857 14.7756H56.8257L56.9381 15.6581C57.4939 15.0735 58.3061 14.59 59.2611 14.59C60.971 14.59 61.6977 15.6446 61.6977 17.367V22.423H59.6031V17.3007C59.6031 16.6171 59.3185 16.1472 58.6053 16.1472C57.9641 16.1472 57.4084 16.4845 56.9516 17.0444V22.414H54.8705V14.7654" fill="#242235"/>
<path d="M83.4893 16.2492H82.2778V14.7685H83.4893V12.8594H85.5839V14.7685H87.2972V16.2492H85.5839V20.0515C85.5839 20.6215 85.8089 20.906 86.2814 20.906C86.6661 20.906 87.0238 20.7778 87.3219 20.5642L88.0914 21.8178C87.4491 22.3104 86.6635 22.5804 85.8539 22.5868C84.2565 22.5868 83.4882 21.8032 83.4882 20.0942V16.2492M89.0453 14.7685H90.9577L91.0994 15.9512C91.6844 14.9259 92.4111 14.5549 93.2796 14.5549C93.6362 14.5549 93.9635 14.6111 94.22 14.7123L93.9208 16.6202C93.5919 16.5019 93.2443 16.4441 92.8948 16.4493C92.1108 16.4493 91.5832 16.9327 91.1129 17.8164V22.417H89.0318V14.7685M111.399 16.2492H110.187V14.7685H111.399V12.8594H113.493V14.7685H115.206V16.2492H113.493V20.0515C113.493 20.6215 113.718 20.906 114.191 20.906C114.576 20.906 114.933 20.7778 115.231 20.5642L116.001 21.8178C115.359 22.3104 114.573 22.5804 113.763 22.5868C112.166 22.5868 111.398 21.8032 111.398 20.0942V16.2492M42.8502 12.4468V19.0846C42.8502 20.11 42.3507 20.6946 41.4823 20.6946C40.8995 20.6946 40.4417 20.409 40.0828 19.9233L38.6542 21.2185C39.391 22.118 40.3911 22.5902 41.597 22.5902C43.6781 22.5902 45.0033 21.4074 45.0033 19.1296V12.4513H42.8513M26.4082 3.85051C26.3182 3.7898 26.1832 3.80779 26.1337 3.89886L25.0673 5.44476C25.0054 5.5347 25.0144 5.66062 25.1044 5.72583C28.7683 8.33418 31.1644 12.6121 31.1633 17.4409C31.1622 25.3672 24.7085 31.8172 16.7642 31.8172C8.81998 31.8172 2.39102 25.3649 2.39102 17.4364C2.39102 9.50793 8.84585 3.06126 16.7901 3.06239C18.4671 3.06124 20.1312 3.35543 21.706 3.93146V3.93034C21.805 3.96744 21.931 3.9191 21.9603 3.81566L22.6318 2.05278C22.6494 2.00477 22.6482 1.95187 22.6284 1.90474C22.6086 1.8576 22.5716 1.81971 22.525 1.79869C20.6878 1.12282 18.7455 0.777203 16.7878 0.777833C7.59493 0.776709 0.114162 8.25098 0.113037 17.4387C0.111912 26.6264 7.59381 34.1029 16.7845 34.1029C25.9751 34.1029 33.4581 26.6297 33.4581 17.4409C33.4581 11.8352 30.674 6.8726 26.4161 3.83702L26.4082 3.85051ZM23.678 20.2719L25.3429 21.1646C25.4419 21.2163 25.5724 21.1848 25.6129 21.0814C26.0829 19.9517 26.3297 18.7419 26.3396 17.5185C26.357 14.983 25.3678 12.5441 23.589 10.7363C21.8101 8.92845 19.3866 7.89928 16.8497 7.87434H16.7676C11.5367 7.87434 7.24283 12.1298 7.19896 17.3588C7.18126 19.8945 8.17029 22.3338 9.94921 24.1418C11.7281 25.9499 14.1518 26.9792 16.6888 27.0041H16.7698C19.1789 27.003 21.4981 26.0899 23.2607 24.4486C23.3439 24.3755 23.3732 24.2462 23.2832 24.163L21.8613 22.8813C21.7803 22.8071 21.6543 22.8206 21.5778 22.8926C20.2524 24.0691 18.5414 24.7191 16.7687 24.7196H16.7068C12.6909 24.6858 9.45106 21.3939 9.48481 17.378C9.51856 13.398 12.7842 10.16 16.7665 10.16H16.8283C20.8443 10.1938 24.0841 13.4879 24.0504 17.5016C24.0425 18.3786 23.876 19.2218 23.5813 19.9976C23.5594 20.0465 23.5568 20.1019 23.5738 20.1527C23.5909 20.2035 23.6265 20.2461 23.6735 20.2719H23.678ZM5.53294 23.7797L7.20458 22.8971C7.31707 22.8465 7.42169 22.8915 7.47456 22.987C9.38694 26.1553 12.8461 28.2779 16.8025 28.2678C22.7646 28.2521 27.6243 23.3805 27.6074 17.4094C27.5905 11.4383 22.7173 6.59378 16.7428 6.61064C10.7684 6.62751 5.92104 11.4979 5.93791 17.469C5.94008 18.1475 6.00599 18.8243 6.13478 19.4905C6.15952 19.6007 6.0864 19.7154 5.98179 19.7288L4.15603 20.1831C4.05253 20.2089 3.93104 20.1493 3.91529 20.0436C3.74309 19.1981 3.65492 18.3376 3.65206 17.4746C3.64727 13.9981 5.02205 10.6616 7.47496 8.19655C9.92788 5.73153 13.2587 4.33925 16.7372 4.32496C20.2157 4.32017 23.5542 5.69417 26.0206 8.1457C28.487 10.5972 29.8801 13.9262 29.8944 17.4027C29.8992 20.8794 28.5242 24.2161 26.0711 26.6812C23.6179 29.1462 20.2868 30.5384 16.8081 30.5524C11.9709 30.5636 7.73442 27.9474 5.44857 24.0506C5.39232 23.955 5.43732 23.8314 5.53406 23.7808" fill="#242235"/>
</svg>
