<svg width="68" height="64" viewBox="0 0 68 64" fill="none" xmlns="http://www.w3.org/2000/svg">
<path d="M67.158 27.3527L65.2673 24.1531L54.8538 6.64209H54.7957L54.4757 6.03125H50.6652L35.8594 32.065L50.8979 57.9533H54.7084L54.7957 57.8078L67.2162 36.5445H59.5661L52.9631 48.2961L43.5386 32.0068L52.7595 15.7175L59.4788 27.2946L67.158 27.3527Z" fill="#E6DAFE"/>
<path d="M9.22089 23.104L16.1729 11.2652L13.8459 7.51286L12.217 4.83676L0.319967 25.8383L0 26.42L1.89072 29.7652H31.8222L46.9189 3.93504L44.8246 0.328125L23.8812 0.3863H23.5613L20.2161 0.328125L21.9905 3.67324L23.7649 7.01836L37.4653 6.96019L28.0408 23.104H9.22089Z" fill="#E6DAFE"/>
<path d="M24.0259 9.40625C23.5023 9.40625 22.9205 9.49351 22.3678 9.69713C21.757 9.90075 21.1171 10.1625 20.5644 10.5116C18.9355 11.5006 17.801 12.9259 17.6265 14.2639C17.5392 14.8748 17.6847 15.3984 18.0046 15.7765C18.0628 15.8638 18.1501 15.922 18.2083 16.0092C18.2664 16.0674 18.2955 16.0674 18.3537 16.0965C18.4119 16.1547 18.4119 16.1547 18.441 16.1838C18.5282 16.2419 18.5864 16.271 18.6737 16.3292C19.6627 16.7946 21.2334 16.7073 22.7751 16.0092L22.8333 15.951C22.9787 15.8929 23.1241 15.8056 23.2696 15.7474C23.415 15.6893 23.5023 15.602 23.6477 15.5147C23.7932 15.4275 23.9386 15.3111 24.084 15.2238C24.2295 15.1366 24.3167 15.0202 24.4622 14.933L24.5494 14.8748C24.6367 14.7875 24.7531 14.7294 24.8403 14.6421C24.8985 14.5839 24.8985 14.5839 24.9276 14.5548C25.0149 14.4967 25.073 14.4094 25.1312 14.3512C25.1894 14.293 25.2185 14.2639 25.2766 14.1476C25.3348 14.0312 25.4221 14.0022 25.4803 13.9149C25.5384 13.8567 25.5384 13.8567 25.5675 13.8276C25.6257 13.7404 25.713 13.6822 25.7711 13.5949L25.8584 13.5077C25.9166 13.4204 25.9457 13.3622 26.0038 13.275C26.0038 13.275 26.0038 13.275 26.0038 13.2168L26.062 13.1295C26.1493 13.0422 26.2075 12.8968 26.2656 12.8095C26.3238 12.7223 26.3529 12.5768 26.4111 12.4896L26.4693 12.4314C26.4693 12.3732 26.5274 12.3441 26.5274 12.3441C26.5274 12.286 26.5274 12.286 26.5856 12.2569C26.5856 12.1696 26.6438 12.1114 26.6438 12.0242C26.6438 11.9369 26.702 11.9369 26.702 11.8787C26.702 11.8206 26.702 11.7915 26.702 11.7915C26.702 11.7042 26.702 11.646 26.702 11.5878V11.5006C26.702 11.4133 26.702 11.3551 26.702 11.2679C26.702 11.2097 26.702 11.2097 26.702 11.1806C26.702 11.1515 26.702 11.0934 26.702 11.0934C26.702 11.0352 26.702 11.0352 26.702 11.0061V10.9479C26.702 10.8606 26.6438 10.8025 26.6147 10.7152C26.5856 10.6279 26.5274 10.5698 26.4693 10.4825C25.9748 9.72622 25.073 9.40625 24.0259 9.40625Z" fill="#E6DAFE"/>
<path d="M27.5171 12.8673C27.5171 12.9546 27.459 13.0128 27.4299 13.1C27.4299 13.1582 27.4299 13.1582 27.3717 13.1873C27.3135 13.3327 27.2844 13.42 27.1681 13.5654C26.6445 14.5544 25.8009 15.5143 24.7538 16.2706C24.6083 16.3579 24.4629 16.4742 24.3174 16.5615C24.172 16.6488 24.0266 16.7651 23.8811 16.7942H23.823C23.7648 16.8524 23.7357 16.8524 23.6775 16.8815C23.5903 16.9397 23.5321 16.9687 23.4448 17.0269H23.3866C23.3285 17.0269 23.2994 17.0851 23.2412 17.0851C23.1539 17.1433 23.0376 17.1724 22.9503 17.1724L22.8631 17.2305C22.8631 17.2305 22.8631 17.2305 22.8049 17.2305C22.7467 17.2305 22.7176 17.2887 22.6594 17.2887C22.5722 17.3469 22.4558 17.3469 22.3686 17.376L22.2813 17.4341H22.2231C22.1359 17.4923 22.0195 17.4923 21.9322 17.5214C21.8741 17.5214 21.845 17.5796 21.7286 17.5796H21.6704C21.5832 17.5796 21.4668 17.6378 21.4377 17.6378C21.4087 17.6378 21.2923 17.6378 21.2341 17.6959H21.1759C21.1178 17.6959 21.0887 17.6959 21.0305 17.7541C20.9723 17.7541 20.9432 17.7541 20.8851 17.7541C20.7396 17.7541 20.5651 17.8123 20.4197 17.8123H20.3615C20.216 17.8123 20.0706 17.8123 19.9252 17.8123C19.867 17.8123 19.8379 17.8123 19.8379 17.8123H19.8961C19.8088 17.8123 19.6925 17.8123 19.6052 17.7541C19.547 17.7541 19.5179 17.7541 19.4598 17.6959C19.3725 17.6959 19.2561 17.6378 19.1689 17.6378C19.1107 17.6378 19.0816 17.5796 19.0234 17.5796L21.6414 21.8264L27.2553 21.7683L30.1641 16.6197L27.5462 12.3438C27.5462 12.4019 27.5462 12.431 27.488 12.4892C27.488 12.5474 27.488 12.5474 27.488 12.5765C27.488 12.6055 27.4299 12.6637 27.4299 12.7801C27.5171 12.8092 27.5171 12.8673 27.5171 12.8673Z" fill="#E6DAFE"/>
<path d="M57.3269 28.3407C57.6178 28.777 57.7923 29.3006 57.9378 29.9115C58.0832 30.5223 58.1705 31.1913 58.1705 31.8604C58.1705 33.7511 57.5596 35.4673 56.5125 36.3399C56.0471 36.718 55.5235 36.9217 54.9999 36.8053C54.9126 36.8053 54.7963 36.7471 54.709 36.7471C54.6508 36.7471 54.6218 36.689 54.5636 36.689C54.5054 36.689 54.4763 36.6308 54.4181 36.6308C54.3309 36.5726 54.2145 36.5435 54.1854 36.4853C53.2255 35.8745 52.5274 34.4783 52.3238 32.8203V32.7621C52.3238 32.6166 52.2656 32.4712 52.2656 32.2967C52.2656 32.1512 52.2656 32.0058 52.2656 31.8604C52.2656 31.6567 52.2656 31.5404 52.2656 31.3368C52.2656 31.1913 52.2656 31.0459 52.3238 30.9004V30.8132C52.3238 30.7259 52.382 30.5805 52.382 30.4932C52.382 30.435 52.382 30.4059 52.382 30.3478C52.382 30.2605 52.4402 30.1442 52.4402 30.0569C52.4402 29.9696 52.4983 29.9115 52.4983 29.8242C52.5565 29.7369 52.5565 29.6206 52.5856 29.5333C52.5856 29.4751 52.6438 29.446 52.6438 29.3879C52.7019 29.3006 52.7019 29.1843 52.731 29.097L52.7892 28.9516C52.8474 28.8643 52.8765 28.8061 52.8765 28.7188C52.8765 28.7188 52.8765 28.7188 52.8765 28.6607L52.9346 28.5734C52.9928 28.428 53.0801 28.3407 53.1383 28.2534C53.1964 28.1662 53.2837 28.0498 53.3419 27.9626L53.4001 27.9044C53.4582 27.8462 53.4582 27.8462 53.4873 27.8171C53.5455 27.7589 53.5455 27.7589 53.5455 27.7299C53.6037 27.6717 53.6328 27.6426 53.6909 27.5844C53.7491 27.5262 53.7782 27.4972 53.7782 27.4972C53.8364 27.439 53.8364 27.439 53.8655 27.4099C53.9236 27.3517 53.9527 27.3226 54.0109 27.2644L54.0982 27.2063C54.1563 27.1481 54.2436 27.119 54.3018 27.0608C54.36 27.0608 54.36 27.0608 54.389 27.0027C54.4472 27.0027 54.4763 26.9445 54.4763 26.9445C54.4763 26.9445 54.5345 26.9445 54.5345 26.8863H54.5927C54.6799 26.8863 54.7381 26.8281 54.8254 26.8281C54.9126 26.8281 55.029 26.8281 55.1162 26.8281C56.0471 26.8572 56.7743 27.439 57.3269 28.3407Z" fill="#E6DAFE"/>
<path d="M52.5325 27.2049C52.4743 27.2631 52.4452 27.3504 52.387 27.4086C52.387 27.4667 52.3288 27.4667 52.3288 27.4958C52.2416 27.5831 52.1834 27.7285 52.0961 27.8158C51.4853 28.7757 51.1362 29.9974 51.049 31.2773C51.049 31.4809 51.049 31.5972 51.049 31.8008C51.049 31.9463 51.049 32.1208 51.049 32.2662V32.3244C51.049 32.3826 51.049 32.4699 51.049 32.528C51.049 32.6153 51.049 32.7317 51.1071 32.8189V32.8771C51.1071 32.9353 51.1071 32.9644 51.1071 33.0225C51.1071 33.1098 51.1653 33.2262 51.1653 33.3134V33.4007C51.1653 33.4007 51.1653 33.4007 51.1653 33.4589C51.1653 33.517 51.1653 33.5461 51.2235 33.6043C51.2235 33.6916 51.2817 33.8079 51.2817 33.8952L51.3399 33.9824V34.0406C51.3399 34.1279 51.398 34.2442 51.4271 34.3315C51.4271 34.3897 51.4853 34.4188 51.4853 34.4769V34.5351C51.5435 34.6224 51.5435 34.6806 51.5726 34.7678C51.5726 34.826 51.6307 34.8551 51.6598 34.9714V35.0296C51.6598 35.0878 51.718 35.1169 51.718 35.175C51.7762 35.2332 51.7762 35.2623 51.7762 35.2623C51.8343 35.4077 51.9216 35.5532 52.0089 35.6986L52.0671 35.7568C52.1543 35.9022 52.2125 35.9895 52.2998 36.0768C52.2998 36.135 52.3579 36.1349 52.3579 36.164L52.4161 36.2222C52.4743 36.3095 52.5615 36.3677 52.6197 36.4549C52.6779 36.5131 52.6779 36.5422 52.707 36.5422C52.7943 36.6294 52.8524 36.6876 52.9106 36.7749C52.9688 36.8331 52.9979 36.8331 52.9979 36.8621H47.9947L45.0859 32.0626L47.9366 26.9141H52.9397C52.8815 26.9722 52.8815 26.9722 52.8524 27.0013L52.7943 27.0595C52.6779 27.0595 52.6488 27.0886 52.5325 27.2049C52.5906 27.2049 52.5325 27.2049 52.5325 27.2049Z" fill="#E6DAFE"/>
<path d="M24.0259 54.5486C23.5023 54.5486 22.9205 54.4614 22.3678 54.2577C21.757 54.0541 21.1171 53.7923 20.5644 53.4433C18.9355 52.4543 17.801 51.029 17.6265 49.6909C17.5392 49.0801 17.6847 48.5565 18.0046 48.1784C18.0628 48.0911 18.1501 48.0329 18.2083 47.9456C18.2664 47.8875 18.2955 47.8875 18.3537 47.8584C18.4119 47.8293 18.4119 47.8002 18.441 47.7711C18.5282 47.7129 18.5864 47.6839 18.6737 47.6257C19.6627 47.1603 21.2334 47.2475 22.7751 47.9456L22.8333 48.0038C22.9787 48.062 23.1241 48.1493 23.2696 48.2074C23.415 48.2656 23.5023 48.3529 23.6477 48.4401C23.7932 48.5274 23.9386 48.6438 24.084 48.731C24.2295 48.8183 24.3167 48.9346 24.4622 49.0219L24.5494 49.0801C24.6367 49.1673 24.7531 49.2255 24.8403 49.3128C24.8985 49.371 24.8985 49.371 24.9276 49.4C25.0149 49.4582 25.073 49.5455 25.1312 49.6037C25.1894 49.6618 25.2185 49.6909 25.2766 49.8073C25.3348 49.9236 25.4221 49.9527 25.4803 50.04C25.5384 50.0982 25.5384 50.0982 25.5675 50.1272C25.6257 50.2145 25.713 50.2727 25.7711 50.36L25.8584 50.4472C25.9166 50.5345 25.9457 50.5926 26.0038 50.6799V50.7381L26.062 50.8254C26.1493 50.9126 26.2075 51.0581 26.2656 51.1453C26.3238 51.2326 26.3529 51.378 26.4111 51.4653L26.4693 51.5235C26.4693 51.5816 26.5274 51.6107 26.5274 51.6107C26.5274 51.6689 26.5274 51.6689 26.5856 51.698C26.5856 51.7853 26.6438 51.8434 26.6438 51.9307C26.6438 52.018 26.702 52.018 26.702 52.0761C26.702 52.1343 26.702 52.1634 26.702 52.1634C26.702 52.2507 26.702 52.3088 26.702 52.367V52.4543C26.702 52.5415 26.702 52.5997 26.702 52.687C26.702 52.7452 26.702 52.7452 26.702 52.7743C26.702 52.8324 26.702 52.8615 26.702 52.8615C26.702 52.9197 26.702 52.9197 26.702 52.9488V53.007C26.702 53.0942 26.6438 53.1524 26.6147 53.2397C26.5565 53.3269 26.5274 53.3851 26.4693 53.4724C25.9748 54.2286 25.073 54.6068 24.0259 54.5486Z" fill="#E6DAFE"/>
<path d="M27.5171 51.0841C27.5171 50.9968 27.459 50.9387 27.4299 50.8514C27.4299 50.7932 27.4299 50.7932 27.3717 50.7641C27.3135 50.6187 27.2844 50.5314 27.1681 50.386C26.6445 49.397 25.8009 48.4371 24.7538 47.6808C24.6083 47.5935 24.4629 47.4772 24.3174 47.3899C24.172 47.3027 24.0266 47.1863 23.8811 47.1572H23.823C23.7648 47.099 23.7357 47.099 23.6775 47.07C23.5903 47.0118 23.5321 46.9827 23.4448 46.9245H23.3866C23.3285 46.9245 23.2994 46.8663 23.2412 46.8663C23.1539 46.8082 23.0376 46.7791 22.9503 46.7791L22.8631 46.7209C22.8631 46.7209 22.8631 46.7209 22.8049 46.7209C22.7467 46.7209 22.7176 46.6627 22.6594 46.6627C22.5722 46.6046 22.4558 46.6046 22.3686 46.5755L22.2813 46.5173H22.2231C22.1359 46.4591 22.0195 46.4591 21.9322 46.43C21.8741 46.43 21.845 46.3718 21.7286 46.3718H21.6704C21.5832 46.3718 21.4668 46.3137 21.4377 46.3137C21.4087 46.3137 21.2923 46.3137 21.2341 46.2555H21.1759C21.1178 46.2555 21.0887 46.2555 21.0305 46.1973C20.9723 46.1973 20.9432 46.1973 20.8851 46.1973C20.7396 46.1973 20.5651 46.1391 20.4197 46.1391H20.3615C20.216 46.1391 20.0706 46.1391 19.9252 46.1391C19.867 46.1391 19.8379 46.1391 19.8379 46.1391H19.8961C19.8088 46.1391 19.6925 46.1391 19.6052 46.1973C19.547 46.1973 19.5179 46.1973 19.4598 46.2555C19.3725 46.2555 19.2561 46.3137 19.1689 46.3137C19.1107 46.3137 19.0816 46.3718 19.0234 46.3718L21.6414 42.125L27.2553 42.1832L30.1641 47.3317L27.5462 51.6077C27.5462 51.5495 27.5462 51.5204 27.488 51.4622C27.488 51.4041 27.488 51.4041 27.488 51.375C27.488 51.3168 27.4299 51.2877 27.4299 51.1714C27.5171 51.1423 27.5171 51.0841 27.5171 51.0841Z" fill="#E6DAFE"/>
<path d="M37.4653 57.0819L23.7649 57.0237L21.6705 60.9797L20.2452 63.6849L23.9103 63.6267V63.6849L44.8537 63.7431L46.948 60.1361L31.8223 34.2769L1.89072 34.2188L0 37.5639L0.378145 38.1747H0.319967L12.217 59.1181L16.1729 52.6896L9.22089 40.8799H28.0408L37.4653 57.0819Z" fill="#E6DAFE"/>
</svg>
