<svg width="99" height="16" viewBox="0 0 99 16" fill="none" xmlns="http://www.w3.org/2000/svg">
<path d="M8.62563 0.5L17.0162 5.32124V10.1431L8.625 5.32124V0.5H8.62563Z" fill="url(#paint0_linear_10394_15135)"/>
<path d="M8.62891 15.5002L17.0195 10.7277V5.95459L8.62891 10.7277V15.5002Z" fill="url(#paint1_linear_10394_15135)"/>
<path d="M8.6278 0.5L0.445312 5.32124V10.1431L8.6278 5.32124V0.5Z" fill="url(#paint2_linear_10394_15135)"/>
<path d="M8.6278 15.5002L0.445312 10.7277V5.95459L8.6278 10.7277V15.5002Z" fill="url(#paint3_linear_10394_15135)"/>
<path fill-rule="evenodd" clip-rule="evenodd" d="M27.1016 12.6912H28.5097V3.18994H27.1016V12.6912ZM30.0022 8.33056V7.18743L32.5334 3.19057H34.0834L31.1684 7.69868V7.72556L34.2684 12.6918H32.6747L30.0016 8.33118L30.0022 8.33056ZM43.6672 3.18994L41.7047 10.1612C41.5628 10.6862 41.4922 11.1706 41.4922 11.1706H41.4634C41.4634 11.1706 41.4072 10.6724 41.2784 10.1612L39.5015 3.18994H38.0509L40.6103 12.6912H42.2453L43.9803 6.52743C44.1509 5.92181 44.279 5.18181 44.279 5.18181H44.3072C44.3072 5.18181 44.4353 5.92181 44.6059 6.52743L46.3403 12.6912H47.9759L50.6059 3.18994H49.1559L47.3071 10.1612C47.1653 10.6724 47.1228 11.1706 47.1228 11.1706H47.094C47.094 11.1706 47.0228 10.6862 46.8809 10.1612L44.9184 3.18994H43.6672ZM61.4871 12.6912H55.4159V3.18994H61.2452V4.34744H56.8234V7.32118H60.4209V8.47868H56.8234V11.5337H61.4871V12.6912ZM66.5521 12.6912H67.9602V6.52743C67.9602 5.98931 67.8609 5.14119 67.8609 5.14119H67.889C67.889 5.14119 68.3583 6.00244 68.7277 6.52743L73.2071 12.6912H74.5858V3.18994H73.1783V9.3668C73.1783 9.8918 73.2777 10.7399 73.2777 10.7399H73.2496C73.2496 10.7399 72.7802 9.87868 72.4108 9.3668L67.9459 3.18994H66.5521V12.6912ZM83.8546 12.6912H82.4464V4.34744H79.0058V3.18994H87.2952V4.34744H83.8546V12.6912ZM97.0895 12.6912H98.5539L94.942 3.18994H93.4633L89.8521 12.6912H91.302L92.2827 9.99993L92.667 8.85618L93.7908 5.84119C93.9614 5.35681 94.1889 4.49494 94.1889 4.49494H94.217C94.217 4.49494 94.4302 5.35681 94.6008 5.84119L95.7102 8.85556L96.0927 9.99305L97.0895 12.6912Z" fill="#E6DAFE"/>
<defs>
<linearGradient id="paint0_linear_10394_15135" x1="24.17" y1="5.29436" x2="3.48126" y2="5.29436" gradientUnits="userSpaceOnUse">
<stop stop-color="#E6DAFE"/>
<stop offset="1" stop-color="#E6DAFE" stop-opacity="0.18"/>
</linearGradient>
<linearGradient id="paint1_linear_10394_15135" x1="12.8245" y1="15.5002" x2="14.8203" y2="-2.6248" gradientUnits="userSpaceOnUse">
<stop stop-color="#E6DAFE"/>
<stop offset="1" stop-color="#E6DAFE" stop-opacity="0.59"/>
</linearGradient>
<linearGradient id="paint2_linear_10394_15135" x1="8.67842" y1="2.47687" x2="0.791562" y2="9.00561" gradientUnits="userSpaceOnUse">
<stop stop-color="#E6DAFE"/>
<stop offset="1" stop-color="#E6DAFE" stop-opacity="0.3"/>
</linearGradient>
<linearGradient id="paint3_linear_10394_15135" x1="4.53655" y1="15.5002" x2="4.53655" y2="5.95459" gradientUnits="userSpaceOnUse">
<stop stop-color="#E6DAFE"/>
<stop offset="1" stop-color="#E6DAFE" stop-opacity="0.58"/>
</linearGradient>
</defs>
</svg>
