<svg width="58" height="24" viewBox="0 0 58 24" fill="none" xmlns="http://www.w3.org/2000/svg">
<path d="M31.9614 17.5V9.77326H32.8913V16.6919H36.5554V17.5H31.9614ZM42.4402 11.788H43.3258L40.492 18.7509C40.4255 18.9132 40.3517 19.0535 40.2706 19.1715C40.1894 19.297 40.0934 19.3966 39.9827 19.4704C39.872 19.5516 39.7392 19.6106 39.5842 19.6475C39.4292 19.6918 39.2448 19.714 39.0307 19.714H38.1894V18.9612H39.5178L40.1599 17.3893L37.8573 11.788H38.7651L39.7281 14.1791L40.5805 16.3487H40.6248L41.4772 14.1791L42.4402 11.788ZM44.7606 16.7473H46.4321V12.5407H44.7606V11.788H47.3177V13.227H47.3731C47.4911 12.7769 47.7125 12.4263 48.0372 12.1754C48.3693 11.9171 48.79 11.788 49.2992 11.788H50.0962V12.6736H49.0225C48.5133 12.6736 48.1 12.8212 47.7826 13.1163C47.4727 13.4115 47.3177 13.799 47.3177 14.2787V16.7473H49.5317V17.5H44.7606V16.7473ZM56.0253 17.5C55.6785 17.5 55.4313 17.4114 55.2837 17.2343C55.1361 17.0572 55.0438 16.8358 55.0069 16.5701H54.9516C54.8261 16.9022 54.6232 17.1642 54.3427 17.3561C54.0697 17.5406 53.7007 17.6328 53.2357 17.6328C52.638 17.6328 52.162 17.4779 51.8077 17.1679C51.4535 16.858 51.2764 16.4336 51.2764 15.8949C51.2764 15.3635 51.4683 14.9539 51.852 14.6661C52.2431 14.3783 52.8704 14.2344 53.7339 14.2344H54.9516V13.6698C54.9516 13.2492 54.8335 12.9355 54.5973 12.7289C54.3612 12.5149 54.0254 12.4079 53.59 12.4079C53.2062 12.4079 52.8926 12.4854 52.649 12.6403C52.4055 12.7879 52.2099 12.9909 52.0623 13.2492L51.4646 12.8064C51.5384 12.6588 51.638 12.5149 51.7635 12.3747C51.8889 12.2345 52.0439 12.1127 52.2284 12.0094C52.4129 11.8987 52.6232 11.8138 52.8594 11.7548C53.0955 11.6883 53.3575 11.6551 53.6453 11.6551C54.3169 11.6551 54.8482 11.8249 55.2394 12.1643C55.6379 12.5038 55.8372 12.9761 55.8372 13.5813V16.7251H56.6342V17.5H56.0253ZM53.3907 16.8912C53.6195 16.8912 53.8261 16.8653 54.0106 16.8137C54.2025 16.7546 54.3686 16.6808 54.5088 16.5923C54.649 16.4963 54.756 16.3856 54.8298 16.2602C54.911 16.1273 54.9516 15.9871 54.9516 15.8395V14.8986H53.7339C53.2025 14.8986 52.8151 14.9724 52.5716 15.12C52.328 15.2676 52.2062 15.4816 52.2062 15.762V15.9945C52.2062 16.2897 52.3096 16.5148 52.5162 16.6698C52.7302 16.8174 53.0217 16.8912 53.3907 16.8912Z" fill="#E6DAFE"/>
<g clip-path="url(#clip0_11749_13124)">
<path fill-rule="evenodd" clip-rule="evenodd" d="M0.658203 14.171C0.992151 14.7009 1.62559 15.2234 3.35165 15.2208H20.1437C20.7944 15.2208 21.5284 15.7083 21.7861 16.3132L24.5705 22.9051C24.8259 23.51 24.5042 24 23.8535 24H6.64426C5.62036 23.9349 4.67021 23.665 4.23072 22.6251L0.658203 14.171ZM15.0979 0.534774L17.9142 7.20913C18.1696 7.81651 18.0099 8.6915 17.5557 9.16646L13.4726 13.5186H4.18897C2.7182 13.536 1.84661 12.9686 3.09637 11.5862L13.8163 0.297235C14.2681 -0.177636 14.8426 -0.0727125 15.0979 0.534774Z" fill="#E6DAFE"/>
</g>
<defs>
<clipPath id="clip0_11749_13124">
<rect width="24" height="24" fill="white" transform="translate(0.658203)"/>
</clipPath>
</defs>
</svg>
