<svg width="75" height="23" viewBox="0 0 75 23" fill="none" xmlns="http://www.w3.org/2000/svg">
<path d="M22.0184 0.632416H0.935547C0.805527 0.632416 0.680826 0.684001 0.588925 0.775948C0.496926 0.867797 0.445312 0.992426 0.445312 1.12247V22.1934C0.445312 22.3233 0.496926 22.448 0.588925 22.5398C0.680826 22.6318 0.805527 22.6833 0.935547 22.6833H22.0184C22.1486 22.6833 22.2733 22.6318 22.3652 22.5398C22.4572 22.448 22.5088 22.3233 22.5088 22.1934V1.12247C22.5088 0.992426 22.4572 0.867797 22.3652 0.775948C22.2733 0.684001 22.1486 0.632416 22.0184 0.632416ZM15.1543 14.843C15.1543 14.973 15.1026 15.0976 15.0106 15.1896C14.9187 15.2814 14.794 15.3331 14.664 15.3331H8.29007C8.16005 15.3331 8.03534 15.2814 7.94335 15.1896C7.85144 15.0976 7.79983 14.973 7.79983 14.843V8.47271C7.79983 8.34277 7.85144 8.21814 7.94335 8.12629C8.03534 8.03434 8.16005 7.98276 8.29007 7.98276H14.664C14.794 7.98276 14.9187 8.03434 15.0106 8.12629C15.1026 8.21814 15.1543 8.34277 15.1543 8.47271V14.843Z" fill="#242235"/>
<path d="M66.1565 7.98361H59.7826C59.5118 7.98361 59.2923 8.20294 59.2923 8.47357V14.8439C59.2923 15.1145 59.5118 15.334 59.7826 15.334H66.1565C66.4272 15.334 66.6468 15.1145 66.6468 14.8439V8.47357C66.6468 8.20294 66.4272 7.98361 66.1565 7.98361Z" fill="#242235"/>
<path d="M58.8019 0.632965H52.428C52.1572 0.632965 51.9377 0.852299 51.9377 1.12302V7.49325C51.9377 7.76387 52.1572 7.9833 52.428 7.9833H58.8019C59.0727 7.9833 59.2922 7.76387 59.2922 7.49325V1.12302C59.2922 0.852299 59.0727 0.632965 58.8019 0.632965Z" fill="#242235"/>
<path d="M73.5112 0.632965H67.1372C66.8664 0.632965 66.6469 0.852299 66.6469 1.12302V7.49325C66.6469 7.76387 66.8664 7.9833 67.1372 7.9833H73.5112C73.7819 7.9833 74.0014 7.76387 74.0014 7.49325V1.12302C74.0014 0.852299 73.7819 0.632965 73.5112 0.632965Z" fill="#242235"/>
<path d="M58.8019 15.3332H52.428C52.1572 15.3332 51.9377 15.5526 51.9377 15.8232V22.1935C51.9377 22.4641 52.1572 22.6836 52.428 22.6836H58.8019C59.0727 22.6836 59.2922 22.4641 59.2922 22.1935V15.8232C59.2922 15.5526 59.0727 15.3332 58.8019 15.3332Z" fill="#242235"/>
<path d="M73.5112 15.3332H67.1372C66.8664 15.3332 66.6469 15.5526 66.6469 15.8232V22.1935C66.6469 22.4641 66.8664 22.6836 67.1372 22.6836H73.5112C73.7819 22.6836 74.0014 22.4641 74.0014 22.1935V15.8232C74.0014 15.5526 73.7819 15.3332 73.5112 15.3332Z" fill="#242235"/>
<path d="M47.7623 0.632965H41.3885C41.1177 0.632965 40.8981 0.852299 40.8981 1.12302V7.49325C40.8981 7.76387 41.1177 7.9833 41.3885 7.9833H47.7623C48.0331 7.9833 48.2526 7.76387 48.2526 7.49325V1.12302C48.2526 0.852299 48.0331 0.632965 47.7623 0.632965Z" fill="#242235"/>
<path d="M47.7623 15.3332H41.3885C41.1177 15.3332 40.8981 15.5526 40.8981 15.8232V22.1935C40.8981 22.4641 41.1177 22.6836 41.3885 22.6836H47.7623C48.0331 22.6836 48.2526 22.4641 48.2526 22.1935V15.8232C48.2526 15.5526 48.0331 15.3332 47.7623 15.3332Z" fill="#242235"/>
<path d="M40.8929 8.46711C40.8929 8.33716 40.8412 8.21253 40.7493 8.12068C40.6573 8.02874 40.5326 7.97715 40.4025 7.97715H33.5384V1.12238C33.5384 0.992335 33.4866 0.867705 33.3947 0.775857C33.3027 0.68391 33.178 0.632324 33.048 0.632324H26.6742C26.5441 0.632324 26.4193 0.68391 26.3274 0.775857C26.2354 0.867705 26.1838 0.992335 26.1838 1.12238V22.1823C26.1838 22.3122 26.2354 22.4368 26.3274 22.5287C26.4193 22.6206 26.5441 22.6722 26.6742 22.6722H33.048C33.178 22.6722 33.3027 22.6206 33.3947 22.5287C33.4866 22.4368 33.5384 22.3122 33.5384 22.1823V15.3275H40.4025C40.5326 15.3275 40.6573 15.2758 40.7493 15.184C40.8412 15.092 40.8929 14.9674 40.8929 14.8374V8.46711Z" fill="#242235"/>
</svg>
