<svg width="71" height="20" viewBox="0 0 71 20" fill="none" xmlns="http://www.w3.org/2000/svg">
<path d="M33.9567 0.792047H28.7631V3.16931H33.9567V3.96359H29.5635V6.34085H34.756V0.795962H33.9572L33.9567 0.792047ZM33.9567 5.1511V5.54656H30.3617V4.75452H33.9567V5.1511ZM33.9567 1.98068V2.37782H29.5635V1.58353H33.9572L33.9567 1.98068ZM39.1492 6.33917H40.7444V3.96415H36.3524V3.1721H41.546V0.794284H35.5536V6.33917H39.1492ZM36.3524 1.98124V1.58465H40.7444V2.37726H36.3524V1.98068V1.98124ZM37.951 5.54712H36.3524V4.75452H39.9535V5.54712H37.951ZM35.5542 0H34.7554V0.792047H35.5542V0ZM43.9199 12.7085V17.4401L43.5216 17.0463L43.1245 16.6514L42.7274 16.2577L42.3302 15.8627L41.9319 15.469L41.5337 15.0746L41.1365 14.6808L40.7394 14.2859L40.3423 13.891L39.944 13.4972L39.5469 13.1034L39.1492 12.7091H38.3538V19.017H39.1492V13.891L39.5469 14.2859L39.944 14.6808L40.3417 15.0746L40.7388 15.469L41.1371 15.8627L41.5342 16.2577L41.9314 16.6514L42.3297 17.0463L42.7268 17.4401L43.1251 17.8345L43.5222 18.2294L43.9193 18.6232L44.3165 19.017H44.7147V12.7091H43.9205L43.9199 12.7085ZM56.7196 15.0746H55.9248V12.7085H51.1546V19.0181H57.5167V15.0707H56.7213L56.7196 15.0746ZM51.9494 14.6775V13.4972H55.1294V15.0746H51.9494V14.6775ZM56.7196 16.2549V18.2283H51.9494V15.8639H56.7196V16.2549ZM69.9114 15.0746H68.7195V12.7085H63.9487V19.0181H70.3086V15.0707L69.9114 15.0746ZM64.7436 14.6775V13.4972H67.9246V15.0746H64.7436V14.6775ZM69.5149 16.2549V18.2283H64.7436V15.8639H69.5149V16.2549ZM31.1739 12.7085H25.6072V19.017H31.967V18.2294H26.4037V16.6514H31.1716V15.8627H26.4037V13.4972H31.967V12.7091H31.1739V12.7085ZM5.56549 12.7085H0.00158691V19.0181H6.36257V12.7085H5.56549ZM5.56549 13.8921V18.2294H0.795871V13.4972H5.56549V13.8921ZM18.3775 12.7091H12.8125V19.0186H13.6079V16.652H19.1724V12.7046H18.3775V12.7091ZM18.3775 13.8927V15.8661H13.6079V13.4978H18.3775V13.8927Z" fill="#E6DAFE"/>
</svg>
