<svg width="103" height="29" viewBox="0 0 103 29" fill="none" xmlns="http://www.w3.org/2000/svg">
<g opacity="0.9">
<g clip-path="url(#clip0_1_2181)">
<path d="M40.9593 8.12258L40.9593 5.19464L39.5143 5.19464L39.5143 8.12258L40.9593 8.12258Z" fill="#242235"/>
<path d="M40.9593 24.179L40.9593 9.56293L39.5143 9.56293L39.5143 24.179L40.9593 24.179Z" fill="#242235"/>
<path d="M50.3528 22.5734L44.5729 9.56293L43.1279 9.56293L49.6303 24.179L51.0753 24.179L57.5544 9.56293L56.1094 9.56293L50.3528 22.5734Z" fill="#242235"/>
<path d="M92.909 0.802764L91.464 0.802764L90.019 4.13212L81.3724 24.1791L103 24.1791L92.909 0.802764ZM85.5209 21.2748L90.7415 9.13796L95.9621 21.2748L85.4976 21.2748L85.5209 21.2748Z" fill="#242235"/>
<path d="M71.981 13.9548C71.981 11.5464 73.9154 9.56293 76.2927 9.56293L80.6276 9.56293L80.6276 11.0269L76.2927 11.0269C74.7078 11.0269 73.4027 12.3256 73.4027 13.9548L73.4027 24.2026L71.9577 24.2026L71.9577 13.9548L71.981 13.9548Z" fill="#242235"/>
<path d="M12.8284 13.9548C12.8284 11.5464 10.894 9.56293 8.51675 9.56293L4.90431 9.56293C2.52709 9.56293 0.569377 11.5228 0.569377 13.9548L0.569377 19.8107C0.569377 22.2192 2.50379 24.2026 4.88101 24.2026L8.51675 24.2026C10.894 24.2026 12.8517 22.2428 12.8517 19.8343L12.8517 13.9548L12.8284 13.9548ZM11.3834 19.8107C11.3834 21.4164 10.1016 22.7387 8.49345 22.7387L4.8577 22.7387C3.27288 22.7387 1.96775 21.44 1.96775 19.8107L1.96775 13.9548C1.96775 12.3492 3.27288 11.0269 4.8577 11.0269L8.47014 11.0269C10.055 11.0269 11.3601 12.3256 11.3601 13.9548L11.3601 19.8107L11.3834 19.8107Z" fill="#242235"/>
<path d="M26.5338 13.9548C26.5338 11.5464 24.5994 9.56293 22.1988 9.56293L14.9739 9.56293L14.9739 28.5709L16.4189 28.5709L16.4189 24.179L22.1988 24.179C24.576 24.179 26.5338 22.2192 26.5338 19.7871L26.5338 13.9312L26.5338 13.9548ZM25.0888 19.8107C25.0888 21.4164 23.8069 22.7387 22.1988 22.7387L16.4189 22.7387L16.4189 11.0269L22.1988 11.0269C23.7836 11.0269 25.0888 12.3256 25.0888 13.9548L25.0888 19.8107Z" fill="#242235"/>
<path d="M30.8689 19.8108C30.8689 21.4164 32.1507 22.7387 33.7588 22.7387L37.3713 22.7387L37.3713 24.2027L33.7588 24.2027C31.3816 24.2027 29.4239 22.2428 29.4239 19.8344L29.4239 11.0505L27.9789 11.0505L27.9789 9.58657L29.4239 9.58657L29.4239 6.65863L30.8689 6.65863L30.8689 9.58657L36.2293 9.58657L35.5767 11.0505L30.8689 11.0505L30.8689 19.8108V19.8108Z" fill="#242235"/>
<path d="M68.3684 19.8107C68.3684 21.4164 67.0865 22.7387 65.4784 22.7387L62.5885 22.7387C61.0036 22.7387 59.6985 21.44 59.6985 19.8107L59.6985 16.8828L69.79 16.8828L69.79 13.9548C69.79 11.5464 67.8556 9.56293 65.4551 9.56293L62.5652 9.56293C60.1879 9.56293 58.2302 11.5228 58.2302 13.9548L58.2302 19.8107C58.2302 22.2192 60.1646 24.2026 62.5652 24.2026L65.4551 24.2026C67.8323 24.2026 69.79 22.2428 69.79 19.8107L68.3451 19.8107L68.3684 19.8107ZM59.7218 13.9548C59.7218 12.3492 61.0036 11.0269 62.6118 11.0269L65.5017 11.0269C67.0865 11.0269 68.3917 12.3256 68.3917 13.9548L68.3917 15.4188L59.7451 15.4188L59.7451 13.9548L59.7218 13.9548Z" fill="#242235"/>
</g>
</g>
<defs>
<clipPath id="clip0_1_2181">
<rect width="27.7682" height="102.454" fill="white" transform="translate(103 0.802765) rotate(90)"/>
</clipPath>
</defs>
</svg>
