<svg width="73" height="75" viewBox="0 0 73 75" fill="none" xmlns="http://www.w3.org/2000/svg">
<path d="M36.5 74.0584C56.6584 74.0584 73 57.4799 73 37.0292C73 16.5785 56.6584 0 36.5 0C16.3416 0 0 16.5785 0 37.0292C0 57.4799 16.3416 74.0584 36.5 74.0584Z" fill="#E6DAFE"/>
<path d="M25.8605 46.871C23.6872 46.871 21.9065 46.3521 20.5185 45.3146C19.1488 44.2585 18.4639 42.7578 18.4639 40.8122C18.4639 40.4046 18.5096 39.9043 18.6008 39.3114C18.8384 37.9774 19.1762 36.3747 19.6145 34.5034C20.8564 29.4081 24.0617 26.8605 29.2302 26.8605C30.6365 26.8605 31.8966 27.1014 33.0107 27.583C34.1248 28.0462 35.0014 28.7504 35.6406 29.6953C36.2798 30.6217 36.5996 31.7334 36.5996 33.0303C36.5996 33.4194 36.5539 33.9105 36.4625 34.5034C36.1886 36.1523 35.8598 37.7551 35.4762 39.3114C34.837 41.8498 33.7321 43.749 32.1614 45.0088C30.5908 46.2502 28.4906 46.871 25.8605 46.871ZM26.2441 42.8689C27.2669 42.8689 28.1343 42.5631 28.8467 41.9517C29.5772 41.3403 30.0977 40.4046 30.4081 39.1448C30.8282 37.403 31.1479 35.8837 31.3671 34.5868C31.4401 34.1976 31.4766 33.7994 31.4766 33.3916C31.4766 31.7056 30.609 30.8625 28.8741 30.8625C27.8512 30.8625 26.9746 31.1682 26.2441 31.7796C25.5319 32.3912 25.0204 33.3269 24.71 34.5868C24.3812 35.8281 24.0525 37.3475 23.7238 39.1448C23.6507 39.5152 23.6142 39.9043 23.6142 40.3119C23.6142 42.0166 24.4909 42.8689 26.2441 42.8689Z" fill="#242235"/>
<path d="M37.8583 46.5931C37.6574 46.5931 37.502 46.5283 37.3925 46.3985C37.3011 46.2502 37.2738 46.0836 37.3103 45.8983L41.0909 27.8332C41.1274 27.6294 41.2278 27.4627 41.3922 27.3329C41.5566 27.2033 41.73 27.1384 41.9127 27.1384H49.1998C51.227 27.1384 52.8525 27.5646 54.0761 28.4168C55.3181 29.2692 55.9391 30.5013 55.9391 32.1132C55.9391 32.5764 55.8843 33.0582 55.7747 33.5584C55.3181 35.6892 54.3958 37.2641 53.0078 38.2832C51.638 39.3022 49.7568 39.8117 47.3643 39.8117H43.666L42.4059 45.8983C42.3692 46.1021 42.2688 46.2688 42.1045 46.3985C41.9401 46.5283 41.7665 46.5931 41.584 46.5931H37.8583ZM47.5562 35.9764C48.3231 35.9764 48.9897 35.7633 49.5559 35.3371C50.1404 34.911 50.5239 34.2996 50.7066 33.5029C50.7613 33.1878 50.7888 32.9099 50.7888 32.6691C50.7888 32.1317 50.6336 31.7241 50.323 31.4463C50.0125 31.1497 49.4829 31.0016 48.7341 31.0016H45.4466L44.4056 35.9764H47.5562Z" fill="#242235"/>
</svg>
