<svg width="107" height="22" viewBox="0 0 107 22" fill="none" xmlns="http://www.w3.org/2000/svg">
<g clip-path="url(#clip0_11055_21799)">
<path fill-rule="evenodd" clip-rule="evenodd" d="M9.2485 0.951196C10.3545 0.349601 11.69 0.349601 12.7959 0.951196L19.2077 4.43885C20.4023 5.08867 21.146 6.33975 21.146 7.69972V14.3003C21.146 15.6602 20.4023 16.9113 19.2077 17.5612L12.7959 21.0488C11.69 21.6504 10.3545 21.6504 9.2485 21.0488L2.83676 17.5612C1.6421 16.9113 0.898438 15.6602 0.898438 14.3003V7.69972C0.898438 6.33975 1.6421 5.08867 2.83675 4.43885L9.2485 0.951196Z" fill="#18191D"/>
<path d="M9.40528 1.23944C10.4135 0.691021 11.6309 0.691021 12.6391 1.23944L19.0509 4.72708C20.14 5.31947 20.8179 6.45996 20.8179 7.69972V14.3003C20.8179 15.5401 20.14 16.6805 19.0509 17.2729L12.6391 20.7605C11.6309 21.309 10.4135 21.309 9.40528 20.7605L2.99354 17.2729C1.9045 16.6805 1.22656 15.5401 1.22656 14.3003V7.69972C1.22656 6.45996 1.9045 5.31947 2.99354 4.72708L9.40528 1.23944Z" stroke="url(#paint0_linear_11055_21799)"/>
<path d="M0.521484 9.95C0.521484 6.01278 0.521484 4.04417 1.52414 2.66413C1.84796 2.21843 2.23991 1.82648 2.68561 1.50266C4.06565 0.5 6.03427 0.5 9.97148 0.5H12.0715C16.0087 0.5 17.9773 0.5 19.3574 1.50266C19.803 1.82648 20.195 2.21843 20.5188 2.66413C21.5215 4.04417 21.5215 6.01278 21.5215 9.95V12.05C21.5215 15.9872 21.5215 17.9559 20.5188 19.3359C20.195 19.7815 19.803 20.1735 19.3574 20.4973C17.9773 21.5 16.0087 21.5 12.0715 21.5H9.97148C6.03427 21.5 4.06565 21.5 2.68561 20.4973C2.23991 20.1735 1.84796 19.7815 1.52414 19.3359C0.521484 17.9559 0.521484 15.9872 0.521484 12.05V9.95Z" fill="white"/>
<path d="M21.5215 0.5H0.521484V21.5H21.5215V0.5Z" fill="#E6DAFE"/>
<mask id="mask0_11055_21799" style="mask-type:alpha" maskUnits="userSpaceOnUse" x="4" y="4" width="15" height="15">
<path d="M4.1543 17.8156C4.1543 17.7172 4.2293 17.5203 4.3793 17.225C4.52461 16.9344 4.68399 16.5617 4.85742 16.107C5.03555 15.6524 5.2043 15.1789 5.36367 14.6868C5.52305 14.1946 5.68477 13.6672 5.84883 13.1047L6.39727 11.2485L5.66601 11.4453C5.4832 11.4453 5.3332 11.3492 5.21602 11.157C5.18789 11.1055 5.17383 11.0445 5.17383 10.9742C5.17383 10.9039 5.23008 10.8219 5.34258 10.7281C5.45508 10.6297 5.59336 10.5383 5.75742 10.4539C6.08555 10.2852 6.42305 10.1563 6.76993 10.0672L6.83321 9.87033C6.95977 9.47658 7.0793 9.06873 7.19178 8.64689C7.30899 8.22033 7.43085 7.80544 7.55745 7.40231C7.6887 6.99922 7.83635 6.61719 8.00041 6.25625C8.16448 5.89062 8.35663 5.57187 8.57693 5.3C9.06446 4.70937 9.67615 4.41406 10.4121 4.41406C10.9558 4.41406 11.3871 4.55938 11.7059 4.85C12.0246 5.14062 12.184 5.53437 12.184 6.03125C12.184 6.54688 12.0364 6.99453 11.741 7.37422C11.4926 7.6883 11.216 7.84528 10.9113 7.84528C10.5316 7.84528 10.2739 7.6719 10.1379 7.325C10.1004 7.23595 10.0816 7.16094 10.0816 7.09998C10.0816 6.99687 10.1519 6.90313 10.2926 6.81875C10.5504 6.62187 10.7309 6.35937 10.834 6.03125C10.8668 5.92812 10.8832 5.82734 10.8832 5.72891C10.8832 5.34453 10.7332 5.15234 10.4332 5.15234C10.0207 5.15234 9.64104 5.61875 9.29415 6.55156C9.19105 6.8375 9.08789 7.15156 8.98479 7.49373L8.32381 9.73672C8.75038 9.6711 9.0598 9.63829 9.25195 9.63829C9.44882 9.63829 9.62227 9.66171 9.77229 9.70857C9.92224 9.75077 10.0582 9.81173 10.1801 9.8914C10.4566 10.0742 10.5949 10.2992 10.5949 10.5664C10.5949 10.8336 10.4636 10.9672 10.2011 10.9672L9.30819 10.932C8.82073 10.932 8.37074 10.9531 7.95822 10.9953L7.38164 13.0344C7.00196 14.4172 6.69258 15.4227 6.45351 16.0508C6.21914 16.6789 5.98945 17.2109 5.76445 17.6469C5.55352 18.0453 5.23242 18.2445 4.80118 18.2445C4.36992 18.2445 4.1543 18.1015 4.1543 17.8156ZM11.6383 16.1141C11.4368 16.2594 11.2798 16.332 11.1673 16.332C11.0595 16.332 10.968 16.3156 10.893 16.2828C10.8227 16.2547 10.7571 16.2172 10.6962 16.1703C10.5555 16.0531 10.4852 15.9477 10.4852 15.8539C10.4852 15.7555 10.5368 15.6664 10.6399 15.5867C10.6399 15.5867 10.7829 15.4719 11.0688 15.2422C11.8376 14.6094 12.4728 13.9227 12.9743 13.182C12.5665 12.0383 12.379 11.0867 12.4118 10.3273C12.4306 9.95237 12.5923 9.6289 12.897 9.35702C13.1782 9.11329 13.4782 8.99142 13.7969 8.99142C13.8907 8.99142 13.9516 9.02423 13.9798 9.08986C14.0079 9.15548 14.022 9.25156 14.022 9.37815C14.022 9.50001 14.0172 9.63126 14.0079 9.7719C13.9985 9.90781 13.9962 10.0531 14.0008 10.2078C14.0102 10.3578 14.022 10.5219 14.036 10.7C14.0829 11.1781 14.1274 11.5508 14.1696 11.818L14.4017 11.4312C14.936 10.5828 15.5594 9.91017 16.272 9.41326C16.6751 9.13205 17.0219 8.99142 17.3126 8.99142C17.5751 8.99142 17.779 9.02889 17.9243 9.1039C18.1962 9.24453 18.2876 9.38747 18.1985 9.53283C18.1844 9.55625 18.1563 9.57502 18.1141 9.58907L17.9383 9.67346C17.1978 9.99686 16.2532 10.7891 15.1048 12.05C14.8657 12.3125 14.6571 12.5633 14.479 12.8023L14.7251 13.625C15.0298 14.6094 15.3907 15.1016 15.8079 15.1016C15.9907 15.1016 16.1407 15.0734 16.2579 15.0172L16.511 14.9047C16.5626 14.8813 16.6118 14.8695 16.6586 14.8695C16.7571 14.8695 16.8063 14.9187 16.8063 15.0172C16.8063 15.4297 16.5954 15.7766 16.1735 16.0578C15.8923 16.2453 15.5735 16.3391 15.2173 16.3391C14.5282 16.3391 13.9048 15.6289 13.3469 14.2086C12.7563 15.0758 12.1868 15.711 11.6383 16.1141Z" fill="#110F23"/>
</mask>
<g mask="url(#mask0_11055_21799)">
<path d="M19.1946 11.0182C19.1946 6.21666 15.3022 2.32422 10.5006 2.32422C5.69908 2.32422 1.80664 6.21666 1.80664 11.0182C1.80664 15.8198 5.69908 19.7122 10.5006 19.7122C15.3022 19.7122 19.1946 15.8198 19.1946 11.0182Z" fill="#110F23"/>
<g filter="url(#filter0_f_11055_21799)">
<path d="M16.0983 15.5721C16.0983 10.5021 11.9882 6.39209 6.91827 6.39209C1.8483 6.39209 -2.26172 10.5021 -2.26172 15.5721C-2.26172 20.642 1.8483 24.7521 6.91827 24.7521C11.9882 24.7521 16.0983 20.642 16.0983 15.5721Z" fill="#110F23"/>
</g>
<g filter="url(#filter1_f_11055_21799)">
<path d="M14.4425 17.5523C14.4425 12.2238 10.1229 7.9043 4.79448 7.9043C-0.533963 7.9043 -4.85352 12.2238 -4.85352 17.5523C-4.85352 22.8807 -0.533963 27.2003 4.79448 27.2003C10.1229 27.2003 14.4425 22.8807 14.4425 17.5523Z" fill="#110F23"/>
</g>
</g>
<path d="M28 4.77065H31.6382C32.2787 4.77065 32.8562 4.8284 33.3707 4.9439C33.8852 5.0594 34.3262 5.2484 34.6937 5.5109C35.0612 5.7734 35.3447 6.1094 35.5442 6.5189C35.7437 6.9284 35.8435 7.4219 35.8435 7.9994C35.8435 8.6189 35.728 9.13865 35.497 9.55865C35.266 9.97865 34.951 10.3199 34.552 10.5824C34.1635 10.8344 33.7067 11.0181 33.1817 11.1336C32.6567 11.2491 32.1002 11.3069 31.5122 11.3069H29.9845V15.9216H28V4.77065ZM31.3705 9.6374C31.696 9.6374 32.0057 9.6164 32.2997 9.5744C32.5937 9.5219 32.8562 9.4379 33.0872 9.3224C33.3182 9.1964 33.502 9.0284 33.6385 8.8184C33.775 8.6084 33.8432 8.3354 33.8432 7.9994C33.8432 7.6739 33.775 7.4114 33.6385 7.2119C33.502 7.0019 33.3182 6.83915 33.0872 6.72365C32.8667 6.60815 32.6095 6.53465 32.3155 6.50315C32.032 6.46115 31.738 6.44015 31.4335 6.44015H29.9845V9.6374H31.3705ZM35.984 12.1101C35.984 11.5116 36.089 10.9709 36.299 10.4879C36.5195 9.9944 36.8135 9.5744 37.181 9.2279C37.5485 8.8814 37.9843 8.61365 38.4883 8.42465C38.9923 8.23565 39.5278 8.14115 40.0948 8.14115C40.6618 8.14115 41.1973 8.23565 41.7013 8.42465C42.2053 8.61365 42.641 8.8814 43.0085 9.2279C43.376 9.5744 43.6648 9.9944 43.8748 10.4879C44.0953 10.9709 44.2055 11.5116 44.2055 12.1101C44.2055 12.7086 44.0953 13.2546 43.8748 13.7481C43.6648 14.2416 43.376 14.6669 43.0085 15.0239C42.641 15.3704 42.2053 15.6434 41.7013 15.8429C41.1973 16.0424 40.6618 16.1421 40.0948 16.1421C39.5278 16.1421 38.9923 16.0424 38.4883 15.8429C37.9843 15.6434 37.5485 15.3704 37.181 15.0239C36.8135 14.6669 36.5195 14.2416 36.299 13.7481C36.089 13.2546 35.984 12.7086 35.984 12.1101ZM37.9055 12.1101C37.9055 12.4041 37.9475 12.6981 38.0315 12.9921C38.126 13.2861 38.2625 13.5486 38.441 13.7796C38.6195 14.0106 38.8453 14.1996 39.1183 14.3466C39.3913 14.4936 39.7168 14.5672 40.0948 14.5672C40.4728 14.5672 40.7983 14.4936 41.0713 14.3466C41.3443 14.1996 41.57 14.0106 41.7485 13.7796C41.927 13.5486 42.0583 13.2861 42.1423 12.9921C42.2368 12.6981 42.284 12.4041 42.284 12.1101C42.284 11.8161 42.2368 11.5274 42.1423 11.2439C42.0583 10.9499 41.927 10.6874 41.7485 10.4564C41.57 10.2254 41.3443 10.0416 41.0713 9.90515C40.7983 9.75815 40.4728 9.68465 40.0948 9.68465C39.7168 9.68465 39.3913 9.75815 39.1183 9.90515C38.8453 10.0416 38.6195 10.2254 38.441 10.4564C38.2625 10.6874 38.126 10.9499 38.0315 11.2439C37.9475 11.5274 37.9055 11.8161 37.9055 12.1101ZM46.0066 4.01465H47.8966V15.9216H46.0066V4.01465ZM48.9924 8.36165H51.0871L53.1976 13.8584H53.2291L55.1034 8.36165H57.0721L53.4969 17.5439C53.3604 17.8904 53.2134 18.1949 53.0559 18.4574C52.8984 18.7304 52.7094 18.9561 52.4889 19.1346C52.2684 19.3236 52.0059 19.4654 51.7014 19.5599C51.4074 19.6544 51.0504 19.7016 50.6304 19.7016C50.4729 19.7016 50.3101 19.6911 50.1421 19.6701C49.9846 19.6596 49.8219 19.6334 49.6539 19.5914L49.8114 17.9534C49.9374 17.9954 50.0581 18.0216 50.1736 18.0321C50.2996 18.0531 50.4151 18.0636 50.5201 18.0636C50.7196 18.0636 50.8876 18.0374 51.0241 17.9849C51.1606 17.9429 51.2761 17.8694 51.3706 17.7644C51.4651 17.6699 51.5491 17.5491 51.6226 17.4021C51.6961 17.2551 51.7749 17.0819 51.8589 16.8824L52.2369 15.9216L48.9924 8.36165ZM58.1383 8.36165H59.9338V9.5744H59.9653C60.1333 9.1964 60.4221 8.86565 60.8316 8.58215C61.2516 8.28815 61.7451 8.14115 62.3121 8.14115C62.8056 8.14115 63.2256 8.2304 63.5721 8.4089C63.9291 8.5769 64.2178 8.80265 64.4383 9.08615C64.6693 9.36965 64.8373 9.69515 64.9423 10.0626C65.0473 10.4301 65.0998 10.8081 65.0998 11.1966V15.9216H63.2098V11.7321C63.2098 11.5116 63.1941 11.2806 63.1626 11.0391C63.1311 10.7976 63.0628 10.5824 62.9578 10.3934C62.8528 10.1939 62.7058 10.0311 62.5168 9.90515C62.3383 9.77915 62.0968 9.71615 61.7923 9.71615C61.4878 9.71615 61.2253 9.77915 61.0048 9.90515C60.7843 10.0206 60.6006 10.1729 60.4536 10.3619C60.3171 10.5509 60.2121 10.7714 60.1386 11.0234C60.0651 11.2649 60.0283 11.5116 60.0283 11.7636V15.9216H58.1383V8.36165ZM66.8014 12.1101C66.8014 11.5116 66.9064 10.9709 67.1164 10.4879C67.3369 9.9944 67.6309 9.5744 67.9984 9.2279C68.3659 8.8814 68.8017 8.61365 69.3057 8.42465C69.8097 8.23565 70.3452 8.14115 70.9122 8.14115C71.4792 8.14115 72.0147 8.23565 72.5187 8.42465C73.0227 8.61365 73.4584 8.8814 73.8259 9.2279C74.1934 9.5744 74.4822 9.9944 74.6922 10.4879C74.9127 10.9709 75.0229 11.5116 75.0229 12.1101C75.0229 12.7086 74.9127 13.2546 74.6922 13.7481C74.4822 14.2416 74.1934 14.6669 73.8259 15.0239C73.4584 15.3704 73.0227 15.6434 72.5187 15.8429C72.0147 16.0424 71.4792 16.1421 70.9122 16.1421C70.3452 16.1421 69.8097 16.0424 69.3057 15.8429C68.8017 15.6434 68.3659 15.3704 67.9984 15.0239C67.6309 14.6669 67.3369 14.2416 67.1164 13.7481C66.9064 13.2546 66.8014 12.7086 66.8014 12.1101ZM68.7229 12.1101C68.7229 12.4041 68.7649 12.6981 68.8489 12.9921C68.9434 13.2861 69.0799 13.5486 69.2584 13.7796C69.4369 14.0106 69.6627 14.1996 69.9357 14.3466C70.2087 14.4936 70.5342 14.5672 70.9122 14.5672C71.2902 14.5672 71.6157 14.4936 71.8887 14.3466C72.1617 14.1996 72.3874 14.0106 72.5659 13.7796C72.7444 13.5486 72.8757 13.2861 72.9597 12.9921C73.0542 12.6981 73.1014 12.4041 73.1014 12.1101C73.1014 11.8161 73.0542 11.5274 72.9597 11.2439C72.8757 10.9499 72.7444 10.6874 72.5659 10.4564C72.3874 10.2254 72.1617 10.0416 71.8887 9.90515C71.6157 9.75815 71.2902 9.68465 70.9122 9.68465C70.5342 9.68465 70.2087 9.75815 69.9357 9.90515C69.6627 10.0416 69.4369 10.2254 69.2584 10.4564C69.0799 10.6874 68.9434 10.9499 68.8489 11.2439C68.7649 11.5274 68.7229 11.8161 68.7229 12.1101ZM85.8169 8.14115C86.3104 8.14115 86.7304 8.2304 87.0769 8.4089C87.4339 8.5769 87.7227 8.80265 87.9432 9.08615C88.1742 9.36965 88.3422 9.69515 88.4472 10.0626C88.5522 10.4301 88.6047 10.8081 88.6047 11.1966V15.9216H86.7147V11.7321C86.7147 11.5116 86.6989 11.2806 86.6674 11.0391C86.6359 10.7976 86.5677 10.5824 86.4627 10.3934C86.3577 10.1939 86.2107 10.0311 86.0217 9.90515C85.8432 9.77915 85.6017 9.71615 85.2972 9.71615C85.0032 9.71615 84.7512 9.77915 84.5412 9.90515C84.3312 10.0311 84.1579 10.1939 84.0214 10.3934C83.8849 10.5929 83.7852 10.8186 83.7222 11.0706C83.6592 11.3121 83.6277 11.5536 83.6277 11.7951V15.9216H81.7377V11.3541C81.7377 10.8816 81.6222 10.4931 81.3912 10.1886C81.1707 9.87365 80.8189 9.71615 80.3359 9.71615C80.0524 9.71615 79.8057 9.77915 79.5957 9.90515C79.3857 10.0206 79.2124 10.1729 79.0759 10.3619C78.9499 10.5509 78.8502 10.7714 78.7767 11.0234C78.7137 11.2649 78.6822 11.5116 78.6822 11.7636V15.9216H76.7922V8.36165H78.5877V9.5744H78.6192C78.7032 9.3854 78.8134 9.2069 78.9499 9.0389C79.0969 8.8709 79.2649 8.71865 79.4539 8.58215C79.6534 8.44565 79.8792 8.34065 80.1312 8.26715C80.3832 8.18315 80.6614 8.14115 80.9659 8.14115C81.5539 8.14115 82.0422 8.2724 82.4307 8.5349C82.8192 8.7974 83.1184 9.1439 83.3284 9.5744C83.5804 9.1124 83.9164 8.76065 84.3364 8.51915C84.7564 8.26715 85.2499 8.14115 85.8169 8.14115ZM90.7729 8.36165H92.6629V15.9216H90.7729V8.36165ZM90.5052 5.7944C90.5052 5.4899 90.6154 5.2274 90.8359 5.0069C91.0669 4.7759 91.3557 4.6604 91.7022 4.6604C92.0487 4.6604 92.3374 4.77065 92.5684 4.99115C92.8099 5.20115 92.9307 5.4689 92.9307 5.7944C92.9307 6.1199 92.8099 6.3929 92.5684 6.6134C92.3374 6.8234 92.0487 6.9284 91.7022 6.9284C91.3557 6.9284 91.0669 6.81815 90.8359 6.59765C90.6154 6.36665 90.5052 6.0989 90.5052 5.7944ZM99.5864 14.9609H99.5391C99.3501 15.2969 99.0456 15.5751 98.6256 15.7956C98.2056 16.0056 97.7279 16.1106 97.1924 16.1106C96.8879 16.1106 96.5676 16.0686 96.2316 15.9846C95.9061 15.9111 95.6016 15.7851 95.3181 15.6066C95.0451 15.4176 94.8141 15.1761 94.6251 14.8821C94.4466 14.5776 94.3574 14.2049 94.3574 13.7639C94.3574 13.1969 94.5149 12.7454 94.8299 12.4094C95.1554 12.0734 95.5701 11.8161 96.0741 11.6376C96.5781 11.4591 97.1346 11.3436 97.7436 11.2911C98.3631 11.2281 98.9669 11.1966 99.5549 11.1966V11.0076C99.5549 10.5351 99.3816 10.1886 99.0351 9.96815C98.6991 9.73715 98.2949 9.62165 97.8224 9.62165C97.4234 9.62165 97.0401 9.70565 96.6726 9.87365C96.3051 10.0416 96.0006 10.2464 95.7591 10.4879L94.7826 9.33815C95.2131 8.93915 95.7066 8.6399 96.2631 8.4404C96.8301 8.2409 97.4024 8.14115 97.9799 8.14115C98.6519 8.14115 99.2031 8.23565 99.6336 8.42465C100.075 8.61365 100.421 8.8604 100.673 9.1649C100.925 9.4694 101.098 9.81065 101.193 10.1886C101.298 10.5666 101.35 10.9446 101.35 11.3226V15.9216H99.5864V14.9609ZM99.5549 12.4724H99.1296C98.8251 12.4724 98.5049 12.4881 98.1689 12.5196C97.8329 12.5406 97.5231 12.5984 97.2396 12.6929C96.9561 12.7769 96.7199 12.9029 96.5309 13.0709C96.3419 13.2284 96.2474 13.4489 96.2474 13.7324C96.2474 13.9109 96.2841 14.0631 96.3576 14.1891C96.4416 14.3046 96.5466 14.3991 96.6726 14.4726C96.7986 14.5461 96.9404 14.5986 97.0979 14.6301C97.2554 14.6616 97.4129 14.6774 97.5704 14.6774C98.2214 14.6774 98.7149 14.5041 99.0509 14.1576C99.3869 13.8111 99.5549 13.3386 99.5549 12.7401V12.4724ZM103.521 4.01465H105.411V15.9216H103.521V4.01465Z" fill="#E6DAFE"/>
</g>
<defs>
<filter id="filter0_f_11055_21799" x="-4.456" y="4.19781" width="22.7479" height="22.7484" filterUnits="userSpaceOnUse" color-interpolation-filters="sRGB">
<feFlood flood-opacity="0" result="BackgroundImageFix"/>
<feBlend mode="normal" in="SourceGraphic" in2="BackgroundImageFix" result="shape"/>
<feGaussianBlur stdDeviation="1.09714" result="effect1_foregroundBlur_11055_21799"/>
</filter>
<filter id="filter1_f_11055_21799" x="-7.0478" y="5.71002" width="23.6854" height="23.6845" filterUnits="userSpaceOnUse" color-interpolation-filters="sRGB">
<feFlood flood-opacity="0" result="BackgroundImageFix"/>
<feBlend mode="normal" in="SourceGraphic" in2="BackgroundImageFix" result="shape"/>
<feGaussianBlur stdDeviation="1.09714" result="effect1_foregroundBlur_11055_21799"/>
</filter>
<linearGradient id="paint0_linear_11055_21799" x1="11.0222" y1="0.500001" x2="11.0222" y2="21.5" gradientUnits="userSpaceOnUse">
<stop stop-color="#7EA4FF" stop-opacity="0.27"/>
<stop offset="1" stop-color="#1448C4" stop-opacity="0.42"/>
</linearGradient>
<clipPath id="clip0_11055_21799">
<rect width="106.312" height="21" fill="white" transform="translate(0.521484 0.5)"/>
</clipPath>
</defs>
</svg>
