<svg width="75" height="24" viewBox="0 0 75 24" fill="none" xmlns="http://www.w3.org/2000/svg">
<path d="M32.0039 8.40688V10.9848H35.1609V10.3403H35.795V9.05136H35.1609V8.40688H32.0039ZM32.6248 12.2603H31.9907V16.1138H30.7227V7.11792H35.7818V7.7624H36.4158V8.40688H37.0498V10.9848H36.4158V11.6293H35.7818V12.2738H34.5137V12.9182H35.1477V13.5627H35.7818V14.2072H36.4158V14.8517H37.0498V16.1406H35.7818V15.4962H35.1477V14.8517H34.5137V14.2072H33.8796V13.5627H33.2456V12.9182H32.6116V12.2603H32.6248ZM39.586 16.1138V14.8248H40.8541V8.39345H39.586V7.10449H43.377V8.39345H42.109V14.8248H43.377V16.1138H39.586ZM47.1681 10.9848H50.3251V10.3403H50.9591V9.05136H50.3251V8.40688H47.1681V10.9848ZM45.9 16.1138V7.11792H50.9591V7.7624H51.5931V8.40688H52.2272V10.9848H51.5931V12.2738H52.2272V14.8383H51.5931V15.4827H50.9591V16.1272H45.9V16.1138ZM47.1681 14.8383H50.3251V14.1938H50.9591V12.9048H50.3251V12.2603H47.1681V14.8383ZM54.7501 10.9848H57.9071V10.3403H58.5411V9.05136H57.9071V8.40688H54.7501V10.9848ZM53.4953 16.1138V7.11792H58.5544V7.7624H59.1884V8.40688H59.8224V10.9848H59.1884V12.2738H59.8224V14.8383H59.1884V15.4827H58.5544V16.1272H53.4953V16.1138ZM54.7501 14.8383H57.9071V14.1938H58.5411V12.9048H57.9071V12.2603H54.7501V14.8383ZM65.5024 8.40688H62.9794V9.05136H62.3454V14.1938H62.9794V14.8383H65.5024V14.1938H66.1364V9.05136H65.5024V8.40688ZM62.3322 7.7624V7.11792H66.1232V7.7624H66.7572V8.40688H67.3913V14.8383H66.7572V15.4827H66.1232V16.1272H62.3322V15.4827H61.6981V14.8383H61.0641V8.40688H61.6981V7.7624H62.3322ZM69.9274 10.9848V16.1272H68.6594V7.13134H69.9274V9.06479H70.5615V9.70926H71.1955V10.3537H71.8296V10.9982H72.4636V11.6427H73.0976V12.2872H73.7317V7.14477H74.9998V16.1406H73.7185V14.2072H73.0844V13.5627H72.4504V12.9182H71.8163V12.2738H71.1823V11.6293H70.5483V10.9848H69.9274Z" fill="#E6DAFE"/>
<path d="M23.7907 11.9998C23.7907 5.4289 18.4663 0.104492 11.8953 0.104492C5.32441 0.104492 0 5.4289 0 11.9998C0 18.5708 5.32441 23.8952 11.8953 23.8952C18.4663 23.8952 23.7907 18.5708 23.7907 11.9998Z" fill="#E6DAFE"/>
<path fill-rule="evenodd" clip-rule="evenodd" d="M11.9705 6.0083L18.6927 12.6242L11.9326 19.603L11.1088 18.8725L17.1441 12.6419L11.9778 7.55722L0.812384 18.7455L0 18.0034L11.9705 6.0083Z" fill="#110F23"/>
</svg>
