<svg width="75" height="24" viewBox="0 0 75 24" fill="none" xmlns="http://www.w3.org/2000/svg">
<g opacity="0.55">
<path d="M32.0039 9.30238V11.8803H35.1609V11.2358H35.795V9.94687H35.1609V9.30238H32.0039ZM32.6248 13.1558H31.9907V17.0093H30.7227V8.01343H35.7818V8.65791H36.4158V9.30238H37.0498V11.8803H36.4158V12.5248H35.7818V13.1693H34.5137V13.8137H35.1477V14.4582H35.7818V15.1027H36.4158V15.7472H37.0498V17.0361H35.7818V16.3917H35.1477V15.7472H34.5137V15.1027H33.8796V14.4582H33.2456V13.8137H32.6116V13.1558H32.6248ZM39.586 17.0093V15.7203H40.8541V9.28896H39.586V8H43.377V9.28896H42.109V15.7203H43.377V17.0093H39.586ZM47.1681 11.8803H50.3251V11.2358H50.9591V9.94687H50.3251V9.30238H47.1681V11.8803ZM45.9 17.0093V8.01343H50.9591V8.65791H51.5931V9.30238H52.2272V11.8803H51.5931V13.1693H52.2272V15.7338H51.5931V16.3782H50.9591V17.0227H45.9V17.0093ZM47.1681 15.7338H50.3251V15.0893H50.9591V13.8003H50.3251V13.1558H47.1681V15.7338ZM54.7501 11.8803H57.9071V11.2358H58.5411V9.94687H57.9071V9.30238H54.7501V11.8803ZM53.4953 17.0093V8.01343H58.5544V8.65791H59.1884V9.30238H59.8224V11.8803H59.1884V13.1693H59.8224V15.7338H59.1884V16.3782H58.5544V17.0227H53.4953V17.0093ZM54.7501 15.7338H57.9071V15.0893H58.5411V13.8003H57.9071V13.1558H54.7501V15.7338ZM65.5024 9.30238H62.9794V9.94687H62.3454V15.0893H62.9794V15.7338H65.5024V15.0893H66.1364V9.94687H65.5024V9.30238ZM62.3322 8.65791V8.01343H66.1232V8.65791H66.7572V9.30238H67.3913V15.7338H66.7572V16.3782H66.1232V17.0227H62.3322V16.3782H61.6981V15.7338H61.0641V9.30238H61.6981V8.65791H62.3322ZM69.9274 11.8803V17.0227H68.6594V8.02685H69.9274V9.96029H70.5615V10.6048H71.1955V11.2493H71.8296V11.8937H72.4636V12.5382H73.0976V13.1827H73.7317V8.04028H74.9998V17.0361H73.7185V15.1027H73.0844V14.4582H72.4504V13.8137H71.8163V13.1693H71.1823V12.5248H70.5483V11.8803H69.9274Z" fill="#E6DAFE"/>
<path d="M23.7907 11.8953C23.7907 5.32441 18.4663 0 11.8953 0C5.32441 0 0 5.32441 0 11.8953C0 18.4663 5.32441 23.7907 11.8953 23.7907C18.4663 23.7907 23.7907 18.4663 23.7907 11.8953Z" fill="#E6DAFE"/>
<path fill-rule="evenodd" clip-rule="evenodd" d="M11.9705 6.06812L18.6927 12.684L11.9326 19.6628L11.1088 18.9323L17.1441 12.7017L11.9778 7.61703L0.812384 18.8053L0 18.0632L11.9705 6.06812Z" fill="#110F23"/>
</g>
</svg>
