<svg width="126" height="10" viewBox="0 0 126 10" fill="none" xmlns="http://www.w3.org/2000/svg">
<path d="M12.6572 4.74223C12.1252 4.16801 11.4858 3.88103 10.7388 3.88103H3.33362C3.19608 3.88103 3.07809 3.82827 2.9794 3.72248C2.88072 3.61697 2.83149 3.48826 2.83149 3.33638V2.67315C2.83149 2.52819 2.88072 2.40269 2.9794 2.29691C3.07809 2.19139 3.19608 2.13836 3.33362 2.13836H12.8814C12.9053 2.13836 12.9246 2.1301 12.9395 2.11358C12.9545 2.09732 12.962 2.07894 12.962 2.05922V0.0791394C12.962 0.0527596 12.9545 0.0330413 12.9395 0.0197183C12.9246 0.00666155 12.905 0 12.8814 0H3.33362C2.58056 0 1.93945 0.287247 1.41055 0.861476C0.88164 1.4357 0.617188 2.1285 0.617188 2.94042V3.06912C0.617188 3.88769 0.88164 4.58396 1.41055 5.15816C1.93945 5.73239 2.58056 6.01938 3.33362 6.01938H10.7388C10.8703 6.01938 10.9854 6.07057 11.0838 6.17287C11.1825 6.27521 11.2317 6.40231 11.2317 6.5542V7.21742C11.2317 7.36926 11.1825 7.49641 11.0838 7.5987C10.9851 7.70105 10.87 7.7522 10.7388 7.7522H1.18204C1.16419 7.7522 1.14754 7.76045 1.13282 7.777C1.11786 7.7935 1.11038 7.81509 1.11038 7.84144V9.82155C1.11038 9.84125 1.11786 9.85965 1.13282 9.8759C1.14778 9.8924 1.16419 9.9007 1.18204 9.9007H10.7388C11.4858 9.9007 12.1252 9.61211 12.6572 9.03439C13.1891 8.45696 13.4552 7.7623 13.4552 6.95043V6.82144C13.4549 6.00953 13.1891 5.31646 12.6572 4.74223Z" fill="#E6DAFE"/>
<path d="M28.7362 0H26.6652C26.6473 0 26.6307 0.00666155 26.6159 0.0197182C26.601 0.0330413 26.5935 0.0527596 26.5935 0.0791394V2.59375C26.5935 2.81145 26.4917 2.97665 26.2888 3.08883L22.156 4.97965L18.0232 3.08883C17.82 2.97665 17.7184 2.81171 17.7184 2.59375V0.0791394C17.7184 0.0527596 17.7124 0.0330413 17.7006 0.0197182C17.6883 0.00666155 17.6704 0 17.6465 0H15.5755C15.5577 0 15.5411 0.00666155 15.5263 0.0197182C15.5114 0.0330413 15.5039 0.0527596 15.5039 0.0791394V2.96013C15.5039 3.3894 15.6115 3.7819 15.8267 4.13817C16.042 4.49469 16.3346 4.75849 16.7053 4.93009L21.0444 6.93973V9.81115C21.0444 9.83755 21.0518 9.8591 21.0668 9.87565C21.0818 9.89215 21.1011 9.9004 21.125 9.9004H23.1959C23.2138 9.9004 23.2302 9.89215 23.2452 9.87565C23.2601 9.8591 23.2676 9.8378 23.2676 9.81115V6.94003L27.6067 4.94021C27.9771 4.76195 28.2702 4.49629 28.4852 4.14323C28.7004 3.79016 28.8078 3.39926 28.8078 2.96999V0.0791394C28.8078 0.0527596 28.8003 0.0330413 28.7854 0.0197182C28.7704 0.00666155 28.754 0 28.7362 0Z" fill="#E6DAFE"/>
<path d="M44.1137 0H42.0428C42.0189 0 42.0008 0.00826032 41.989 0.024781C41.9769 0.0413017 41.9711 0.0594213 41.9711 0.0791394V7.7618H41.1015C40.9401 7.7618 40.8025 7.68265 40.6891 7.52411L36.6729 1.03947C36.2424 0.373047 35.6476 0.0263798 34.8888 0H31.4285C31.4046 0 31.385 0.00826032 31.3701 0.024781C31.3551 0.0413017 31.3477 0.0594213 31.3477 0.0791394V9.821C31.3477 9.84075 31.3551 9.8591 31.3701 9.87535C31.385 9.8919 31.4043 9.90015 31.4285 9.90015H33.4994C33.5173 9.90015 33.5337 9.8919 33.5487 9.87535C33.5637 9.8591 33.5711 9.84075 33.5711 9.821V2.13836H34.4407C34.6021 2.13836 34.7395 2.22097 34.8531 2.38591L38.8693 8.87054C39.2998 9.53721 39.8944 9.88045 40.6534 9.90015H44.114C44.1379 9.90015 44.1557 9.8919 44.1678 9.87535C44.1796 9.8591 44.1856 9.84075 44.1856 9.821V0.0791394C44.1856 0.0594213 44.1796 0.0413017 44.1678 0.024781C44.1555 0.00826032 44.1376 0 44.1137 0Z" fill="#E6DAFE"/>
<path d="M59.0853 0H46.3996C46.3759 0 46.3577 0.00826032 46.3459 0.024781C46.3336 0.0413017 46.3281 0.0594213 46.3281 0.0791394V2.05923C46.3281 2.07894 46.3336 2.09733 46.3459 2.11358C46.3577 2.1301 46.3759 2.13836 46.3996 2.13836H51.6351V9.821C51.6351 9.84075 51.641 9.8591 51.6528 9.87535C51.6647 9.8919 51.6829 9.90015 51.7066 9.90015H53.7779C53.8016 9.90015 53.8193 9.8919 53.8316 9.87535C53.8435 9.8591 53.8494 9.84075 53.8494 9.821V2.13836H59.0849C59.109 2.13836 59.1281 2.1301 59.1432 2.11358C59.1582 2.09706 59.1655 2.07894 59.1655 2.05923V0.0791394C59.1655 0.0594213 59.1582 0.0413017 59.1432 0.024781C59.1286 0.00826032 59.109 0 59.0853 0Z" fill="#E6DAFE"/>
<path d="M74.4721 0H72.4012C72.383 0 72.3666 0.00826032 72.3515 0.024781C72.337 0.0413017 72.3292 0.0594213 72.3292 0.0791394V3.88076H63.9383V0.0791394C63.9383 0.0594213 63.9305 0.0413017 63.9155 0.024781C63.9005 0.00852681 63.8809 0 63.8577 0H61.7863C61.7686 0 61.7522 0.00826032 61.7372 0.024781C61.7221 0.0413017 61.7148 0.0594213 61.7148 0.0791394V9.821C61.7148 9.84075 61.7221 9.8591 61.7372 9.87535C61.7522 9.8919 61.7686 9.90015 61.7863 9.90015H63.8577C63.8813 9.90015 63.9005 9.8919 63.9155 9.87535C63.9305 9.85885 63.9383 9.84075 63.9383 9.821V6.01938H72.3292V9.821C72.3292 9.84075 72.337 9.8591 72.3515 9.87535C72.3666 9.8919 72.383 9.90015 72.4012 9.90015H74.4721C74.4957 9.90015 74.5153 9.8919 74.5303 9.87535C74.5449 9.85885 74.5526 9.84075 74.5526 9.821V0.0791394C74.5526 0.0594213 74.5449 0.0413017 74.5303 0.024781C74.5153 0.00826032 74.4957 0 74.4721 0Z" fill="#E6DAFE"/>
<path d="M89.7937 0H79.7439C78.9967 0 78.3574 0.28698 77.8256 0.861206C77.2933 1.43543 77.0273 2.1285 77.0273 2.94042V6.94988C77.0273 7.76844 77.2933 8.46471 77.8256 9.03894C78.3574 9.61316 78.9967 9.9004 79.7439 9.9004H89.7937C89.8114 9.9004 89.8278 9.89215 89.8428 9.87565C89.8579 9.8591 89.8651 9.841 89.8651 9.8213V7.84119C89.8651 7.81479 89.8579 7.79509 89.8428 7.78179C89.8278 7.76869 89.8114 7.76204 89.7937 7.76204H79.7439C79.6064 7.76204 79.4898 7.7093 79.3942 7.60375C79.2986 7.49826 79.2508 7.37276 79.2508 7.22752V6.01937H89.7873C89.811 6.01937 89.8287 6.01113 89.841 5.99463C89.8529 5.97808 89.8588 5.95998 89.8588 5.94023V3.96017C89.8588 3.93378 89.8529 3.91407 89.841 3.90075C89.8287 3.88769 89.811 3.88103 89.7873 3.88103H79.2508V2.67315C79.2508 2.52793 79.2986 2.40269 79.3942 2.2969C79.4898 2.19139 79.6064 2.13836 79.7439 2.13836H89.7937C89.8114 2.13836 89.8278 2.1301 89.8428 2.11358C89.8579 2.09733 89.8651 2.07894 89.8651 2.05922V0.0791394C89.8651 0.0594213 89.8579 0.0413017 89.8428 0.024781C89.8278 0.00852681 89.8114 0 89.7937 0Z" fill="#E6DAFE"/>
<path d="M105.105 0H92.4191C92.3955 0 92.3773 0.00826032 92.3654 0.024781C92.3536 0.0413017 92.3477 0.0594213 92.3477 0.0791394V2.05923C92.3477 2.07894 92.3536 2.09733 92.3654 2.11358C92.3773 2.1301 92.3955 2.13836 92.4191 2.13836H97.6546V9.821C97.6546 9.84075 97.6605 9.8591 97.6728 9.87535C97.6847 9.8919 97.7024 9.90015 97.7266 9.90015H99.7974C99.8216 9.90015 99.8393 9.8919 99.8512 9.87535C99.8635 9.8591 99.8689 9.84075 99.8689 9.821V2.13836H105.104C105.129 2.13836 105.148 2.1301 105.163 2.11358C105.178 2.09706 105.185 2.07894 105.185 2.05923V0.0791394C105.185 0.0594213 105.178 0.0413017 105.163 0.024781C105.148 0.00826032 105.129 0 105.105 0Z" fill="#E6DAFE"/>
<path d="M109.931 0.0197183C109.919 0.00666155 109.901 0 109.877 0H107.806C107.782 0 107.764 0.00666155 107.753 0.0197183C107.74 0.0330414 107.734 0.0527596 107.734 0.0791394V9.821C107.734 9.84075 107.74 9.8591 107.753 9.87535C107.764 9.8919 107.782 9.90015 107.806 9.90015H109.877C109.901 9.90015 109.919 9.8919 109.931 9.87535C109.943 9.85885 109.949 9.84075 109.949 9.821V0.0791394C109.949 0.0530261 109.943 0.0330414 109.931 0.0197183Z" fill="#E6DAFE"/>
<path d="M115.645 2.40687C115.555 2.29469 115.444 2.23846 115.313 2.23846H112.624C112.599 2.23846 112.58 2.2302 112.565 2.21368C112.55 2.19743 112.543 2.17904 112.543 2.15932V0.179237C112.543 0.159519 112.55 0.141399 112.565 0.124879C112.58 0.108625 112.599 0.100098 112.624 0.100098H115.465C116.182 0.100098 116.801 0.420386 117.321 1.06043L118.012 1.98106L116.667 3.77302L115.645 2.40687ZM120.611 1.05057C121.131 0.416922 121.753 0.100098 122.476 0.100098H125.309C125.332 0.100098 125.35 0.106759 125.363 0.119816C125.374 0.133139 125.38 0.152857 125.38 0.179237V2.15932C125.38 2.17904 125.374 2.19743 125.363 2.21368C125.35 2.2302 125.332 2.23846 125.309 2.23846H122.619C122.488 2.23846 122.377 2.29469 122.288 2.40687L120.306 5.04031L122.296 7.69349C122.386 7.79928 122.493 7.85203 122.619 7.85203H125.309C125.332 7.85203 125.35 7.86028 125.363 7.87683C125.374 7.89333 125.38 7.91493 125.38 7.94103V9.92114C125.38 9.94084 125.374 9.95924 125.363 9.97549C125.35 9.99199 125.332 10.0002 125.309 10.0002H122.476C121.753 10.0002 121.134 9.68025 120.62 9.03993L118.971 6.84213L117.321 9.03993C116.801 9.68025 116.179 10.0002 115.456 10.0002H112.624C112.599 10.0002 112.581 9.99199 112.569 9.97549C112.558 9.95894 112.552 9.93764 112.552 9.91099V7.93093C112.552 7.91118 112.558 7.89308 112.569 7.87653C112.581 7.86003 112.599 7.85178 112.624 7.85178H115.313C115.438 7.85178 115.549 7.79579 115.645 7.68334L117.59 5.08961L120.611 1.05057Z" fill="#E6DAFE"/>
</svg>
