<svg width="71" height="18" viewBox="0 0 71 18" fill="none" xmlns="http://www.w3.org/2000/svg">
<path d="M31.9416 13.479C31.0508 13.479 30.2918 13.3184 29.6644 12.9972C29.0469 12.6761 28.5156 12.2447 28.0703 11.7028L29.2545 10.604C29.629 11.0556 30.0389 11.3968 30.4841 11.6275C30.9395 11.8583 31.4558 11.9737 32.0327 11.9737C32.7107 11.9737 33.2218 11.8232 33.5659 11.5223C33.9101 11.2212 34.0821 10.8147 34.0821 10.3029C34.0821 9.89163 33.9607 9.56537 33.7177 9.32465C33.4749 9.08377 33.0447 8.90307 32.4274 8.78271L31.4862 8.61709C30.4537 8.42644 29.6796 8.09023 29.1633 7.60863C28.6473 7.12703 28.3891 6.46473 28.3891 5.62173C28.3891 5.16019 28.4751 4.74374 28.6473 4.37239C28.8294 3.99109 29.0773 3.67502 29.3911 3.42414C29.715 3.16324 30.1045 2.96255 30.5601 2.82205C31.0154 2.68157 31.5266 2.61133 32.0934 2.61133C32.893 2.61133 33.5862 2.75181 34.1733 3.0328C34.7603 3.30374 35.2612 3.70014 35.6762 4.22186L34.4768 5.27557C34.2035 4.92428 33.8696 4.64344 33.4749 4.43257C33.0801 4.22186 32.5893 4.11658 32.0023 4.11658C31.395 4.11658 30.9245 4.23694 30.5903 4.47783C30.2564 4.71871 30.0895 5.06984 30.0895 5.53138C30.0895 5.97302 30.2261 6.30409 30.4994 6.52491C30.7726 6.73562 31.1977 6.8961 31.7745 7.00651L32.7158 7.2023C33.7784 7.4029 34.5527 7.74408 35.0385 8.22584C35.5344 8.70744 35.7824 9.36974 35.7824 10.2126C35.7824 10.7043 35.6964 11.1509 35.5243 11.5523C35.3523 11.9536 35.0992 12.3 34.7653 12.5909C34.4414 12.8719 34.0416 13.0926 33.5659 13.2532C33.0903 13.4037 32.5488 13.479 31.9416 13.479Z" fill="#E6DAFE"/>
<path d="M40.0267 13.4798C39.4802 13.4798 38.9793 13.3845 38.5238 13.1939C38.0785 13.0032 37.6989 12.7322 37.3853 12.381C37.0715 12.0198 36.8285 11.5883 36.6565 11.0866C36.4845 10.5748 36.3984 10.0079 36.3984 9.38568C36.3984 8.76349 36.4845 8.20149 36.6565 7.69983C36.8285 7.18806 37.0715 6.75653 37.3853 6.40524C37.6989 6.04399 38.0785 5.76813 38.5238 5.57748C38.9793 5.38683 39.4802 5.2915 40.0267 5.2915C40.5732 5.2915 41.0693 5.38683 41.5146 5.57748C41.9699 5.76813 42.3545 6.04399 42.6683 6.40524C42.9821 6.75653 43.2249 7.18806 43.3971 7.69983C43.5691 8.20149 43.6551 8.76349 43.6551 9.38568C43.6551 10.0079 43.5691 10.5748 43.3971 11.0866C43.2249 11.5883 42.9821 12.0198 42.6683 12.381C42.3545 12.7322 41.9699 13.0032 41.5146 13.1939C41.0693 13.3845 40.5732 13.4798 40.0267 13.4798ZM40.0267 12.1251C40.5936 12.1251 41.0489 11.9545 41.3932 11.6133C41.7372 11.2622 41.9092 10.7403 41.9092 10.048V8.72337C41.9092 8.0309 41.7372 7.51415 41.3932 7.17297C41.0489 6.82168 40.5936 6.64612 40.0267 6.64612C39.46 6.64612 39.0045 6.82168 38.6604 7.17297C38.3164 7.51415 38.1443 8.0309 38.1443 8.72337V10.048C38.1443 10.7403 38.3164 11.2622 38.6604 11.6133C39.0045 11.9545 39.46 12.1251 40.0267 12.1251Z" fill="#E6DAFE"/>
<path d="M46.396 13.2987C45.8293 13.2987 45.4042 13.1583 45.1208 12.8773C44.8476 12.5863 44.7109 12.185 44.7109 11.6732V2.16016H46.3657V11.9592H47.4587V13.2987H46.396Z" fill="#E6DAFE"/>
<path d="M51.3472 13.4798C50.7803 13.4798 50.2743 13.3845 49.829 13.1939C49.3836 13.0032 49.0042 12.7322 48.6904 12.381C48.3766 12.0198 48.1338 11.5883 47.9617 11.0866C47.7998 10.5748 47.7188 10.0079 47.7188 9.38568C47.7188 8.76349 47.7998 8.20149 47.9617 7.69983C48.1338 7.18806 48.3766 6.75653 48.6904 6.40524C49.0042 6.04399 49.3836 5.76813 49.829 5.57748C50.2743 5.38683 50.7803 5.2915 51.3472 5.2915C51.924 5.2915 52.4301 5.3918 52.8653 5.59256C53.3106 5.79316 53.68 6.07416 53.9736 6.43541C54.267 6.7867 54.4847 7.19801 54.6263 7.66966C54.7781 8.14131 54.854 8.64811 54.854 9.18989V9.8071H49.4342V10.0631C49.4342 10.665 49.6114 11.1617 49.9657 11.5531C50.3299 11.9344 50.8462 12.1251 51.5141 12.1251C51.9999 12.1251 52.4098 12.0198 52.7437 11.8091C53.0779 11.5984 53.3612 11.3122 53.5939 10.951L54.5656 11.8993C54.2721 12.381 53.847 12.7673 53.2904 13.0584C52.7336 13.3393 52.0859 13.4798 51.3472 13.4798ZM51.3472 6.57085C51.0637 6.57085 50.8007 6.62108 50.5577 6.72138C50.3249 6.82168 50.1225 6.96226 49.9505 7.1428C49.7885 7.3235 49.662 7.53919 49.5708 7.79018C49.4799 8.04101 49.4342 8.31688 49.4342 8.61794V8.72337H53.1081V8.57284C53.1081 7.97072 52.9513 7.48912 52.6375 7.12788C52.3238 6.75653 51.8937 6.57085 51.3472 6.57085Z" fill="#E6DAFE"/>
<path d="M55.8984 13.2991V5.47204H57.5532V6.76664H57.6291C57.8011 6.34506 58.0592 5.99392 58.4034 5.71292C58.7575 5.43192 59.2384 5.2915 59.8456 5.2915C60.6553 5.2915 61.2827 5.55742 61.7281 6.08925C62.1835 6.61097 62.4113 7.35865 62.4113 8.33196V13.2991H60.7565V8.54267C60.7565 7.31853 60.2606 6.7063 59.2687 6.7063C59.0561 6.7063 58.8436 6.73647 58.631 6.79665C58.4287 6.84688 58.2464 6.92712 58.0845 7.03753C57.9226 7.14794 57.7911 7.28836 57.6898 7.45895C57.5987 7.62954 57.5532 7.8303 57.5532 8.06107V13.2991H55.8984Z" fill="#E6DAFE"/>
<path d="M68.8803 12.0043H68.8044C68.6324 12.4658 68.3489 12.827 67.9542 13.088C67.5696 13.3489 67.1143 13.4794 66.5879 13.4794C65.5859 13.4794 64.8118 13.1231 64.2651 12.4106C63.7186 11.6881 63.4453 10.6797 63.4453 9.38522C63.4453 8.09062 63.7186 7.0873 64.2651 6.37477C64.8118 5.65229 65.5859 5.29105 66.5879 5.29105C67.1143 5.29105 67.5696 5.42152 67.9542 5.6823C68.3489 5.93329 68.6324 6.29453 68.8044 6.76618H68.8803V2.16016H70.5351V13.2987H68.8803V12.0043ZM67.089 12.0644C67.5949 12.0644 68.02 11.9441 68.3641 11.7032C68.7083 11.4524 68.8803 11.1263 68.8803 10.7247V8.04553C68.8803 7.64417 68.7083 7.32305 68.3641 7.08217C68.02 6.83134 67.5949 6.70584 67.089 6.70584C66.512 6.70584 66.0515 6.89152 65.7075 7.26287C65.3632 7.62411 65.1912 8.10571 65.1912 8.70783V10.0626C65.1912 10.6646 65.3632 11.1513 65.7075 11.5227C66.0515 11.8839 66.512 12.0644 67.089 12.0644Z" fill="#E6DAFE"/>
<g clip-path="url(#clip0_10394_15105)">
<path d="M18.345 17.8533C17.9512 17.8533 17.5575 17.6898 17.2783 17.3629C16.7843 16.78 16.8559 15.9057 17.4429 15.4081L18.839 14.2353C19.6551 13.5458 20.1276 12.5863 20.1705 11.52C20.2135 10.4538 19.8126 9.45871 19.0466 8.71237C17.579 7.28365 15.2737 7.26943 13.799 8.69104L11.0356 11.3423C9.86865 12.4654 8.32946 13.0767 6.71151 13.0767C6.69003 13.0767 6.67571 13.0767 6.65424 13.0767C5.00765 13.0625 3.46846 12.4157 2.30153 11.2642C1.12744 10.1127 0.47597 8.57021 0.468811 6.93536C0.461652 5.2934 1.08449 3.75095 2.2371 2.57812L4.213 0.566544C4.74993 0.0192247 5.63765 0.00500861 6.1889 0.54522C6.74014 1.07832 6.75446 1.95972 6.21037 2.50704L4.23448 4.51862C2.92437 5.84783 2.93869 8.00156 4.26311 9.32366C4.9289 9.98471 5.81663 10.3188 6.69719 10.3188C7.56344 10.3188 8.42252 9.99893 9.08832 9.36631L11.8517 6.71501C13.0831 5.53507 14.6939 4.88824 16.4049 4.88824C16.412 4.88824 16.4263 4.88824 16.4335 4.88824C18.1517 4.89535 19.7696 5.55639 20.9938 6.75055C22.3039 8.03 23.0198 9.81412 22.9482 11.6338C22.8767 13.4605 22.0319 15.1807 20.6287 16.3606L19.2327 17.5335C18.9678 17.7538 18.6528 17.8604 18.3307 17.8604L18.345 17.8533Z" fill="#E6DAFE"/>
<path d="M6.84864 8.3211C6.53364 8.3211 6.21148 8.21448 5.95375 7.99413C5.36671 7.50367 5.28796 6.62938 5.78194 6.03942C5.92512 5.86882 9.30419 1.90964 13.1486 0.864756C13.8931 0.665731 14.6592 1.09932 14.8668 1.83145C15.0672 2.57069 14.6305 3.33125 13.8931 3.53738C12.6761 3.87146 11.2586 4.71021 9.80533 5.96834C8.66704 6.94925 7.92965 7.81643 7.92249 7.82354C7.64329 8.15051 7.24954 8.3211 6.8558 8.3211H6.84864Z" fill="#E6DAFE"/>
<path d="M9.50328 17.7464C8.88045 17.7464 8.31488 17.327 8.15022 16.7015C7.95693 15.9623 8.40795 15.2088 9.15249 15.0169C12.1521 14.2563 15.0802 10.8232 15.1088 10.7876C15.6028 10.2048 16.4834 10.1266 17.0704 10.617C17.6575 11.1075 17.7362 11.9818 17.2422 12.5646C17.099 12.7352 13.7128 16.7157 9.8326 17.6966C9.71806 17.7251 9.60351 17.7393 9.48897 17.7393L9.50328 17.7464Z" fill="#E6DAFE"/>
</g>
<defs>
<clipPath id="clip0_10394_15105">
<rect width="22.4938" height="17.7062" fill="white" transform="translate(0.46875 0.146973)"/>
</clipPath>
</defs>
</svg>
