<svg width="71" height="18" viewBox="0 0 71 18" fill="none" xmlns="http://www.w3.org/2000/svg">
<path d="M31.4711 13.3318C30.5804 13.3318 29.8213 13.1711 29.1939 12.85C28.5764 12.5289 28.0451 12.0975 27.5999 11.5556L28.784 10.4568C29.1585 10.9084 29.5684 11.2496 30.0137 11.4803C30.4691 11.7111 30.9853 11.8265 31.5622 11.8265C32.2403 11.8265 32.7514 11.6759 33.0954 11.375C33.4396 11.074 33.6117 10.6675 33.6117 10.1557C33.6117 9.74441 33.4903 9.41815 33.2473 9.17743C33.0045 8.93655 32.5742 8.75585 31.9569 8.63549L31.0157 8.46987C29.9832 8.27922 29.2091 7.94302 28.6929 7.46142C28.1768 6.97982 27.9186 6.31751 27.9186 5.47451C27.9186 5.01297 28.0046 4.59652 28.1768 4.22517C28.3589 3.84387 28.6069 3.52781 28.9206 3.27693C29.2445 3.01602 29.6341 2.81534 30.0896 2.67484C30.545 2.53435 31.0561 2.46411 31.6229 2.46411C32.4225 2.46411 33.1158 2.6046 33.7028 2.88558C34.2899 3.15652 34.7907 3.55292 35.2057 4.07464L34.0063 5.12836C33.7331 4.77706 33.3991 4.49622 33.0045 4.28535C32.6096 4.07464 32.1188 3.96937 31.5318 3.96937C30.9246 3.96937 30.454 4.08973 30.1199 4.33061C29.7859 4.57149 29.619 4.92262 29.619 5.38416C29.619 5.8258 29.7556 6.15687 30.0289 6.37769C30.3022 6.5884 30.7273 6.74888 31.304 6.85929L32.2454 7.05508C33.308 7.25568 34.0823 7.59686 34.5681 8.07862C35.064 8.56022 35.3119 9.22253 35.3119 10.0654C35.3119 10.5571 35.2259 11.0037 35.0539 11.4051C34.8819 11.8064 34.6288 12.1527 34.2948 12.4437C33.9709 12.7247 33.5712 12.9453 33.0954 13.106C32.6199 13.2565 32.0783 13.3318 31.4711 13.3318Z" fill="#E6DAFE"/>
<path d="M39.5577 13.3326C39.0111 13.3326 38.5103 13.2373 38.0547 13.0467C37.6094 12.856 37.2298 12.585 36.9162 12.2338C36.6024 11.8726 36.3595 11.441 36.1874 10.9394C36.0154 10.4276 35.9294 9.86064 35.9294 9.23846C35.9294 8.61628 36.0154 8.05427 36.1874 7.55261C36.3595 7.04084 36.6024 6.60931 36.9162 6.25802C37.2298 5.89678 37.6094 5.62091 38.0547 5.43026C38.5103 5.23961 39.0111 5.14429 39.5577 5.14429C40.1042 5.14429 40.6002 5.23961 41.0455 5.43026C41.5009 5.62091 41.8855 5.89678 42.1992 6.25802C42.513 6.60931 42.7558 7.04084 42.928 7.55261C43.1001 8.05427 43.1861 8.61628 43.1861 9.23846C43.1861 9.86064 43.1001 10.4276 42.928 10.9394C42.7558 11.441 42.513 11.8726 42.1992 12.2338C41.8855 12.585 41.5009 12.856 41.0455 13.0467C40.6002 13.2373 40.1042 13.3326 39.5577 13.3326ZM39.5577 11.9779C40.1245 11.9779 40.5799 11.8073 40.9241 11.4661C41.2682 11.115 41.4402 10.5931 41.4402 9.90076V8.57616C41.4402 7.88368 41.2682 7.36694 40.9241 7.02576C40.5799 6.67447 40.1245 6.4989 39.5577 6.4989C38.991 6.4989 38.5354 6.67447 38.1914 7.02576C37.8473 7.36694 37.6753 7.88368 37.6753 8.57616V9.90076C37.6753 10.5931 37.8473 11.115 38.1914 11.4661C38.5354 11.8073 38.991 11.9779 39.5577 11.9779Z" fill="#E6DAFE"/>
<path d="M45.9261 13.1517C45.3594 13.1517 44.9343 13.0113 44.6509 12.7303C44.3777 12.4393 44.241 12.038 44.241 11.5262V2.01318H45.8958V11.8122H46.9888V13.1517H45.9261Z" fill="#E6DAFE"/>
<path d="M50.8764 13.3326C50.3095 13.3326 49.8035 13.2373 49.3582 13.0467C48.9128 12.856 48.5333 12.585 48.2195 12.2338C47.9058 11.8726 47.6629 11.441 47.4909 10.9394C47.329 10.4276 47.2479 9.86064 47.2479 9.23846C47.2479 8.61628 47.329 8.05427 47.4909 7.55261C47.6629 7.04084 47.9058 6.60931 48.2195 6.25802C48.5333 5.89678 48.9128 5.62091 49.3582 5.43026C49.8035 5.23961 50.3095 5.14429 50.8764 5.14429C51.4531 5.14429 51.9593 5.24459 52.3945 5.44535C52.8398 5.64595 53.2091 5.92695 53.5027 6.28819C53.7962 6.63948 54.0138 7.05079 54.1554 7.52244C54.3073 7.99409 54.3832 8.50089 54.3832 9.04267V9.65988H48.9634V9.91585C48.9634 10.5178 49.1405 11.0145 49.4948 11.4059C49.8591 11.7872 50.3753 11.9779 51.0433 11.9779C51.5291 11.9779 51.9389 11.8726 52.2729 11.6619C52.607 11.4512 52.8904 11.165 53.1231 10.8038L54.0947 11.7521C53.8013 12.2338 53.3762 12.6201 52.8196 12.9112C52.2628 13.192 51.6151 13.3326 50.8764 13.3326ZM50.8764 6.42364C50.5928 6.42364 50.3298 6.47387 50.0869 6.57417C49.8541 6.67447 49.6517 6.81505 49.4796 6.99559C49.3177 7.17629 49.1912 7.39197 49.1 7.64296C49.009 7.89379 48.9634 8.16966 48.9634 8.47072V8.57616H52.6373V8.42563C52.6373 7.8235 52.4805 7.3419 52.1667 6.98066C51.8529 6.60931 51.4229 6.42364 50.8764 6.42364Z" fill="#E6DAFE"/>
<path d="M55.4273 13.1519V5.32483H57.082V6.61942H57.158C57.33 6.19784 57.588 5.84671 57.9322 5.56571C58.2864 5.28471 58.7672 5.14429 59.3744 5.14429C60.1841 5.14429 60.8115 5.4102 61.257 5.94203C61.7124 6.46375 61.9401 7.21143 61.9401 8.18475V13.1519H60.2854V8.39546C60.2854 7.17131 59.7895 6.55908 58.7975 6.55908C58.585 6.55908 58.3724 6.58925 58.1598 6.64943C57.9575 6.69966 57.7753 6.7799 57.6133 6.89031C57.4514 7.00072 57.3199 7.14114 57.2187 7.31173C57.1275 7.48232 57.082 7.68308 57.082 7.91385V13.1519H55.4273Z" fill="#E6DAFE"/>
<path d="M68.4085 11.8573H68.3326C68.1606 12.3188 67.8771 12.6801 67.4824 12.941C67.0978 13.2019 66.6424 13.3324 66.1161 13.3324C65.114 13.3324 64.3399 12.9761 63.7932 12.2636C63.2467 11.5411 62.9735 10.5327 62.9735 9.23824C62.9735 7.94365 63.2467 6.94033 63.7932 6.22779C64.3399 5.50531 65.114 5.14407 66.1161 5.14407C66.6424 5.14407 67.0978 5.27454 67.4824 5.53532C67.8771 5.78632 68.1606 6.14755 68.3326 6.61921H68.4085V2.01318H70.0633V13.1517H68.4085V11.8573ZM66.6171 11.9175C67.1231 11.9175 67.5482 11.7971 67.8923 11.5562C68.2365 11.3054 68.4085 10.9793 68.4085 10.5778V7.89855C68.4085 7.49719 68.2365 7.17607 67.8923 6.93519C67.5482 6.68436 67.1231 6.55887 66.6171 6.55887C66.0402 6.55887 65.5797 6.74454 65.2356 7.11589C64.8914 7.47713 64.7194 7.95873 64.7194 8.56086V9.91563C64.7194 10.5176 64.8914 11.0043 65.2356 11.3757C65.5797 11.7369 66.0402 11.9175 66.6171 11.9175Z" fill="#E6DAFE"/>
<g clip-path="url(#clip0_1_2567)">
<path d="M17.8762 17.7062C17.4824 17.7062 17.0887 17.5427 16.8095 17.2158C16.3155 16.6329 16.3871 15.7586 16.9741 15.2611L18.3701 14.0882C19.1863 13.3987 19.6588 12.4392 19.7017 11.373C19.7447 10.3067 19.3438 9.31162 18.5778 8.56527C17.1101 7.13656 14.8049 7.12234 13.3302 8.54395L10.5668 11.1953C9.39984 12.3183 7.86064 12.9296 6.2427 12.9296C6.22122 12.9296 6.2069 12.9296 6.18542 12.9296C4.53884 12.9154 2.99964 12.2686 1.83272 11.1171C0.658633 9.96556 0.00715905 8.42311 -2.07704e-09 6.78826C-0.00715906 5.1463 0.615679 3.60386 1.76829 2.43103L3.74419 0.41945C4.28112 -0.12787 5.16884 -0.142086 5.72009 0.398126C6.27133 0.931229 6.28565 1.81263 5.74156 2.35995L3.76566 4.37153C2.45556 5.70073 2.46987 7.85447 3.7943 9.17657C4.46009 9.83761 5.34781 10.1717 6.22838 10.1717C7.09462 10.1717 7.95371 9.85183 8.6195 9.21921L11.3829 6.56791C12.6143 5.38798 14.225 4.74114 15.9361 4.74114C15.9432 4.74114 15.9575 4.74114 15.9647 4.74114C17.6829 4.74825 19.3008 5.4093 20.525 6.60345C21.8351 7.8829 22.551 9.66702 22.4794 11.4867C22.4078 13.3135 21.5631 15.0336 20.1599 16.2135L18.7639 17.3864C18.499 17.6067 18.184 17.7133 17.8618 17.7133L17.8762 17.7062Z" fill="#E6DAFE"/>
<path d="M6.37873 8.17425C6.06373 8.17425 5.74157 8.06763 5.48384 7.84728C4.8968 7.35682 4.81805 6.48253 5.31203 5.89257C5.45521 5.72197 8.83428 1.76279 12.6787 0.717906C13.4232 0.51888 14.1893 0.952471 14.3969 1.6846C14.5973 2.42384 14.1606 3.1844 13.4232 3.39053C12.2062 3.72461 10.7887 4.56336 9.33542 5.82148C8.19713 6.8024 7.45974 7.66958 7.45258 7.67669C7.17338 8.00366 6.77963 8.17425 6.38589 8.17425H6.37873Z" fill="#E6DAFE"/>
<path d="M9.03472 17.5995C8.41188 17.5995 7.84631 17.1802 7.68166 16.5547C7.48836 15.8154 7.93938 15.062 8.68392 14.8701C11.6836 14.1095 14.6116 10.6763 14.6403 10.6408C15.1342 10.0579 16.0148 9.97972 16.6018 10.4702C17.1889 10.9606 17.2676 11.8349 16.7737 12.4178C16.6305 12.5884 13.2442 16.5689 9.36403 17.5498C9.24949 17.5782 9.13495 17.5924 9.0204 17.5924L9.03472 17.5995Z" fill="#E6DAFE"/>
</g>
<defs>
<clipPath id="clip0_1_2567">
<rect width="22.4938" height="17.7062" fill="white"/>
</clipPath>
</defs>
</svg>
