<svg width="94" height="8" viewBox="0 0 94 8" fill="none" xmlns="http://www.w3.org/2000/svg">
<path d="M9.22562 3.64483C8.83022 3.21807 8.35499 3.00478 7.79979 3.00478H2.29622C2.194 3.00478 2.10631 2.96556 2.03297 2.88694C1.95962 2.80852 1.92304 2.71287 1.92304 2.59999V2.10707C1.92304 1.99934 1.95962 1.90606 2.03297 1.82744C2.10631 1.74902 2.194 1.70961 2.29622 1.70961H9.39222C9.40999 1.70961 9.42434 1.70347 9.43544 1.6912C9.44657 1.67911 9.45212 1.66545 9.45212 1.65079V0.179178C9.45212 0.159573 9.44657 0.144918 9.43544 0.135016C9.42434 0.125312 9.40979 0.120361 9.39222 0.120361H2.29622C1.73654 0.120361 1.26006 0.333846 0.866975 0.760618C0.473887 1.18739 0.277344 1.70228 0.277344 2.30571V2.40136C0.277344 3.00973 0.473887 3.5272 0.866975 3.95396C1.26006 4.38073 1.73654 4.59402 2.29622 4.59402H7.79979C7.89753 4.59402 7.98308 4.63207 8.05624 4.70809C8.12957 4.78416 8.16616 4.87862 8.16616 4.9915V5.48442C8.16616 5.59727 8.12957 5.69176 8.05624 5.76779C7.98287 5.84385 7.89736 5.88187 7.79979 5.88187H0.69715C0.683881 5.88187 0.671505 5.888 0.660568 5.9003C0.649451 5.91256 0.643891 5.92861 0.643891 5.94819V7.41983C0.643891 7.43447 0.649451 7.44815 0.660568 7.46022C0.671685 7.47248 0.683881 7.47865 0.69715 7.47865H7.79979C8.35499 7.47865 8.83022 7.26417 9.22562 6.8348C9.62089 6.40566 9.81865 5.88937 9.81865 5.28599V5.19012C9.81849 4.5867 9.62089 4.0716 9.22562 3.64483Z" fill="#E6DAFE"/>
<path d="M21.1742 0.120361H19.635C19.6217 0.120361 19.6094 0.125312 19.5984 0.135016C19.5873 0.144918 19.5817 0.159573 19.5817 0.179178V2.04806C19.5817 2.20985 19.5061 2.33264 19.3553 2.41601L16.2837 3.82129L13.2122 2.41601C13.0612 2.33264 12.9857 2.21005 12.9857 2.04806V0.179178C12.9857 0.159573 12.9812 0.144918 12.9724 0.135016C12.9633 0.125312 12.95 0.120361 12.9323 0.120361H11.3931C11.3798 0.120361 11.3675 0.125312 11.3565 0.135016C11.3454 0.144918 11.3398 0.159573 11.3398 0.179178V2.32036C11.3398 2.6394 11.4198 2.93111 11.5798 3.19588C11.7397 3.46086 11.9572 3.65691 12.2327 3.78445L15.4576 5.27804V7.4121C15.4576 7.43172 15.4631 7.44774 15.4742 7.46004C15.4854 7.4723 15.4997 7.47843 15.5175 7.47843H17.0566C17.0699 7.47843 17.0821 7.4723 17.0932 7.46004C17.1043 7.44774 17.1099 7.43191 17.1099 7.4121V5.27826L20.3347 3.79197C20.61 3.65949 20.8279 3.46205 20.9877 3.19965C21.1476 2.93724 21.2274 2.64673 21.2274 2.32769V0.179178C21.2274 0.159573 21.2219 0.144918 21.2108 0.135016C21.1996 0.125312 21.1875 0.120361 21.1742 0.120361Z" fill="#E6DAFE"/>
<path d="M32.605 0.120361H31.0658C31.0481 0.120361 31.0346 0.1265 31.0258 0.138779C31.0169 0.151057 31.0126 0.164524 31.0126 0.179178V5.889H30.3663C30.2463 5.889 30.1441 5.83018 30.0598 5.71235L27.0749 0.892907C26.755 0.397614 26.3129 0.139967 25.749 0.120361H23.1772C23.1595 0.120361 23.1449 0.1265 23.1338 0.138779C23.1227 0.151057 23.1171 0.164524 23.1171 0.179178V7.41942C23.1171 7.4341 23.1227 7.44774 23.1338 7.45981C23.1449 7.47211 23.1593 7.47824 23.1772 7.47824H24.7164C24.7297 7.47824 24.7418 7.47211 24.7529 7.45981C24.7641 7.44774 24.7696 7.4341 24.7696 7.41942V1.70961H25.4159C25.5359 1.70961 25.638 1.77101 25.7224 1.89359L28.7073 6.71303C29.0272 7.20851 29.4691 7.4636 30.0333 7.47824H32.6052C32.6229 7.47824 32.6362 7.47211 32.6452 7.45981C32.654 7.44774 32.6584 7.4341 32.6584 7.41942V0.179178C32.6584 0.164524 32.654 0.151057 32.6452 0.138779C32.636 0.1265 32.6228 0.120361 32.605 0.120361Z" fill="#E6DAFE"/>
<path d="M43.7313 0.120361H34.3031C34.2855 0.120361 34.272 0.1265 34.2632 0.138779C34.2541 0.151057 34.25 0.164524 34.25 0.179178V1.6508C34.25 1.66545 34.2541 1.67912 34.2632 1.6912C34.272 1.70347 34.2855 1.70961 34.3031 1.70961H38.1942V7.41942C38.1942 7.4341 38.1986 7.44774 38.2074 7.45981C38.2162 7.47211 38.2297 7.47824 38.2473 7.47824H39.7868C39.8043 7.47824 39.8175 7.47211 39.8267 7.45981C39.8355 7.44774 39.8399 7.4341 39.8399 7.41942V1.70961H43.7309C43.7489 1.70961 43.7631 1.70347 43.7743 1.6912C43.7854 1.67892 43.7908 1.66545 43.7908 1.6508V0.179178C43.7908 0.164524 43.7854 0.151057 43.7743 0.138779C43.7634 0.1265 43.7489 0.120361 43.7313 0.120361Z" fill="#E6DAFE"/>
<path d="M55.163 0.120361H53.6239C53.6104 0.120361 53.5982 0.1265 53.5871 0.138779C53.5762 0.151057 53.5705 0.164524 53.5705 0.179178V3.00458H47.3342V0.179178C47.3342 0.164524 47.3285 0.151057 47.3173 0.138779C47.3061 0.126699 47.2916 0.120361 47.2743 0.120361H45.7349C45.7217 0.120361 45.7095 0.1265 45.6983 0.138779C45.6872 0.151057 45.6818 0.164524 45.6818 0.179178V7.41942C45.6818 7.4341 45.6872 7.44774 45.6983 7.45981C45.7095 7.47211 45.7217 7.47824 45.7349 7.47824H47.2743C47.2919 7.47824 47.3061 7.47211 47.3173 7.45981C47.3285 7.44755 47.3342 7.4341 47.3342 7.41942V4.59402H53.5705V7.41942C53.5705 7.4341 53.5762 7.44774 53.5871 7.45981C53.5982 7.47211 53.6104 7.47824 53.6239 7.47824H55.163C55.1806 7.47824 55.1952 7.47211 55.2064 7.45981C55.2172 7.44755 55.2229 7.4341 55.2229 7.41942V0.179178C55.2229 0.164524 55.2172 0.151057 55.2064 0.138779C55.1952 0.1265 55.1806 0.120361 55.163 0.120361Z" fill="#E6DAFE"/>
<path d="M66.5544 0.120361H59.0853C58.53 0.120361 58.0548 0.333648 57.6596 0.760417C57.264 1.18719 57.0663 1.70228 57.0663 2.30571V5.28558C57.0663 5.89394 57.264 6.41141 57.6596 6.83818C58.0548 7.26495 58.53 7.47843 59.0853 7.47843H66.5544C66.5676 7.47843 66.5798 7.4723 66.5909 7.46004C66.6021 7.44774 66.6075 7.43428 66.6075 7.41964V5.94801C66.6075 5.92839 66.6021 5.91375 66.5909 5.90386C66.5798 5.89413 66.5676 5.88919 66.5544 5.88919H59.0853C58.9831 5.88919 58.8965 5.84998 58.8254 5.77154C58.7543 5.69314 58.7188 5.59987 58.7188 5.49192V4.59402H66.5497C66.5673 4.59402 66.5805 4.58789 66.5896 4.57562C66.5984 4.56332 66.6028 4.54987 66.6028 4.53519V3.0636C66.6028 3.04399 66.5984 3.02934 66.5896 3.01943C66.5805 3.00973 66.5673 3.00478 66.5497 3.00478H58.7188V2.10707C58.7188 1.99914 58.7543 1.90607 58.8254 1.82744C58.8965 1.74902 58.9831 1.70961 59.0853 1.70961H66.5544C66.5676 1.70961 66.5798 1.70347 66.5909 1.6912C66.6021 1.67912 66.6075 1.66545 66.6075 1.65079V0.179178C66.6075 0.164524 66.6021 0.151057 66.5909 0.138779C66.5798 0.126699 66.5676 0.120361 66.5544 0.120361Z" fill="#E6DAFE"/>
<path d="M77.9344 0.120361H68.5063C68.4887 0.120361 68.4751 0.1265 68.4663 0.138779C68.4575 0.151057 68.4531 0.164524 68.4531 0.179178V1.6508C68.4531 1.66545 68.4575 1.67912 68.4663 1.6912C68.4751 1.70347 68.4887 1.70961 68.5063 1.70961H72.3973V7.41942C72.3973 7.4341 72.4017 7.44774 72.4108 7.45981C72.4196 7.47211 72.4328 7.47824 72.4508 7.47824H73.9899C74.0078 7.47824 74.021 7.47211 74.0298 7.45981C74.0389 7.44774 74.043 7.4341 74.043 7.41942V1.70961H77.9341C77.952 1.70961 77.9662 1.70347 77.9774 1.6912C77.9885 1.67892 77.994 1.66545 77.994 1.6508V0.179178C77.994 0.164524 77.9885 0.151057 77.9774 0.138779C77.9666 0.1265 77.952 0.120361 77.9344 0.120361Z" fill="#E6DAFE"/>
<path d="M81.5175 0.135016C81.5083 0.125312 81.4951 0.120361 81.4775 0.120361H79.9384C79.9205 0.120361 79.907 0.125312 79.8985 0.135016C79.8894 0.144918 79.885 0.159573 79.885 0.179178V7.41942C79.885 7.4341 79.8894 7.44774 79.8985 7.45981C79.907 7.47211 79.9205 7.47824 79.9384 7.47824H81.4775C81.4951 7.47824 81.5083 7.47211 81.5175 7.45981C81.5263 7.44755 81.5307 7.4341 81.5307 7.41942V0.179178C81.5307 0.159771 81.5263 0.144918 81.5175 0.135016Z" fill="#E6DAFE"/>
<path d="M85.7662 1.90875C85.6995 1.82537 85.6173 1.78359 85.5195 1.78359H83.5208C83.5029 1.78359 83.4883 1.77745 83.4775 1.76517C83.4664 1.75309 83.4609 1.73943 83.4609 1.72477V0.253153C83.4609 0.238498 83.4664 0.225032 83.4775 0.212754C83.4883 0.200673 83.5029 0.194336 83.5208 0.194336H85.6329C86.1659 0.194336 86.6254 0.432377 87.0119 0.908062L87.5253 1.59228L86.5256 2.92408L85.7662 1.90875ZM89.4573 0.900738C89.8437 0.429803 90.3056 0.194336 90.843 0.194336H92.9486C92.9662 0.194336 92.9794 0.199287 92.9886 0.208991C92.9974 0.218893 93.0018 0.233547 93.0018 0.253153V1.72477C93.0018 1.73943 92.9974 1.75309 92.9886 1.76517C92.9794 1.77745 92.9662 1.78359 92.9486 1.78359H90.9496C90.8518 1.78359 90.77 1.82537 90.7033 1.90875L89.2305 3.86595L90.7097 5.83782C90.7764 5.91644 90.8562 5.95565 90.9496 5.95565H92.9486C92.9662 5.95565 92.9794 5.96178 92.9886 5.97408C92.9974 5.98634 93.0018 6.00239 93.0018 6.02179V7.49342C93.0018 7.50807 92.9974 7.52174 92.9886 7.53382C92.9794 7.54608 92.9662 7.55221 92.9486 7.55221H90.843C90.3056 7.55221 89.8461 7.31439 89.464 6.8385L88.238 5.20508L87.0119 6.8385C86.6254 7.31439 86.1635 7.55221 85.6261 7.55221H83.5208C83.5029 7.55221 83.4894 7.54608 83.4806 7.53382C83.4718 7.52152 83.4674 7.50569 83.4674 7.48588V6.01428C83.4674 5.99961 83.4718 5.98615 83.4806 5.97385C83.4894 5.96159 83.5029 5.95546 83.5208 5.95546H85.5195C85.6129 5.95546 85.6948 5.91384 85.7662 5.83027L87.2119 3.90259L89.4573 0.900738Z" fill="#E6DAFE"/>
</svg>
