<svg width="103" height="32" viewBox="0 0 103 32" fill="none" xmlns="http://www.w3.org/2000/svg">
<g opacity="0.9">
<g clip-path="url(#clip0_1_2391)">
<path d="M10.6078 6.69183C12.9534 6.69183 14.8549 5.84793 14.8549 4.80693C14.8549 3.76593 12.9534 2.92203 10.6078 2.92203C8.26214 2.92203 6.36063 3.76593 6.36063 4.80693C6.36063 5.84793 8.26214 6.69183 10.6078 6.69183Z" fill="#242235"/>
<path d="M10.6082 12.1515C13.7116 12.1515 16.2275 11.0457 16.2275 9.68166C16.2275 8.31759 13.7116 7.21179 10.6082 7.21179C7.50471 7.21179 4.98886 8.31759 4.98886 9.68166C4.98886 11.0457 7.50471 12.1515 10.6082 12.1515Z" fill="#242235"/>
<path d="M10.6405 19.4961C14.7725 19.4961 18.1221 18.012 18.1221 16.1813C18.1221 14.3506 14.7725 12.8665 10.6405 12.8665C6.50859 12.8665 3.159 14.3506 3.159 16.1813C3.159 18.012 6.50859 19.4961 10.6405 19.4961Z" fill="#242235"/>
<path d="M10.6417 28.9532C16.163 28.9532 20.6388 26.9599 20.6388 24.501C20.6388 22.0421 16.163 20.0487 10.6417 20.0487C5.12041 20.0487 0.644531 22.0421 0.644531 24.501C0.644531 26.9599 5.12041 28.9532 10.6417 28.9532Z" fill="#242235"/>
<path d="M28.479 0.387207H28.0543V31.4556H28.479V0.387207Z" fill="#242235"/>
<path d="M98.5252 12.0867C100.191 11.6317 101.4 10.3318 101.4 8.80438C101.4 6.91948 99.538 5.35956 97.2184 5.35956H92.2851V17.124H95.1601V12.5742L99.1459 16.864H103.034C103.034 16.864 98.6232 12.0542 98.5579 12.0542L98.5252 12.0867ZM98.3292 9.29186C98.3292 9.68183 98.1658 10.0393 97.9044 10.2993C97.6431 10.5593 97.2837 10.7218 96.8917 10.7218H95.1601V7.82943H96.8917C97.7084 7.82943 98.3292 8.4794 98.3292 9.25936V9.29186Z" fill="#242235"/>
<path d="M84.1836 14.4916V12.2492H89.0515V9.81186H84.1836V7.82946H88.9861L90.1296 5.39209H84.1836H81.8967H81.3086V14.4916V16.929H84.1836H90.587L89.5415 14.4916H84.1836Z" fill="#242235"/>
<path d="M74.2837 12.5742L71.0493 5.39209H67.8803L69.6445 9.32439L68.0437 12.6392L64.7766 5.39209H61.6076L66.9329 17.1565H68.7624L69.4158 15.6941L70.9513 12.2817L72.6829 16.1165L73.1402 17.1565H74.9371L75.6232 15.6616L80.2951 5.39209H77.4527C77.0607 6.26954 75.6232 9.55188 74.251 12.5742H74.2837Z" fill="#242235"/>
<path d="M54.8437 5.16446C51.0866 5.16446 48.081 7.86182 48.081 11.1766C48.081 14.4915 51.1193 17.1888 54.8437 17.1888C58.5682 17.1888 61.6065 14.4915 61.6065 11.1766C61.6065 7.86182 58.5682 5.16446 54.8437 5.16446V5.16446ZM54.8437 14.6865C52.8508 14.6865 51.2173 13.0941 51.2173 11.1442C51.2173 9.19425 52.8182 7.60183 54.8437 7.60183C56.8693 7.60183 58.4702 9.19425 58.4702 11.1442C58.4702 13.0941 56.8693 14.6865 54.8437 14.6865Z" fill="#242235"/>
<path d="M40.8619 5.35956H37.1374V7.82943H40.8619V16.994H43.8349V7.82943H47.5593V5.35956H43.8349H40.8619Z" fill="#242235"/>
<path d="M39.2937 25.0213L38.7383 24.0138H37.9215V25.0213H37.1374V21.5115H38.6729C39.1303 21.5115 39.4897 21.609 39.7511 21.8365C40.0124 22.0639 40.1431 22.3564 40.1431 22.7464C40.1431 23.0064 40.0778 23.2339 39.9797 23.4289C39.8817 23.6239 39.7184 23.7539 39.4897 23.8514L40.2411 25.0213H39.3263H39.2937ZM37.9215 23.3639H38.6403C38.869 23.3639 39.0323 23.2989 39.163 23.2014C39.2937 23.1039 39.3263 22.9414 39.3263 22.7464C39.3263 22.5514 39.261 22.4214 39.163 22.3239C39.0323 22.2264 38.869 22.1614 38.6403 22.1614H37.9215V23.3314V23.3639Z" fill="#242235"/>
<path d="M41.7766 21.5112H44.4556V22.1611H42.5607V22.9086H44.2596V23.5586H42.5607V24.3385H44.4883V24.9885H41.744V21.4787L41.7766 21.5112Z" fill="#242235"/>
<path d="M47.8864 22.2261C47.6904 22.1611 47.4944 22.1286 47.3637 22.1286C47.233 22.1286 47.1024 22.1286 47.037 22.1936C46.9717 22.2586 46.9063 22.3236 46.9063 22.4211C46.9063 22.5511 46.9717 22.6486 47.0697 22.7136C47.2004 22.7786 47.3637 22.8436 47.5924 22.9086C47.8211 22.9736 48.0171 23.0386 48.1805 23.1035C48.3438 23.1685 48.4745 23.266 48.5725 23.4285C48.6705 23.591 48.7359 23.7535 48.7359 23.981C48.7359 24.2085 48.6705 24.4035 48.5725 24.566C48.4418 24.7285 48.2785 24.8585 48.0825 24.9235C47.8864 25.021 47.6251 25.0534 47.3637 25.0534C47.0697 25.0534 46.8083 24.9885 46.5143 24.891C46.2202 24.7935 45.9916 24.6635 45.7955 24.4685L46.1222 23.8185C46.2856 23.981 46.5143 24.111 46.743 24.2085C46.9717 24.306 47.2004 24.3385 47.3637 24.3385C47.5271 24.3385 47.6577 24.3385 47.7558 24.241C47.8538 24.176 47.8864 24.0785 47.8864 23.981C47.8864 23.8835 47.8864 23.8185 47.7884 23.7535C47.7231 23.6885 47.6577 23.656 47.5597 23.6235C47.4617 23.591 47.331 23.5585 47.1677 23.4935C46.939 23.4285 46.743 23.3635 46.5796 23.2985C46.4163 23.2335 46.2856 23.136 46.1876 23.0061C46.0896 22.8761 46.0242 22.6811 46.0242 22.4536C46.0242 22.2586 46.0896 22.0636 46.1876 21.9011C46.2856 21.7386 46.4489 21.6086 46.6776 21.5436C46.8737 21.4461 47.135 21.4136 47.3964 21.4136C47.6251 21.4136 47.8864 21.4461 48.1151 21.5111C48.3438 21.5761 48.5725 21.6736 48.7359 21.8036L48.4418 22.4536C48.2458 22.3561 48.0825 22.2586 47.8538 22.1936L47.8864 22.2261Z" fill="#242235"/>
<path d="M50.3685 21.5112H53.0475V22.1612H51.1526V22.9086H52.8515V23.5586H51.1526V24.3386H53.0802V24.9885H50.3358V21.4787L50.3685 21.5112Z" fill="#242235"/>
<path d="M57.3604 25.021L57.0991 24.3385H55.4655L55.2042 25.021H54.3874L55.9229 21.5112H56.7397L58.2425 25.021H57.3931H57.3604ZM55.7269 23.7211H56.8377L56.2823 22.3561L55.7269 23.7211V23.7211Z" fill="#242235"/>
<path d="M61.7383 25.021L61.1829 24.0135H60.3661V25.021H59.582V21.5112H61.1175C61.5749 21.5112 61.9343 21.6087 62.1957 21.8362C62.457 22.0636 62.5877 22.3561 62.5877 22.7461C62.5877 23.0061 62.5224 23.2336 62.4244 23.4286C62.3263 23.6236 62.163 23.7536 61.9343 23.851L62.6857 25.021H61.7709H61.7383ZM60.3661 23.3636H61.0849C61.3136 23.3636 61.4769 23.2986 61.6076 23.2011C61.7383 23.1036 61.7709 22.9411 61.7709 22.7461C61.7709 22.5511 61.7056 22.4211 61.6076 22.3236C61.4769 22.2261 61.3136 22.1611 61.0849 22.1611H60.3661V23.3311V23.3636Z" fill="#242235"/>
<path d="M66.3448 22.2911C66.3448 22.2911 66.0181 22.1611 65.8547 22.1611C65.6587 22.1611 65.4627 22.1936 65.2993 22.2911C65.136 22.3886 65.0053 22.5186 64.9073 22.6811C64.8093 22.8436 64.7766 23.0386 64.7766 23.2336C64.7766 23.4286 64.8093 23.6236 64.9073 23.7861C65.0053 23.9485 65.136 24.0785 65.2993 24.176C65.4627 24.2735 65.6587 24.3385 65.8547 24.3385C66.0181 24.3385 66.1814 24.306 66.3448 24.241C66.5082 24.176 66.6388 24.0785 66.7695 23.9485L67.2269 24.4685C67.0309 24.6635 66.8349 24.826 66.5735 24.9235C66.3121 25.021 66.0834 25.086 65.8221 25.086C65.4627 25.086 65.1687 25.021 64.8746 24.8585C64.5806 24.696 64.3846 24.4685 64.2212 24.2085C64.0579 23.916 63.9925 23.6236 63.9925 23.2986C63.9925 22.9736 64.0905 22.6486 64.2539 22.3886C64.4172 22.1286 64.6459 21.9011 64.94 21.7387C65.234 21.5762 65.528 21.5112 65.8874 21.5112C66.1488 21.5112 66.3775 21.5762 66.6388 21.6737C66.9002 21.7712 67.0962 21.9336 67.2596 22.0961L66.8022 22.6486C66.8022 22.6486 66.5408 22.3886 66.3775 22.3236L66.3448 22.2911Z" fill="#242235"/>
<path d="M68.7286 21.5111H69.5127V22.9736H71.1135V21.5111H71.8976V25.021H71.1135V23.656H69.5127V25.021H68.7286V21.5111Z" fill="#242235"/>
<path d="M78.0082 22.2911C78.0082 22.2911 77.6815 22.1611 77.5181 22.1611C77.3221 22.1611 77.1261 22.1936 76.9627 22.2911C76.7994 22.3886 76.6687 22.5186 76.5707 22.6811C76.4726 22.8436 76.44 23.0386 76.44 23.2336C76.44 23.4286 76.4726 23.6236 76.5707 23.7861C76.6687 23.9485 76.7994 24.0785 76.9627 24.176C77.1261 24.2735 77.3221 24.3385 77.5181 24.3385C77.6815 24.3385 77.8448 24.306 78.0082 24.241C78.1715 24.176 78.3022 24.0785 78.4329 23.9485L78.8903 24.4685C78.6942 24.6635 78.4982 24.826 78.2369 24.9235C77.9755 25.021 77.7468 25.086 77.4854 25.086C77.1261 25.086 76.832 25.021 76.538 24.8585C76.244 24.696 76.0479 24.4685 75.8846 24.2085C75.7212 23.916 75.6559 23.6236 75.6559 23.2986C75.6559 22.9736 75.7539 22.6486 75.9173 22.3886C76.0806 22.1286 76.3093 21.9011 76.6033 21.7387C76.8974 21.5762 77.1914 21.5112 77.5508 21.5112C77.8121 21.5112 78.0408 21.5762 78.3022 21.6737C78.5636 21.7712 78.7596 21.9336 78.9229 22.0961L78.4655 22.6486C78.4655 22.6486 78.2042 22.3886 78.0408 22.3236L78.0082 22.2911Z" fill="#242235"/>
<path d="M82.9735 25.021L82.7121 24.3385H81.0786L80.8172 25.021H80.0005L81.536 21.5111H82.3527L83.8556 25.021H83.0061H82.9735ZM81.3399 23.721H82.4507L81.8953 22.3561L81.3399 23.721V23.721Z" fill="#242235"/>
<path d="M87.7435 21.8361C87.9722 22.0636 88.1029 22.3561 88.1029 22.7461C88.1029 23.1686 87.9722 23.461 87.7435 23.6885C87.4822 23.916 87.1555 24.0135 86.6981 24.0135H86.012V25.021H85.2279V21.5111H86.7307C87.1881 21.5111 87.5148 21.6086 87.7762 21.8361H87.7435ZM87.1881 23.2011C87.1881 23.2011 87.3515 22.9411 87.3515 22.7461C87.3515 22.5511 87.2861 22.4211 87.1881 22.3236C87.0575 22.2261 86.8941 22.1611 86.6654 22.1611H86.012V23.331H86.6654C86.8941 23.331 87.0575 23.266 87.1881 23.1686V23.2011Z" fill="#242235"/>
<path d="M89.6384 21.5111H90.4225V25.021H89.6384V21.5111Z" fill="#242235"/>
<path d="M91.8604 21.5112H94.8008V22.1936H93.7226V25.021H92.9385V22.1936H91.8604V21.5112V21.5112Z" fill="#242235"/>
<path d="M98.4929 25.021L98.2315 24.3385H96.598L96.3367 25.021H95.5199L97.0554 21.5111H97.8722L99.375 25.021H98.5256H98.4929ZM96.8594 23.721H97.9702L97.4148 22.3561L96.8594 23.721V23.721Z" fill="#242235"/>
<path d="M100.714 21.5112H101.498V24.306H103.001V24.9885H100.714V21.4787V21.5112Z" fill="#242235"/>
</g>
</g>
<defs>
<clipPath id="clip0_1_2391">
<rect width="102.357" height="31.0684" fill="white" transform="translate(0.644531 0.387207)"/>
</clipPath>
</defs>
</svg>
