<svg width="107" height="14" viewBox="0 0 107 14" fill="none" xmlns="http://www.w3.org/2000/svg">
<path d="M8.60265 10.7922H4.62652V4.544H0.650391V0.567871H8.60265V10.7922ZM16.5549 10.7922H12.0108L16.2709 0.567871H20.8151L16.5549 10.7922Z" fill="#E6DAFE"/>
<path d="M12.0084 5.11202C13.2632 5.11202 14.2805 4.09478 14.2805 2.83995C14.2805 1.58511 13.2632 0.567871 12.0084 0.567871C10.7536 0.567871 9.73633 1.58511 9.73633 2.83995C9.73633 4.09478 10.7536 5.11202 12.0084 5.11202Z" fill="#E6DAFE"/>
<path d="M26.0936 10.889H28.1964V2.64985H30.9473V0.662351H23.3711V2.65042H26.0936V10.889ZM30.9502 10.889H32.9235V7.44677C32.9235 6.25109 33.5426 5.53084 34.4798 5.53084C34.8104 5.53084 35.07 5.58821 35.3722 5.68932V3.68705C35.1571 3.62484 34.9338 3.59573 34.7099 3.60071C33.9033 3.60071 33.1689 4.13351 32.9235 4.83899V3.68762H30.9502V10.889ZM39.1597 11.0474C40.1538 11.0474 40.9024 10.543 41.2341 10.0818V10.8884H43.2074V3.68762H41.2341V4.49421C40.9024 4.03354 40.1538 3.52914 39.1597 3.52914C37.2444 3.52914 35.7749 5.25762 35.7749 7.28829C35.7749 9.31953 37.2444 11.048 39.1603 11.048L39.1597 11.0474ZM39.5778 9.24682C38.4827 9.24682 37.7624 8.42603 37.7624 7.28829C37.7624 6.14998 38.4827 5.32863 39.5778 5.32863C40.6724 5.32863 41.3926 6.14998 41.3926 7.28829C41.3926 8.42603 40.6724 9.24682 39.5778 9.24682ZM47.9055 11.0474C48.8996 11.0474 49.6482 10.543 49.9794 10.0818V10.8884H51.9527V0.0869484H49.9794V4.49477C49.6482 4.03354 48.8996 3.52914 47.9055 3.52914C45.9896 3.52914 44.5201 5.25762 44.5201 7.28829C44.5201 9.31953 45.9896 11.048 47.9055 11.048V11.0474ZM48.323 9.24682C47.2285 9.24682 46.5082 8.42603 46.5082 7.28829C46.5082 6.14998 47.2285 5.32863 48.323 5.32863C49.4176 5.32863 50.1378 6.14998 50.1378 7.28829C50.1378 8.42603 49.4176 9.24682 48.323 9.24682ZM54.7064 2.58907C54.8721 2.59049 55.0364 2.55916 55.1899 2.49688C55.3434 2.43459 55.483 2.34258 55.6008 2.22614C55.7187 2.10969 55.8123 1.9711 55.8764 1.81835C55.9405 1.66559 55.9737 1.50167 55.9742 1.33602C55.9737 1.17037 55.9405 1.00645 55.8764 0.853696C55.8123 0.700939 55.7187 0.562354 55.6008 0.445908C55.483 0.329462 55.3434 0.237452 55.1899 0.175166C55.0364 0.112881 54.8721 0.0815493 54.7064 0.0829723C54.3749 0.0856447 54.0578 0.21852 53.8233 0.452936C53.5889 0.687351 53.456 1.00452 53.4534 1.33602C53.456 1.66752 53.5889 1.98469 53.8233 2.21911C54.0578 2.45352 54.3749 2.5864 54.7064 2.58907ZM53.7272 10.889H55.7005V3.76941H53.7272V10.889ZM57.4511 10.889H59.4244V7.37463C59.4244 5.9915 60.1015 5.32919 61.0234 5.32919C61.8441 5.32919 62.2912 5.9631 62.2912 6.99974V10.889H64.2645V6.66858C64.2645 4.79639 63.2273 3.52857 61.4846 3.52857C60.5479 3.52857 59.8135 3.93187 59.4244 4.50784V3.68705H57.4511V10.889ZM69.2858 8.97247C68.2917 8.97247 67.4567 8.22325 67.4567 7.12868C67.4567 6.01991 68.2917 5.28489 69.2858 5.28489C70.2798 5.28489 71.1148 6.01991 71.1148 7.12868C71.1148 8.22325 70.2798 8.97247 69.2858 8.97247ZM69.0551 13.9994C71.2591 13.9994 72.9302 12.8759 72.9302 10.2829V3.64331H70.9569V4.4499C70.5678 3.8887 69.7896 3.4854 68.8683 3.4854C66.9813 3.4854 65.4687 5.09858 65.4687 7.12925C65.4687 9.14571 66.9813 10.7589 68.8683 10.7589C69.7902 10.7589 70.5678 10.3414 70.9569 9.80859V10.2982C70.9569 11.4507 70.1935 12.2715 69.0267 12.2715C68.2202 12.2715 67.4136 11.9977 66.7797 11.3786L65.6993 12.8475C66.5201 13.6399 67.8021 13.9994 69.0551 13.9994ZM77.1023 10.889H78.9597L83.1948 0.662351H80.8904L78.0384 7.76315L75.1432 0.662351H72.8819L77.1023 10.889ZM85.0057 2.50614C85.1713 2.50749 85.3355 2.4761 85.4889 2.41378C85.6424 2.35146 85.782 2.25944 85.8997 2.143C86.0175 2.02656 86.1111 1.888 86.1751 1.73528C86.2392 1.58256 86.2724 1.41869 86.2729 1.25309C86.2724 1.08749 86.2392 0.923618 86.1751 0.770898C86.1111 0.618178 86.0175 0.479619 85.8997 0.36318C85.782 0.246742 85.6424 0.154719 85.4889 0.0924002C85.3355 0.0300811 85.1713 -0.00130616 85.0057 4.16354e-05C84.3286 4.16354e-05 83.7521 0.561244 83.7521 1.25309C83.7521 1.94437 84.3286 2.50614 85.0057 2.50614ZM84.0258 10.889H85.9991V3.68705H84.0258V10.889ZM91.1062 11.0474C92.6183 11.0474 93.7708 10.4135 94.4479 9.43427L92.9784 8.33969C92.6472 8.84353 92.0281 9.24682 91.1204 9.24682C90.1701 9.24682 89.3204 8.71402 89.205 7.74895H94.5916C94.6347 7.4462 94.6205 7.24455 94.6205 7.07188C94.6205 4.72425 92.9642 3.52857 91.0772 3.52857C88.8881 3.52857 87.2891 5.15595 87.2891 7.28772C87.2891 9.56377 88.9602 11.0474 91.1062 11.0474ZM89.2766 6.40957C89.4641 5.53084 90.2849 5.15595 91.0199 5.15595C91.7543 5.15595 92.4746 5.54504 92.6472 6.40957H89.2766ZM102.013 10.889H103.972L106.349 3.68705H104.231L102.878 8.29596L101.408 3.68705H99.8963L98.4416 8.29596L97.0732 3.68705H94.9699L97.3612 10.889H99.3198L100.66 6.79809L102.013 10.889Z" fill="#E6DAFE"/>
</svg>
