<svg width="125" height="22" viewBox="0 0 125 22" fill="none" xmlns="http://www.w3.org/2000/svg">
<g clip-path="url(#clip0_10394_15538)">
<path d="M11.6203 0L0.5 11.0129L11.6203 22.0004L22.7535 11.0129L11.6203 0Z" fill="#393647"/>
<path d="M5.75567 14.1265C5.66526 10.6044 9.95322 11.0638 9.95322 9.26449C9.95322 8.69024 9.48826 8.17979 8.45502 8.17979C7.693 8.17979 6.96973 8.54986 6.44019 9.03479L5.65234 8.25636C6.32395 7.63105 7.39594 7.12061 8.50668 7.12061C10.2761 7.12061 11.1931 8.10322 11.1931 9.25173C11.1931 11.9061 7.02139 11.4467 7.02139 13.6544H11.1156V14.7135H5.76858V14.152L5.75567 14.1265Z" fill="#F1EAEA"/>
<path d="M19.6018 8.91992H15.0555C13.1957 8.91992 11.8008 10.3875 11.8008 12.3399C11.8008 13.884 12.8211 14.8284 14.2418 14.8284C16.1017 14.8284 17.5095 13.3608 17.5095 11.4211C17.5095 10.7958 17.3415 10.2599 17.0445 9.85149H18.6331L19.6018 8.91992ZM14.3451 13.8585C13.5185 13.8585 13.0407 13.3353 13.0407 12.3272C13.0407 11.051 13.906 9.88978 14.9393 9.88978C15.7529 9.88978 16.2308 10.413 16.2308 11.4211C16.2437 12.71 15.4042 13.8585 14.3581 13.8585H14.3451Z" fill="#F1EAEA"/>
<path d="M31.4828 8.26944H27.6211V6.58496H37.2303V8.26944H33.3943V17.5979H31.4828V8.26944Z" fill="#393647"/>
<path d="M39.0391 6.58496H41.0539L43.6241 14.9308H43.6628L46.078 6.58496H47.8475L50.2627 14.9308H50.2885L52.8587 6.58496H54.8735L51.3605 17.5979H49.3069L46.9692 9.52005H46.9305L44.5927 17.5979H42.5392L39.0391 6.58496Z" fill="#393647"/>
<path d="M61.2778 16.1431C63.383 16.1431 65.0104 14.599 65.0104 12.0213C65.0104 9.44349 63.3959 8.00147 61.2778 8.00147C59.1596 8.00147 57.5452 9.53282 57.5452 12.0213C57.5452 14.5097 59.1855 16.1431 61.2778 16.1431ZM61.2778 6.39355C64.5196 6.39355 66.9606 8.60125 66.9606 12.0213C66.9606 15.4413 64.5196 17.7766 61.2778 17.7766C58.036 17.7766 55.582 15.5178 55.582 12.0213C55.582 8.52468 58.0489 6.39355 61.2778 6.39355Z" fill="#393647"/>
<path d="M83.3125 6.58496H85.224V12.5189V17.5979H83.3125V11.4342V6.58496Z" fill="#393647"/>
<path d="M93.4115 6.39355C94.9484 6.39355 96.24 6.86572 97.3507 7.6314C97.3507 7.6314 96.2658 8.89476 96.2012 8.85647C95.3617 8.33326 94.4576 8.02699 93.4502 8.02699C91.1642 8.02699 89.6401 9.66043 89.6401 11.9957C89.6401 14.5352 91.0479 16.1431 93.4502 16.1431C94.2768 16.1431 95.1034 15.939 95.6717 15.6199V13.0039H92.869V11.6129H97.4282V16.6025C96.3433 17.3555 94.9355 17.7893 93.3856 17.7893C89.9114 17.7893 87.6641 15.454 87.6641 12.0085C87.7157 8.77991 89.976 6.40632 93.4115 6.40632" fill="#393647"/>
<path d="M100.168 6.58496H102.092L105.76 11.7533L109.454 6.58496H111.366V17.5979H109.506V9.39243L105.747 14.5735L101.989 9.39243V17.5979H100.168V6.58496Z" fill="#393647"/>
<path d="M116.572 13.693H120.189L118.393 8.57571H118.355L116.559 13.693H116.572ZM117.257 6.58496H119.491L123.624 17.5979H121.571L120.731 15.2371H116.03L115.203 17.5979H113.137L117.257 6.58496Z" fill="#393647"/>
<path d="M73.4334 15.2116C74.4279 15.7604 75.3836 16.1177 76.5977 16.1177C78.0571 16.1177 78.7804 15.4924 78.7804 14.5991C78.7804 12.1107 72.5164 13.7441 72.5164 9.54565C72.5164 7.79736 74.0017 6.38086 76.4944 6.38086C77.9538 6.38086 79.4262 6.72541 80.5757 7.40176L79.3358 8.66512C78.4188 8.26952 77.6697 8.05258 76.5589 8.05258C75.2674 8.05258 74.5054 8.70341 74.5054 9.52012C74.5054 11.983 80.7694 10.2986 80.7694 14.5736C80.7694 16.3729 79.3874 17.7766 76.5848 17.7766C74.9445 17.7766 73.1751 17.2024 72.1289 16.4878L73.4205 15.2244L73.4334 15.2116Z" fill="#393647"/>
</g>
<defs>
<clipPath id="clip0_10394_15538">
<rect width="124.002" height="22.0004" fill="white" transform="translate(0.5)"/>
</clipPath>
</defs>
</svg>
