<svg width="1396" height="558" viewBox="0 0 1396 558" fill="none" xmlns="http://www.w3.org/2000/svg">
<g clip-path="url(#clip0_490_2)">
<path d="M0.385131 274.915H274.458C274.543 276.899 274.686 278.64 274.686 280.388C274.7 331.041 274.7 381.693 274.686 432.353C274.686 438.269 274.379 438.041 280.282 438.041C609.663 438.041 939.036 438.041 1268.42 438.041C1272.1 438.041 1273.94 436.243 1273.94 432.646C1273.94 344.057 1273.94 255.476 1273.94 166.887V161.621C1276.23 161.057 1277.37 161.285 1278.85 162.998C1282.23 166.908 1286.19 170.312 1289.87 173.966C1294.03 178.091 1298.1 182.287 1302.27 186.397C1307.99 192.049 1313.81 197.615 1319.51 203.282C1323.23 206.971 1326.79 210.81 1330.46 214.543C1333.81 217.932 1337.22 221.258 1340.59 224.626C1347.23 231.255 1353.85 237.906 1360.5 244.529C1365.1 249.117 1369.73 253.677 1374.37 258.245C1377.66 261.492 1381 264.717 1384.29 267.971C1384.62 268.292 1384.72 268.977 1385.07 269.12C1389.61 270.926 1391.15 275.728 1394.6 278.561C1395.69 279.453 1396.02 280.324 1395.98 281.566C1395.95 282.515 1395.98 283.471 1395.98 284.42C1395.98 373.601 1395.98 462.782 1395.98 551.963V557.493C1394.8 557.658 1393.9 557.843 1393 557.886C1391.7 557.95 1390.38 557.907 1389.08 557.907C1058.39 557.907 727.702 557.907 397.015 557.907C396.302 557.907 395.574 557.815 394.874 557.922C392.155 558.336 390.142 557.208 388.301 555.303C383.718 550.557 379.115 545.826 374.397 541.216C370.371 537.277 366.081 533.602 362.084 529.641C359.158 526.744 356.653 523.432 353.719 520.549C348.43 515.354 342.935 510.366 337.589 505.228C335.897 503.601 334.491 501.674 332.842 500.004C326.804 493.903 320.744 487.823 314.634 481.8C311.201 478.41 307.597 475.192 304.171 471.802C302.244 469.904 300.581 467.742 298.682 465.815C294.236 461.298 289.71 456.852 285.221 452.377C281.631 448.795 277.983 445.27 274.508 441.573C273.487 440.489 272.459 440.067 271.103 440.06C269.911 440.06 268.726 440.032 267.534 440.032C233.517 440.046 199.5 440.053 165.482 440.103C162.406 440.103 160.001 439.554 157.717 436.928C153.12 431.661 147.903 426.93 142.956 421.963C135.869 414.848 128.831 407.669 121.694 400.604C115.22 394.196 108.575 387.952 102.123 381.522C97.4907 376.905 93.094 372.045 88.4974 367.393C84.2292 363.068 79.7968 358.9 75.5001 354.597C68.5696 347.654 61.7033 340.646 54.7799 333.695C50.6545 329.556 46.4505 325.496 42.325 321.364C35.2232 314.256 28.3784 306.878 20.9911 300.077C15.7165 295.217 11.2769 289.658 6.31638 284.549C5.01736 283.207 3.57559 281.994 2.1124 280.831C0.242381 279.346 -0.54988 277.591 0.370856 274.936L0.385131 274.915Z" fill="#E6DAFE"/>
<path d="M380.613 161.421C379.664 152.814 380.156 2.9187 381.22 0C382.276 0.770708 383.382 1.39869 384.267 2.25504C387.801 5.70181 391.234 9.2485 394.745 12.7096C400.841 18.7182 406.979 24.6841 413.074 30.6927C415.166 32.7551 417.05 35.0244 419.248 36.9655C423.788 40.9689 427.349 45.9214 432.253 49.6108C435.193 51.823 437.328 55.07 439.961 57.7246C442.26 60.0439 444.793 62.1277 447.127 64.4112C448.626 65.8742 449.918 67.5369 451.367 69.0426C455.007 72.8248 458.654 76.607 462.366 80.3107C466.734 84.6709 471.216 88.9312 475.585 93.2914C479.303 97.0022 482.879 100.849 486.619 104.531C490.687 108.534 494.934 112.359 498.995 116.37C501.815 119.153 504.377 122.2 507.175 125.005C509.402 127.231 511.864 129.222 514.12 131.42C515.704 132.961 517.089 134.696 518.616 136.294C522.249 140.083 525.697 144.094 529.644 147.519C533.198 150.609 536.139 154.227 539.486 157.474C540.714 158.666 540.964 159.765 540.7 161.228C538.166 162.07 384.988 162.284 380.62 161.406L380.613 161.421Z" fill="#E6DAFE"/>
<path d="M231.968 203.068C223.467 203.068 215.545 203.068 207.622 203.068C206.73 200.613 206.48 78.3484 207.401 73.7099C208.364 73.6314 209.392 73.4672 210.427 73.4672C219.706 73.4458 228.977 73.4458 238.256 73.4672C241.896 73.4744 241.882 73.51 242.624 76.964C242.767 77.6276 242.96 78.5625 243.431 78.8336C244.758 79.5758 244.53 80.7533 244.773 81.8951C245.001 82.9655 245.608 83.9646 246.079 84.9779C246.272 85.3847 246.671 85.7272 246.764 86.1411C247.314 88.7529 247.806 91.3791 248.313 93.998C248.356 94.2335 248.292 94.6118 248.413 94.6831C251.368 96.4315 250.547 99.814 251.196 102.297C251.982 105.287 254.544 107.642 254.144 110.996C254.08 111.517 254.837 112.138 255.229 112.702C255.486 113.073 255.936 113.387 256.021 113.794C256.585 116.399 257.071 119.025 257.585 121.644C257.699 122.222 257.663 123.135 258.006 123.306C260.026 124.348 259.854 126.525 260.525 128.159C261.746 131.12 262.017 134.51 263.466 137.315C264.715 139.741 265.293 142.274 266.171 144.765C267.292 147.955 268.419 151.152 269.675 154.72V73.9025C270.675 73.7027 271.231 73.4958 271.788 73.4958C278.926 73.4672 286.056 73.4244 293.193 73.4815C296.313 73.5029 296.669 73.9454 296.819 76.9782C296.862 77.806 296.834 78.641 296.834 79.4759C296.834 119.06 296.834 158.645 296.834 198.222C296.834 199.735 296.834 201.255 296.834 202.946C295.535 203.096 294.628 203.289 293.715 203.289C283.729 203.31 273.737 203.317 263.751 203.296C260.661 203.296 259.305 202.047 259.041 198.943C258.919 197.508 259.062 196.06 257.513 195.218C257.256 195.075 257.056 194.668 256.992 194.354C256.45 191.742 255.979 189.109 255.408 186.497C255.236 185.727 254.851 184.999 254.53 184.264C254.137 183.357 253.68 182.48 253.309 181.566C253.181 181.245 253.331 180.646 253.145 180.546C250.09 178.847 252.082 175.129 250.112 172.974C249.712 172.539 249.833 171.626 249.748 170.926C249.676 170.341 249.876 169.392 249.576 169.206C246.664 167.401 248.456 163.783 246.557 161.621C246.343 161.378 246.215 160.95 246.243 160.629C246.579 157.189 244.088 154.963 242.689 152.272C242.425 151.758 242.139 151.23 242.011 150.674C241.432 148.048 241.161 145.322 240.298 142.795C239.498 140.455 238.071 138.335 236.95 136.102C236.65 135.502 236.393 134.867 236.208 134.225C235.815 132.897 235.116 131.527 235.201 130.221C235.444 126.453 231.725 123.906 231.982 120.109V203.068H231.968Z" fill="#E6DAFE"/>
<path d="M849.512 233.981C852.124 233.981 854.258 233.981 856.392 233.981C864.358 233.981 872.33 233.967 880.296 233.989C883.329 233.996 884.543 235.023 884.914 238.056C885.078 239.405 885.156 240.647 886.527 241.382C886.777 241.517 886.941 241.945 887.005 242.274C887.54 244.886 887.526 247.769 888.675 250.066C890.038 252.792 890.138 255.975 892.108 258.437C892.715 259.194 892.858 260.35 893.143 261.349C894.628 266.572 897.162 271.475 897.882 276.934C897.968 277.576 898.475 278.162 898.782 278.775C899.174 279.567 899.574 280.352 899.931 281.159C900.024 281.359 899.874 281.708 900.002 281.851C901.958 284.199 902.079 287.125 902.615 289.929C902.829 291.05 903.193 292.149 903.535 293.248C903.807 294.118 903.878 295.331 904.492 295.759C905.727 296.623 905.27 297.893 905.741 298.857C907.147 301.74 906.105 305.422 908.81 307.877C909.224 308.255 909.181 309.204 909.217 309.896C909.288 311.216 909.488 312.287 910.552 313.379C911.372 314.228 911.38 315.869 912.036 317.175V234.781C914.834 233.832 930.451 233.553 936.389 234.245C937.253 236.765 937.667 355.475 936.789 363.518C935.861 363.617 934.848 363.81 933.841 363.817C924.562 363.839 915.284 363.853 906.012 363.817C902.479 363.81 901.801 363.082 901.366 359.521C901.259 358.636 900.887 357.744 900.481 356.931C899.431 354.811 898.061 352.813 897.276 350.608C896.455 348.31 896.162 345.827 895.627 343.429C895.549 343.087 895.527 342.666 895.32 342.416C892.993 339.561 892.929 335.979 892.094 332.639C891.951 332.068 891.966 331.205 891.602 330.998C889.803 329.963 890.067 328.265 889.889 326.638C889.817 325.995 889.317 325.396 889.032 324.775C888.625 323.869 888.183 322.977 887.84 322.049C886.784 319.188 887.226 315.769 884.628 313.471C884.407 313.272 884.378 312.822 884.307 312.48C883.786 309.739 883.301 306.999 882.737 304.273C882.623 303.731 882.209 303.245 881.959 302.724C881.531 301.839 880.902 300.976 880.745 300.041C880.531 298.75 880.66 297.458 879.311 296.609C878.911 296.359 878.718 295.652 878.59 295.117C878.019 292.748 878.055 290.015 876.82 288.081C875.492 286.011 875.043 283.871 874.579 281.209C873.158 282.515 873.572 283.863 873.565 285.019C873.529 294.532 873.544 304.045 873.544 313.55V359.207C873.544 360.599 873.544 361.99 873.544 363.589H849.519V233.981H849.512Z" fill="#E6DAFE"/>
<path d="M498.105 234.281C498.105 235.837 498.105 237.228 498.105 238.613C498.105 252.521 498.105 266.429 498.105 280.338C498.105 281.052 498.09 281.765 498.105 282.479C498.183 285.811 498.383 286.033 501.859 286.061C506.141 286.097 510.424 286.068 514.699 286.068C517.433 286.068 520.167 286.075 522.907 286.068C527.318 286.054 527.354 286.033 527.361 281.751C527.375 272.595 527.361 263.447 527.361 254.291C527.361 247.761 527.361 241.232 527.361 234.809C530.059 233.839 551.4 233.525 557.339 234.274C558.224 236.807 558.652 355.304 557.803 363.125C555.354 363.995 534.955 364.317 527.561 363.546C527.497 362.268 527.368 360.905 527.368 359.542C527.354 346.583 527.361 333.631 527.361 320.672C527.361 319.244 527.361 317.817 527.361 316.39C527.347 311.773 527.347 311.759 522.872 311.751C516.091 311.737 509.318 311.751 502.537 311.751C501.945 311.751 501.345 311.78 500.753 311.759C499.004 311.709 498.076 312.494 498.105 314.299C498.126 315.248 498.097 316.197 498.097 317.153C498.097 331.062 498.097 344.97 498.097 358.879V363.039C495.392 363.988 474.865 364.309 467.606 363.532C467.542 362.133 467.42 360.656 467.42 359.171C467.406 323.869 467.413 288.566 467.413 253.256C467.413 248.147 467.378 243.03 467.435 237.92C467.47 234.417 467.856 234.017 471.346 233.995C479.312 233.946 487.284 233.974 495.25 233.995C496.049 233.995 496.848 234.152 498.105 234.281Z" fill="#E6DAFE"/>
<path d="M1102.84 363.517C1102.77 362.09 1102.66 360.813 1102.66 359.542C1102.65 319.473 1102.65 279.403 1102.65 239.333C1102.65 238.741 1102.64 238.142 1102.66 237.549C1102.81 234.459 1103.16 234.01 1106.22 233.995C1120.96 233.96 1135.72 233.953 1150.46 234.031C1151.49 234.031 1152.5 234.845 1153.54 235.194C1154.63 235.558 1155.82 236.229 1156.83 236.036C1160.52 235.351 1163.65 237.849 1167.21 237.628C1171.96 240.632 1177.32 242.766 1180.99 247.312C1181.49 247.932 1182.01 248.582 1182.66 249.024C1184.65 250.387 1185.63 252.442 1186.98 254.326C1189.31 257.573 1189.34 261.812 1192.1 264.76C1192.52 265.202 1192.45 266.101 1192.57 266.793C1192.67 267.378 1192.48 268.228 1192.81 268.513C1195.36 270.747 1194 273.915 1194.85 276.434C1197.07 282.95 1195.87 289.565 1196.09 296.123C1196.32 302.774 1196.14 309.439 1196.14 316.097C1196.14 316.575 1196.28 317.161 1196.06 317.503C1194.2 320.422 1194.87 323.669 1194.65 326.816C1194.6 327.537 1194.05 328.229 1193.7 328.921C1193.35 329.635 1192.71 330.313 1192.65 331.04C1192.54 332.396 1192.38 333.524 1191.11 334.38C1190.66 334.687 1190.51 335.636 1190.46 336.314C1190.26 339.111 1189.04 341.402 1187.34 343.593C1186.22 345.056 1185.85 347.182 1184.57 348.431C1180.72 352.206 1177.47 356.738 1171.8 358.358C1169.63 358.979 1167.92 361.084 1165.77 361.926C1163.29 362.896 1160.56 363.703 1157.93 363.724C1140.21 363.874 1122.49 363.803 1104.76 363.788C1104.2 363.788 1103.64 363.631 1102.82 363.51L1102.84 363.517ZM1132.63 299.591C1132.63 311.708 1132.63 323.826 1132.63 335.943C1132.63 336.892 1132.64 337.841 1132.66 338.79C1132.7 340.025 1133.28 341.045 1134.55 340.896C1138.99 340.367 1143.8 342.708 1147.88 339.24C1148.19 338.969 1148.78 338.954 1149.25 338.926C1152.43 338.762 1155.12 337.577 1157.25 335.201C1159.29 332.932 1162.6 331.476 1162.08 327.579C1162.04 327.273 1162.26 326.88 1162.47 326.602C1164.67 323.562 1165.44 319.851 1165.32 316.44C1164.87 303.48 1167.14 290.428 1164.04 277.569C1164.8 273.487 1162.36 270.411 1160.37 267.443C1158.79 265.088 1156.33 263.239 1154.02 261.484C1152.53 260.349 1150.64 259.215 1148.85 259.086C1144.24 258.751 1139.59 258.972 1134.95 258.972C1133.3 258.972 1132.62 259.893 1132.63 261.455C1132.63 262.29 1132.61 263.118 1132.61 263.953C1132.61 275.835 1132.61 287.717 1132.61 299.591H1132.63Z" fill="#E6DAFE"/>
<path d="M78.6414 73.667H108.162C108.241 75.2441 108.39 76.7355 108.39 78.227C108.405 107.114 108.49 136.002 108.283 164.889C108.255 168.364 109.789 170.898 111.245 173.509C112.38 175.55 114.4 177.135 116.178 178.754C116.806 179.333 117.855 179.604 118.74 179.704C120.139 179.861 121.409 179.725 122.466 181.167C123.315 182.33 125.021 182.265 125.884 181.074C126.748 179.889 127.769 179.939 128.932 179.711C130.759 179.361 132.558 178.79 134.321 178.176C134.785 178.012 135.156 177.391 135.427 176.906C136.669 174.715 138.004 172.56 139.025 170.27C139.574 169.035 139.774 167.558 139.781 166.188C139.831 149.903 139.81 133.611 139.81 117.326C139.81 104.845 139.81 92.3638 139.81 79.8755C139.81 79.0405 139.795 78.2127 139.817 77.3778C139.924 73.8454 140.245 73.4672 143.721 73.4529C151.33 73.4172 158.945 73.4315 166.554 73.4529C167.475 73.4529 168.395 73.6242 169.573 73.7383C169.652 75.1798 169.773 76.4572 169.773 77.7275C169.787 107.093 169.801 136.458 169.737 165.817C169.737 167.387 168.938 168.935 168.731 170.519C168.481 172.389 168.445 174.287 168.36 176.178C168.288 177.82 168.545 179.468 166.946 180.724C166.425 181.131 166.333 182.216 166.233 183.008C165.869 185.884 164.905 188.467 162.821 190.536C159.788 193.555 156.783 196.609 153.635 199.507C152.764 200.306 151.444 200.62 150.309 201.112C149.995 201.248 149.395 201.076 149.288 201.262C147.532 204.231 143.971 202.532 141.673 204.216C140.93 204.759 139.638 204.68 138.596 204.687C128.961 204.716 119.325 204.909 109.704 204.602C106.264 204.495 102.845 203.553 99.6114 201.676C97.7699 200.605 95.9284 199.193 93.5302 198.615C91.4675 198.115 89.726 195.653 88.1771 193.783C85.0866 190.065 82.5171 186.019 81.9604 181.038C81.9176 180.688 81.9104 180.189 81.6963 180.032C78.9555 178.034 80.0761 175.115 79.8762 172.525C79.6692 169.856 80.433 167.08 78.6343 164.603C78.2275 164.04 78.4487 162.984 78.4487 162.156C78.4487 133.739 78.4487 105.33 78.4487 76.9139C78.4487 75.9791 78.5629 75.0371 78.6557 73.6456L78.6414 73.667Z" fill="#E6DAFE"/>
<path d="M693.935 363.517C692.272 363.66 691.352 363.81 690.431 363.817C682.344 363.838 674.264 363.845 666.178 363.817C662.859 363.803 661.781 362.747 661.581 359.378C661.46 357.409 661.967 355.268 659.747 354.012C659.597 353.926 659.547 353.591 659.511 353.362C658.997 349.909 658.555 346.447 657.948 343.015C657.741 341.823 657.12 340.703 656.706 339.54C656.407 338.705 655.978 337.87 655.871 337.006C655.5 334.03 655.471 333.909 652.352 333.881C647.356 333.838 642.367 333.866 637.371 333.866C633.688 333.866 629.998 333.895 626.315 333.859C624.459 333.838 622.996 334.109 622.939 336.464C622.925 337.049 622.346 337.634 621.99 338.198C621.683 338.683 621.126 339.111 621.033 339.625C620.448 342.944 619.905 346.276 619.456 349.623C619.299 350.793 619.463 351.935 618.192 352.72C617.707 353.02 617.472 353.905 617.357 354.568C616.815 357.537 616.358 360.52 615.851 363.603H585.481C585.367 362.832 585.089 362.204 585.239 361.712C586.159 358.793 586.923 355.867 586.702 352.77C589.264 350.972 587.758 347.496 589.057 345.862C591.006 343.422 590.256 340.453 591.869 338.141C592.405 337.37 592.248 336.086 592.298 335.022C592.362 333.617 592.233 332.318 593.661 331.247C594.303 330.769 594.232 329.321 594.446 328.307C594.81 326.623 595.545 324.896 595.417 323.248C595.117 319.437 597.836 316.533 598.136 312.9C598.257 311.444 599.642 310.139 600.077 308.661C600.499 307.227 600.384 305.636 600.627 304.137C600.87 302.66 601.205 301.183 601.612 299.741C601.983 298.442 602.49 297.179 602.968 295.909C603.089 295.588 603.432 295.324 603.496 295.003C604.074 291.92 604.688 288.837 605.124 285.733C605.316 284.341 604.988 282.864 606.594 282.036C606.858 281.901 607.151 281.415 607.101 281.151C606.43 277.555 608.6 274.65 609.563 271.496C610.405 268.756 611.005 266.094 610.955 263.247C610.948 262.769 611.455 262.262 611.776 261.812C612.047 261.434 612.711 261.063 612.661 260.785C612.033 257.202 614.509 254.469 615.245 251.258C615.923 248.282 615.923 245.056 616.922 242.409C617.778 240.154 618.663 238.027 618.999 235.608C619.077 235.03 620.027 234.459 620.698 234.117C621.183 233.867 621.861 233.981 622.453 233.981C634.223 233.981 645.993 233.981 657.763 233.995C658.341 233.995 658.919 234.102 659.169 234.124C660.111 235.515 660.889 236.629 661.631 237.763C661.874 238.142 662.209 238.605 662.166 238.998C661.838 242.009 662.773 244.792 663.687 247.568C664.036 248.639 664.543 249.659 664.971 250.708C665.236 251.351 665.628 251.971 665.721 252.642C666.028 254.897 665.221 257.481 667.762 259.036C667.898 259.122 667.876 259.479 667.912 259.707C668.419 262.804 668.348 266.144 669.575 268.927C670.924 272.003 671.517 275.064 671.938 278.283C672.13 279.753 672.551 281.201 672.973 282.636C673.322 283.813 673.786 284.962 674.257 286.097C674.429 286.503 674.993 286.86 674.971 287.217C674.857 289.765 676.006 291.841 676.884 294.139C678.104 297.329 678.062 300.99 678.704 304.422C678.904 305.5 679.532 306.499 679.989 307.527C680.217 308.04 680.688 308.504 680.731 309.025C680.938 311.309 681.009 313.328 682.551 315.541C684.064 317.71 683.907 321.093 684.335 323.961C684.571 325.56 684.029 327.337 685.87 328.4C686.191 328.586 686.434 329.192 686.427 329.606C686.384 332.104 686.905 334.416 687.762 336.799C688.368 338.491 688.011 340.46 689.617 341.916C690.095 342.351 690.01 343.479 690.053 344.292C690.131 345.819 689.881 347.432 691.587 348.367C691.844 348.51 692.065 348.924 692.101 349.231C692.701 353.841 693.272 358.451 693.9 363.517H693.935ZM638.149 267.072C637.599 269.855 638.877 273.159 636.058 275.507C635.565 275.921 635.979 277.333 635.836 278.268C635.672 279.282 635.344 280.266 635.094 281.266C634.866 282.172 634.537 283.071 634.466 283.992C634.309 286.047 634.923 288.266 632.724 289.75C632.375 289.986 632.353 290.849 632.325 291.427C632.239 293.725 632.739 296.159 630.462 297.871C630.126 298.121 630.276 298.992 630.162 299.57C629.777 301.504 629.441 303.459 628.956 305.372C628.406 307.541 628.999 308.804 631.076 308.84C636.657 308.947 642.239 308.94 647.82 308.84C649.94 308.804 650.24 308.069 649.619 306.121C649.198 304.801 648.991 303.416 648.727 302.046C648.591 301.354 648.798 300.298 648.398 300.005C646.064 298.285 646.671 295.838 646.55 293.554C646.521 292.976 646.5 292.105 646.15 291.884C644.023 290.521 644.644 288.416 644.408 286.482C644.023 283.257 642.474 280.216 642.838 276.848C642.881 276.477 642.503 275.856 642.153 275.678C640.825 274.993 640.761 273.815 640.897 272.631C641.175 270.219 640.476 268.32 638.163 267.086L638.149 267.072Z" fill="#E6DAFE"/>
<path d="M1061.72 234.509V258.951C1060.12 258.951 1058.72 258.951 1057.33 258.951C1042.82 258.951 1028.31 258.951 1013.8 258.951C1012.97 258.951 1012.14 258.937 1011.3 258.951C1007.97 259.029 1007.74 259.229 1007.72 262.705C1007.68 268.292 1007.7 273.88 1007.72 279.467C1007.73 286.646 1007.07 286.054 1014.19 286.054C1027.98 286.061 1041.78 286.054 1055.58 286.054H1059.74C1060.69 288.737 1060.99 304.558 1060.24 311.537C1058.97 311.602 1057.6 311.73 1056.24 311.73C1041.85 311.744 1027.45 311.737 1013.07 311.737C1012.12 311.737 1011.16 311.752 1010.21 311.752C1008.63 311.752 1007.75 312.458 1007.75 314.107C1007.75 321.6 1007.75 329.085 1007.76 336.578C1007.76 338.006 1008.49 338.783 1009.95 338.819C1010.9 338.841 1011.85 338.855 1012.8 338.855C1027.55 338.855 1042.3 338.855 1057.05 338.855C1058.46 338.855 1059.87 338.855 1061.81 338.855C1062.14 347.119 1061.91 355.125 1061.96 363.054C1059.2 363.988 987.021 364.374 979.884 363.575C978.999 361.041 978.577 242.809 979.42 234.695C981.896 233.803 1057.32 233.575 1061.74 234.502L1061.72 234.509Z" fill="#E6DAFE"/>
<path d="M405.924 322.42C410.156 322.82 413.675 321.571 417.066 323.555C417.979 324.09 419.385 323.826 420.57 323.869C421.969 323.926 423.14 323.99 424.374 325.161C425.281 326.017 427.244 325.724 428.714 326.031C430.156 326.338 431.826 326.409 432.947 327.209C434.809 328.536 435.123 331.362 434.146 333.638C433.867 334.281 433.175 334.987 433.296 335.522C433.96 338.448 431.869 340.653 430.563 342.366C428.985 344.443 429.007 346.933 427.493 348.874C424.667 352.506 422.39 356.653 417.608 358.194C417.173 358.337 416.566 358.508 416.402 358.851C414.396 362.918 410.542 363.332 406.723 363.874C406.259 363.939 405.581 363.967 405.396 364.26C403.954 366.558 401.684 365.944 399.636 365.951C391.792 365.987 383.941 365.972 376.096 365.958C374.583 365.958 372.999 366.237 372.014 364.524C371.785 364.131 370.986 363.91 370.436 363.896C364.912 363.71 361.043 360.249 357.196 356.988C354.47 354.676 352.172 351.85 349.745 349.195C349.081 348.475 348.581 347.568 348.146 346.683C346.654 343.615 345.348 340.439 343.028 337.849C342.807 337.606 342.664 337.242 342.6 336.914C342.065 334.181 341.558 331.44 341.051 328.7C341.009 328.465 341.066 328.151 340.937 328.008C337.668 324.483 339.331 320.144 338.967 316.148C338.81 314.421 339.288 312.587 337.354 311.366C336.883 311.067 336.847 309.861 336.84 309.069C336.805 302.296 336.819 295.517 336.826 288.745C336.826 288.152 336.676 287.289 336.997 287.018C340.173 284.285 338.61 280.638 338.931 277.377C339.103 275.664 338.532 273.794 340.487 272.617C340.866 272.388 341.116 271.511 341.023 271.011C340.438 267.936 341.594 265.067 342.729 262.498C343.756 260.178 344.392 257.624 346.169 255.519C347.996 253.363 348.838 250.38 350.63 248.19C352.735 245.614 355.369 243.466 357.832 241.189C358.417 240.654 359.352 240.49 359.901 239.926C362.214 237.571 365.419 237.193 368.16 235.858C371.022 234.467 373.734 233.882 376.746 233.817C379.694 230.628 383.548 232.026 387.06 231.855C390.621 231.684 394.347 231.213 397.709 232.04C400.421 232.704 402.905 234.381 405.903 234.11C407.344 236.522 410.042 235.987 412.176 236.679C416.159 237.971 418.664 241.111 421.541 243.772C422.983 245.107 424.353 246.556 425.531 248.125C427.372 250.595 429.692 252.999 430.591 255.818C431.74 259.415 433.603 262.733 434.453 266.394C434.809 267.943 434.51 269.648 434.51 271.361C432.211 272.096 429.628 271.197 428.172 273.587C427.907 274.016 426.601 273.752 425.795 273.923C424.332 274.23 422.89 274.651 421.419 274.958C420.506 275.15 419.564 275.279 418.629 275.321C416.98 275.393 415.574 275.536 414.054 276.692C411.869 278.354 409.079 277.291 406.659 277.355C405.61 273.73 404.761 270.398 403.64 267.165C403.283 266.137 401.891 265.488 401.47 264.46C399.807 260.378 395.746 258.965 392.463 257.452C389.529 256.104 385.732 255.897 382.149 258.259C379.308 260.129 376.51 261.848 374.59 264.624C372.942 267.008 371.636 269.434 370.858 272.474C368.838 280.367 369.93 288.259 369.694 296.138C369.459 304.095 369.387 312.073 369.737 320.023C369.944 324.732 371.271 329.35 374.255 333.26C374.533 333.631 375.011 333.974 375.061 334.373C375.433 337.256 376.853 338.955 379.915 338.941C381.364 341.203 384.098 340.696 386.096 341.802C386.788 342.188 387.759 342.523 388.459 342.345C392.548 341.296 396.909 340.825 399.807 337.121C401.606 334.83 403.019 332.432 404.068 329.642C404.896 327.444 406.638 325.582 405.924 322.413V322.42Z" fill="#E6DAFE"/>
<path d="M724.555 256.81V234.645C727.345 233.846 803.595 233.632 808.27 234.409V256.589C806.978 256.66 805.722 256.788 804.466 256.796C797.807 256.817 791.147 256.781 784.488 256.817C781.019 256.831 780.755 257.06 780.755 260.414C780.734 286.083 780.734 311.759 780.755 337.427C780.755 340.746 781.027 340.974 784.517 340.988C791.055 341.017 797.593 340.995 804.138 340.995C805.422 340.995 806.7 340.995 808.277 340.995V363.532H724.662V341.231C725.961 341.152 727.217 341.01 728.473 341.003C735.132 340.981 741.792 341.017 748.451 340.981C751.92 340.967 752.184 340.739 752.184 337.385C752.205 311.716 752.205 286.04 752.184 260.371C752.184 257.052 751.913 256.824 748.422 256.81C741.884 256.781 735.347 256.803 728.802 256.803C727.517 256.803 726.232 256.803 724.555 256.803V256.81Z" fill="#E6DAFE"/>
</g>
<defs>
<clipPath id="clip0_490_2">
<rect width="1396" height="558" fill="white"/>
</clipPath>
</defs>
</svg>
