<svg width="89" height="33" viewBox="0 0 89 33" fill="none" xmlns="http://www.w3.org/2000/svg">
<g clip-path="url(#clip0_11655_13266)">
<path d="M25.1934 12.5949L20.7204 20.4069C19.3362 22.8249 16.7779 24.3139 14.0095 24.3139V24.311L16.2455 20.4069L18.4814 16.503L20.7174 12.5969L22.9553 8.69092L25.1934 12.5949Z" fill="#E6DAFE" fill-opacity="0.6"/>
<path d="M31.9049 8.69092L29.6689 12.5969L27.431 16.503L25.195 20.4069L25.193 20.41C23.8108 22.826 21.2535 24.3139 18.4872 24.3139H14.0112C16.7787 24.3139 19.3379 22.8239 20.7221 20.4069L25.195 12.5949L22.9591 8.69092H31.9049Z" fill="#E6DAFE"/>
<path d="M22.9586 8.69098H5.06494L6.48249 6.21496L7.29988 4.78597L16.2478 4.78394C18.9878 4.78394 21.5239 6.24347 22.9172 8.61764L22.9586 8.69098Z" fill="#E6DAFE" fill-opacity="0.6"/>
<path d="M22.9186 8.61858C21.5253 6.2434 18.9893 4.78488 16.2492 4.78488L7.30132 4.78692L6.48393 6.2159L5.06537 8.68988L2.82942 4.7859L0.594482 0.881919L5.06537 0.879883L9.53828 0.881919H14.0172C14.3628 0.881919 14.7043 0.904326 15.0407 0.949142C15.2105 0.971549 15.3773 0.999049 15.5439 1.0347C15.6136 1.04794 15.6833 1.06321 15.7531 1.08053C15.9329 1.12127 16.1118 1.16914 16.2875 1.22414C16.4451 1.27303 16.6008 1.32599 16.7553 1.38608C16.8443 1.41969 16.9322 1.45433 17.02 1.49303C17.2414 1.58572 17.4576 1.69164 17.6677 1.80469C17.6697 1.80572 17.6707 1.80775 17.6718 1.80572C18.0395 2.00535 18.3891 2.23349 18.7206 2.48812C18.7882 2.54108 18.8549 2.59303 18.9206 2.64701C19.0489 2.75497 19.1752 2.86497 19.2975 2.98007C19.3581 3.03813 19.4187 3.09719 19.4793 3.15729C19.9562 3.63702 20.3755 4.18294 20.7211 4.7859H20.7221L22.9186 8.61858Z" fill="#E6DAFE"/>
<path d="M5.06494 16.502L9.54089 24.314H9.53887L5.06494 16.502Z" fill="#E6DAFE"/>
<path d="M14.0114 24.311V24.3139H9.53849L5.06462 16.5019C3.69455 14.1085 3.68041 11.166 5.0242 8.76222L5.06462 8.69092L5.88403 10.121L7.30158 12.5969L9.53955 16.503L11.7755 20.4059L14.0114 24.311Z" fill="#E6DAFE" fill-opacity="0.6"/>
<path d="M14.0113 24.314L9.53833 32.1209L7.30241 28.2179L5.93336 25.8295L5.06545 24.314L2.82748 20.407L2.82647 20.4049C2.69613 20.1788 2.57994 19.9465 2.47385 19.7123C2.36978 19.477 2.27582 19.2376 2.19499 18.9953C2.17276 18.927 2.14952 18.8578 2.13033 18.7895C2.10305 18.7009 2.07779 18.6113 2.05354 18.5226C1.96261 18.1795 1.89491 17.8301 1.85045 17.4787C1.84136 17.4054 1.83428 17.334 1.82621 17.2607C1.81913 17.1843 1.81307 17.107 1.80802 17.0306C1.80599 17.0204 1.80599 17.0081 1.80599 16.9959C1.79993 16.9165 1.79589 16.837 1.79387 16.7576V16.7545C1.79084 16.6771 1.78882 16.6007 1.78882 16.5223C1.78781 15.6739 1.92219 14.8254 2.19499 14.0117C2.24955 13.8497 2.30815 13.6898 2.37382 13.5309C2.40514 13.4515 2.44051 13.372 2.47486 13.2946C2.54559 13.1378 2.62137 12.982 2.70219 12.8292C2.7426 12.7528 2.78403 12.6764 2.82748 12.602V12.599L5.02302 8.76526C3.68023 11.169 3.69336 14.1115 5.06343 16.505L9.53736 24.317H14.0113V24.314Z" fill="#E6DAFE"/>
<path d="M36.5559 26.8765V25.0432H39.0899V24.5992H36.5559V22.8423H39.3971V22.391H36.0376V27.3288H39.5022V26.8776H36.5559V26.8765Z" fill="#E6DAFE"/>
<path d="M45.3654 22.3901L44.0155 24.2438L44.0509 24.2927L44.3075 24.6105L45.9242 22.3901H45.3654ZM44.3075 24.9364L44.0256 25.2796L43.9963 25.3204L45.4573 27.3269H46.0595L44.3075 24.9364Z" fill="#E6DAFE"/>
<path d="M50.6757 26.9061C50.2877 26.9061 49.9371 26.8155 49.6199 26.6373C49.3026 26.459 49.0531 26.2135 48.8743 25.9029C48.6954 25.5923 48.6055 25.2449 48.6055 24.861C48.6055 24.474 48.6954 24.1266 48.8743 23.817C49.0531 23.5063 49.3026 23.2608 49.6199 23.0826C49.9371 22.9044 50.2877 22.8138 50.6757 22.8138C51.2597 22.8138 51.7427 23.0103 52.1246 23.4004L52.454 23.0683C52.2397 22.8331 51.9791 22.6538 51.6709 22.5326C51.3618 22.4094 51.0263 22.3483 50.6626 22.3483C50.1776 22.3483 49.7391 22.4563 49.3481 22.6742C48.955 22.8901 48.6489 23.1906 48.4266 23.5735C48.2044 23.9565 48.0933 24.3863 48.0933 24.861C48.0933 25.3356 48.2044 25.7644 48.4266 26.1463C48.6489 26.5313 48.9541 26.8297 49.3441 27.0457C49.734 27.2636 50.1695 27.3716 50.6565 27.3716C51.0193 27.3716 51.3557 27.3085 51.6669 27.1852C51.9761 27.0599 52.2397 26.8807 52.454 26.6454L52.1246 26.3133C51.7468 26.7075 51.2637 26.9061 50.6757 26.9061Z" fill="#E6DAFE"/>
<path d="M58.8713 22.3901V24.5911H55.8059V22.3901H55.2876V27.3279H55.8059V25.0505H58.8713V27.3279H59.3836V22.3901H58.8713Z" fill="#E6DAFE"/>
<path d="M64.6724 22.3901H64.1621L61.9221 27.3279H62.4616L63.0476 26.0089H65.7777L66.3658 27.3279H66.9113L64.6724 22.3901ZM63.2376 25.5862L64.4137 22.934L65.5898 25.5862H63.2376Z" fill="#E6DAFE"/>
<path d="M73.0352 22.3901V26.3969L69.8798 22.3901H69.4514V27.3279H69.9697V23.321L73.119 27.3279H73.5475V22.3901H73.0352Z" fill="#E6DAFE"/>
<path d="M80.3219 26.5253C79.9713 26.7789 79.5449 26.9062 79.0407 26.9062C78.6456 26.9062 78.2869 26.8155 77.9697 26.6373C77.6525 26.4591 77.4029 26.2136 77.2221 25.903C77.0412 25.5923 76.9493 25.245 76.9493 24.861C76.9493 24.4739 77.0412 24.1246 77.2221 23.813C77.4029 23.5013 77.6545 23.2558 77.9738 23.0786C78.293 22.9024 78.6517 22.8138 79.0488 22.8138C79.6449 22.8138 80.137 23.0083 80.525 23.3933L80.8462 23.0613C80.6321 22.826 80.3694 22.6488 80.0551 22.5296C79.744 22.4094 79.4004 22.3494 79.0266 22.3494C78.5315 22.3494 78.088 22.4573 77.6969 22.6753C77.3059 22.8912 76.9977 23.1917 76.7734 23.5746C76.5491 23.9575 76.437 24.3874 76.437 24.862C76.437 25.3367 76.5502 25.7655 76.7734 26.1474C76.9977 26.5324 77.3049 26.8308 77.6969 27.0467C78.088 27.2647 78.5304 27.3727 79.0195 27.3727C79.3661 27.3727 79.6955 27.3177 80.0066 27.2097C80.3198 27.1017 80.5906 26.9469 80.819 26.7442V24.862H80.3219V26.5253Z" fill="#E6DAFE"/>
<path d="M84.5263 26.8765V25.0432H87.0604V24.5992H84.5263V22.8423H87.3675V22.391H84.01V27.3288H87.4725V26.8776H84.5263V26.8765Z" fill="#E6DAFE"/>
<path d="M47.1446 5.6283L43.1728 14.8968L39.2556 5.6283H36.0376L41.5915 18.6052H44.5338L50.106 5.6283H47.1446Z" fill="#E6DAFE"/>
<path d="M54.1335 16.1955V8.03921H60.901V5.62939H51.1731V18.6063H61.1404V16.1966H54.1335V16.1955ZM55.1357 10.8564L54.1335 13.1919H59.1156L60.1108 10.8727V10.8564H55.1357Z" fill="#E6DAFE"/>
<path d="M66.4908 16.1588V5.6283H63.5112V18.6052H71.8882L72.8834 16.286L72.8904 16.2698L72.938 16.1588H66.4908Z" fill="#E6DAFE"/>
<path d="M81.7181 5.6283H78.776L73.0381 18.6052H76.0904L77.2311 15.8247H77.2381L80.2279 8.57589L82.2688 13.5442L83.2045 15.8247H83.2064L84.3461 18.6052H87.4722L81.7181 5.6283Z" fill="#E6DAFE"/>
<path d="M44.1893 24.7735L43.875 25.1544L42.2999 27.3279H41.7058L43.5659 24.7897L41.825 22.3901H42.4191L43.8953 24.4088L44.1893 24.7735Z" fill="#E6DAFE"/>
</g>
<defs>
<clipPath id="clip0_11655_13266">
<rect width="88" height="31.4286" fill="white" transform="translate(0.0332031 0.785767)"/>
</clipPath>
</defs>
</svg>
