<svg width="83" height="18" viewBox="0 0 83 18" fill="none" xmlns="http://www.w3.org/2000/svg">
<path d="M19.4915 3.84014L12.5046 16.7224C12.2934 17.111 11.9898 17.4335 11.6245 17.6577C11.2592 17.882 10.8449 18 10.4232 18C10.0015 18 9.5872 17.882 9.22189 17.6577C8.85653 17.4335 8.55302 17.111 8.34176 16.7224L7.11693 14.4659C7.11301 14.4602 7.11132 14.4533 7.11227 14.4463C7.11317 14.4394 7.11666 14.4331 7.12191 14.4289C7.12715 14.4247 7.13377 14.4229 7.14028 14.4239C7.1468 14.4249 7.15268 14.4286 7.15665 14.4342C7.3751 14.6638 7.64006 14.8372 7.93112 14.941C8.22224 15.0449 8.53178 15.0765 8.83614 15.0335C9.14049 14.9904 9.43156 14.8739 9.68708 14.6927C9.94256 14.5115 10.1558 14.2705 10.3104 13.9882L16.1592 3.19352C16.3134 2.90853 16.4039 2.58958 16.4237 2.26137C16.4435 1.93316 16.3921 1.6045 16.2735 1.30084C16.1548 0.997181 15.9721 0.726662 15.7395 0.51024C15.5068 0.293816 15.2305 0.137292 14.9319 0.052787C14.9254 0.052787 14.9191 0.0500064 14.9144 0.0450568C14.9097 0.0401072 14.9071 0.0333941 14.9071 0.0263943C14.9071 0.0193945 14.9097 0.0126814 14.9144 0.00773183C14.9191 0.00278222 14.9254 1.56928e-06 14.9319 1.56928e-06H17.4113C17.8332 0.000485139 18.2476 0.11913 18.6129 0.344022C18.9781 0.568915 19.2814 0.892139 19.4921 1.28124C19.7029 1.67034 19.8138 2.11163 19.8137 2.56079C19.8136 3.00994 19.7025 3.45117 19.4915 3.84014ZM11.2203 1.56928e-06H8.79795C8.79303 0.00173714 8.78869 0.00509546 8.78561 0.00959777C8.78254 0.0141 8.7809 0.0195164 8.7809 0.0250747C8.7809 0.0306329 8.78254 0.0360493 8.78561 0.0405516C8.78869 0.0450539 8.79303 0.0484122 8.79795 0.0501478C8.96112 0.11723 9.10872 0.221019 9.23073 0.354422C9.35275 0.487825 9.44623 0.647698 9.50485 0.823108C9.56348 0.998517 9.58582 1.18534 9.57036 1.37079C9.5549 1.55624 9.50204 1.73595 9.41535 1.89764L5.8847 8.39817C5.79349 8.56301 5.66911 8.70429 5.52052 8.81191C5.37192 8.91952 5.20278 8.99078 5.02524 9.02055C4.84771 9.05031 4.66619 9.03786 4.49371 8.98413C4.32123 8.93035 4.16207 8.8366 4.02766 8.70959C4.02371 8.70401 4.01784 8.70028 4.01133 8.69933C4.00482 8.69831 3.99821 8.70012 3.99294 8.70434C3.98769 8.70852 3.98421 8.71477 3.98328 8.72171C3.98235 8.72864 3.98404 8.73569 3.98799 8.74127L5.22767 11.0322C5.36686 11.2892 5.56722 11.5028 5.80856 11.6512C6.04991 11.7997 6.32376 11.8778 6.60249 11.8778C6.88121 11.8778 7.15506 11.7997 7.39639 11.6512C7.63773 11.5028 7.83812 11.2892 7.9773 11.0322L12.5964 2.5337C12.7357 2.27678 12.809 1.98532 12.809 1.68864C12.8089 1.39197 12.7354 1.10056 12.5959 0.843718C12.4564 0.586882 12.2559 0.373678 12.0144 0.225566C11.7729 0.0774541 11.499 -0.000343307 11.2203 1.56928e-06ZM2.81277 1.56928e-06C2.39938 1.56928e-06 1.99528 0.13049 1.65156 0.374966C1.30785 0.619444 1.03995 0.966925 0.881757 1.37348C0.723562 1.78002 0.682171 2.22738 0.762818 2.65897C0.843465 3.09056 1.04253 3.487 1.33484 3.79816C1.62714 4.10932 1.99957 4.32122 2.40501 4.40706C2.81045 4.49292 3.2307 4.44885 3.61261 4.28046C3.99453 4.11206 4.32096 3.82688 4.55063 3.461C4.78029 3.09511 4.90288 2.66495 4.90288 2.22491C4.9032 1.93263 4.84936 1.64316 4.74444 1.37306C4.63952 1.10297 4.48557 0.857558 4.29142 0.650889C4.09727 0.444216 3.86673 0.280344 3.613 0.168655C3.35927 0.0569659 3.08734 -0.000345759 2.81277 1.56928e-06Z" fill="#E6DAFE"/>
<path d="M36.27 4.03711H34.1823L31.3292 11.267L28.49 4.03711H26.4023L30.4246 13.9634H32.2478L36.27 4.03711Z" fill="#E6DAFE"/>
<path d="M46.549 12.1411H41.3577V9.88913H46.1175V8.09647H41.3577V5.85942H46.5211V4.03711H39.4648V13.9634H46.549V12.1411Z" fill="#E6DAFE"/>
<path d="M59.0139 4.03711H57.1211V10.5855L51.9577 4.03711H50.3711V13.9634H52.2639V7.59276L57.4272 13.9634H59.0139V4.03711Z" fill="#E6DAFE"/>
<path d="M71.0787 4.03711H69.1859V9.51874C69.1859 10.3484 68.991 11.0151 68.6013 11.5189C68.2115 12.0226 67.6967 12.2596 67.0708 12.2596C66.4024 12.2596 65.8596 12.0226 65.456 11.5189C65.0525 11.0151 64.8576 10.3484 64.8576 9.51874V4.03711H62.9648V9.51874C62.9648 10.9114 63.3403 12.0374 64.0923 12.8967C64.8438 13.7559 65.832 14.1856 67.0708 14.1856C68.2676 14.1856 69.2415 13.7559 69.9793 12.8967C70.7032 12.0374 71.0787 10.9114 71.0787 9.51874V4.03711Z" fill="#E6DAFE"/>
<path d="M78.4514 3.81445C77.3658 3.81445 76.5031 4.09594 75.8628 4.65893C75.2225 5.22191 74.9026 5.94783 74.9026 6.83675C74.9026 8.37758 75.7097 9.32574 77.352 9.6813L79.3284 10.0813C79.7177 10.1702 79.9962 10.3036 80.1631 10.4665C80.3304 10.6443 80.4136 10.8665 80.4136 11.1628C80.4136 11.5332 80.2605 11.8295 79.9825 12.0666C79.6901 12.3036 79.2866 12.4221 78.7575 12.4221C77.6025 12.4221 76.9066 11.8888 76.6699 10.8073L74.6797 11.2369C74.7909 12.1851 75.2088 12.9259 75.9322 13.4296C76.6561 13.9333 77.5469 14.1852 78.5769 14.1852C79.6901 14.1852 80.5809 13.9036 81.263 13.3407C81.9308 12.7777 82.2788 12.0221 82.2788 11.0591C82.2788 10.3036 82.0563 9.6813 81.6247 9.20724C81.1931 8.73313 80.5947 8.39241 79.8294 8.2146L77.8249 7.78497C77.1989 7.66641 76.8928 7.32569 76.8928 6.7775C76.8928 6.43677 77.0316 6.14047 77.3102 5.90341C77.5887 5.66636 77.9504 5.54784 78.4096 5.54784C78.883 5.54784 79.2866 5.69601 79.6345 5.97749C79.9687 6.25897 80.1774 6.62935 80.2467 7.08863L82.1395 6.67383C81.9589 5.79968 81.5411 5.10338 80.8732 4.58485C80.2049 4.08113 79.3978 3.81445 78.4514 3.81445Z" fill="#E6DAFE"/>
</svg>
