<svg width="84" height="19" viewBox="0 0 84 19" fill="none" xmlns="http://www.w3.org/2000/svg">
<path d="M20.0991 3.90809L12.9886 17.0183C12.7736 17.4137 12.4648 17.742 12.093 17.9702C11.7211 18.1984 11.2995 18.3185 10.8704 18.3185C10.4412 18.3185 10.0196 18.1984 9.64782 17.9702C9.27599 17.742 8.96711 17.4137 8.75212 17.0183L7.50561 14.7218C7.50162 14.7161 7.4999 14.709 7.50087 14.7019C7.50179 14.6949 7.50534 14.6885 7.51068 14.6842C7.51601 14.68 7.52275 14.6781 7.52938 14.6791C7.53601 14.6801 7.54199 14.6839 7.54603 14.6896C7.76836 14.9233 8.038 15.0997 8.33421 15.2054C8.63048 15.3111 8.9455 15.3433 9.25524 15.2995C9.56498 15.2557 9.86119 15.137 10.1212 14.9526C10.3812 14.7683 10.5982 14.523 10.7555 14.2357L16.7079 3.25003C16.8648 2.95999 16.9569 2.6354 16.9771 2.30138C16.9973 1.96737 16.9449 1.63289 16.8242 1.32386C16.7034 1.01483 16.5175 0.73952 16.2807 0.519268C16.0439 0.299015 15.7628 0.139721 15.4589 0.0537211C15.4522 0.0537211 15.4458 0.0508912 15.4411 0.045854C15.4363 0.0408168 15.4337 0.033985 15.4337 0.0268613C15.4337 0.0197377 15.4363 0.0129058 15.4411 0.00786863C15.4458 0.00283145 15.4522 1.59704e-06 15.4589 1.59704e-06H17.9821C18.4115 0.000493723 18.8333 0.121237 19.205 0.350109C19.5767 0.578981 19.8853 0.907924 20.0998 1.30391C20.3143 1.6999 20.4271 2.14899 20.427 2.6061C20.4269 3.0632 20.3139 3.51223 20.0991 3.90809ZM11.6816 1.59704e-06H9.21638C9.21137 0.00176787 9.20695 0.00518562 9.20382 0.00976759C9.2007 0.0143495 9.19903 0.0198617 9.19903 0.0255183C9.19903 0.0311749 9.2007 0.0366872 9.20382 0.0412691C9.20695 0.0458511 9.21137 0.0492688 9.21638 0.0510351C9.38244 0.119304 9.53264 0.22493 9.65682 0.360693C9.781 0.496457 9.87612 0.659159 9.93579 0.837672C9.99545 1.01619 10.0182 1.20631 10.0025 1.39504C9.98672 1.58377 9.93293 1.76666 9.8447 1.93122L6.25159 8.54677C6.15875 8.71453 6.03218 8.8583 5.88095 8.96782C5.72973 9.07735 5.55759 9.14987 5.37692 9.18016C5.19625 9.21045 5.01151 9.19777 4.83598 9.1431C4.66044 9.08836 4.49847 8.99295 4.36168 8.86369C4.35767 8.85801 4.35169 8.85423 4.34506 8.85325C4.33844 8.85222 4.33171 8.85406 4.32635 8.85836C4.321 8.8626 4.31746 8.86897 4.31652 8.87603C4.31557 8.88309 4.31729 8.89026 4.32131 8.89594L5.58293 11.2274C5.72458 11.489 5.92848 11.7063 6.17409 11.8574C6.41971 12.0085 6.69841 12.088 6.98207 12.088C7.26572 12.088 7.54442 12.0085 7.79002 11.8574C8.03563 11.7063 8.23957 11.489 8.38121 11.2274L13.082 2.57853C13.2238 2.31707 13.2984 2.02045 13.2984 1.71852C13.2983 1.4166 13.2235 1.12003 13.0815 0.858647C12.9396 0.597266 12.7355 0.38029 12.4897 0.229557C12.2439 0.0788246 11.9652 -0.000349382 11.6816 1.59704e-06ZM3.12529 1.59704e-06C2.70459 1.59704e-06 2.29334 0.132799 1.94354 0.381601C1.59375 0.630404 1.32111 0.984034 1.16012 1.39778C0.999121 1.81152 0.956998 2.26679 1.03907 2.70602C1.12115 3.14524 1.32373 3.5487 1.62121 3.86536C1.91869 4.18203 2.2977 4.39768 2.71032 4.48504C3.12293 4.57241 3.55062 4.52757 3.93929 4.3562C4.32797 4.18481 4.66017 3.8946 4.89391 3.52224C5.12763 3.14988 5.25238 2.71211 5.25238 2.26428C5.25271 1.96683 5.19792 1.67223 5.09114 1.39736C4.98436 1.12248 4.8277 0.872732 4.63011 0.662406C4.43253 0.452076 4.19791 0.285305 3.93969 0.171639C3.68146 0.0579739 3.40472 -0.000351877 3.12529 1.59704e-06Z" fill="#E6DAFE"/>
<path d="M37.1733 4.10864H35.0487L32.1451 11.4664L29.2556 4.10864H27.131L31.2244 14.2105H33.0799L37.1733 4.10864Z" fill="#E6DAFE"/>
<path d="M47.6334 12.3559H42.3503V10.0641H47.1944V8.23971H42.3503V5.96307H47.6051V4.10852H40.424V14.2104H47.6334V12.3559Z" fill="#E6DAFE"/>
<path d="M60.3213 4.10864H58.395V10.7729L53.1402 4.10864H51.5255V14.2105H53.4518V7.72721L58.7065 14.2105H60.3213V4.10864Z" fill="#E6DAFE"/>
<path d="M72.5976 4.10852H70.6714V9.68715C70.6714 10.5315 70.473 11.21 70.0764 11.7227C69.6797 12.2353 69.1558 12.4765 68.5188 12.4765C67.8386 12.4765 67.2862 12.2353 66.8755 11.7227C66.4648 11.21 66.2664 10.5315 66.2664 9.68715V4.10852H64.3402V9.68715C64.3402 11.1045 64.7223 12.2504 65.4876 13.1248C66.2524 13.9993 67.2581 14.4366 68.5188 14.4366C69.7368 14.4366 70.728 13.9993 71.4787 13.1248C72.2155 12.2504 72.5976 11.1045 72.5976 9.68715V4.10852Z" fill="#E6DAFE"/>
<path d="M80.1023 3.88208C78.9974 3.88208 78.1195 4.16855 77.4679 4.7415C76.8163 5.31444 76.4907 6.05321 76.4907 6.95785C76.4907 8.52595 77.3121 9.49089 78.9834 9.85273L80.9948 10.2598C81.391 10.3503 81.6745 10.486 81.8442 10.6519C82.0145 10.8328 82.0992 11.0589 82.0992 11.3605C82.0992 11.7374 81.9434 12.039 81.6604 12.2802C81.3629 12.5214 80.9522 12.642 80.4138 12.642C79.2383 12.642 78.5302 12.0993 78.2892 10.9986L76.2638 11.4359C76.377 12.4009 76.8022 13.1547 77.5385 13.6673C78.2752 14.18 79.1818 14.4363 80.23 14.4363C81.3629 14.4363 82.2695 14.1498 82.9636 13.5769C83.6433 13.0039 83.9974 12.235 83.9974 11.255C83.9974 10.486 83.771 9.85273 83.3318 9.37029C82.8925 8.88779 82.2835 8.54103 81.5047 8.36008L79.4647 7.92285C78.8277 7.8022 78.5161 7.45544 78.5161 6.89755C78.5161 6.5508 78.6573 6.24925 78.9408 6.008C79.2243 5.76675 79.5924 5.64614 80.0597 5.64614C80.5416 5.64614 80.9522 5.79693 81.3063 6.08339C81.6464 6.36985 81.8588 6.74678 81.9294 7.21419L83.8556 6.79205C83.6718 5.90244 83.2466 5.19382 82.567 4.66611C81.8868 4.15347 81.0654 3.88208 80.1023 3.88208Z" fill="#E6DAFE"/>
</svg>
