<svg width="131" height="22" viewBox="0 0 131 22" fill="none" xmlns="http://www.w3.org/2000/svg">
<path d="M33.6544 6.07188C33.598 5.88391 33.7108 5.75233 33.8989 5.75233H35.1402C35.253 5.75233 35.3658 5.84631 35.3846 5.9403L36.7952 11.3725H36.8516L39.0145 5.77113C39.0333 5.69594 39.1085 5.62076 39.2402 5.62076H39.4846C39.6163 5.62076 39.6915 5.69594 39.7103 5.77113L41.892 11.3725H41.9484L43.3401 5.9403C43.359 5.84631 43.4718 5.75233 43.5846 5.75233H44.8259C45.014 5.75233 45.1268 5.88391 45.0704 6.07188L42.4938 15.207C42.475 15.3198 42.3622 15.395 42.2493 15.395H42.0236C41.892 15.395 41.8167 15.3198 41.7979 15.2446L39.3906 9.09814H39.3154L36.908 15.2634C36.8704 15.3386 36.814 15.4138 36.6824 15.4138H36.4567C36.3438 15.4138 36.231 15.3386 36.2122 15.2258L33.6544 6.07188Z" fill="#242235"/>
<path d="M47.7798 6.01426C47.7798 5.88268 47.9115 5.7511 48.0431 5.7511H49.3032C49.4349 5.7511 49.5665 5.88268 49.5665 6.01426V15.0178C49.5665 15.1494 49.4349 15.281 49.3032 15.281H48.0431C47.9115 15.281 47.7798 15.1494 47.7798 15.0178V6.01426Z" fill="#242235"/>
<path d="M53.2049 5.86511C53.2049 5.73354 53.3366 5.62076 53.4682 5.62076H53.8067L59.4677 11.6357H59.4865V6.01549C59.4865 5.88391 59.5994 5.75233 59.7499 5.75233H60.9911C61.1228 5.75233 61.2544 5.88391 61.2544 6.01549V15.1694C61.2544 15.301 61.1228 15.4138 60.9911 15.4138H60.6526L54.9728 9.17332H54.954V15.0191C54.954 15.1507 54.8411 15.2822 54.6907 15.2822H53.4494C53.3178 15.2822 53.1861 15.1507 53.1861 15.0191L53.2049 5.86511Z" fill="#242235"/>
<path d="M66.1183 7.38641H64.0307C63.8802 7.38641 63.7674 7.25483 63.7674 7.12326V6.01426C63.7674 5.88268 63.8802 5.7511 64.0307 5.7511H69.9738C70.1243 5.7511 70.2371 5.88268 70.2371 6.01426V7.12326C70.2371 7.25483 70.1243 7.38641 69.9738 7.38641H67.8862V15.0178C67.8862 15.1494 67.7545 15.281 67.6229 15.281H66.3628C66.2312 15.281 66.0995 15.1494 66.0995 15.0178V7.38641H66.1183Z" fill="#242235"/>
<path d="M72.7717 6.01426C72.7717 5.88268 72.8846 5.7511 73.035 5.7511H78.5644C78.7148 5.7511 78.8277 5.88268 78.8277 6.01426V7.12326C78.8277 7.25483 78.7148 7.38641 78.5644 7.38641H74.5396V9.62321H77.9061C78.0378 9.62321 78.1694 9.75478 78.1694 9.88636V11.0142C78.1694 11.1645 78.0378 11.2773 77.9061 11.2773H74.5396V13.6645H78.5644C78.7148 13.6645 78.8277 13.7961 78.8277 13.9276V15.0366C78.8277 15.1682 78.7148 15.2998 78.5644 15.2998H73.035C72.8846 15.2998 72.7717 15.1682 72.7717 15.0366V6.01426Z" fill="#242235"/>
<path d="M82.0118 6.01426C82.0118 5.88268 82.1247 5.7511 82.2751 5.7511H86.1683C87.8045 5.7511 89.1398 7.04807 89.1398 8.66458C89.1398 9.90516 88.3123 10.939 87.1274 11.4089L88.9894 14.8675C89.0834 15.0366 88.9894 15.2622 88.7637 15.2622H87.3343C87.2027 15.2622 87.1462 15.187 87.1086 15.1306L85.3031 11.5217H83.7985V14.9802C83.7985 15.1118 83.6669 15.2434 83.5352 15.2434H82.2751C82.1247 15.2434 82.0118 15.1118 82.0118 14.9802V6.01426ZM85.999 10.0743C86.7137 10.0743 87.3531 9.45404 87.3531 8.68338C87.3531 7.9691 86.7325 7.36761 85.999 7.36761H83.7797V10.0743H85.999Z" fill="#242235"/>
<path d="M93.1626 5.80613C93.1814 5.69335 93.2566 5.59937 93.407 5.59937H93.6327C93.7456 5.59937 93.8208 5.65576 93.8584 5.73094L96.8488 12.1406C96.8676 12.1406 96.8676 12.1406 96.8864 12.1406L99.8768 5.73094C99.9144 5.65576 99.9896 5.59937 100.102 5.59937H100.328C100.479 5.59937 100.554 5.69335 100.573 5.80613L102.171 14.9413C102.209 15.1293 102.096 15.2608 101.927 15.2608H100.704C100.573 15.2608 100.479 15.1481 100.441 15.0541L99.6323 9.90379C99.6135 9.90379 99.5946 9.90379 99.5946 9.90379L97.2061 15.242C97.1873 15.3172 97.0933 15.3924 96.9804 15.3924H96.7547C96.6231 15.3924 96.5667 15.3172 96.5291 15.242L94.1217 9.90379C94.1217 9.90379 94.1029 9.90379 94.0841 9.90379L93.2942 15.0541C93.2754 15.1481 93.1625 15.2608 93.0497 15.2608H91.8272C91.658 15.2608 91.5451 15.1293 91.5639 14.9413L93.1626 5.80613Z" fill="#242235"/>
<path d="M104.992 6.01426C104.992 5.88268 105.124 5.7511 105.255 5.7511H106.553C106.703 5.7511 106.816 5.88268 106.816 6.01426V11.5781C106.816 12.7247 107.606 13.6457 108.791 13.6457C109.976 13.6457 110.785 12.7435 110.785 11.5969V6.03305C110.785 5.90147 110.898 5.7699 111.048 5.7699H112.346C112.477 5.7699 112.609 5.90147 112.609 6.03305V11.6908C112.609 13.7585 110.973 15.4314 108.81 15.4314C106.685 15.4314 105.03 13.7585 105.03 11.6908V6.01426H104.992Z" fill="#242235"/>
<path d="M117.383 7.38641H115.296C115.145 7.38641 115.032 7.25483 115.032 7.12326V6.01426C115.032 5.88268 115.145 5.7511 115.296 5.7511H121.239C121.389 5.7511 121.502 5.88268 121.502 6.01426V7.12326C121.502 7.25483 121.389 7.38641 121.239 7.38641H119.151V15.0178C119.151 15.1494 119.038 15.281 118.888 15.281H117.628C117.496 15.281 117.364 15.1494 117.364 15.0178V7.38641H117.383Z" fill="#242235"/>
<path d="M124.043 6.01426C124.043 5.88268 124.156 5.7511 124.307 5.7511H129.836C129.987 5.7511 130.099 5.88268 130.099 6.01426V7.12326C130.099 7.25483 129.987 7.38641 129.836 7.38641H125.811V9.62321H129.178C129.31 9.62321 129.441 9.75478 129.441 9.88636V11.0142C129.441 11.1645 129.328 11.2773 129.178 11.2773H125.811V13.6645H129.836C129.987 13.6645 130.099 13.7961 130.099 13.9276V15.0366C130.099 15.1682 129.987 15.2998 129.836 15.2998H124.307C124.156 15.2998 124.043 15.1682 124.043 15.0366V6.01426Z" fill="#242235"/>
<path d="M0.103516 13.7028C0.103516 13.7215 0.103516 13.7403 0.103516 13.7591C0.103516 13.7779 0.103516 13.7967 0.103516 13.8155V13.8343C0.103516 13.8531 0.103516 13.8531 0.103516 13.8719C0.103516 13.8907 0.103516 13.9095 0.103516 13.9283C0.103516 13.9471 0.103516 13.9659 0.122323 13.9847C0.122323 14.0035 0.14113 14.0223 0.14113 14.0411C0.14113 14.0599 0.159938 14.0787 0.159938 14.0975C0.159938 14.1163 0.178745 14.1351 0.178745 14.1351C0.197552 14.1539 0.197553 14.1727 0.21636 14.1727C0.235167 14.1915 0.235167 14.2103 0.253975 14.2103C0.272782 14.2291 0.272781 14.2291 0.291589 14.2479C0.310396 14.2666 0.310396 14.2667 0.329204 14.2854C0.348011 14.3042 0.366818 14.3042 0.385625 14.323C0.404433 14.323 0.404433 14.3418 0.42324 14.3418L13.7012 20.977H13.72C13.72 20.977 13.7388 20.977 13.7388 20.9958H13.7576C13.7764 20.9958 13.7764 20.9958 13.7952 21.0146C13.8141 21.0146 13.814 21.0146 13.8329 21.0146H13.8517H13.8705C13.8893 21.0146 13.8893 21.0146 13.9081 21.0146C13.9269 21.0146 13.9269 21.0146 13.9457 21.0146C13.9645 21.0146 13.9645 21.0146 13.9833 21.0146C14.0021 21.0146 14.0021 21.0146 14.0209 21.0146C14.0397 21.0146 14.0397 21.0146 14.0585 21.0146H14.0774H14.0962C14.115 21.0146 14.115 21.0146 14.1338 21.0146C14.1526 21.0146 14.1526 21.0146 14.1714 20.9958H14.1902C14.1902 20.9958 14.209 20.9958 14.209 20.977H14.2278L27.5058 14.3418C27.5246 14.3418 27.5246 14.323 27.5434 14.323C27.5622 14.3042 27.581 14.3042 27.5998 14.2854C27.6186 14.2667 27.6186 14.2666 27.6374 14.2479C27.6562 14.2291 27.6562 14.2291 27.675 14.2103C27.6939 14.1915 27.6938 14.1915 27.7127 14.1727C27.7315 14.1539 27.7315 14.1351 27.7503 14.1351C27.7691 14.1163 27.7691 14.0975 27.7691 14.0975C27.7691 14.0787 27.7879 14.0599 27.7879 14.0411C27.7879 14.0223 27.8067 14.0035 27.8067 13.9847C27.8067 13.9659 27.8067 13.9471 27.8255 13.9283C27.8255 13.9095 27.8255 13.8907 27.8255 13.8719C27.8255 13.8531 27.8255 13.8531 27.8255 13.8343V13.8155C27.8255 13.7967 27.8255 13.7779 27.8255 13.7591C27.8255 13.7403 27.8255 13.7215 27.8255 13.7028C27.8255 13.684 27.8067 13.6652 27.8067 13.6464C27.8067 13.6276 27.7879 13.6088 27.7879 13.59V13.5712L21.1489 0.300747C21.1489 0.300747 21.1489 0.28195 21.1301 0.28195C21.1113 0.244356 21.0925 0.206763 21.0549 0.187966L21.0361 0.169171C20.9984 0.131578 20.9796 0.11278 20.942 0.0939832C20.9232 0.0939832 20.9232 0.0751883 20.9044 0.0751883C20.8668 0.0563916 20.848 0.0375927 20.8104 0.0375927C20.7916 0.0375927 20.7916 0.0375944 20.7728 0.0187978C20.7351 1.14698e-06 20.6787 0 20.6411 0H20.6223C20.5847 0 20.5471 1.14698e-06 20.5283 0.0187978C20.5095 0.0187978 20.5095 0.0187961 20.4906 0.0375927C20.453 0.0375927 20.4342 0.0563916 20.4154 0.0751883H20.3966C20.3778 0.0751883 20.3778 0.0939832 20.359 0.0939832C20.3402 0.11278 20.3214 0.112779 20.3026 0.131576C20.2838 0.150373 20.2838 0.150375 20.265 0.169171C20.2462 0.187968 20.2462 0.187968 20.2273 0.206764C20.2085 0.225561 20.2085 0.22556 20.1897 0.244357C20.1709 0.263154 20.1709 0.28195 20.1521 0.28195C20.1333 0.300746 20.1333 0.319542 20.1333 0.319542C20.1333 0.338339 20.1145 0.357136 20.1145 0.375933C20.1145 0.394729 20.0957 0.413527 20.0957 0.432323C20.0957 0.45112 20.0957 0.469917 20.0769 0.488714C20.0769 0.50751 20.0769 0.526308 20.0769 0.545104C20.0769 0.563901 20.0769 0.5639 20.0769 0.582697V12.5186L14.3783 6.82318C14.3595 6.80438 14.3218 6.76679 14.2842 6.74799C14.2654 6.74799 14.2654 6.7292 14.2466 6.7292C14.2278 6.7104 14.209 6.7104 14.1902 6.6916C14.1714 6.6916 14.1526 6.67281 14.1338 6.67281C14.115 6.67281 14.0962 6.65401 14.0774 6.65401C14.0397 6.65401 14.0021 6.63521 13.9645 6.63521C13.9269 6.63521 13.8893 6.63521 13.8517 6.65401C13.8329 6.65401 13.8141 6.67281 13.7952 6.67281C13.7764 6.67281 13.7576 6.6916 13.7388 6.6916C13.72 6.6916 13.7012 6.7104 13.6824 6.7292C13.6636 6.7292 13.6636 6.74799 13.6448 6.74799C13.6072 6.76679 13.5884 6.78559 13.5507 6.82318L7.85213 12.5186V0.582697C7.85213 0.5639 7.85213 0.563901 7.85213 0.545104C7.85213 0.526308 7.85213 0.50751 7.85213 0.488714C7.85213 0.469917 7.85213 0.45112 7.83332 0.432323C7.83332 0.413527 7.81452 0.394729 7.81452 0.375933C7.81452 0.357136 7.79571 0.338339 7.79571 0.319542C7.79571 0.300746 7.7769 0.28195 7.7769 0.28195C7.75809 0.263153 7.75809 0.244357 7.73929 0.244357C7.72048 0.22556 7.72048 0.206764 7.70167 0.206764C7.68286 0.187968 7.68287 0.187968 7.66406 0.169171C7.64525 0.150375 7.64525 0.150373 7.62644 0.131576C7.60764 0.112779 7.58883 0.11278 7.57002 0.0939832C7.55121 0.0939832 7.55121 0.0751883 7.53241 0.0751883H7.5136C7.49479 0.0563916 7.45718 0.0563893 7.43837 0.0375927C7.41956 0.0375927 7.41956 0.0375944 7.40076 0.0187978C7.36314 0.0187978 7.34433 0 7.30672 0H7.28791C7.2503 0 7.19387 1.14698e-06 7.15626 0.0187978C7.13745 0.0187978 7.13745 0.0187961 7.11865 0.0375927C7.08103 0.0563893 7.04342 0.0563916 7.02461 0.0751883C7.0058 0.0751883 7.0058 0.0939832 6.98699 0.0939832C6.94938 0.11278 6.91176 0.150375 6.89296 0.169171L6.87415 0.187966C6.85534 0.22556 6.81773 0.244356 6.79892 0.28195C6.79892 0.28195 6.79892 0.300747 6.78011 0.300747L0.14113 13.5712V13.59C0.14113 13.6088 0.122323 13.6276 0.122323 13.6464C0.122323 13.6652 0.103516 13.684 0.103516 13.7028ZM7.04342 14.3794L11.1058 18.4395L2.98104 14.3794H7.04342ZM20.7728 14.3794H24.8351L16.7104 18.4395L20.7728 14.3794ZM21.1113 13.2704V2.89468L26.3021 13.2704H21.1113ZM14.4723 19.1162V8.51488L19.776 13.8155L14.4723 19.1162ZM13.3627 19.1162L8.05901 13.8155L13.3627 8.51488V19.1162ZM1.53287 13.2704L6.72369 2.89468V13.2704H1.53287Z" fill="#242235"/>
</svg>
