<svg width="78" height="21" viewBox="0 0 78 21" fill="none" xmlns="http://www.w3.org/2000/svg">
<path d="M5.66563 20.0426V18.4911H2.54558V16.9225H0.99408V6.98269H2.54558V0.759644H7.79681V2.29409H15.5373V0.759644H20.7885V6.98269H22.34V16.9225H20.7885V18.4911H17.6684V20.0426H5.66563Z" fill="white"/>
<path d="M20.4967 2.56702H2.83353V18.1843H20.4967V2.56702Z" fill="#877F9C"/>
<path d="M5.93652 15.5928H2.83353V16.6328H5.93652V15.5928Z" fill="#BBB0D1"/>
<path d="M20.499 15.5928H17.379V16.6328H20.499V15.5928Z" fill="#BBB0D1"/>
<path d="M17.395 17.144H5.9548V18.1841H17.395V17.144Z" fill="#BBB0D1"/>
<path d="M15.8247 2.56702H7.50458V4.08442H15.8247V2.56702Z" fill="#E6DAFE"/>
<path d="M18.9456 7.27261H20.4971V2.56696V1.04956H18.9456H15.8256V2.56696H18.9456V7.27261Z" fill="#E6DAFE"/>
<path d="M22.0517 7.27258H20.5002V16.6327H22.0517V7.27258Z" fill="#E6DAFE"/>
<path d="M4.40207 2.56696H7.50507V1.04956H4.40207H2.83353V2.56696V7.27261H4.40207V2.56696Z" fill="#E6DAFE"/>
<path d="M4.40207 16.6498H2.83353V18.2013H4.40207H5.95357V16.6498H4.40207Z" fill="#E6DAFE"/>
<path d="M17.395 18.2012H5.9548V19.7527H17.395V18.2012Z" fill="#E6DAFE"/>
<path d="M17.379 16.6498V18.2013H18.9475H20.499V16.6498H18.9475H17.379Z" fill="#E6DAFE"/>
<path d="M2.83525 7.27258H1.28375V16.6327H2.83525V7.27258Z" fill="#E6DAFE"/>
<path d="M17.3763 3.11255H16.8648V4.16961H17.3763V4.66405H18.4334V4.16961V3.11255H17.3763Z" fill="#BBB0D1"/>
<path d="M6.48518 3.11255H5.99075H4.93369V4.16961V4.66405H5.99075V4.16961H6.48518V3.11255Z" fill="#BBB0D1"/>
<path d="M9.09017 9.8811H7.50458V11.4667H9.09017V9.8811Z" fill="#E6DAFE"/>
<path d="M10.6256 11.4325H9.56854V12.4896H10.6256V11.4325Z" fill="#E6DAFE"/>
<path d="M13.765 11.4325H12.7079V12.4896H13.765V11.4325Z" fill="#E6DAFE"/>
<path d="M13.7635 14.5525H12.7064V14.041H10.6264V14.5525H9.56934V12.4895H8.52933V16.104H9.56934V16.6496H10.6264V17.144H11.1208V17.6555H12.1779V17.144H12.7064V16.6496H13.7635V16.104H14.8035V12.4895H13.7635V14.5525Z" fill="#E6DAFE"/>
<path d="M15.8252 9.8811H14.2396V11.4667H15.8252V9.8811Z" fill="#E6DAFE"/>
<path d="M27.5386 16.411L25.1858 14.0752V6.4541H28.1183V12.8988L28.698 13.4785L29.2776 12.8988V6.4541H32.2101V12.9158L32.7898 13.4785L33.3695 12.8988V6.4541H36.302V14.0582L33.9662 16.3939H31.6305L30.7609 15.5244L29.8914 16.3939L27.5386 16.411Z" fill="#E6DAFE"/>
<path d="M37.0553 16.411V6.4541H44.0797V16.411H37.0553ZM41.1472 13.4785V9.3866H39.9708V13.4785H41.1472Z" fill="#E6DAFE"/>
<path d="M44.8114 16.411V6.4541H47.1472L49.2613 8.56823L51.3925 6.4541H53.7283V16.411H50.7958V11.1427L49.2613 12.6771L47.7269 11.1427V16.411H44.8114Z" fill="#E6DAFE"/>
<path d="M54.4613 16.411V6.4541H60.3093L61.4857 7.63051V10.546L60.3093 11.7224L61.4857 12.8988V15.2346L60.3093 16.411H54.4613ZM58.5532 10.563V9.3866H57.3768V10.563H58.5532ZM58.5532 13.4785V12.3021H57.3768V13.4785H58.5532Z" fill="#E6DAFE"/>
<path d="M62.2174 16.411V6.4541H69.2418V16.411H66.3093V14.3991H65.1329V16.411H62.2174ZM66.3093 11.7224V9.3866H65.1329V11.7224H66.3093Z" fill="#E6DAFE"/>
<path d="M71.7333 16.411V9.3866H69.9772V6.4541H77.0016V9.3866H75.2455V16.411H71.7333Z" fill="#E6DAFE"/>
</svg>
