<svg width="64" height="13" viewBox="0 0 64 13" fill="none" xmlns="http://www.w3.org/2000/svg">
<path d="M18.9617 0.600586H27.0327L20.9996 10.7988H27.0327V12.5774H17.8981L24.0027 2.21835H18.9528L18.9617 0.600586Z" fill="#E6DAFE"/>
<path d="M32.1093 0.600586H38.7234V2.29879H34.0757V5.24831H38.7234V6.95545H34.0757V10.7809H38.7234V12.5774H32.1093V0.600586Z" fill="#E6DAFE"/>
<path d="M43.0934 0.600586H51.3252V2.29879H48.1076V12.5774H46.2306V2.29879H43.0934V0.600586Z" fill="#E6DAFE"/>
<path d="M58.4318 0.600586L52.8456 12.5774H54.8387L56.1705 9.54745H60.6573L61.998 12.5774H64.0001L58.4318 0.600586ZM56.8408 8.01907L58.4139 4.17576L60.0049 8.01907H56.8408Z" fill="#E6DAFE"/>
<path d="M12.8905 0.600586V12.5774H11.3442V8.58216H7.59924L12.8905 0.600586Z" fill="#E6DAFE"/>
<path d="M0.200775 12.5774V0.600586H1.74704V4.60478H5.49203L0.200775 12.5774Z" fill="#E6DAFE"/>
</svg>
