<svg width="65" height="12" viewBox="0 0 65 12" fill="none" xmlns="http://www.w3.org/2000/svg">
<path d="M19.3605 0.0117188H27.4314L21.3983 10.2099H27.4314V11.9885H18.2969L24.4015 1.62948H19.3516L19.3605 0.0117188Z" fill="#E6DAFE"/>
<path d="M32.5078 0.0117188H39.1219V1.70992H34.4742V4.65944H39.1219V6.36658H34.4742V10.192H39.1219V11.9885H32.5078V0.0117188Z" fill="#E6DAFE"/>
<path d="M43.4922 0.0117188H51.724V1.70992H48.5064V11.9885H46.6294V1.70992H43.4922V0.0117188Z" fill="#E6DAFE"/>
<path d="M58.8303 0.0117188L53.2441 11.9885H55.2373L56.5691 8.95858H61.0559L62.3966 11.9885H64.3987L58.8303 0.0117188ZM57.2394 7.4302L58.8125 3.58689L60.4034 7.4302H57.2394Z" fill="#E6DAFE"/>
<path d="M13.2893 0.0117188V11.9885H11.743V7.99329H7.99805L13.2893 0.0117188Z" fill="#E6DAFE"/>
<path d="M0.599609 11.9885V0.0117188H2.14587V4.01591H5.89086L0.599609 11.9885Z" fill="#E6DAFE"/>
</svg>
